<?xml version="1.0" encoding="utf-8"?>
<!-- Generator: Adobe Illustrator 23.0.2, SVG Export Plug-In . SVG Version: 6.00 Build 0)  -->
<svg version="1.1" id="Layer_1" xmlns="http://www.w3.org/2000/svg" xmlns:xlink="http://www.w3.org/1999/xlink" x="0px" y="0px"
	 viewBox="0 0 566.9 566.9" style="enable-background:new 0 0 566.9 566.9;" xml:space="preserve">
<style type="text/css">
	.st0{opacity:0.6;}
</style>
<rect x="0" y="0" class="st0" width="566.9" height="566.9"/>
<title>overviewx</title>
<g>
	<rect x="323.2" y="334.7" transform="matrix(0.1481 -0.989 0.989 0.1481 -57.1166 624.0927)" width="20.9" height="20.9"/>
	<rect x="338.1" y="42.8" transform="matrix(0.1922 -0.9814 0.9814 0.1922 229.8724 379.3471)" width="14.6" height="14.6"/>
	<polygon points="400.5,54.8 434.6,88.9 447,42.3 	"/>
	<polygon points="466,243.9 469.4,213.1 441,225.6 	"/>
	<rect x="178.2" y="146" transform="matrix(0.9725 -0.2329 0.2329 0.9725 -30.5977 47.4089)" width="14.6" height="14.6"/>
	<path d="M45.1,155c0-5.4-4.5-9.9-10-9.9c-5.4,0-9.9,4.4-9.9,9.9c0,5.4,4.4,9.9,9.9,9.9S45,160.5,45.1,155z"/>
	<rect x="286.5" y="267.4" transform="matrix(0.9725 -0.2329 0.2329 0.9725 -55.8886 75.9629)" width="14.6" height="14.6"/>
	<polygon points="202,200.7 221.6,232.9 239.7,199.9 	"/>
	<polygon points="213.6,322.3 210.6,366.6 250.4,347 	"/>
	<rect x="408.4" y="149.7" transform="matrix(0.1859 -0.9826 0.9826 0.1859 184.7524 529.982)" width="7.5" height="7.5"/>
	<path d="M327.1,18.6c10.5,0,19.1-8.1,20-18.3c0-0.1,0-0.2,0-0.3h-40c0,0.1,0,0.2,0,0.3C308,10.5,316.6,18.6,327.1,18.6z"/>
	<path d="M559.3,234.8c0,4.4,3.1,8.2,7.3,9.2c0.1,0,0.2,0,0.3,0v-18.7c-0.1,0-0.2,0.1-0.3,0.1C562.4,226.4,559.3,230.4,559.3,234.8z
		"/>
	<polygon points="549.9,451.3 566.6,463.5 566.9,463.8 566.9,443.8 566.6,443.9 	"/>
	<polygon points="537.1,307 530.2,352.8 566.6,358.3 566.9,358.4 566.9,311.6 566.6,311.5 	"/>
	<polygon points="0.6,464.4 3,442.2 0.3,443.4 0,443.5 0,463.9 0.3,464.2 	"/>
	<polygon points="8.7,359.7 15.6,313.9 0.3,311.6 0,311.5 0,358.3 0.3,358.4 	"/>
	<path d="M327,545.7c-11.1,0-20.1,9-20.1,20.1c0,0.3,0,0.5,0,0.8c0,0.1,0,0.2,0,0.3h40.2c0-0.1,0-0.2,0-0.3c0-0.3,0-0.5,0-0.8
		C347.1,554.7,338.1,545.7,327,545.7z"/>
	<circle cx="103.8" cy="515.1" r="47.1"/>
	<path d="M1.5,244.1c5.2,0,9.5-4.3,9.5-9.5c0-5.2-4.3-9.5-9.5-9.5c-0.4,0-0.8,0-1.2,0.1c-0.1,0-0.2,0-0.3,0.1V244c0.1,0,0.2,0,0.3,0
		C0.7,244.1,1.1,244.1,1.5,244.1z"/>
	<path d="M418.5,303.7c5.4,0,9.9-4.5,10-9.9c0-5.5-4.5-10-10-10s-10,4.5-10,10C408.5,299.2,413,303.7,418.5,303.7z"/>
	<rect x="46.3" y="39.3" transform="matrix(0.973 -0.2308 0.2308 0.973 -13.9635 19.5311)" width="60.3" height="60.2"/>
	<circle cx="520" cy="130.9" r="28.1"/>
	<polygon points="237.4,535.9 276.3,545.1 264.8,506.9 	"/>
	<rect x="114.1" y="376.6" transform="matrix(0.1922 -0.9814 0.9814 0.1922 -278.6648 429.1801)" width="14.6" height="14.6"/>
	<polygon points="184.3,99.9 186.7,77.7 166.3,86.7 	"/>
	<polygon points="420.9,381.1 402.1,452.3 473.2,433 	"/>
	<polygon points="503.1,535.4 483.6,524.6 484,547 	"/>
	<ellipse transform="matrix(0.7071 -0.7071 0.7071 0.7071 -219.0982 355.8502)" cx="320" cy="442.4" rx="28.1" ry="28.1"/>
	<polygon points="61.1,365.6 63.5,343.4 43.1,352.4 	"/>
	<path d="M566.6,468.5l-24.8-18.2l24.8-10.9l0.3-0.1v-72l-0.3-0.1l-46.4-7l9.5-63.2l36.9,5.6l0.3,0.1v-55c-0.1,0-0.2,0-0.3,0
		c-6.2-1.1-11-6.5-11-13s4.8-11.9,11-12.9c0.1-0.1,0.2-0.1,0.3-0.1V0H354.8c0,0.1,0,0.2,0,0.3c-0.9,14.5-13,26-27.7,26
		s-26.8-11.5-27.7-26c0-0.1,0-0.2,0-0.3H142.5c-0.2,0.1-0.3,0.2-0.4,0.3c-10.7,7.8-24,12.5-38.3,12.5c-14.3,0-27.5-4.6-38.3-12.5
		C65.4,0.2,65.2,0.1,65,0H0v221.6c0.1,0,0.2,0,0.3,0c0.4-0.1,0.8-0.1,1.2-0.1c7.2,0,13.1,6,13.1,13.2s-5.9,13.1-13.1,13.1
		c-0.4,0-0.8-0.1-1.2-0.1c-0.1-0.1-0.2-0.1-0.3-0.1v55l0.3,0.1l25.3,3.8l-9.5,63.2l-15.8-2.4L0,367.2v71.9l0.3-0.1l7.5-3.4l-4,36.2
		l-3.5-2.6L0,468.9v98h64.5c-0.1-0.1-0.3-0.2-0.4-0.3c-15.4-11.9-25.3-30.6-25.3-51.5c0-35.8,29.2-65,65-65c35.9,0,65,29.2,65,65
		c0,21-9.9,39.6-25.3,51.5c-0.2,0.1-0.3,0.2-0.5,0.3h156.2c0-0.1,0-0.2,0-0.3c0-0.3,0-0.5,0-0.8c0-15.3,12.5-27.8,27.8-27.8
		c15.4,0,27.8,12.5,27.8,27.8c0,0.3,0,0.5,0,0.8c0,0.1,0,0.2,0,0.3h212.1v-98.2L566.6,468.5z M493.5,40.4l5-4.9l19.4,19.4l19.4-19.4
		l5,4.9l-19.5,19.4l19.5,19.5l-5,4.9l-19.4-19.4l-19.4,19.4l-5-4.9l19.4-19.5L493.5,40.4z M418.5,280c7.5,0,13.7,6.2,13.7,13.7
		s-6.1,13.7-13.7,13.7c-7.5,0-13.7-6.1-13.7-13.7C404.8,286.2,410.9,280,418.5,280z M406.2,157.6l2-10.2l10.2,2l-2,10.2L406.2,157.6
		z M429.7,224.3l46.4-20.4l-5.5,50.4L429.7,224.3z M458.6,155l-12.9-7.2l-7.2,13l-3.3-1.8l7.2-13l-13-7.1l1.8-3.3l13,7.1l7.1-13
		l3.3,1.9l-7.1,12.9l13,7.2L458.6,155z M459.5,30l-20.4,75.9l-55.6-55.6L459.5,30z M337.4,38.2l19.7,3.8l-3.8,19.8L333.5,58
		L337.4,38.2z M246.6,73.6l42.2,23.3l23.3-42.2l10.8,5.9l-23.3,42.3l42.2,23.3l-6,10.8l-42.2-23.4l-23.3,42.3l-10.8-6l23.3-42.2
		l-42.2-23.3L246.6,73.6z M350.1,333l-4.3,28.6l-28.6-4.3l4.3-28.6L350.1,333z M305.9,282.2l-19.6,4.6l-4.6-19.6l19.6-4.6
		L305.9,282.2z M206.4,307.7l60.1,40.3l-64.9,31.9L206.4,307.7z M189.9,194.1l61.6-1.4l-29.6,54L189.9,194.1z M178,165.4l-4.6-19.6
		l19.6-4.6l4.6,19.6L178,165.4z M171.5,22.7l3.7-1l3.7,14.4l14.4-3.8l0.9,3.7l-14.3,3.7l3.7,14.4L180,55l-3.8-14.3l-14.3,3.7l-1-3.7
		l14.4-3.7L171.5,22.7z M107.4,19.4l19.2,81l-81,19.2l-19.2-81L107.4,19.4z M21.4,154.9c0-7.5,6.1-13.7,13.7-13.7
		c7.5,0,13.7,6.2,13.7,13.7s-6.1,13.7-13.7,13.7C27.6,168.6,21.4,162.5,21.4,154.9z M64.4,373.1L35,351.6l33.3-14.7L64.4,373.1z
		 M129.3,395.6l-19.8-3.8l3.8-19.8l19.8,3.8L129.3,395.6z M157.9,284.4l-11.1,11l-43.3-43.3l-43.3,43.3l-11.1-11L92.4,241
		l-43.3-43.3l11.1-11l43.3,43.3l43.3-43.3l11.1,11L114.6,241L157.9,284.4z M158.2,85.9l33.3-14.7l-3.9,36.2L158.2,85.9z
		 M196.3,474.6l-7.1-2.7l10.8-28.1L172,433l2.8-7.2l28,10.9l10.9-28l7.1,2.8l-10.8,28l28,10.8l-2.8,7.2l-28-10.9L196.3,474.6z
		 M223.4,540.1l44.7-47.4l18.7,62.4L223.4,540.1z M320,481.2c-21.4,0-38.8-17.4-38.8-38.8c0-21.4,17.4-38.8,38.8-38.8
		c21.4,0,38.8,17.4,38.8,38.8C358.8,463.8,341.4,481.2,320,481.2z M379.6,229.6l-3.8,3.9l-15.2-15.2l-15.2,15.2l-3.9-3.9l15.2-15.1
		l-15.2-15.2l3.9-3.9l15.2,15.2l15.2-15.2l3.8,3.9l-15.1,15.2L379.6,229.6z M413.8,355.2l85.3,84.7l-116,31.5L413.8,355.2z
		 M416.2,528l-11.4-9.4l-9.4,11.4l-2.9-2.4l9.4-11.4l-11.4-9.4l2.4-2.9l11.4,9.4l9.4-11.4l2.9,2.4l-9.4,11.4l11.4,9.4L416.2,528z
		 M480.1,554.1l-0.7-36.4l31.9,17.6L480.1,554.1z M481.2,130.9c0-21.4,17.4-38.8,38.8-38.8c21.4,0,38.8,17.4,38.8,38.8
		s-17.4,38.8-38.8,38.8C498.6,169.7,481.2,152.3,481.2,130.9z"/>
</g>
</svg>
