<?xml version="1.0" encoding="utf-8"?>
<!-- Generator: Adobe Illustrator 23.0.3, SVG Export Plug-In . SVG Version: 6.00 Build 0)  -->
<svg version="1.1" id="Layer_1" xmlns="http://www.w3.org/2000/svg" xmlns:xlink="http://www.w3.org/1999/xlink" x="0px" y="0px"
	 viewBox="0 0 566.9 566.9" style="enable-background:new 0 0 566.9 566.9;" xml:space="preserve">
<style type="text/css">
	.st0{opacity:5.000000e-02;fill:#131414;enable-background:new    ;}
	.st1{opacity:0.2;fill:#FB006E;enable-background:new    ;}
</style>
<title>Overviewpattern_2</title>
<g>
	<g id="Layer_1-2">
		<g id="Layer_1-2-2">
			<g>
				<polygon class="st0" points="245.8,526.6 206.5,491.5 195.7,543.1 				"/>
				<polygon class="st0" points="383,0 371.2,0 379.8,5.3 				"/>
				<polygon class="st0" points="155,6.4 151,0 137.2,0 133.3,7.3 				"/>
				
					<rect x="270.3" y="195.1" transform="matrix(0.1205 -0.9927 0.9927 0.1205 42.4551 465.9664)" class="st0" width="27.9" height="27.9"/>
				
					<rect x="209.2" y="278.5" transform="matrix(0.1205 -0.9927 0.9927 0.1205 -94.9883 493.4578)" class="st0" width="43.6" height="43.6"/>
				<path class="st0" d="M566.9,461.1v-16.3C563.2,449.6,563.2,456.3,566.9,461.1z"/>
				<polygon class="st0" points="293.4,66.6 259.5,107 311.5,116.2 				"/>
				<polygon class="st0" points="204.4,232.3 167,204.2 161.4,250.6 				"/>
				<path class="st0" d="M10.7,466.4c7.4,0,13.5-6,13.6-13.4c0-7.4-6-13.5-13.4-13.6c-4.2,0-8.3,2-10.8,5.3V461
					C2.5,464.4,6.5,466.4,10.7,466.4z"/>
				<path class="st0" d="M86.1,263.9c-13.3,0-24,10.7-24,24s10.7,24,24,24s24-10.7,24-24S99.3,263.9,86.1,263.9z"/>
				<circle class="st0" cx="108.7" cy="494.2" r="36"/>
				<polygon class="st0" points="8.1,276.6 0,279.6 0,300.8 14.9,295.5 				"/>
				<circle class="st0" cx="78.3" cy="46.8" r="17.9"/>
				
					<rect x="20.3" y="189" transform="matrix(0.1205 -0.9927 0.9927 0.1205 -171.4072 212.5152)" class="st0" width="27.9" height="27.9"/>
				<polygon class="st0" points="0,26.8 0,44.2 10.7,43.8 				"/>
				<polygon class="st0" points="32.9,366.7 38.9,419.1 81.3,387.7 				"/>
				
					<rect x="171.9" y="38.2" transform="matrix(0.2331 -0.9725 0.9725 0.2331 90.4036 232.5001)" class="st0" width="41.4" height="41.4"/>
				<polygon class="st0" points="509.7,342.1 472.4,314.1 466.8,360.5 				"/>
				
					<rect x="490.4" y="399.4" transform="matrix(0.4123 -0.911 0.911 0.4123 -78.8826 696.5162)" class="st0" width="20" height="20"/>
				
					<rect x="479.1" y="238.5" transform="matrix(0.9968 -7.974764e-02 7.974764e-02 0.9968 -18.8551 40.4399)" class="st0" width="35.6" height="35.6"/>
				<polygon class="st0" points="566,25.4 555.9,44.6 566.9,44.2 566.9,26.8 				"/>
				<polygon class="st0" points="16.1,509.4 5.3,561 55.4,544.5 				"/>
				
					<rect x="288.4" y="457.7" transform="matrix(0.1205 -0.9927 0.9927 0.1205 -203.1556 729.7012)" class="st0" width="43.6" height="43.6"/>
				<circle class="st0" cx="301.8" cy="278.3" r="13.5"/>
				<ellipse class="st0" cx="514.1" cy="178.8" rx="13.5" ry="13.5"/>
				<path class="st0" d="M566.9,22.1V2.3l-2.8,0.9l0.7-3.2H391.2l-5.5,8.9l34.8,21.4l-3.7,6L382,14.9l-21.4,34.8l-5.9-3.7l21.4-34.8
					L357.9,0h-204l5.5,8.8L129.1,10l5.2-10H6.8L0,2.3v19.9l15.1,24L0,46.7v67.7l4.1,30.4L0,143.1v133.8l9.6-3.5l8.5,23.5L0,303.5
					V440c7.2-5.9,17.8-4.9,23.7,2.3c5.9,7.2,4.9,17.8-2.3,23.7c-6.2,5.1-15.2,5.1-21.4,0v90.7l12.3-58.8l55,49.1L6.8,566.9h127.5
					l8.9-16.9l10.7,16.9h204l-16.6-10.2l3.7-5.9l26.3,16.2H383l18.2-29.6l5.9,3.7L391.2,567h173.5l2.1-10.3V466
					c-3.9-3.2-6.2-8-6.2-13.1c0-5,2.3-9.8,6.2-13V303.5l-5.4,2l-8.5-23.5l13.9-5V143.1l-56.4-23.2L562.3,80l4.6,34.4V46.7l-15.2,0.6
					l14.1-26.9L566.9,22.1z M484.4,25.3l22.8,10.3l-10.3,22.8l-22.8-10.3L484.4,25.3z M517.3,232.5l3.7,44.2l-44.2,3.6l-3.6-44.2
					L517.3,232.5z M520.5,343.4L460.3,369l7.9-64.9L520.5,343.4z M455.7,71.9l7.9,89.7l-89.7,7.9L366,79.8L455.7,71.9z M377.9,216.9
					l-10.2-25.8l4.4-1.8l10.2,25.8l25.7-10.3l1.8,4.4L384,219.5l10.2,25.8l-4.4,1.7l-10.2-25.8l-25.7,10.2l-1.8-4.4L377.9,216.9z
					 M320.8,124l-72.7-12.8l47.5-56.6L320.8,124z M318.6,278.3L318.6,278.3c0,9.3-7.5,16.9-16.8,16.9s-16.9-7.5-16.9-16.8
					s7.5-16.9,16.9-16.9C311.1,261.4,318.6,269,318.6,278.3z M254.8,330.7l-54.1-6.6l6.6-54.1l54.1,6.6L254.8,330.7z M154.9,259.2
					l7.9-64.9l52.3,39.3L154.9,259.2z M240.9,152.9c0,12.9-10.4,23.3-23.3,23.3c-12.9,0-23.3-10.4-23.3-23.3
					c0-12.9,10.4-23.3,23.3-23.3c6.4,0,12.2,2.6,16.5,6.8C238.3,140.7,240.9,146.5,240.9,152.9z M173.4,27.8l50.3,12.1l-12.1,50.3
					l-50.3-12L173.4,27.8z M158.9,115.9l4.2,8l-46.7,24.7l24.7,46.7l-8,4.2l-24.6-46.7l-46.7,24.7l-4.2-8l46.7-24.7L79.6,98.2l8-4.2
					l24.7,46.7L158.9,115.9z M120.2,330.6l16.2,25.7l-30.4,1.2L120.2,330.6z M86.1,318c-16.6,0-30-13.4-30-30s13.4-30,30-30
					s30,13.4,30,30S102.7,318,86.1,318z M78.3,24.4c12.3,0,22.3,10,22.3,22.3S90.6,69,78.3,69C66,69.1,56,59.1,56,46.8
					C56,34.4,66,24.4,78.3,24.4z M14.8,218.3l4.2-34.6l34.6,4.2l-4.2,34.6L14.8,218.3z M25.6,356.9l67.7,29.4l-59.3,44L25.6,356.9z
					 M140.5,526.1c-8.2,8.1-19.4,13.2-31.8,13.2c-24.8,0-45-20.2-45-45c0-24.9,20.2-45,45-45s45,20.1,45,45
					C153.7,506.7,148.7,517.9,140.5,526.1z M181.3,430l-11.6-29.2l-29.1,11.6l-2-5l29.1-11.6l-11.6-29.1l5-2l11.6,29.1l29.1-11.6
					l2,5l-29.1,11.6l11.5,29.2L181.3,430z M187.6,552.2l15.1-72.3l55.1,49.2L187.6,552.2z M268.9,189.6l34.6,4.2l-4.2,34.6
					l-34.6-4.2L268.9,189.6z M333.9,509.8l-54.1-6.6l6.6-54.1l54.1,6.6L333.9,509.8z M307.4,407.7l-8.4-73.4l67.8,29.4L307.4,407.7z
					 M351.5,316.6l4.2-34.6l34.6,4.2l-4.2,34.6L351.5,316.6z M380.5,495.6l13.2-108.4l87.3,65.6L380.5,495.6z M463.6,541.2
					c-12.9,0-23.3-10.4-23.3-23.3c0-12.9,10.4-23.3,23.3-23.3c6.4,0,12.2,2.6,16.5,6.8c4.2,4.2,6.8,10,6.8,16.5
					C486.9,530.8,476.5,541.2,463.6,541.2z M506.8,425.9L484,415.6l10.3-22.8l22.7,10.3L506.8,425.9z M514.2,162
					c9.3,0,16.8,7.5,16.8,16.8s-7.5,16.8-16.8,16.9h-0.1c-9.3,0-16.8-7.6-16.8-16.9C497.3,169.5,504.9,161.9,514.2,162z
					 M463.6,499.3c-5.1,0-9.8,2.1-13.2,5.5c-3.4,3.4-5.5,8-5.5,13.2c0,10.3,8.3,18.6,18.6,18.6s18.6-8.3,18.6-18.6
					S473.9,499.3,463.6,499.3z"/>
				<polygon class="st0" points="485.6,28.6 477.4,46.8 495.6,55.1 503.9,36.9 				"/>
				<polygon class="st0" points="120.4,335.6 110.2,354.9 132,354 				"/>
				<path class="st0" d="M199,152.9c0,10.3,8.3,18.6,18.6,18.6s18.6-8.3,18.6-18.6s-8.3-18.6-18.6-18.6l0,0
					C207.4,134.3,199,142.6,199,152.9z"/>
				<polygon class="st0" points="563,302.2 566.9,300.8 566.9,279.6 556.2,283.4 				"/>
				<polygon class="st0" points="521.2,118.5 564.4,136.3 558.2,90 				"/>
				<polygon class="st0" points="312.3,396.5 354.6,365 306.2,344.1 				"/>
				
					<rect x="378.1" y="84.8" transform="matrix(0.996 -8.958587e-02 8.958587e-02 0.996 -9.17 37.598)" class="st0" width="72.3" height="72.3"/>
				<polygon class="st0" points="137.2,566.9 151,566.9 143.4,555 				"/>
				
					<rect x="357" y="287.4" transform="matrix(0.1205 -0.9927 0.9927 0.1205 27.042 633.3019)" class="st0" width="27.9" height="27.9"/>
				<polygon class="st0" points="400.6,403.8 391.3,481.2 463,450.6 				"/>
			</g>
			<path class="st1" d="M30.7,90.9L18.3,121l30.1,12.3l12.4-30.1L30.7,90.9z M46.7,129.1l-24.1-9.9l9.9-24.1l24.1,9.9L46.7,129.1z"
				/>
			<path class="st1" d="M244.7,393c-9.5,0-17.2,7.7-17.2,17.2s7.7,17.2,17.2,17.2c4.8,0,9.1-1.9,12.2-5.1c3.1-3.1,5-7.4,5-12.2
				C261.9,400.8,254.2,393,244.7,393z M244.7,424.1c-7.6,0-13.8-6.2-13.8-13.8s6.2-13.8,13.8-13.8c3.8,0,7.2,1.5,9.7,4s4,6,4,9.8
				C258.5,417.9,252.3,424.1,244.7,424.1z"/>
			<path class="st1" d="M415.9,318.5l-7.9,41.8l40.1-14L415.9,318.5z M418.3,325.2l23,19.8l-28.7,10L418.3,325.2z"/>
			<polygon class="st1" points="286.9,23.1 284.8,19.7 265.1,32.2 252.6,12.5 249.2,14.6 261.7,34.3 242,46.8 244.1,50.2 
				263.8,37.7 276.3,57.4 279.7,55.3 267.2,35.6 			"/>
			<polygon class="st1" points="553.3,526.3 551.7,523.8 536.9,533.2 527.6,518.4 525.1,520 534.4,534.8 519.7,544.1 521.2,546.6 
				536,537.3 545.3,552 547.8,550.4 538.5,535.7 			"/>
		</g>
	</g>
</g>
</svg>
