<?xml version="1.0" encoding="utf-8"?>
<!-- Generator: Adobe Illustrator 23.0.2, SVG Export Plug-In . SVG Version: 6.00 Build 0)  -->
<svg version="1.1" id="Layer_1" xmlns="http://www.w3.org/2000/svg" xmlns:xlink="http://www.w3.org/1999/xlink" x="0px" y="0px"
	 viewBox="0 0 566.9 566.9" style="enable-background:new 0 0 566.9 566.9;" xml:space="preserve">
<style type="text/css">
	.st0{opacity:0.7;}
	.st1{fill:#387DC0;}
</style>
<title>overviewx</title>
<g class="st0">
	<g>
		<g>
			<g>
				<g>
					<path class="st1" d="M347.1-0.7c0,0.2,0,0.3,0,0.5c0,0.2,0,0.3,0,0.5c-0.9,10.2-9.5,18.3-20,18.3c-10.5,0-19.1-8.1-20-18.3
						c0-0.2,0-0.3,0-0.5c0-0.2,0-0.3,0-0.5h-7.7c0,0.2,0,0.3,0,0.5c0,0.2,0,0.3,0,0.5c0.9,14.5,13,26,27.7,26
						c14.7,0,26.8-11.5,27.7-26c0-0.2,0-0.3,0-0.5c0-0.2,0-0.3,0-0.5H347.1z"/>
				</g>
			</g>
			<g>
				<g>
					<path class="st1" d="M64.2-0.7c0.2,0.2,0.4,0.3,0.6,0.5C65,0,65.3,0.2,65.5,0.3c10.8,7.9,24,12.5,38.3,12.5s27.6-4.7,38.3-12.5
						c0.2-0.2,0.5-0.3,0.7-0.5c0.2-0.2,0.4-0.3,0.7-0.5H64.2z"/>
				</g>
			</g>
		</g>
	</g>
	<g>
		<g>
			<g>
				<path class="st1" d="M327,538c-15.3,0-27.8,12.5-27.8,27.8c0,0.3,0,0.5,0,0.8c0,0.2,0,0.3,0,0.5c0,0.2,0,0.3,0,0.5h7.7
					c0-0.2,0-0.3,0-0.5c0-0.2,0-0.3,0-0.5c0-0.3,0-0.5,0-0.8c0-11.1,9-20.1,20.1-20.1c11.1,0,20.1,9,20.1,20.1c0,0.3,0,0.5,0,0.8
					c0,0.2,0,0.3,0,0.5c0,0.2,0,0.3,0,0.5h7.7c0-0.2,0-0.3,0-0.5c0-0.2,0-0.3,0-0.5c0-0.3,0-0.5,0-0.8
					C354.8,550.5,342.4,538,327,538z"/>
			</g>
		</g>
		<g>
			<g>
				<path class="st1" d="M107.4,19.4l-81,19.2l19.2,81l81-19.2L107.4,19.4z M40.2,47.1l58.7-13.9l13.9,58.6l-58.7,13.9L40.2,47.1z"
					/>
			</g>
			<g>
				<path class="st1" d="M193,141.2l-19.6,4.6l4.6,19.6l19.6-4.6L193,141.2z M176.7,147.9l14.2-3.4l3.4,14.2l-14.2,3.4L176.7,147.9z
					"/>
			</g>
			<g>
				<path class="st1" d="M301.3,262.6l-19.6,4.6l4.6,19.6l19.6-4.6L301.3,262.6z M285,269.3l14.2-3.4l3.4,14.2l-14.2,3.4L285,269.3z
					"/>
			</g>
			<g>
				<path class="st1" d="M408.2,147.4l-2,10.2l10.2,2l2-10.2L408.2,147.4z M415.2,157.9l-7.4-1.4l1.4-7.4l7.4,1.4L415.2,157.9z"/>
			</g>
			<g>
				<path class="st1" d="M337.4,38.2L333.5,58l19.8,3.8l3.8-19.8L337.4,38.2z M351.1,58.6l-14.3-2.8l2.8-14.3l14.3,2.8L351.1,58.6z"
					/>
			</g>
			<g>
				<path class="st1" d="M113.3,372l-3.8,19.8l19.8,3.8l3.8-19.8L113.3,372z M127.1,392.4l-14.3-2.8l2.8-14.3l14.3,2.8L127.1,392.4z
					"/>
			</g>
			<g>
				<path class="st1" d="M321.5,328.7l-4.3,28.6l28.6,4.3l4.3-28.6L321.5,328.7z M342.5,357.1l-20.7-3.1l3.1-20.7l20.7,3.1
					L342.5,357.1z"/>
			</g>
			<g>
				<path class="st1" d="M566.6,311.5l0.5,0.1l0.5,0.1v-8.9l-0.5-0.1l-0.5-0.1l-36.9-5.6l-9.5,63.2l46.4,7l0.5,0.1l0.5,0.1v-8.9
					l-0.5-0.1l-0.5-0.1l-36.4-5.5l6.9-45.8L566.6,311.5z"/>
			</g>
			<g>
				<path class="st1" d="M103.8,450.1c-35.8,0-65,29.2-65,65c0,20.9,9.9,39.6,25.3,51.5c0.2,0.2,0.4,0.3,0.6,0.5
					c0.2,0.2,0.5,0.3,0.7,0.5h76.7c0.2-0.2,0.5-0.3,0.7-0.5c0.2-0.2,0.4-0.3,0.7-0.5c15.4-11.9,25.3-30.5,25.3-51.5
					C168.8,479.3,139.7,450.1,103.8,450.1z M103.8,562.2c-26,0-47.1-21.1-47.1-47.1c0-26,21.1-47.1,47.1-47.1
					c26,0,47.1,21.1,47.1,47.1C150.9,541.1,129.8,562.2,103.8,562.2z"/>
			</g>
			<g>
				<path class="st1" d="M347.1-0.7c0,0.2,0,0.3,0,0.5c0,0.2,0,0.3,0,0.5c-0.9,10.2-9.5,18.3-20,18.3c-10.5,0-19.1-8.1-20-18.3
					c0-0.2,0-0.3,0-0.5c0-0.2,0-0.3,0-0.5h-7.7c0,0.2,0,0.3,0,0.5c0,0.2,0,0.3,0,0.5c0.9,14.5,13,26,27.7,26
					c14.7,0,26.8-11.5,27.7-26c0-0.2,0-0.3,0-0.5c0-0.2,0-0.3,0-0.5H347.1z"/>
			</g>
			<g>
				<path class="st1" d="M566.6,225.4c0.2,0,0.3-0.1,0.5-0.1c0.2,0,0.3-0.1,0.5-0.1v-3.6c-0.2,0-0.3,0-0.5,0c-0.2,0-0.3,0-0.5,0.1
					c-6.2,1-11,6.4-11,12.9s4.8,11.9,11,13c0.2,0,0.3,0,0.5,0.1c0.2,0,0.3,0,0.5,0.1v-3.6c-0.2,0-0.3,0-0.5-0.1s-0.3-0.1-0.5-0.1
					c-4.2-1-7.3-4.8-7.3-9.2S562.4,226.4,566.6,225.4z"/>
			</g>
			<g>
				<path class="st1" d="M320,403.6c-21.4,0-38.8,17.4-38.8,38.8c0,21.4,17.4,38.8,38.8,38.8c21.4,0,38.8-17.4,38.8-38.8
					C358.8,421,341.4,403.6,320,403.6z M320,470.5c-15.5,0-28.1-12.6-28.1-28.1c0-15.5,12.6-28.1,28.1-28.1s28.1,12.6,28.1,28.1
					C348.1,457.9,335.5,470.5,320,470.5z"/>
			</g>
			<g>
				<path class="st1" d="M520,92.1c-21.4,0-38.8,17.4-38.8,38.8c0,21.4,17.4,38.8,38.8,38.8c21.4,0,38.8-17.4,38.8-38.8
					C558.8,109.5,541.4,92.1,520,92.1z M520,159c-15.5,0-28.1-12.6-28.1-28.1c0-15.5,12.6-28.1,28.1-28.1
					c15.5,0,28.1,12.6,28.1,28.1C548.1,146.4,535.5,159,520,159z"/>
			</g>
			<g>
				<path class="st1" d="M35.1,141.2c-7.6,0-13.7,6.2-13.7,13.7c0,7.6,6.2,13.7,13.7,13.7c7.6,0,13.7-6.2,13.7-13.7
					C48.8,147.4,42.6,141.2,35.1,141.2z M35.1,164.9c-5.5,0-9.9-4.5-9.9-9.9c0-5.5,4.5-9.9,9.9-9.9c5.5,0,10,4.5,10,9.9
					C45,160.5,40.6,164.9,35.1,164.9z"/>
			</g>
			<g>
				<path class="st1" d="M418.5,280c-7.6,0-13.7,6.2-13.7,13.7c0,7.6,6.2,13.7,13.7,13.7c7.6,0,13.7-6.2,13.7-13.7
					C432.2,286.2,426,280,418.5,280z M418.5,303.7c-5.5,0-10-4.5-10-9.9c0-5.5,4.5-10,10-10c5.5,0,10,4.5,10,10
					C428.4,299.2,423.9,303.7,418.5,303.7z"/>
			</g>
			<g>
				<polygon class="st1" points="542.3,40.4 537.3,35.5 517.9,54.9 498.5,35.5 493.5,40.4 512.9,59.8 493.5,79.3 498.5,84.2 
					517.9,64.8 537.3,84.2 542.3,79.3 522.8,59.8 				"/>
			</g>
			<g>
				<polygon class="st1" points="157.9,197.7 146.8,186.7 103.5,230 60.2,186.7 49.1,197.7 92.4,241 49.1,284.4 60.2,295.4 
					103.5,252.1 146.8,295.4 157.9,284.4 114.6,241 				"/>
			</g>
			<g>
				<polygon class="st1" points="220.8,411.5 213.7,408.7 202.8,436.7 174.8,425.8 172,433 200,443.8 189.2,471.9 196.3,474.6 
					207.2,446.6 235.2,457.5 238,450.3 210,439.5 				"/>
			</g>
			<g>
				<polygon class="st1" points="416.6,504.3 413.7,501.9 404.3,513.3 392.9,503.9 390.5,506.8 401.9,516.2 392.5,527.6 395.4,530 
					404.8,518.6 416.2,528 418.6,525.1 407.2,515.7 				"/>
			</g>
			<g>
				<polygon class="st1" points="322.9,60.6 312.1,54.7 288.8,96.9 246.6,73.6 240.6,84.4 282.8,107.7 259.5,149.9 270.3,155.9 
					293.6,113.6 335.8,137 341.8,126.2 299.6,102.9 				"/>
			</g>
			<g>
				<polygon class="st1" points="454.6,131.6 451.3,129.7 444.2,142.7 431.2,135.6 429.4,138.9 442.4,146 435.2,159 438.5,160.8 
					445.7,147.8 458.6,155 460.5,151.7 447.5,144.5 				"/>
			</g>
			<g>
				<polygon class="st1" points="194.2,36 193.3,32.3 178.9,36.1 175.2,21.7 171.5,22.7 175.3,37 160.9,40.7 161.9,44.4 176.2,40.7 
					180,55 183.6,54.1 179.9,39.7 				"/>
			</g>
			<g>
				<polygon class="st1" points="379.6,199.3 375.8,195.4 360.6,210.6 345.4,195.4 341.5,199.3 356.7,214.5 341.5,229.6 
					345.4,233.5 360.6,218.3 375.8,233.5 379.6,229.6 364.5,214.5 				"/>
			</g>
			<g>
				<path class="st1" d="M413.8,355.2l-30.7,116.2l116-31.5L413.8,355.2z M420.9,381.1l52.3,51.9l-71.1,19.3L420.9,381.1z"/>
			</g>
			<g>
				<path class="st1" d="M383.5,50.3l55.6,55.6l20.4-75.9L383.5,50.3z M434.6,88.9l-34.1-34.1l46.5-12.5L434.6,88.9z"/>
			</g>
			<g>
				<path class="st1" d="M189.9,194.1l32,52.6l29.6-54L189.9,194.1z M221.6,232.9L202,200.7l37.7-0.8L221.6,232.9z"/>
			</g>
			<g>
				<path class="st1" d="M206.4,307.7l-4.8,72.2l64.9-31.9L206.4,307.7z M213.6,322.3l36.8,24.7l-39.8,19.6L213.6,322.3z"/>
			</g>
			<g>
				<path class="st1" d="M429.7,224.3l40.9,30l5.5-50.4L429.7,224.3z M466,243.9L441,225.6l28.4-12.5L466,243.9z"/>
			</g>
			<g>
				<path class="st1" d="M567.1,443.7l0.5-0.2V439l-0.5,0.2l-0.5,0.2l-24.8,10.9l24.8,18.2l0.5,0.4l0.5,0.4v-5l-0.5-0.4l-0.5-0.4
					l-16.7-12.2l16.7-7.4L567.1,443.7z"/>
			</g>
			<g>
				<path class="st1" d="M479.4,517.7l0.7,36.4l31.2-18.8L479.4,517.7z M483.6,524.6l19.5,10.8L484,547L483.6,524.6z"/>
			</g>
			<g>
				<path class="st1" d="M268.1,492.7l-44.7,47.4l63.4,15L268.1,492.7z M264.8,506.9l11.5,38.2l-38.9-9.2L264.8,506.9z"/>
			</g>
			<g>
				<path class="st1" d="M158.2,85.9l29.4,21.5l3.9-36.2L158.2,85.9z M184.3,99.9l-18-13.2l20.4-9L184.3,99.9z"/>
			</g>
			<g>
				<path class="st1" d="M35,351.6l29.4,21.5l3.9-36.2L35,351.6z M61.1,365.6l-18-13.2l20.4-9L61.1,365.6z"/>
			</g>
		</g>
		<g>
			<g>
				<path class="st1" d="M0.3,302.7l-0.5-0.1l-0.5-0.1v8.9l0.5,0.1l0.5,0.1l15.3,2.3l-6.9,45.8l-8.4-1.3l-0.5-0.1l-0.5-0.1v8.9
					l0.5,0.1l0.5,0.1l15.8,2.4l9.5-63.2L0.3,302.7z"/>
			</g>
			<g>
				<path class="st1" d="M1.5,221.5c-0.4,0-0.8,0-1.2,0.1c-0.2,0-0.3,0-0.5,0c-0.2,0-0.3,0-0.5,0.1v3.7c0.2,0,0.3-0.1,0.5-0.1
					c0.2,0,0.3-0.1,0.5-0.1c0.4-0.1,0.8-0.1,1.2-0.1c5.2,0,9.5,4.3,9.5,9.5s-4.3,9.5-9.5,9.5c-0.4,0-0.8,0-1.2-0.1
					c-0.2,0-0.3,0-0.5-0.1s-0.3-0.1-0.5-0.1v3.7c0.2,0,0.3,0,0.5,0.1c0.2,0,0.3,0,0.5,0.1c0.4,0,0.8,0.1,1.2,0.1
					c7.2,0,13.1-5.9,13.1-13.1S8.7,221.5,1.5,221.5z"/>
			</g>
			<g>
				<path class="st1" d="M0.3,439l-0.5,0.2l-0.5,0.2v4.4l0.5-0.2l0.5-0.2l2.7-1.2l-2.4,22.2l-0.3-0.2l-0.5-0.4l-0.5-0.4v5l0.5,0.4
					l0.5,0.4l3.5,2.6l4-36.2L0.3,439z"/>
			</g>
		</g>
		<g>
			<g>
				<path class="st1" d="M64.2-0.7c0.2,0.2,0.4,0.3,0.6,0.5C65,0,65.3,0.2,65.5,0.3c10.8,7.9,24,12.5,38.3,12.5s27.6-4.7,38.3-12.5
					c0.2-0.2,0.5-0.3,0.7-0.5c0.2-0.2,0.4-0.3,0.7-0.5H64.2z"/>
			</g>
		</g>
	</g>
	<g>
		<g>
			<g>
				<g>
					<path class="st1" d="M0.3,302.7l-0.5-0.1l-0.5-0.1v8.9l0.5,0.1l0.5,0.1l15.3,2.3l-6.9,45.8l-8.4-1.3l-0.5-0.1l-0.5-0.1v8.9
						l0.5,0.1l0.5,0.1l15.8,2.4l9.5-63.2L0.3,302.7z"/>
				</g>
				<g>
					<path class="st1" d="M1.5,221.5c-0.4,0-0.8,0-1.2,0.1c-0.2,0-0.3,0-0.5,0c-0.2,0-0.3,0-0.5,0.1v3.7c0.2,0,0.3-0.1,0.5-0.1
						c0.2,0,0.3-0.1,0.5-0.1c0.4-0.1,0.8-0.1,1.2-0.1c5.2,0,9.5,4.3,9.5,9.5s-4.3,9.5-9.5,9.5c-0.4,0-0.8,0-1.2-0.1
						c-0.2,0-0.3,0-0.5-0.1s-0.3-0.1-0.5-0.1v3.7c0.2,0,0.3,0,0.5,0.1c0.2,0,0.3,0,0.5,0.1c0.4,0,0.8,0.1,1.2,0.1
						c7.2,0,13.1-5.9,13.1-13.1S8.7,221.5,1.5,221.5z"/>
				</g>
				<g>
					<path class="st1" d="M0.3,439l-0.5,0.2l-0.5,0.2v4.4l0.5-0.2l0.5-0.2l2.7-1.2l-2.4,22.2l-0.3-0.2l-0.5-0.4l-0.5-0.4v5l0.5,0.4
						l0.5,0.4l3.5,2.6l4-36.2L0.3,439z"/>
				</g>
			</g>
		</g>
	</g>
</g>
</svg>
