<svg xmlns="http://www.w3.org/2000/svg" width="566.93" height="566.93" viewBox="0 0 566.93 566.93">
  <defs>
    <style>
      .cls-1 {
        fill: #131414;
      }

      .cls-2 {
        fill: #fb006e;
      }
    </style>
  </defs>
  <title>Prototypeheader</title>
  <g id="Layer_2" data-name="Layer 2">
    <g id="Layer_1-2" data-name="Layer 1">
      <g>
        <polygon class="cls-1" points="245.82 526.62 206.49 491.48 195.73 543.12 245.82 526.62"/>
        <polygon class="cls-1" points="383.05 0 371.24 0 379.81 5.27 383.05 0"/>
        <polygon class="cls-1" points="155.03 6.45 150.96 0 137.17 0 133.32 7.32 155.03 6.45"/>
        <rect class="cls-1" x="270.21" y="195.05" width="27.89" height="27.89" transform="translate(42.47 465.92) rotate(-83.08)"/>
        <rect class="cls-1" x="209.19" y="278.53" width="43.62" height="43.62" transform="translate(-94.97 493.48) rotate(-83.08)"/>
        <path class="cls-1" d="M566.93,461.07V444.81a13.2,13.2,0,0,0,0,16.26Z"/>
        <polygon class="cls-1" points="293.41 66.6 259.51 107.01 311.45 116.16 293.41 66.6"/>
        <polygon class="cls-1" points="204.36 232.32 167.02 204.25 161.38 250.62 204.36 232.32"/>
        <path class="cls-1" d="M10.68,466.42A13.48,13.48,0,1,0,0,444.81v16.26A13.42,13.42,0,0,0,10.68,466.42Z"/>
        <path class="cls-1" d="M86.09,263.94a24,24,0,1,0,24,24A24.07,24.07,0,0,0,86.09,263.94Z"/>
        <path class="cls-1" d="M108.7,458.24a36,36,0,1,0,36,36A36,36,0,0,0,108.7,458.24Z"/>
        <polygon class="cls-1" points="8.09 276.65 0 279.57 0 300.81 14.87 295.45 8.09 276.65"/>
        <circle class="cls-1" cx="78.32" cy="46.77" r="17.86" transform="translate(-8.65 19.24) rotate(-13.28)"/>
        <rect class="cls-1" x="20.28" y="189.11" width="27.89" height="27.89" transform="translate(-171.48 212.57) rotate(-83.08)"/>
        <polygon class="cls-1" points="0 26.84 0 44.19 10.69 43.76 0 26.84"/>
        <polygon class="cls-1" points="32.88 366.7 38.9 419.09 81.27 387.68 32.88 366.7"/>
        <rect class="cls-1" x="171.83" y="38.25" width="41.39" height="41.39" transform="translate(90.32 232.43) rotate(-76.52)"/>
        <polygon class="cls-1" points="509.74 342.15 472.4 314.08 466.76 360.46 509.74 342.15"/>
        <rect class="cls-1" x="490.5" y="399.38" width="19.98" height="19.98" transform="translate(-78.81 696.59) rotate(-65.65)"/>
        <rect class="cls-1" x="479.32" y="238.79" width="35.44" height="35.44" transform="translate(-19.42 41.77) rotate(-4.72)"/>
        <polygon class="cls-1" points="566.02 25.4 555.91 44.63 566.93 44.19 566.93 26.84 566.02 25.4"/>
        <polygon class="cls-1" points="16.07 509.39 5.32 561.02 55.41 544.52 16.07 509.39"/>
        <rect class="cls-1" x="288.37" y="457.63" width="43.62" height="43.62" transform="translate(-203.12 729.62) rotate(-83.08)"/>
        <circle class="cls-1" cx="301.76" cy="278.28" r="13.48" transform="translate(-108.39 294.89) rotate(-45)"/>
        <circle class="cls-1" cx="514.07" cy="178.84" r="13.48" transform="translate(-27.34 122.89) rotate(-13.28)"/>
        <path class="cls-1" d="M560.76,452.94a16.82,16.82,0,0,1,6.16-13V303.46l-5.43,2L553,281.92l13.9-5V143.12l-56.4-23.18L562.3,80l4.62,34.42V46.7l-15.25.61,14.14-26.93,1.11,1.76V2.26l-2.79.92L564.79,0H391.24l-5.49,8.92,34.84,21.43-3.66,5.95L382.09,14.87,360.66,49.71l-5.94-3.66,21.43-34.84L357.92,0h-204l5.55,8.78L129.08,10l5.25-10H6.85L0,2.26V22.14l15.13,24L0,46.7v67.71L4.08,144.8,0,143.12V276.91l9.59-3.46L18.06,297,0,303.46V439.92a16.85,16.85,0,1,1,0,26v90.71l12.26-58.85L67.33,547,6.85,566.93H134.33l8.9-16.93,10.69,16.93h204l-16.61-10.22,3.65-5.94,26.28,16.16h11.81l18.19-29.58,5.94,3.66-15.94,25.92H564.79l2.13-10.26V466A16.82,16.82,0,0,1,560.76,452.94ZM484.4,25.33l22.75,10.3-10.3,22.75L474.1,48.08ZM455.71,71.94l7.91,89.67-89.68,7.91L366,79.84Zm-77.83,145-10.24-25.75,4.4-1.75,10.23,25.75L408,204.91l1.75,4.39L384,219.54l10.23,25.75L389.87,247l-10.24-25.75-25.74,10.24-1.75-4.38ZM295.52,54.6,320.78,124l-72.72-12.82Zm23.09,223.68a16.85,16.85,0,1,1-16.85-16.85A16.87,16.87,0,0,1,318.61,278.28ZM240.87,152.91a23.29,23.29,0,1,1-23.28-23.28A23.3,23.3,0,0,1,240.87,152.91Zm-25.8,80.7L154.9,259.25l7.89-64.92ZM173.4,27.76l50.31,12.06L211.65,90.13l-50.31-12Zm-14.48,88.18,4.21,8-46.67,24.68,24.67,46.67-8,4.2L108.5,152.78,61.83,177.45l-4.2-7.95,46.66-24.68L79.62,98.15l8-4.2,24.67,46.67ZM120.16,330.61l16.24,25.72L106,357.54ZM86.09,318a30,30,0,1,1,30-30A30.08,30.08,0,0,1,86.09,318ZM78.31,24.44A22.33,22.33,0,1,1,56,46.77,22.35,22.35,0,0,1,78.31,24.44ZM14.81,218.26,19,183.65l34.61,4.2-4.2,34.6ZM25.62,356.91l67.74,29.37-59.31,44Zm83.07,182.35a45,45,0,1,1,45-45A45.06,45.06,0,0,1,108.69,539.26ZM181.28,430,169.7,400.84l-29.12,11.58-2-5,29.12-11.58-11.58-29.12,5-2,11.58,29.12,29.12-11.58,2,5-29.12,11.58L186.25,428Zm6.33,122.23,15.06-72.29,55.07,49.19Zm67.16-221.52-54.12-6.57L207.21,270l54.13,6.57Zm14.17-141.09,34.61,4.2-4.2,34.6-34.6-4.19Zm65,320.19-54.12-6.56,6.57-54.13,54.12,6.57ZM307.42,407.65,299,334.29l67.75,29.37Zm44.05-91.08,4.2-34.6,34.6,4.19-4.19,34.61Zm29,179,13.16-108.37,87.28,65.57Zm93,51.29a30,30,0,1,1,30-30A30.08,30.08,0,0,1,473.41,546.87Zm33.3-121L484,415.6l10.29-22.75L517,403.14Zm-46.43-56.82,7.88-64.92,52.28,39.29Zm16.5-88.67-3.64-44.16,44.15-3.64,3.65,44.15Zm37.29-84.72a16.85,16.85,0,1,1,16.85-16.85A16.87,16.87,0,0,1,514.07,195.69Z"/>
        <polygon class="cls-1" points="485.64 28.63 477.4 46.84 495.62 55.07 503.86 36.87 485.64 28.63"/>
        <polygon class="cls-1" points="120.36 335.63 110.25 354.86 131.97 354 120.36 335.63"/>
        <path class="cls-1" d="M199,152.91a18.63,18.63,0,1,0,18.63-18.62A18.65,18.65,0,0,0,199,152.91Z"/>
        <polygon class="cls-1" points="563 302.22 566.93 300.81 566.93 279.57 556.22 283.43 563 302.22"/>
        <polygon class="cls-1" points="521.22 118.5 564.42 136.26 558.2 89.97 521.22 118.5"/>
        <polygon class="cls-1" points="312.26 396.47 354.63 365.05 306.24 344.07 312.26 396.47"/>
        <rect class="cls-1" x="378.82" y="84.72" width="72.02" height="72.02" transform="matrix(1, -0.09, 0.09, 1, -9, 36.92)"/>
        <polygon class="cls-1" points="137.17 566.93 150.96 566.93 143.43 555.01 137.17 566.93"/>
        <rect class="cls-1" x="356.93" y="287.43" width="27.89" height="27.89" transform="translate(27.04 633.26) rotate(-83.08)"/>
        <circle class="cls-1" cx="473.41" cy="516.82" r="24.04" transform="translate(-106.08 122.59) rotate(-13.28)"/>
        <polygon class="cls-1" points="400.65 403.8 391.27 481.19 462.98 450.63 400.65 403.8"/>
      </g>
      <path class="cls-2" d="M48.44,133.31,18.33,121l12.36-30.1L60.8,103.21ZM22.58,119.18l24.08,9.89L56.55,105,32.47,95.09Z"/>
      <path class="cls-2" d="M244.68,427.52a17.24,17.24,0,1,1,17.23-17.24A17.25,17.25,0,0,1,244.68,427.52Zm0-31a13.79,13.79,0,1,0,13.78,13.78A13.8,13.8,0,0,0,244.68,396.5Z"/>
      <path class="cls-2" d="M448.16,346.32l-40.14,14,7.91-41.79Zm-35.57,8.73,28.68-10-23-19.81Z"/>
      <polygon class="cls-2" points="286.92 23.07 284.79 19.71 265.06 32.2 252.58 12.47 249.21 14.6 261.7 34.33 241.97 46.82 244.1 50.18 263.83 37.69 276.32 57.42 279.68 55.29 267.19 35.56 286.92 23.07"/>
      <polygon class="cls-2" points="553.26 526.35 551.67 523.83 536.92 533.17 527.59 518.42 525.07 520.01 534.41 534.76 519.66 544.09 521.25 546.61 536 537.27 545.34 552.02 547.85 550.43 538.51 535.68 553.26 526.35"/>
    </g>
  </g>
</svg>
