<?xml version="1.0" encoding="utf-8"?>
<!-- Generator: Adobe Illustrator 23.0.2, SVG Export Plug-In . SVG Version: 6.00 Build 0)  -->
<svg version="1.1" id="Layer_1" xmlns="http://www.w3.org/2000/svg" xmlns:xlink="http://www.w3.org/1999/xlink" x="0px" y="0px"
	 viewBox="0 0 566.9 566.9" style="enable-background:new 0 0 566.9 566.9;" xml:space="preserve">
<style type="text/css">
	.st0{opacity:0.5;fill:#131414;}
	.st1{fill:#FB006E;}
</style>
<title>Prototypeheader</title>
<g>
	<g id="Layer_1-2">
		<g>
			<polygon class="st0" points="245.8,526.6 206.5,491.5 195.7,543.1 			"/>
			<polygon class="st0" points="383,0 371.2,0 379.8,5.3 			"/>
			<polygon class="st0" points="155,6.5 151,0 137.2,0 133.3,7.3 			"/>
			
				<rect x="270.2" y="195.1" transform="matrix(0.1205 -0.9927 0.9927 0.1205 42.4468 465.9408)" class="st0" width="27.9" height="27.9"/>
			
				<rect x="209.2" y="278.5" transform="matrix(0.1205 -0.9927 0.9927 0.1205 -94.9804 493.4926)" class="st0" width="43.6" height="43.6"/>
			<path class="st0" d="M566.9,461.1v-16.3C563.2,449.6,563.2,456.3,566.9,461.1z"/>
			<polygon class="st0" points="293.4,66.6 259.5,107 311.5,116.2 			"/>
			<polygon class="st0" points="204.4,232.3 167,204.2 161.4,250.6 			"/>
			<path class="st0" d="M10.7,466.4c7.4,0,13.5-6,13.6-13.4c0-7.4-6-13.5-13.4-13.6c-4.2,0-8.3,2-10.8,5.3v16.3
				C2.5,464.4,6.5,466.4,10.7,466.4z"/>
			<path class="st0" d="M86.1,263.9c-13.3,0-24,10.7-24,24s10.7,24,24,24c13.3,0,24-10.7,24-24C110.1,274.7,99.3,264,86.1,263.9z"/>
			<circle class="st0" cx="108.7" cy="494.2" r="36"/>
			<polygon class="st0" points="8.1,276.7 0,279.6 0,300.8 14.9,295.5 			"/>
			
				<ellipse transform="matrix(0.5258 -0.8506 0.8506 0.5258 -2.6411 88.7996)" class="st0" cx="78.3" cy="46.8" rx="17.9" ry="17.9"/>
			
				<rect x="20.3" y="189.1" transform="matrix(0.1205 -0.9927 0.9927 0.1205 -171.4834 212.5639)" class="st0" width="27.9" height="27.9"/>
			<polygon class="st0" points="0,26.8 0,44.2 10.7,43.8 			"/>
			<polygon class="st0" points="32.9,366.7 38.9,419.1 81.3,387.7 			"/>
			
				<rect x="171.8" y="38.3" transform="matrix(0.2331 -0.9725 0.9725 0.2331 90.3171 232.424)" class="st0" width="41.4" height="41.4"/>
			<polygon class="st0" points="509.7,342.2 472.4,314.1 466.8,360.5 			"/>
			
				<rect x="490.5" y="399.4" transform="matrix(0.4123 -0.911 0.911 0.4123 -78.8504 696.5828)" class="st0" width="20" height="20"/>
			
				<rect x="479.3" y="238.8" transform="matrix(0.9966 -8.228735e-02 8.228735e-02 0.9966 -19.4219 41.7702)" class="st0" width="35.4" height="35.4"/>
			<polygon class="st0" points="566,25.4 555.9,44.6 566.9,44.2 566.9,26.8 			"/>
			<polygon class="st0" points="16.1,509.4 5.3,561 55.4,544.5 			"/>
			
				<rect x="288.4" y="457.7" transform="matrix(0.1205 -0.9927 0.9927 0.1205 -203.1463 729.6359)" class="st0" width="43.6" height="43.6"/>
			<circle class="st0" cx="301.8" cy="278.3" r="13.5"/>
			
				<ellipse transform="matrix(0.8869 -0.462 0.462 0.8869 -24.4812 257.7399)" class="st0" cx="514.1" cy="178.9" rx="13.5" ry="13.5"/>
			<path class="st0" d="M560.8,452.9c0-5,2.3-9.8,6.2-13V303.5l-5.4,2l-8.5-23.5l13.9-5V143.1l-56.4-23.2L562.3,80l4.6,34.4V46.7
				l-15.2,0.6l14.1-26.9l1.1,1.8V2.3l-2.8,0.9l0.7-3.2H391.2l-5.5,8.9l34.8,21.4l-3.7,5.9l-34.8-21.4l-21.4,34.8l-5.9-3.7l21.4-34.8
				L357.9,0h-204l5.5,8.8L129.1,10l5.2-10H6.8L0,2.3v19.9l15.1,24L0,46.7v67.7l4.1,30.4L0,143.1v133.8l9.6-3.5l8.5,23.5L0,303.5
				v136.5c7.2-5.9,17.8-4.9,23.7,2.3s4.9,17.8-2.3,23.7c-6.2,5.1-15.2,5.1-21.4,0v90.7l12.3-58.8L67.3,547L6.8,566.9h127.5l8.9-16.9
				l10.7,16.9h204l-16.6-10.2l3.7-5.9l26.3,16.2H383l18.2-29.6l5.9,3.7l-15.9,25.9h173.5l2.1-10.3V466
				C563,462.8,560.7,458,560.8,452.9z M484.4,25.3l22.8,10.3l-10.3,22.8l-22.8-10.3L484.4,25.3z M455.7,71.9l7.9,89.7l-89.7,7.9
				L366,79.8L455.7,71.9z M377.9,216.9l-10.2-25.8l4.4-1.8l10.2,25.8l25.7-10.3l1.8,4.4L384,219.5l10.2,25.8l-4.4,1.7l-10.2-25.8
				l-25.7,10.2l-1.8-4.4L377.9,216.9z M295.5,54.6l25.3,69.4l-72.7-12.8L295.5,54.6z M318.6,278.3c0,9.3-7.5,16.8-16.8,16.8
				c-9.3,0-16.9-7.5-16.9-16.8c0-9.3,7.5-16.9,16.9-16.9C311.1,261.4,318.6,269,318.6,278.3z M240.9,152.9
				c0,12.9-10.4,23.3-23.3,23.3c-12.9,0-23.3-10.4-23.3-23.3c0-12.9,10.4-23.3,23.3-23.3c0,0,0,0,0,0
				C230.4,129.6,240.9,140.1,240.9,152.9z M215.1,233.6l-60.2,25.6l7.9-64.9L215.1,233.6z M173.4,27.8l50.3,12.1l-12.1,50.3
				l-50.3-12L173.4,27.8z M158.9,115.9l4.2,8l-46.7,24.7l24.7,46.7l-8,4.2l-24.6-46.7l-46.7,24.7l-4.2-8l46.7-24.7L79.6,98.2l8-4.2
				l24.7,46.7L158.9,115.9z M120.2,330.6l16.2,25.7l-30.4,1.2L120.2,330.6z M86.1,318c-16.6,0-30-13.4-30-30s13.4-30,30-30
				s30,13.4,30,30C116,304.6,102.6,318,86.1,318z M56,46.8c0-12.3,10-22.3,22.3-22.3c12.3,0,22.3,10,22.3,22.3s-10,22.3-22.3,22.3
				C66,69.1,56,59.1,56,46.8C56,46.8,56,46.8,56,46.8z M14.8,218.3l4.2-34.6l34.6,4.2l-4.2,34.6L14.8,218.3z M25.6,356.9l67.7,29.4
				l-59.3,44L25.6,356.9z M108.7,539.3c-24.9,0-45-20.1-45-45c0-24.9,20.1-45,45-45c24.9,0,45,20.1,45,45
				C153.7,519.1,133.5,539.2,108.7,539.3z M181.3,430l-11.6-29.2l-29.1,11.6l-2-5l29.1-11.6l-11.6-29.1l5-2l11.6,29.1l29.1-11.6l2,5
				l-29.1,11.6l11.5,29.2L181.3,430z M187.6,552.2l15.1-72.3l55.1,49.2L187.6,552.2z M254.8,330.7l-54.1-6.6l6.6-54.1l54.1,6.6
				L254.8,330.7z M268.9,189.6l34.6,4.2l-4.2,34.6l-34.6-4.2L268.9,189.6z M333.9,509.8l-54.1-6.6l6.6-54.1l54.1,6.6L333.9,509.8z
				 M307.4,407.7l-8.4-73.4l67.8,29.4L307.4,407.7z M351.5,316.6l4.2-34.6l34.6,4.2l-4.2,34.6L351.5,316.6z M380.5,495.6l13.2-108.4
				l87.3,65.6L380.5,495.6z M473.4,546.9L473.4,546.9c-16.5,0-29.9-13.4-29.9-30s13.4-30,30-30s30,13.4,30,30
				C503.4,533.4,490,546.9,473.4,546.9z M506.8,425.9L484,415.6l10.3-22.8l22.7,10.3L506.8,425.9z M460.3,369l7.9-64.9l52.3,39.3
				L460.3,369z M476.8,280.4l-3.6-44.2l44.1-3.6l3.7,44.2L476.8,280.4z M514.1,195.7C514.1,195.7,514.1,195.7,514.1,195.7
				L514.1,195.7c-9.3,0-16.9-7.6-16.9-16.9c0-9.3,7.5-16.9,16.8-16.9c9.3,0,16.9,7.5,16.9,16.8C531,188.1,523.4,195.7,514.1,195.7z"
				/>
			<polygon class="st0" points="485.6,28.6 477.4,46.8 495.6,55.1 503.9,36.9 			"/>
			<polygon class="st0" points="120.4,335.6 110.2,354.9 132,354 			"/>
			<path class="st0" d="M199,152.9c0,10.3,8.3,18.6,18.6,18.6c10.3,0,18.6-8.3,18.6-18.6c0-10.3-8.3-18.6-18.6-18.6c0,0,0,0,0,0
				C207.3,134.3,199,142.6,199,152.9z"/>
			<polygon class="st0" points="563,302.2 566.9,300.8 566.9,279.6 556.2,283.4 			"/>
			<polygon class="st0" points="521.2,118.5 564.4,136.3 558.2,90 			"/>
			<polygon class="st0" points="312.3,396.5 354.6,365 306.2,344.1 			"/>
			
				<rect x="378.5" y="84.2" transform="matrix(0.996 -8.963783e-02 8.963783e-02 0.996 -9.1154 37.6568)" class="st0" width="72.3" height="72.3"/>
			<polygon class="st0" points="137.2,566.9 151,566.9 143.4,555 			"/>
			
				<rect x="357" y="287.5" transform="matrix(0.1205 -0.9927 0.9927 0.1205 27.0149 633.2866)" class="st0" width="27.9" height="27.9"/>
			
				<ellipse transform="matrix(0.2459 -0.9693 0.9693 0.2459 -144.0002 848.5867)" class="st0" cx="473.4" cy="516.8" rx="24" ry="24"/>
			<polygon class="st0" points="400.7,403.8 391.3,481.2 463,450.6 			"/>
		</g>
		<path class="st1" d="M48.4,133.3L18.3,121l12.4-30.1l30.1,12.3L48.4,133.3z M22.6,119.2l24.1,9.9l9.9-24.1l-24.1-9.9L22.6,119.2z"
			/>
		<path class="st1" d="M244.7,427.5c-9.5,0-17.2-7.7-17.2-17.2c0-9.5,7.7-17.2,17.2-17.2c9.5,0,17.2,7.7,17.2,17.2c0,0,0,0,0,0
			C261.9,419.8,254.2,427.5,244.7,427.5z M244.7,396.5c-7.6,0-13.8,6.2-13.8,13.8c0,7.6,6.2,13.8,13.8,13.8
			c7.6,0,13.8-6.2,13.8-13.8c0,0,0,0,0,0C258.5,402.7,252.3,396.5,244.7,396.5L244.7,396.5z"/>
		<path class="st1" d="M448.2,346.3l-40.1,14l7.9-41.8L448.2,346.3z M412.6,355.1l28.7-10l-23-19.8L412.6,355.1z"/>
		<polygon class="st1" points="286.9,23.1 284.8,19.7 265.1,32.2 252.6,12.5 249.2,14.6 261.7,34.3 242,46.8 244.1,50.2 263.8,37.7 
			276.3,57.4 279.7,55.3 267.2,35.6 		"/>
		<polygon class="st1" points="553.3,526.3 551.7,523.8 536.9,533.2 527.6,518.4 525.1,520 534.4,534.8 519.7,544.1 521.2,546.6 
			536,537.3 545.3,552 547.8,550.4 538.5,535.7 		"/>
	</g>
</g>
</svg>
