<svg xmlns="http://www.w3.org/2000/svg" width="66.38mm" height="53.58mm" viewBox="0 0 188.16 151.88">
  <defs>
    <style>
      .cls-1 {
        fill: #1d1d1b;
      }

      .cls-2 {
        fill: none;
        stroke: #1d1d1b;
        stroke-miterlimit: 10;
      }
    </style>
  </defs>
  <title>Mumstamp</title>
  <g id="Layer_2" data-name="Layer 2">
    <g id="Layer_1-2" data-name="Layer 1">
      <g>
        <path class="cls-1" d="M104.79,61.43a.9.9,0,0,1,.39-.71,1.72,1.72,0,0,1,.95-.3h0c1.74,0,3.5.1,5.24.16s3.37.19,5,.35a1.27,1.27,0,0,1,.62-.28,2,2,0,0,1,1.07.13h0a1.34,1.34,0,0,1,.42.37h0a1.45,1.45,0,0,1,.82.35.9.9,0,0,1,0,1.34,1.28,1.28,0,0,1-.39.24c0,.17,0,.34,0,.51s0,.6,0,.86,0,.51,0,.7,0,.32,0,.37c0,.7,0,1.41.07,2.09s0,1.14.08,1.69a1.73,1.73,0,0,1,.32.11.88.88,0,0,1,.51.51.86.86,0,0,1,0,.7,1.2,1.2,0,0,1-.59.53l-.11,0,.46,5,.33.46a.38.38,0,0,1,.07.33l-.13.7a.43.43,0,0,1-.2.29l-.24.14v.08a.39.39,0,0,1-.06.21,1.2,1.2,0,0,1-.57.52,1.76,1.76,0,0,1-.67.18h-.09a1.58,1.58,0,0,1-.61-.12,1.09,1.09,0,0,1-.4-.29,15.91,15.91,0,0,1-1.85,0c-.75,0-1.51-.06-2.27-.12s-1.47-.13-2.13-.2l-1.67-.21h-.07c-1-.31-1-.86-1-1.17s.36-.77,1.33-.84h.08l1.48.18c.65.08,1.37.15,2.12.22s1.51.11,2.24.13c.55,0,1,0,1.45,0,0-.86,0-1.71-.09-2.53l-.15-2.52a16.23,16.23,0,0,1-3.38-.2c-1.27-.2-2.45-.41-3.49-.6h0a1.28,1.28,0,0,1-.84-.52.84.84,0,0,1-.07-.82,1.19,1.19,0,0,1,.62-.53,1.8,1.8,0,0,1,1-.07c.47.1,1,.2,1.51.29s1.08.19,1.65.28,1.12.15,1.68.19a9.14,9.14,0,0,0,1.17,0c0-.62-.07-1.26-.08-1.9s0-1.54-.07-2.3,0-1.71,0-2.53c-1.1-.09-2.21-.16-3.32-.21s-2.52-.12-3.78-.22l-.85,0h-.47l-.62,0h-1.16a1.66,1.66,0,0,1-.91-.28A.89.89,0,0,1,104.79,61.43Z"/>
        <path class="cls-1" d="M102.46,73.51c0-.71,0-1.41,0-2.08s0-1.32,0-2.05,0-1.52,0-2.41,0-1.91.07-3.08a.43.43,0,0,1,0-.11,1.18,1.18,0,0,1,.56-.73,1.61,1.61,0,0,1,.81-.18,1.56,1.56,0,0,1,.79.27,1.06,1.06,0,0,1,.46.75.22.22,0,0,1,0,.08c0,1.18,0,2.22-.07,3.1s0,1.69,0,2.4,0,1.42,0,2.06,0,1.33,0,2,0,1.56,0,2.41,0,1.92-.07,3.11a.46.46,0,0,1-.05.2,1.41,1.41,0,0,1-.59.54,1.79,1.79,0,0,1-.75.17,1.39,1.39,0,0,1-.75-.21,1.21,1.21,0,0,1-.48-.63.39.39,0,0,1,0-.15c0-1.19,0-2.24.06-3.1S102.46,74.26,102.46,73.51Z"/>
        <path class="cls-1" d="M91.37,75.36a10.2,10.2,0,0,0-.09,1.35v1.14a.42.42,0,0,0,.36.42l1.68.26a.46.46,0,0,0,.38,0l0,0a1.58,1.58,0,0,0,.31.09,12.4,12.4,0,0,0,2.6.28h.49a7.32,7.32,0,0,0,2.65-.52A1.73,1.73,0,0,0,101,76.81c0-.67-.55-1.34-1.79-2.11a3.49,3.49,0,0,0-1.39-.43,6.55,6.55,0,0,0-1.59,0,9.44,9.44,0,0,0-1.53.33l-.43.15a3.68,3.68,0,0,1,.44-.8v0a1.56,1.56,0,0,1,.78-.59,4,4,0,0,1,1.3-.27,5.64,5.64,0,0,1,1.41.15,2.38,2.38,0,0,1,1,.5,1.62,1.62,0,0,0,.81.44,1.55,1.55,0,0,0,.83,0,1.27,1.27,0,0,0,.64-.47.89.89,0,0,0,.06-.93.57.57,0,0,0-.08-.13,4.62,4.62,0,0,0-1.61-1,7.56,7.56,0,0,0-2-.45,9.62,9.62,0,0,0-2.07,0,9.12,9.12,0,0,0-2,.47,2,2,0,0,0-.88.57l-.49.56A3.55,3.55,0,0,0,91.73,74,5.6,5.6,0,0,0,91.37,75.36Zm4.76,1a3.12,3.12,0,0,1,1.13,0,1.72,1.72,0,0,1,.72.27,1.1,1.1,0,0,1,.15.14l-.16.08a3.66,3.66,0,0,1-1.27.12,8.05,8.05,0,0,1-1-.09l-.56-.11A2.75,2.75,0,0,1,96.13,76.35Z"/>
        <path class="cls-1" d="M88.94,70.79l-.36.06h-.07a3.44,3.44,0,0,1-.43,0,1.72,1.72,0,0,1-.52-.08,1,1,0,0,1-.69-.54.84.84,0,0,1,.07-.81,1.46,1.46,0,0,1,.75-.52h0a2.64,2.64,0,0,1,.62-.1,1.52,1.52,0,0,1,.42-.06h0a.42.42,0,0,1,.42.42v.59a4.73,4.73,0,0,0,0,.52A.41.41,0,0,1,88.94,70.79Z"/>
        <path class="cls-1" d="M86.45,75.74a18.11,18.11,0,0,1,.39-2.3v0a1.14,1.14,0,0,1,.56-.72,1.52,1.52,0,0,1,.81-.19,1.56,1.56,0,0,1,.79.27,1.17,1.17,0,0,1,.46.75.43.43,0,0,1,0,.16,20.11,20.11,0,0,0-.38,2.37,18.58,18.58,0,0,1-.39,2.47.42.42,0,0,1-.38.33L86.56,79h0a.38.38,0,0,1-.29-.12.48.48,0,0,1-.12-.17.66.66,0,0,1-.06-.2.94.94,0,0,1,.1-.61C86.29,77.17,86.38,76.45,86.45,75.74Z"/>
        <path class="cls-1" d="M74,77.34a12.69,12.69,0,0,1,0-2,5.57,5.57,0,0,1,.51-2,4,4,0,0,1,1.65-1.69h0a3.21,3.21,0,0,1,1.2-.36,4.53,4.53,0,0,1,1.21.07,5.35,5.35,0,0,1,1.14.33,9.33,9.33,0,0,1,1,.46l0,0a9.26,9.26,0,0,1,1,.78l.42.39a4.25,4.25,0,0,1,.27-.46,5.22,5.22,0,0,1,.75-.95.46.46,0,0,1,.32-.13l1.48.06a.43.43,0,0,1,.32.17l.09.12a.35.35,0,0,1,.07.12A1,1,0,0,1,85,73.61,4.41,4.41,0,0,0,84.18,75a8.82,8.82,0,0,0-.4,1.59,4.7,4.7,0,0,1-.1,1.78.37.37,0,0,1-.14.29.44.44,0,0,1-.33.11l-.26,0-1.46-.09h0a.42.42,0,0,1-.42-.42V78q-.09-.9-.09-1.74a1.87,1.87,0,0,0-.61-1.3s0,0,0,0a7.26,7.26,0,0,0-.56-.58,4.61,4.61,0,0,0-.87-.63,2.33,2.33,0,0,0-.89-.29.66.66,0,0,0-.59.22h0a2.23,2.23,0,0,0-.64,1.12,6.38,6.38,0,0,0-.17,1.52c0,.54,0,1.09,0,1.65a4.68,4.68,0,0,1-.2,1.69.41.41,0,0,1-.3.28l-.64.18-.68.22a.27.27,0,0,1-.13,0,.46.46,0,0,1-.23-.06l0,0a1,1,0,0,1-.6-.66.84.84,0,0,1,.1-.64A6,6,0,0,0,74,77.34Z"/>
        <path class="cls-1" d="M61.73,77c.09.48.51.88,1.29,1.21a11.64,11.64,0,0,0,2.22.65,15.61,15.61,0,0,0,2.44.29h.42A4.66,4.66,0,0,0,69.61,79a10,10,0,0,0,2.13-1A4.13,4.13,0,0,0,73,76.79a3,3,0,0,0,.49-1.49,5.54,5.54,0,0,0-.19-1.74,2.27,2.27,0,0,0-.77-1.29,3.78,3.78,0,0,0-1.34-.69,6.4,6.4,0,0,0-1.63-.25,11.83,11.83,0,0,0-1.69.06,3,3,0,0,0-1.53.51,9.75,9.75,0,0,1-1.14.67,4.27,4.27,0,0,0-.74.47,3,3,0,0,0-.66.69,1.4,1.4,0,0,0-.25.88,1.13,1.13,0,0,0,.7.89,3.67,3.67,0,0,0,1.37.38A15.25,15.25,0,0,0,67.2,76l1.61,0a10.5,10.5,0,0,1,1.4.07l.27.1a2.66,2.66,0,0,1-.69.57,3.73,3.73,0,0,1-1.93.45,8.05,8.05,0,0,1-1.6-.15c-.51-.11-1-.24-1.51-.39h-.07a1.58,1.58,0,0,0-.6-.47h0a1.43,1.43,0,0,0-.39-.11l-.14,0a.41.41,0,0,0-.29,0l-.67.28-.61.28A.46.46,0,0,0,61.73,77ZM70,73.94l-1.37,0H67.3l0,0,.7-.31.59-.22a2.63,2.63,0,0,1,.77-.13h.21a1.33,1.33,0,0,1,.63.25,1.71,1.71,0,0,1,.43.5A4.32,4.32,0,0,0,70,73.94Z"/>
      </g>
      <g>
        <path class="cls-1" d="M35.55,70.23V68.75h3.16V66c0-1-.48-1.46-2.11-1.46s-3.84.81-3.84,2.38v.87h-2V63.29H44.36v1.19l-1,.1c-.64.08-1,.69-1,1.67v7.21c0,1,.26,1.58,1,1.66l1,.11v1.19H30.74V71.71h2v1c0,1.29,1.61,2.35,3.84,2.35,1.63,0,2.11-.6,2.11-1.44V70.23Z"/>
        <path class="cls-1" d="M27,73.46c0,1,.25,1.56,1,1.66l1,.11v1.19H19.16c-3.2,0-5.3-1.34-5.3-3.94a3.17,3.17,0,0,1,1.94-2.86v0A3.24,3.24,0,0,1,14,66.77c0-2.15,2.08-3.48,6-3.48h9v1.19l-1,.1c-.64.08-1,.69-1,1.67Zm-3.61-7.11c0-1-.42-1.58-1.09-1.58H20A2.2,2.2,0,0,0,17.82,67c0,1.12.89,1.83,2.65,1.83h2.87ZM22.25,75c.67,0,1.09-.54,1.09-1.5V70.23H20.56c-1.69,0-2.74.91-2.74,2.23A2.55,2.55,0,0,0,20.47,75Z"/>
      </g>
      <circle class="cls-2" cx="29.9" cy="69.31" r="21.26"/>
      <rect class="cls-2" x="55.47" y="55.48" width="70.89" height="29.79"/>
      <path class="cls-1" d="M20,17.21h2.26c.67,0,1.09.56,1.09,1.58v2.44H20.46c-1.75,0-2.65-.71-2.65-1.83A2.2,2.2,0,0,1,20,17.21Z"/>
      <path class="cls-1" d="M20.56,22.67h2.78V25.9c0,1-.42,1.5-1.09,1.5H20.46a2.55,2.55,0,0,1-2.65-2.5C17.81,23.59,18.87,22.67,20.56,22.67Z"/>
      <path class="cls-1" d="M29.9.5A21.26,21.26,0,1,0,51.16,21.75,21.25,21.25,0,0,0,29.9.5ZM29,16.92,28,17c-.64.08-1,.69-1,1.67V25.9c0,1,.25,1.56,1,1.67l1,.1v1.19H19.16c-3.2,0-5.31-1.34-5.31-3.94a3.18,3.18,0,0,1,2-2.86v0A3.24,3.24,0,0,1,14,19.21c0-2.15,2.08-3.48,6-3.48h9Zm15.37,0-1,.1c-.64.08-1,.69-1,1.67V25.9c0,1,.25,1.58,1,1.67l1,.1v1.19H30.74V24.15h2v1c0,1.29,1.62,2.35,3.85,2.35,1.63,0,2.11-.6,2.11-1.43V22.67H35.55V21.19h3.16V18.48c0-1-.48-1.46-2.11-1.46s-3.85.81-3.85,2.38v.87h-2V15.73H44.36Z"/>
      <path class="cls-1" d="M70.64,26.43a6,6,0,0,0-.61-.05l-1.37,0H67.29l0,0L68,26c.24-.09.43-.17.6-.22a2.63,2.63,0,0,1,.77-.13h.21a1.33,1.33,0,0,1,.63.25A1.67,1.67,0,0,1,70.64,26.43Z"/>
      <path class="cls-1" d="M98,29a1.72,1.72,0,0,0-.72-.28,3.12,3.12,0,0,0-1.13,0,2.91,2.91,0,0,0-1,.39l.56.11c.22,0,.55.06,1,.08A3.41,3.41,0,0,0,98,29.25a.47.47,0,0,0,.15-.08A.45.45,0,0,0,98,29Zm0,0a1.72,1.72,0,0,0-.72-.28,3.12,3.12,0,0,0-1.13,0,2.91,2.91,0,0,0-1,.39l.56.11c.22,0,.55.06,1,.08A3.41,3.41,0,0,0,98,29.25a.47.47,0,0,0,.15-.08A.45.45,0,0,0,98,29ZM55.47,7.92V37.71h70.89V7.92Zm31.47,14a1.46,1.46,0,0,1,.75-.52h0a2.57,2.57,0,0,1,.61-.09,1.33,1.33,0,0,1,.43-.07h0a.42.42,0,0,1,.43.42v.59a3,3,0,0,0,0,.52.44.44,0,0,1-.35.49l-.36.05h-.07a2.25,2.25,0,0,1-.44,0,1.7,1.7,0,0,1-.51-.07,1.06,1.06,0,0,1-.7-.55A.84.84,0,0,1,86.94,21.91ZM73,29.23a4.13,4.13,0,0,1-1.3,1.21,10.18,10.18,0,0,1-2.13,1,4.62,4.62,0,0,1-1.51.2h-.42a15.74,15.74,0,0,1-2.45-.29A11.75,11.75,0,0,1,63,30.67c-.78-.33-1.2-.72-1.29-1.21A.44.44,0,0,1,62,29l.61-.28.67-.29a.41.41,0,0,1,.29,0l.14,0a1.4,1.4,0,0,1,.39.1h0a1.61,1.61,0,0,1,.6.46l.07,0a15.15,15.15,0,0,0,1.51.38,8,8,0,0,0,1.59.15,3.74,3.74,0,0,0,1.94-.45,2.84,2.84,0,0,0,.69-.57l-.27-.1a12.55,12.55,0,0,0-1.41-.07l-1.6,0a15.25,15.25,0,0,1-1.54-.08,3.62,3.62,0,0,1-1.37-.38,1.13,1.13,0,0,1-.7-.89,1.4,1.4,0,0,1,.25-.88,3,3,0,0,1,.66-.69,5,5,0,0,1,.74-.47,10.65,10.65,0,0,0,1.14-.67,3.09,3.09,0,0,1,1.52-.51,12,12,0,0,1,1.7-.06,6.47,6.47,0,0,1,1.63.25,3.64,3.64,0,0,1,1.34.7A2.21,2.21,0,0,1,73.34,26a5.89,5.89,0,0,1,.19,1.74A3,3,0,0,1,73,29.23ZM85,26.05a4.22,4.22,0,0,0-.79,1.39,8.71,8.71,0,0,0-.4,1.6,4.66,4.66,0,0,1-.1,1.77.42.42,0,0,1-.14.29.41.41,0,0,1-.33.11l-.26,0-1.46-.08h0a.42.42,0,0,1-.42-.43v-.24A17.34,17.34,0,0,1,81,28.69a1.87,1.87,0,0,0-.61-1.3l0,0a4.1,4.1,0,0,0-.55-.56,3.91,3.91,0,0,0-.87-.64,2.19,2.19,0,0,0-.89-.3.65.65,0,0,0-.59.22h0a2.31,2.31,0,0,0-.65,1.13,6.79,6.79,0,0,0-.16,1.51c0,.54,0,1.09,0,1.65a4.62,4.62,0,0,1-.2,1.69.41.41,0,0,1-.3.28,5.52,5.52,0,0,0-.65.2l-.67.21-.13,0a.48.48,0,0,1-.23-.07l0,0a1,1,0,0,1-.61-.66.9.9,0,0,1,.11-.64A6,6,0,0,0,74,29.79a12.82,12.82,0,0,1,0-2,5.63,5.63,0,0,1,.51-2,4,4,0,0,1,1.65-1.69h0a3.21,3.21,0,0,1,1.19-.36,5,5,0,0,1,1.22.07,5.35,5.35,0,0,1,1.14.33,7.64,7.64,0,0,1,1,.47,0,0,0,0,1,0,0,8.54,8.54,0,0,1,1,.78l.42.39.26-.46a6.73,6.73,0,0,1,.76-.95.41.41,0,0,1,.32-.12l1.48.05a.44.44,0,0,1,.32.17l.09.12a.47.47,0,0,1,.07.12A1,1,0,0,1,85,26.05Zm4.49.08a20.38,20.38,0,0,0-.37,2.37A20.37,20.37,0,0,1,88.7,31a.43.43,0,0,1-.39.33l-1.75.12h0a.42.42,0,0,1-.29-.12.45.45,0,0,1-.11-.17.66.66,0,0,1-.06-.2,1,1,0,0,1,.1-.61c.12-.71.21-1.43.28-2.14a18.11,18.11,0,0,1,.39-2.3h0a1.15,1.15,0,0,1,.57-.73,1.55,1.55,0,0,1,1.59.08,1.15,1.15,0,0,1,.47.76A.25.25,0,0,1,89.46,26.13Zm12,0a1.2,1.2,0,0,1-.64.47,1.65,1.65,0,0,1-.83,0,1.72,1.72,0,0,1-.81-.45,2.26,2.26,0,0,0-1-.49,4.84,4.84,0,0,0-1.41-.15,3.72,3.72,0,0,0-1.3.26,1.56,1.56,0,0,0-.78.59s0,0,0,0a4.19,4.19,0,0,0-.43.81,3.12,3.12,0,0,1,.43-.15,8.5,8.5,0,0,1,1.53-.34,6,6,0,0,1,1.58,0,3.34,3.34,0,0,1,1.4.42c1.24.77,1.81,1.44,1.79,2.11a1.75,1.75,0,0,1-1.21,1.54,7.55,7.55,0,0,1-2.65.51h-.49A12.33,12.33,0,0,1,94,31l-.31-.1,0,0a.46.46,0,0,1-.38,0l-1.69-.26a.43.43,0,0,1-.36-.42V29.15a10.22,10.22,0,0,1,.1-1.35,5.73,5.73,0,0,1,.36-1.35,3.37,3.37,0,0,1,.79-1.16c.17-.2.34-.39.49-.58a2,2,0,0,1,.88-.57,9,9,0,0,1,2-.47,9.6,9.6,0,0,1,2.07-.05,7.57,7.57,0,0,1,2,.46,4.35,4.35,0,0,1,1.61,1,.36.36,0,0,1,.08.12A.91.91,0,0,1,101.5,26.15Zm3.67-6.64c0,.89,0,1.69,0,2.4s0,1.42,0,2.06,0,1.33,0,2,0,1.56,0,2.41,0,1.92-.07,3.12a.45.45,0,0,1-.05.19,1.41,1.41,0,0,1-.59.54,1.65,1.65,0,0,1-.75.17,1.37,1.37,0,0,1-.75-.21,1.17,1.17,0,0,1-.48-.63.26.26,0,0,1,0-.15c0-1.19,0-2.23.06-3.1s0-1.65,0-2.4,0-1.41,0-2.07,0-1.33,0-2.06,0-1.52,0-2.41,0-1.91.07-3.08a.43.43,0,0,1,0-.11,1.14,1.14,0,0,1,.56-.72,1.52,1.52,0,0,1,.81-.19,1.56,1.56,0,0,1,.79.27,1.16,1.16,0,0,1,.46.75.22.22,0,0,1,0,.08C105.21,17.59,105.18,18.63,105.17,19.51ZM120,30.16a.41.41,0,0,1-.2.29l-.24.14v.08a.37.37,0,0,1-.06.21,1.22,1.22,0,0,1-.57.53,1.75,1.75,0,0,1-.67.17h-.09a1.63,1.63,0,0,1-.62-.12,1,1,0,0,1-.39-.29,16.09,16.09,0,0,1-1.86,0c-.74,0-1.51-.06-2.26-.12s-1.48-.12-2.13-.2l-1.67-.21h-.07c-1-.31-1-.86-1-1.17s.36-.77,1.33-.84h.08l1.48.17c.65.08,1.36.15,2.12.22s1.5.11,2.24.13a13.48,13.48,0,0,0,1.45,0c0-.86,0-1.71-.09-2.53l-.15-2.52a16.23,16.23,0,0,1-3.38-.2c-1.27-.2-2.45-.4-3.49-.6h0a1.34,1.34,0,0,1-.84-.53.86.86,0,0,1-.06-.82,1.11,1.11,0,0,1,.62-.53,1.78,1.78,0,0,1,1-.07l1.52.3,1.65.27a16.11,16.11,0,0,0,1.67.19,7.75,7.75,0,0,0,1.18,0c0-.62-.07-1.26-.08-1.9s0-1.54-.07-2.29,0-1.71,0-2.54c-1.1-.09-2.22-.16-3.32-.2-1.25,0-2.52-.13-3.78-.23l-.85,0h-.47l-.62,0h-1.16a1.72,1.72,0,0,1-.91-.29.86.86,0,0,1-.43-.72.9.9,0,0,1,.39-.72,1.65,1.65,0,0,1,.95-.29h0c1.74,0,3.5.09,5.24.17s3.37.17,5,.33a1.37,1.37,0,0,1,.62-.28,2,2,0,0,1,1.06.13l0,0a1.08,1.08,0,0,1,.41.36h0a1.45,1.45,0,0,1,.82.35.92.92,0,0,1,.31.67.89.89,0,0,1-.31.67,1,1,0,0,1-.38.25c0,.16,0,.33,0,.51s0,.59,0,.85,0,.51,0,.7,0,.32,0,.37c0,.7,0,1.41.07,2.1s0,1.13.08,1.68a3,3,0,0,1,.32.11.94.94,0,0,1,.51.51.9.9,0,0,1,0,.7,1.19,1.19,0,0,1-.59.53l-.11,0,.45,5,.34.46a.44.44,0,0,1,.07.33ZM96.7,29.37A3.41,3.41,0,0,0,98,29.25a.47.47,0,0,0,.15-.08A.45.45,0,0,0,98,29a1.72,1.72,0,0,0-.72-.28,3.12,3.12,0,0,0-1.13,0,2.91,2.91,0,0,0-1,.39l.56.11C95.94,29.32,96.27,29.35,96.7,29.37ZM98,29a1.72,1.72,0,0,0-.72-.28,3.12,3.12,0,0,0-1.13,0,2.91,2.91,0,0,0-1,.39l.56.11c.22,0,.55.06,1,.08A3.41,3.41,0,0,0,98,29.25a.47.47,0,0,0,.15-.08A.45.45,0,0,0,98,29Zm0,0a1.72,1.72,0,0,0-.72-.28,3.12,3.12,0,0,0-1.13,0,2.91,2.91,0,0,0-1,.39l.56.11c.22,0,.55.06,1,.08A3.41,3.41,0,0,0,98,29.25a.47.47,0,0,0,.15-.08A.45.45,0,0,0,98,29Z"/>
      <circle class="cls-2" cx="29.9" cy="21.76" r="21.26"/>
      <rect class="cls-2" x="55.47" y="7.93" width="70.89" height="29.79"/>
      <polygon class="cls-2" points="187.66 35.35 130.97 35.35 130.97 25.61 159.32 25.61 159.32 17.11 130.97 17.11 130.97 7.37 187.66 7.37 187.66 35.35"/>
      <polygon class="cls-2" points="187.66 68.28 130.97 68.28 130.97 40.29 187.66 40.29 187.66 50.03 159.32 50.03 159.32 58.54 187.66 58.54 187.66 68.28"/>
      <polygon class="cls-2" points="130.97 104.14 187.66 104.14 187.66 113.88 159.31 113.88 159.31 122.38 187.66 122.38 187.66 132.12 130.97 132.12 130.97 104.14"/>
      <polygon class="cls-2" points="130.97 71.21 187.66 71.21 187.66 99.2 130.97 99.2 130.97 89.46 159.31 89.46 159.31 80.95 130.97 80.95 130.97 71.21"/>
      <polygon class="cls-2" points="28.48 94.69 28.48 151.38 18.74 151.38 18.74 123.03 10.24 123.03 10.24 151.38 0.5 151.38 0.5 94.69 28.48 94.69"/>
      <polygon class="cls-2" points="61.41 94.69 61.41 151.38 33.42 151.38 33.42 94.69 43.16 94.69 43.16 123.03 51.67 123.03 51.67 94.69 61.41 94.69"/>
      <polygon class="cls-2" points="97.27 151.38 97.27 94.69 107.01 94.69 107.01 123.05 115.51 123.05 115.51 94.69 125.25 94.69 125.25 151.38 97.27 151.38"/>
      <polygon class="cls-2" points="64.34 151.38 64.34 94.69 92.33 94.69 92.33 151.38 82.59 151.38 82.59 123.05 74.08 123.05 74.08 151.38 64.34 151.38"/>
    </g>
  </g>
</svg>
