<svg xmlns="http://www.w3.org/2000/svg" width="867.13mm" height="568.91mm" viewBox="0 0 2458.01 1612.67">
  <defs>
    <style>
      .cls-1 {
        fill: #fff;
      }
    </style>
  </defs>
  <title>skillz</title>
  <g id="Layer_2" data-name="Layer 2">
    <g id="Layer_1-2" data-name="Layer 1">
      <g>
        <path class="cls-1" d="M177.35,624.27C127.51,630.44,84.15,622,52,599.75,23.22,579.94,5.09,550.36.9,516.46-2.83,486.31,5.15,457,23.38,434s45.45-38,76.41-41.83c27.32-3.38,55.73,1.53,78,13.45,17.75,9.53,39.78,27.86,43.88,61.06,2.32,18.76-2.62,37-13.92,51.29C196,532.81,178,542.41,157.12,545c-17.68,2.19-35-3.52-46.24-15.26-10-10.45-14.17-24.65-11.63-40a2.83,2.83,0,0,1,2.39-2.34c24.87-3.6,41.12-26.56,37.8-53.41-3.53-28.5-30.9-32.84-46.52-30.91-20.47,2.53-38.46,15.45-50.66,36.36-11.88,20.38-16.91,46.6-13.77,71.94,7.28,58.87,57.38,113,152.9,101.17,52.27-6.46,82.8-28.17,99.22-45.24,21-21.81,31.14-49.22,27.92-75.2-5.75-46.5-57.68-66.78-112.67-88.24C135.59,380.36,73.26,356,65.64,294.4c-6-48.2,21.61-81.85,45.78-101.59,29.92-24.43,71.8-41.49,114.9-46.82,33.8-4.18,65.5-.57,89.26,10.16,26.95,12.18,43,32.9,46.3,59.9a71.24,71.24,0,0,1-16,54.54c-11.67,14.15-27.89,23.44-44.5,25.5-16.84,2.08-33.16-2.94-43.66-13.43-9.18-9.16-13.09-21.61-11.33-36a2.81,2.81,0,0,1,1.92-2.34c18.2-6,28.34-23,25.84-43.21-3-24-19.46-48-56.84-43.35a79.51,79.51,0,0,0-45.07,21.52C159.39,191.9,153.4,207.79,155.41,224c4.25,34.4,43.74,48.27,89.47,64.32,30.39,10.67,61.81,21.71,87.7,40.16,29.86,21.28,46.5,48.79,50.87,84.12,3,24.48-.2,49.15-9.6,73.32-9,23.22-23.3,44.9-42.43,64.46C292.1,590.61,237.38,616.85,177.35,624.27Z"/>
        <path class="cls-1" d="M670.09,499.12c-56.65,7-94-14.93-114.25-67.06-3.12-8-5.92-15.66-8.38-22.38-10.63-29-16.65-44.11-26.83-43.56a2.85,2.85,0,0,1-2.52-1.26l-.67-1a2.84,2.84,0,0,1,1-4.08c18.8-10,79.62-46.93,72.7-102.92-1.82-14.71-6.47-17.2-12.89-16.4-27.7,3.42-57.09,69.75-66.92,151-10.35,86.88-2.29,108.74,6.29,111.78a2.83,2.83,0,0,1,1.29,4.42l-1.42,1.82a2.76,2.76,0,0,1-1.46,1c-18.67,5.33-33.07,8.52-45.3,10-21.64,2.68-36.47-.44-46.66-9.8-13.2-12.13-18.7-34.93-17.29-71.77l12.51-316a10.84,10.84,0,0,0-3.21-8.5c-2.24-2-5.45-2.85-9.27-2.38a25,25,0,0,0-7.4,2.25,3.17,3.17,0,0,1-.85.24,2.84,2.84,0,0,1-2.09-.58l-1.82-1.42a2.85,2.85,0,0,1-1.09-2.36,2.81,2.81,0,0,1,1.29-2.25c16.68-10.81,54-28.38,81.3-31.75,17-2.1,28.19.07,35.35,6.83,7.76,7.33,10.76,20,9.45,39.87l-15.52,232c9.63-49.33,24.28-87.14,43.68-112.66,18.89-24.84,42.22-38.67,71.32-42.27,20.88-2.58,38.95.89,52.26,10a50.34,50.34,0,0,1,21.58,35.83c6.72,54.35-70.88,84.49-130,104.66l2.44-.31c50.9-6.3,79.19,5.15,94.6,38.26,30,65.34,50.12,82.11,72.88,88a2.84,2.84,0,0,1,2,1.84,2.81,2.81,0,0,1-.45,2.65l-1.42,1.82a2.82,2.82,0,0,1-1.37,1C713.89,489.72,691.78,496.44,670.09,499.12Z"/>
        <path class="cls-1" d="M801.58,479.57c-24.77,3.06-43.79-1.36-56.54-13.16-14.24-13.19-20.74-35.72-19.3-67l7-173.74a10.84,10.84,0,0,0-3.21-8.49c-2.23-2-5.44-2.86-9.27-2.38a25,25,0,0,0-7.39,2.24,2.65,2.65,0,0,1-.85.24,2.79,2.79,0,0,1-2.09-.57l-1.82-1.42a2.84,2.84,0,0,1,.2-4.62c16.67-10.81,54-28.37,81.29-31.74,16.74-2.07,27.4-.07,34.54,6.48,7.87,7.23,11,19.61,10.27,40.13L829.3,352.46l-.25,5.1c-1.66,34.84-4.77,99.7,13.39,105.47a2.83,2.83,0,0,1,1.38,4.44l-1.42,1.83a2.79,2.79,0,0,1-1.35.94A206.93,206.93,0,0,1,801.58,479.57ZM758.31,167.23c-1.56.19-3.16.36-4.73.49a2.83,2.83,0,0,1-2.39-1l-1.28-1.49a2.83,2.83,0,0,1-.41-3.07c8.81-18.54,9-58.75-8.72-76.3a2.83,2.83,0,0,1-.65-3c10-25.39,33.67-45.17,57.48-48.12,11.81-1.46,23.91,1,33.21,6.67,11.35,7,18.3,18.35,20.1,33,2.54,20.48-6.15,42.39-23.83,60.09S784.44,164,758.31,167.23Z"/>
        <path class="cls-1" d="M959.34,460.43c-20.34,2.52-48.56,1.85-67.48-15.62-14.62-13.49-21.4-34.82-20.17-63.41L883.12,65.52A10.85,10.85,0,0,0,879.91,57c-2.24-2-5.44-2.85-9.27-2.37a25.1,25.1,0,0,0-7.4,2.24,2.52,2.52,0,0,1-.84.24,2.83,2.83,0,0,1-2.09-.58l-1.82-1.42a2.83,2.83,0,0,1,.2-4.61c16.67-10.81,54-28.38,81.29-31.75,16.74-2.07,27.39-.07,34.53,6.49,7.88,7.23,11,19.6,10.28,40.13l-9.54,269-.28,5.87c-.93,19.25-2.19,45.6-.89,67.31,1.81,30.36,7.84,38.73,12.57,40.41a2.83,2.83,0,0,1,1.29,4.41l-1.42,1.83a2.82,2.82,0,0,1-1.46,1A174.63,174.63,0,0,1,959.34,460.43Z"/>
        <path class="cls-1" d="M1104.75,442.45c-20.34,2.51-48.56,1.85-67.48-15.62-14.61-13.49-21.4-34.82-20.16-63.41l11.42-315.88a10.85,10.85,0,0,0-3.21-8.51c-2.23-2-5.44-2.85-9.27-2.38a25.14,25.14,0,0,0-7.4,2.25,3.1,3.1,0,0,1-.84.24,2.84,2.84,0,0,1-2.09-.58l-1.82-1.42a2.83,2.83,0,0,1,.2-4.61c16.67-10.81,54-28.38,81.29-31.75,16.74-2.07,27.39-.07,34.54,6.49,7.87,7.22,11,19.6,10.27,40.13l-9.54,269-.28,5.86c-.93,19.25-2.19,45.6-.89,67.32,1.81,30.35,7.84,38.73,12.58,40.41a2.83,2.83,0,0,1,1.28,4.41l-1.42,1.82a2.84,2.84,0,0,1-1.46,1A174.63,174.63,0,0,1,1104.75,442.45Z"/>
        <path class="cls-1" d="M1274,420.6c-42.44,5.25-114.59,6.32-121-45.52a57,57,0,0,1,10-39.81,52,52,0,0,1,36.29-21.46c13.68-1.69,26.55,1.76,35.29,9.48,7.64,6.74,11.68,16.42,11.69,28a2.84,2.84,0,0,1-1.59,2.55,35.18,35.18,0,0,0-19.42,35.92c2.81,22.77,27.18,22.87,50.65,20,8.59-1.06,30.56-4.47,48.93-13.18,19.16-9.07,28-20.84,26.23-35-2.63-21.33-34.73-29.7-71.9-39.4-25.27-6.59-51.4-13.41-72.81-25.3-24.95-13.85-38.51-32.19-41.46-56.07-4.29-34.72,10-65.38,41.32-88.69,25.26-18.79,61.39-32.25,99.13-36.92,19.1-2.36,46.78-3.94,70.22,1.94,25.07,6.29,39,19.49,41.46,39.25a51.47,51.47,0,0,1-9,35.91,46.66,46.66,0,0,1-32.58,19.29c-11.16,1.38-21.86-1.6-29.38-8.18-7.25-6.35-11.15-15.6-11.26-26.75a2.84,2.84,0,0,1,1.55-2.55c9.34-4.77,18.65-15.9,17-29.06-2-15.73-21.35-22.5-53.23-18.55-20.15,2.49-57.27,15.31-53.47,46,2.67,21.56,34.19,28.61,70.69,36.77,24.7,5.52,50.24,11.23,71.19,22.24,24.41,12.84,37.71,30.68,40.66,54.53,4.5,36.43-11.59,69.06-46.55,94.36C1354.34,400.91,1314.72,415.56,1274,420.6Z"/>
        <path class="cls-1" d="M428.65,835.18a2.84,2.84,0,0,1-3.18-2.87l0-2a2.84,2.84,0,0,1,2.49-2.76c26-3.22,27.69-15.43,28.72-50.25l2.53-85.22c.45-16.78,9.26-31.07,26.21-42.45a117.8,117.8,0,0,1,30.08-14c-14-2.62-28.35-6.2-42.35-9.68-30.85-7.68-60-14.93-83-12.09-12.63,1.57-27.27,6.72-25.32,22.43,1.76,14.23,13.52,17.9,23.06,16.72A28.79,28.79,0,0,0,409,639.61a2.81,2.81,0,0,1,2.08-1.35,2.94,2.94,0,0,1,1.21.11c12.18,3.92,19.61,12,20.94,22.72,2.88,23.33-15.74,38-35.62,40.49-20.84,2.58-44.29-7.73-49.68-36.58a1.87,1.87,0,0,1,0-.25c-2.33-24.29,6.93-43.81,27.51-58,20-13.83,46.63-19.51,65.42-21.83,25-3.09,57.2-1.76,88.36-.47,27.6,1.14,53.67,2.21,71.46,0,12.16-1.51,21.39-4.42,29.8-14.3a2.81,2.81,0,0,1,1.81-1,2.9,2.9,0,0,1,1.3.14l1.18.42a2.81,2.81,0,0,1,1.62,1.46,2.84,2.84,0,0,1,.1,2.18c-15,41.22-36.38,61.43-69.4,65.51-9.68,1.2-20.65,1.06-34.47-.43-7,4.23-10.78,17.21-11.37,38.6l-3.56,102.12c-.61,17.49,1.16,26.81,5.91,31.15,3.55,3.26,9.52,4.24,18.79,3.09a2.84,2.84,0,0,1,3.18,2.87l0,2A2.84,2.84,0,0,1,543,821Z"/>
        <path class="cls-1" d="M630,812.27c-41.51,5.13-73.85-18.43-78.66-57.3-3-24,4.08-47.8,19.83-67.17A96.32,96.32,0,0,1,634.43,653c41.67-5.16,74.11,18.28,78.9,57,2.85,23-4.52,47.38-20.22,66.81A96.16,96.16,0,0,1,630,812.27Zm5.13-151.42c-26.48,3.28-27.18,85.51-23,119.25,2.85,23.07,11,25,17,24.29,15-4,21-28.9,23.45-49.14,3.06-25.39,1.79-53.5-.23-69.85C650.82,673.17,647.5,659.32,635.12,660.85Z"/>
        <path class="cls-1" d="M820.55,1040.34c-29.76,3.68-61.14-2.74-86.11-17.6-20.34-12.11-45.69-35.39-50.9-77.54a101.28,101.28,0,0,1,25.83-81.57c18.64-20.58,45.5-34.38,73.67-37.87,27.32-3.37,55.73,1.53,78,13.46,17.75,9.53,39.78,27.85,43.88,61,2.32,18.76-2.62,37-13.92,51.3-11.72,14.85-29.68,24.46-50.59,27-17.69,2.19-35-3.51-46.24-15.25-10-10.46-14.17-24.66-11.63-40a2.84,2.84,0,0,1,2.39-2.35c24.87-3.6,41.11-26.56,37.79-53.4-1.65-13.42-13.32-35-46.51-30.91-36.26,4.48-71.86,48.28-65,104,3.5,28.26,17,52.74,38,68.94,20.42,15.75,46.24,22.61,72.69,19.34,33.22-4.11,59.31-19.05,77.55-44.41,18.81-26.15,28.95-62.88,30.16-109.18L935,688.1c.9-32.85,16.74-59.62,47.09-79.57,16.92-11.13,35.82-18.33,51.82-22.92-25.53-1.4-50.77-8.5-75.4-15.43-32.27-9.08-65.63-18.47-98.52-14.41-34.62,4.29-52.71,21.09-49.62,46.09,2.85,23,20.84,29.15,36.73,27.18,14.55-1.8,27.79-11,36.32-25.34a2.82,2.82,0,0,1,2.09-1.36,2.69,2.69,0,0,1,1.19.11c26.72,8.33,41.34,28.18,39.1,53.09-1.34,14.87-8.81,30.28-20.51,42.28a79.2,79.2,0,0,1-46.8,23.34,86.61,86.61,0,0,1-59.58-14.77,78.75,78.75,0,0,1-33.21-55.64c-6.53-52.77,32.76-98,91.37-105.27,35.44-4.38,71.79,5.52,107,15.1,34.48,9.4,67,18.27,98.13,14.43,7-.87,14.07-5.14,13.16-12.5a9.12,9.12,0,0,0-10.6-8.06c-3.17.39-6.59,2-10.16,4.84a2.85,2.85,0,0,1-1.41.59,2.7,2.7,0,0,1-.75,0,2.85,2.85,0,0,1-1.91-1.17c-7.13-10.12-8.66-21.12-4.3-31s14.59-17.32,25.92-18.72c16.2-2,33.77,5.87,36.5,28,1.22,9.83-2.14,18.94-10,27.06q-1.54,1.59-3.17,3c3.48-.78,7-1.42,10.5-1.86,41.13-5.09,74.45-1.21,99,11.51,26.61,13.78,42.17,37.51,46.26,70.53,7,56.19-21.73,93.84-47,115.53-30.3,26-73,44-117.13,49.5h0a207.49,207.49,0,0,1-32.61,1.52,2.83,2.83,0,0,1-2.73-2.84v-4.39a2.83,2.83,0,0,1,2.48-2.81l.24,0c2.39-.09,4.75-.29,7-.57,30.73-3.8,51.91-24.54,62.94-61.65,11.42-38.42,8.44-82,5.65-104.55-4.8-38.86-21.77-60.31-45.4-57.39-15.23,1.88-33,12.54-35.18,78.78l-6.2,189.57c-2,62.39-31,111.67-86,146.48C907.67,1025.79,850.32,1036.66,820.55,1040.34Z"/>
        <path class="cls-1" d="M1510.71,909.44c-30.13,3.72-53.64-1.82-68-16-14.09-13.94-19.54-36-16.2-65.46l2.56-22.62c-7.69,34.66-17.54,61.53-29.75,81.33-16.42,26.62-37.8,41.21-65.38,44.63-27.22,3.36-49.45-5-66.07-25-9.54-11.44-21.84-32.52-26.22-68-5.37-43.36,8-94.25,35.64-136.14,30.36-45.94,72.76-74.42,119.39-80.18,19.66-2.43,38.19,1.35,56.11,5,15.23,3.11,29.61,6,42.55,4.44,14.34-1.77,25.38-9,34.75-22.77a2.82,2.82,0,0,1,2-1.22,2.77,2.77,0,0,1,1.24.12,2.83,2.83,0,0,1,1.94,2.82l-7.93,171.12c-3.31,66.69,5.08,107.51,23,112a2.84,2.84,0,0,1,1.55,4.49l-1.42,1.83a3,3,0,0,1-1.3.93A186.81,186.81,0,0,1,1510.71,909.44ZM1404.4,631.15c-19.14,2.36-36.51,31.34-47.65,79.48-10.39,44.87-13.51,99.67-8.15,143,1.16,9.36,6.1,39.75,21,37.9,30.74-3.8,55.83-91.67,60-171.35l1.87-33.73c1.76-29.12-.58-44.42-7.79-51.2C1419.52,631.34,1413.39,630,1404.4,631.15Z"/>
        <path class="cls-1" d="M1696.1,1006.16c-20,2.47-48.79,4.05-72.79-2.39-26.79-7.2-41.83-22.6-44.69-45.76-3.9-31.5,18.08-58.33,51.11-62.42,14.06-1.74,28.33,2.36,38.19,11,8.86,7.74,13.63,18.58,13.79,31.34a2.82,2.82,0,0,1-2.19,2.79c-18.92,4.45-25.86,18.73-24.36,30.91,1.71,13.8,13.73,27.28,42.34,23.74,39.3-4.86,48.7-34.33,52.3-87l11.27-166.43c-8.65,48.71-19.67,82.79-34,105.72-16.43,26.3-38.14,39.81-70.41,43.8-26.53,3.28-46.86-1.36-60.43-13.78-20.26-18.56-21.54-51.06-20.74-73.89L1582,638.8a10.84,10.84,0,0,0-3.21-8.5c-2.24-2-5.44-2.85-9.27-2.38a25.14,25.14,0,0,0-7.4,2.25,3.21,3.21,0,0,1-.84.24,2.86,2.86,0,0,1-2.1-.58l-1.82-1.42a2.84,2.84,0,0,1-1.09-2.36,2.81,2.81,0,0,1,1.29-2.25c16.68-10.81,54-28.38,81.3-31.75,16.74-2.07,27.39-.07,34.54,6.49,7.87,7.22,11,19.6,10.27,40.13l-6.72,176.46c-.74,16.33,1.81,27.68,7.37,32.83,3,2.76,6.86,3.81,11.83,3.19,27.36-3.38,47.88-55.27,59.35-150.06,3.42-28.7,5-51.57,4.8-69.93-.35-34.92-7.27-42.57-11.36-44a2.84,2.84,0,0,1-1.29-4.41l1.42-1.83a2.86,2.86,0,0,1,1.68-1c14.87-3,27-5.21,37.93-6.56,26.9-3.33,43.07-.47,54.08,9.56,13.13,12,18.48,34,17.36,71.28L1853.36,857c-1.43,39.28-15.51,73.41-40.72,98.7C1785.41,983,1746.2,1000,1696.1,1006.16Z"/>
        <path class="cls-1" d="M502.21,1309.31a2.84,2.84,0,0,1-3.19-2.87l0-2a2.84,2.84,0,0,1,2.49-2.76c26-3.22,27.69-15.43,28.73-50.26l2.52-85.21c.45-16.78,9.26-31.07,26.2-42.45a118,118,0,0,1,30.09-14c-14-2.62-28.35-6.2-42.35-9.68-30.85-7.68-60-14.93-83-12.09-12.63,1.57-27.27,6.72-25.32,22.43,1.76,14.23,13.52,17.9,23.06,16.72a28.82,28.82,0,0,0,21.08-13.44,2.81,2.81,0,0,1,2.08-1.35,2.94,2.94,0,0,1,1.21.11c12.18,3.92,19.61,12,20.94,22.72,2.88,23.33-15.74,38-35.62,40.49-20.84,2.58-44.29-7.73-49.68-36.58a1.87,1.87,0,0,1,0-.25c-2.33-24.29,6.93-43.81,27.51-58,20-13.83,46.63-19.51,65.42-21.83,25-3.09,57.2-1.76,88.36-.47,27.6,1.14,53.67,2.22,71.46,0,12.16-1.51,21.39-4.42,29.8-14.3a2.81,2.81,0,0,1,1.81-1,2.9,2.9,0,0,1,1.3.14l1.18.42a2.83,2.83,0,0,1,1.72,3.64c-15,41.22-36.38,61.43-69.4,65.51-9.68,1.2-20.65,1.06-34.47-.43-7,4.23-10.78,17.21-11.37,38.6l-3.56,102.12c-.61,17.49,1.16,26.81,5.91,31.15,3.55,3.26,9.52,4.24,18.79,3.09a2.84,2.84,0,0,1,3.18,2.87l0,2a2.84,2.84,0,0,1-2.49,2.76Z"/>
        <path class="cls-1" d="M662.36,1291.73c-11.93,1.47-20.1-.28-25.71-5.52-7.08-6.62-9.87-18.73-8.8-38.11l6.46-163.46a4.22,4.22,0,0,0-1.21-3.33,4.52,4.52,0,0,0-3.7-.89,11.5,11.5,0,0,0-3.43,1,3.1,3.1,0,0,1-.84.24,2.83,2.83,0,0,1-2.09-.58l-.95-.73a2.85,2.85,0,0,1,.21-4.62c9-5.83,28.16-14.84,42.63-16.63,9.21-1.14,15.38.1,19.4,3.89,4.33,4.1,6,11,5.32,21.72l-6.88,102.75c10.77-39.82,29.42-61,56.53-64.3,12.19-1.51,21.67.79,28.17,6.83,10.45,9.7,11,26.79,10.32,40.6l-1.8,40.53c-1.65,33.3,2.42,54.44,10.89,56.56a2.85,2.85,0,0,1,1.55,4.5l-.74.94a2.93,2.93,0,0,1-1.35.95,111.49,111.49,0,0,1-20.68,4.79c-15,1.86-26.61-.83-34.44-8-8.06-7.38-11.84-19.34-11.26-35.56l2.61-70.75c.1-4.06.37-14.94-2.25-17.32a2.16,2.16,0,0,0-2-.42c-12.18,1.5-28.12,30.7-33.71,77-1.13,9.52-2.63,23.57-2.54,35.45.13,17.86,3.78,20.54,4.89,20.93a2.83,2.83,0,0,1,1.29,4.42l-.73.94a2.87,2.87,0,0,1-1.48,1C675.82,1289.37,668.51,1291,662.36,1291.73Z"/>
        <path class="cls-1" d="M860.44,1267c-17.65,2.19-33.45-1.72-45.69-11.3-12.56-9.83-20.43-25-22.76-43.85-3-23.94,4.26-49,19.8-68.83a97.85,97.85,0,0,1,65.4-36.85c9.94-1.23,24.42-1.94,36.89,1.67,14,4.05,22.28,12.86,23.84,25.48,1.19,9.67-2.32,19.7-9.65,27.53-8.78,9.39-22.78,15.51-40.48,17.7-11.85,1.46-25.51,1.22-40.61-.73,0,.13,0,.26,0,.39,1.25,18.74,7.2,33.41,16.74,41.3,7.06,5.84,16.14,8.12,27,6.78a53.62,53.62,0,0,0,38.6-23.93,2.81,2.81,0,0,1,2-1.25,2.71,2.71,0,0,1,1.29.14l1.79.63a2.85,2.85,0,0,1,1.65,1.56,2.76,2.76,0,0,1,0,2.27C921,1239.61,892,1263.09,860.44,1267ZM847,1170.71c1.15-.09,2.29-.21,3.4-.35,14.86-1.84,26.4-7.42,33.36-16.15A34.69,34.69,0,0,0,891,1128c-1.14-9.19-7.29-14.7-15.31-13.7C858.29,1116.48,847.41,1144.33,847,1170.71Z"/>
        <path class="cls-1" d="M1436.35,1609.2c-40.47,5-84.48,4.59-130.8-1.23a2.82,2.82,0,0,1-2.48-2.86l.1-5.28a2.83,2.83,0,0,1,.93-2,2.88,2.88,0,0,1,1.56-.72,3.62,3.62,0,0,1,.57,0,248.58,248.58,0,0,0,49.82-.79c131.17-16.22,150.11-147.57,141.8-214.76-2.51-20.29-9.79-48.85-30.2-69.69-19.4-19.79-46-27.75-79.19-23.65a2.84,2.84,0,0,1-3.19-2.82v-6a2.83,2.83,0,0,1,2.49-2.81c41-5.08,69.66-23.23,85.08-54,13.25-26.41,17.14-62.64,11.57-107.69-2.45-19.79-9.58-36.89-20.07-48.17-11-11.82-25.26-17-41.26-15-21.21,2.63-46,17.46-49,109.62l-13.31,415a2.83,2.83,0,0,1-2.49,2.72l-225,27.83a2.84,2.84,0,0,1-3.18-2.86l.1-5.28a2.83,2.83,0,0,1,2.48-2.76c74.53-9.22,76-49.32,79.39-137.2l8.11-256.75c1.22-44.63,22.63-81,63.63-108.07,25.26-16.68,53.8-26.88,76.8-33-37.13-.92-73.92-11.28-109.74-21.36-44.29-12.46-90.08-25.35-135.32-19.76-48.08,6-73.17,29.38-68.86,64.29,4,32.3,29.2,40.87,51.46,38.12,20.24-2.5,38.65-15.33,50.51-35.2a2.86,2.86,0,0,1,3.28-1.26c19,5.94,33.31,15.75,42.42,29.18,8.2,12.07,11.79,26.75,10.38,42.43-1.8,20.13-11.93,41-27.78,57.27a107.44,107.44,0,0,1-63.47,31.65,117.61,117.61,0,0,1-80.86-20c-25.2-17.62-41.19-44.42-45-75.46a120.45,120.45,0,0,1,28.36-94.21c22.8-26.63,56.84-43.94,95.85-48.77,48.32-6,98,7.56,146,20.65,47.32,12.89,92,25.07,134.78,19.78,10.05-1.25,20.27-7.49,18.93-18.28a13.65,13.65,0,0,0-15.68-12c-4.54.57-9.39,2.87-14.43,6.85a2.94,2.94,0,0,1-1.41.59,3.14,3.14,0,0,1-.75,0,2.85,2.85,0,0,1-1.91-1.17c-9.55-13.54-11.6-28.24-5.78-41.39,5.89-13.32,19.5-23.14,34.66-25,21.66-2.68,45.16,7.85,48.81,37.4,1.63,13.13-2.88,25.31-13.4,36.2a72.65,72.65,0,0,1-7.74,6.9,159.14,159.14,0,0,1,18.67-3.56c44.13-5.46,86.21-1.67,118.49,10.67,37.62,14.38,59.67,39.49,63.76,72.61,6.12,49.42-16.28,88.89-66.55,117.31-33.45,18.91-74.16,30.23-109.15,37.5,69.63-1.5,189.64,12.6,203.55,125.08,5.91,47.81-11.83,95.26-50,133.63C1571.34,1573.2,1510.35,1600,1436.35,1609.2Z"/>
        <path class="cls-1" d="M1780.86,1531.47c-26.63,3.29-47.08-1.46-60.76-14.13-15.31-14.18-22.29-38.4-20.74-72l7.6-187.28a11.9,11.9,0,0,0-3.53-9.33c-2.46-2.23-6-3.13-10.17-2.62a27.23,27.23,0,0,0-8,2.44,2.52,2.52,0,0,1-.84.24,2.83,2.83,0,0,1-2.09-.57l-2-1.54a2.82,2.82,0,0,1,.21-4.61c18-11.64,58.19-30.56,87.53-34.18,18-2.23,29.4-.09,37,6.93,8.43,7.74,11.82,21,11,43.09l-5.57,136.76-.26,5.51c-1.8,37.62-5.15,107.63,14.59,113.9a2.82,2.82,0,0,1,1.37,4.44l-1.53,2a2.77,2.77,0,0,1-1.34.94A223.45,223.45,0,0,1,1780.86,1531.47Zm-46.64-336.67c-1.68.21-3.4.39-5.09.53a2.85,2.85,0,0,1-2.39-1l-1.38-1.6a2.83,2.83,0,0,1-.41-3.07c9.52-20,9.76-63.51-9.45-82.49a2.85,2.85,0,0,1-.64-3.06c10.78-27.29,36.19-48.56,61.78-51.72,24.65-3.05,53.07,8.95,57.22,42.51,2.72,22-6.62,45.56-25.63,64.6S1762.33,1191.32,1734.22,1194.8Z"/>
        <path class="cls-1" d="M1950.91,1510.84c-39.64,4.9-61.34-6.42-72.56-16.78-15.7-14.49-23-37.43-21.67-68.18L1869,1085.39a11.91,11.91,0,0,0-3.53-9.34c-2.46-2.23-6-3.13-10.17-2.62a27.23,27.23,0,0,0-8,2.44,2.52,2.52,0,0,1-.84.24,2.86,2.86,0,0,1-2.09-.57l-2-1.54a2.84,2.84,0,0,1,.21-4.61c18-11.64,58.19-30.56,87.53-34.18,18-2.23,29.4-.09,37.05,6.93,8.43,7.74,11.82,21,11,43.09l-10.28,290-.31,6.32c-1,20.75-2.36,49.16-1,72.58,2,32.84,8.54,41.92,13.71,43.75a2.85,2.85,0,0,1,1.29,4.42l-1.54,2a2.84,2.84,0,0,1-1.46,1A188.64,188.64,0,0,1,1950.91,1510.84Z"/>
        <path class="cls-1" d="M2107.65,1491.45c-39.64,4.9-61.34-6.41-72.56-16.77-15.7-14.5-23-37.44-21.67-68.18L2025.74,1066a11.88,11.88,0,0,0-3.53-9.34c-2.46-2.23-6-3.14-10.17-2.62a27.23,27.23,0,0,0-8,2.44,3.1,3.1,0,0,1-.84.24,2.83,2.83,0,0,1-2.09-.58l-2-1.53a2.84,2.84,0,0,1,.2-4.61c18-11.64,58.2-30.56,87.54-34.19,18-2.22,29.4-.08,37,6.94,8.43,7.74,11.82,21,11,43.08l-10.28,290-.3,6.32c-1,20.75-2.37,49.16-1,72.58,2,32.84,8.54,41.92,13.71,43.75a2.83,2.83,0,0,1,1.28,4.41l-1.53,2a2.76,2.76,0,0,1-1.46,1A190,190,0,0,1,2107.65,1491.45Z"/>
        <path class="cls-1" d="M2290.05,1467.91c-45.66,5.64-123.29,6.8-130.17-48.88a61.28,61.28,0,0,1,10.77-42.76,55.84,55.84,0,0,1,39-23c14.69-1.82,28.49,1.89,37.87,10.17,8.18,7.22,12.52,17.59,12.53,30a2.85,2.85,0,0,1-1.59,2.55,38.15,38.15,0,0,0-21.06,39c1.14,9.23,5.13,15.21,12.56,18.82,9,4.36,22.79,5.3,42.29,2.89,9.27-1.14,33-4.82,52.8-14.22,20.75-9.83,30.3-22.59,28.41-37.92-2.87-23.15-37.53-32.19-77.67-42.66-27.23-7.1-55.38-14.44-78.43-27.25-26.83-14.9-41.41-34.61-44.58-60.28-4.62-37.33,10.75-70.31,44.44-95.38,27.2-20.24,66.11-34.73,106.76-39.76,20.56-2.54,50.37-4.24,75.6,2.09,26.93,6.75,41.91,20.92,44.53,42.11a55.23,55.23,0,0,1-9.67,38.56,50.06,50.06,0,0,1-35,20.7c-12,1.48-23.44-1.72-31.49-8.77-7.77-6.8-11.95-16.71-12.06-28.66a2.81,2.81,0,0,1,1.54-2.55c10.14-5.18,20.24-17.26,18.48-31.55-2.12-17.1-23.12-24.46-57.62-20.19-21.8,2.69-61.94,16.58-57.83,49.85,2.89,23.39,36.94,31,76.37,39.81,26.61,6,54.13,12.1,76.67,24,26.25,13.8,40.54,33,43.72,58.61,4.84,39.18-12.48,74.28-50.09,101.5C2376.61,1446.69,2333.94,1462.48,2290.05,1467.91Z"/>
      </g>
    </g>
  </g>
</svg>
