<svg xmlns="http://www.w3.org/2000/svg" width="1505.78" height="757.54" viewBox="0 0 1505.78 757.54">
  <defs>
    <style>
      .cls-1 {
        fill: #fff;
      }
    </style>
  </defs>
  <title>welcome</title>
  <g id="Layer_2" data-name="Layer 2">
    <g id="Layer_1-2" data-name="Layer 1">
      <g>
        <path class="cls-1" d="M124.37,200.58,109.7,173.31c-8.59-16.16-12.53-20.23-21.44-18l-.14-1.43L161,136l.14,1.43c-15.25,3.75-11.7,17.36-4.29,31.29l31.49,59,11.79-38.38c8.28-27,14.47-65.07-15.23-57.78l-.14-1.43L239,116.8l.14,1.43c-16.63,4.09-24.46,30.36-37,70.61l-30.79,98.68-45.78-83.87-35,103.7L32.61,204.83c-10-17.7-18-31.48-32.47-27.93L0,175.46l74.06-18.17.14,1.43c-9.11,2.24-10.53,11-4.84,21.34l38.18,70Z"/>
        <path class="cls-1" d="M289.34,155.05c-1.89-7.73-7.91-11.71-14.64-10.06-15.25,3.75-20.26,30.38-16.54,50.67,4,21.29,16,37.86,38,32.46a41,41,0,0,0,27.05-21.54l1.33.3c-7.42,23.65-24.82,43.46-47.79,49.1-24,5.88-44.88-5.78-51.39-32.32C217,189.8,238.47,152.21,276.09,143c15.45-3.79,39-5.57,43.47,12.85,3.59,14.65-8.72,38-60.6,37.13v-.84C286,186.93,292.79,169.11,289.34,155.05Z"/>
        <path class="cls-1" d="M327.85,90.38c-.38-4.11-4.28-6.3-9.39-3.16l-.74-.45c6.11-5.06,18.9-12.82,28.41-15.16C357.41,68.84,362.4,72,363.52,86l8.27,100.43c1,14.44,2.5,41,10.06,42.67l-.45.74c-13.72,5.68-41.44,11.64-43.92-21.55Z"/>
        <path class="cls-1" d="M438.87,103c14.06-3.45,39.18-4.58,44,15.23A23,23,0,0,1,465.78,146c-8.91,2.19-18.39-1.36-19.92-13.58,7.59-4.17,9.94-11.68,8.44-17.82-1.66-6.73-7.72-11.75-16.63-9.57-19.6,4.82-19.95,38.49-15.82,55.33,5.84,23.76,21.23,31.74,36.88,27.9A41.25,41.25,0,0,0,486,166.62l1.33.31c-8.27,27-28.18,44.29-48.18,49.19-22,5.4-44-4.09-50.9-32C379.77,149.65,401.24,112.26,438.87,103Z"/>
        <path class="cls-1" d="M605.65,109.33c8.06,32.87-14.45,69.47-49.7,78.12-28.31,7-52.49-6.85-58.9-33-8.31-33.87,13.9-69.13,49.54-77.88C574.91,69.63,599.23,83.19,605.65,109.33ZM563.72,95.89c-2.87-11.68-7.63-20-16.94-17.68-21.78,5.35-13,69.53-7.9,90.13,2.86,11.68,7.77,19.71,16.88,17.48C577.06,177.65,569.45,119.26,563.72,95.89Z"/>
        <path class="cls-1" d="M791.06,165c3.4,13.86,11.29,19.48,19.21,17.54,5.74-1.41,10.62-8.07,8.28-17.57-1.07-4.36-5.35-9-10.44-9.19-2.47-12.63,6.47-21.54,16.17-23.92,8.91-2.19,18.89,1.66,21.56,12.55,5.1,20.8-15.18,34.8-35.38,39.76-23.57,5.79-56.79-7.26-59.93-47.44L744,55.42c-.7-9.69-2.31-15.39-7.06-14.22-11.09,2.72-17.18,28.36-17.27,59.67,0,14.49.52,40.6,8.08,42.32l-.45.73a112.81,112.81,0,0,1-16.24,5.67c-15.65,3.84-24.28-1.39-25.3-27.8l-4.14-51.06c-.89-9.64-2.3-15.39-7.06-14.22-11.09,2.72-17.18,28.36-17.27,59.67,0,14.49.52,40.6,8.08,42.31l-.45.74a112.81,112.81,0,0,1-16.24,5.67c-15.65,3.84-24.43-1.14-26-26.57l-4.22-65.1c-.38-4.1-4.28-6.3-9.38-3.15l-.74-.45c6.1-5.07,18.89-12.83,28.4-15.16,11.29-2.77,16.86.27,17.39,14.41l.1,47.43H655c.82-54,15.73-70.21,33.55-74.59,24.76-6.07,27.93,15.41,28,29.25l0,30h.84c.82-54,15.73-70.21,33.55-74.59,24.75-6.07,28.18,14.71,29.15,29C786.47,139.48,788.33,153.93,791.06,165Z"/>
        <path class="cls-1" d="M861.83,14.54c-1.9-7.72-7.92-11.71-14.65-10.06-15.25,3.75-20.26,30.38-16.54,50.67,4,21.29,16,37.86,38,32.46a41,41,0,0,0,27-21.54l1.33.3c-7.42,23.66-24.81,43.46-47.78,49.1-24,5.88-44.88-5.78-51.4-32.32C789.52,49.29,811,11.7,848.58,2.46,864-1.33,887.52-3.11,892,15.31c3.6,14.65-8.72,38-60.59,37.13V51.6C858.52,46.42,865.28,28.6,861.83,14.54Z"/>
      </g>
      <g>
        <path class="cls-1" d="M317.76,282.64c22.66-5.56,59.84-5,78.18-9.47,6.2-1.52,10.83-3.65,14.59-9.3l.61.14c-5.46,23.22-16.07,31.83-29.15,35a74.18,74.18,0,0,1-17,1.74c-4.05,2.71-5.26,10-4.27,21.07L364.87,372c1.24,15,4.59,19.32,15.79,16.57l.09,1-55.16,13.54-.09-1c14.16-3.48,13.65-11.36,12.21-27.73L334,332.56c-1.6-17.63,18.14-28.05,29.51-31.84-23.57-.51-51.33-8.13-69.53-3.67-9,2.22-13.88,7-12.12,14.13s8,9.33,13.94,7.88a15.66,15.66,0,0,0,10.48-8.58c6.16,1.2,9.44,4.69,10.47,8.87,2.51,10.25-4.89,17.93-14.07,20.18-9.44,2.32-20.74-1.2-24.76-14.08C272.58,300.73,295.78,288,317.76,282.64Z"/>
        <path class="cls-1" d="M456.63,327.06c5.5,22.38-9.83,47.31-33.84,53.2C403.51,385,387,375.6,382.67,357.79c-5.66-23.06,9.47-47.08,33.74-53C435.7,300,452.26,309.25,456.63,327.06Zm-28.55-9.15c-1.95-8-5.2-13.6-11.54-12-14.83,3.64-8.82,47.35-5.38,61.37,1.95,8,5.3,13.43,11.5,11.91C437.17,373.59,432,333.82,428.08,317.91Z"/>
      </g>
      <g>
        <path class="cls-1" d="M637.1,276.65a92.69,92.69,0,0,1,7-44.39c-15.38,25.9-28.36,63.18-37,94.61l-11,48.75-62.45-122,5.8,70c2.1,25.6,4.92,56.61,33.13,49.69l.14,1.36-60,14.72-.14-1.36c29-7.11,26.71-39.85,24.48-67.62l-6.29-77.61a67.19,67.19,0,0,0,28.23-1.94c-20.29,1.79-37.71-9.89-58.59-4.76-11.65,2.86-18.78,9.59-16.33,19.56,2.17,8.84,9.49,10.23,15.32,8.8,5.08-1.25,9.74-5,12.45-11,24.44,4.57,16.94,35.72-5.06,41.12-13.92,3.41-30.42-3.7-34.48-20.25-4.3-17.49,6.82-34.77,27.13-39.76,23.88-5.86,45,8.89,67.42,3.39,4.14-1,5.42-3.92,4.86-6.18-.73-3-4.67-5.23-9.15-.74-6.31-7-1.72-15.13,5.05-16.79,4.7-1.15,10.94.7,12.42,6.72,2.3,9.4-2.51,14.17-8.81,16.92l37.81,76c10.33-34.24,24.82-72.68,41.87-95,14-24,35.35-40.38,48.33-43.56,11.28-2.77,18.12,2.33,20,10,3,12.22-6.06,21.62-14.9,23.79-4.13,1-8.4-.13-11.53-4.74,3.53-2.67,4.4-7.26,3.43-11.21-1.25-5.08-5.64-9.19-11.85-7.66-13.73,3.37-13.75,30.89-12.73,44l6.88,83.25c1.82,22.88,2.72,33.83,22.46,29l.14,1.37L630,360.55l-.13-1.36c12.41-3.05,13.57-10.51,11.83-31.42Z"/>
        <path class="cls-1" d="M771.08,264.51h-.8c-.78,51.24-10.42,65.57-30.36,70.46C714,341.33,710,321.77,708.85,308.29l-4.58-58.49c-.36-3.9-4.06-6-8.91-3l-.7-.42c5.79-4.81,17.94-12.18,27-14.4,10.72-2.63,15.45.4,16.52,13.69l5,62.58c.66,9.21,3.69,14.25,9.52,12.82,11.47-2.82,15.38-26.71,15.46-56.44,0-13.76-.67-39.31-7.85-40.94l.42-.7c25.12-8.15,37.62-10.83,40.4,20.79l5.67,67c2.86,34.39-33.16,77.72-55.54,83.21-37.61,9.23-57.62-21.14-84.52-14.54-11.47,2.81-14.45,9.33-13.16,14.59,1.15,4.7,5.36,8.06,12.13,6.4,4.52-1.11,9.05-7,5.64-12,25.12-9,35.19,29.65,7.36,36.48-14.48,3.55-24.73-4.9-27.73-17.12-4.52-18.43,6.77-45.53,31.41-51.57,43.44-10.66,71.35,29.94,82.07,27.31,14.1-3.46,10.36-39.83,9.94-50.49Z"/>
      </g>
      <g>
        <path class="cls-1" d="M284.87,567.83c-3.42-37.69,35.09-55.61,56.57-62l-.07-.28c-34.41,8.45-71-11.17-105.17-2.79-17.07,4.19-27.5,14-23.92,28.64,3.18,12.93,13.9,15,22.43,12.88,7.43-1.82,14.26-7.3,18.22-16.15,35.79,6.69,24.8,52.29-7.41,60.2-20.37,5-44.53-5.42-50.47-29.65-6.29-25.6,10-50.9,39.71-58.19,35-8.59,75,10.77,107.79,2.73,6.06-1.49,7.93-5.74,7.12-9.05-1.08-4.4-6.84-7.66-13.4-1.09-9.24-10.28-2.52-22.14,7.39-24.58,7.43-1.82,16.22.69,18.79,11.15s-7.23,18.12-12.05,21.06a86.19,86.19,0,0,1,14.18-5.23c39.92-9.8,70-1.42,78.31,32.44,13.58,55.33-45.57,92.62-90.2,96.27l-.27-2.27c40.18-6.36,38.48-58.48,30.1-92.61-4.66-19-15-31.35-28.76-28-11,2.7-17.1,13.54-14.49,44.42l8.38,98.35c6.22,72.9-65.34,102.43-102.23,111.49-28.08,6.89-66-3.66-74.83-39.72-7.91-32.21,15.24-59.2,43-66,26.43-6.49,58.91,2.18,65.74,30,4.52,18.45-5.73,37.31-27.48,42.65-15.69,3.85-32.29-5.51-31.46-23.51,13.15-3.52,20.91-17.1,17.33-31.69C234.24,652.93,220.23,650.53,210,653c-19.54,4.8-35.4,30.58-28.3,59.49,7.63,31.11,36.3,46.84,64.38,39.94,34.41-8.44,51.93-38.14,47.4-87.52Z"/>
        <path class="cls-1" d="M606.21,551.13c11.22,45.7-20.07,96.58-69.08,108.6-39.36,9.67-73-9.52-81.89-45.86-11.55-47.08,19.32-96.1,68.87-108.26C563.48,495.94,597.29,514.79,606.21,551.13Zm-58.29-18.68c-4-16.24-10.6-27.75-23.54-24.57-30.28,7.43-18,96.65-11,125.28,4,16.24,10.81,27.41,23.48,24.3C566.48,646.11,555.9,564.94,547.92,532.45Z"/>
        <path class="cls-1" d="M688.7,619.61l-.63,1a64.52,64.52,0,0,1-16,6.26c-19,4.66-40.57,0-42.82-35.32l-5.87-90.5c-.52-5.71-5.94-8.75-13-4.38l-1-.63c8.49-7,26.27-17.83,39.48-21.07,15.7-3.85,23.45.37,24.19,20l.19,66.21h1.17c1.15-75,14.93-98.52,43-105.41,24.5-6,39,6.77,43.08,23.28,4.52,18.45-4.71,40.27-29.21,46.28-12.39,3-26.12-1.76-28.52-18.68,10.18-2.5,18-14.64,14.83-27.58-2.1-8.53-7.65-12.13-14-10.57-17.07,4.18-25.9,42-26,92.49C677.52,581.2,678.19,617.23,688.7,619.61Z"/>
        <path class="cls-1" d="M819.7,435.1,839,430.37l.13,2.89-19,4.66,6.64,86.52c2,24.62,6.77,56.13,20,57.83l-.63,1a98.11,98.11,0,0,1-13.22,4.42c-21.19,5.2-50.06,4.11-52.79-33.16L771.1,450l-12.39,3-.12-2.89c39.64-9.73,57.87-28.21,54.61-68.86l2.48-.61Z"/>
        <path class="cls-1" d="M854.94,426.45c-3.06-39.82-5.25-73.72,36.87-84.06,24.5-6,42.68,2.66,47,20.28,4.19,17.07-4.34,33.46-25.54,38.66-15.69,3.86-33.86-7.15-30.42-25.22,9.84-.37,16.33-8.39,14-17.75-1.68-6.88-5.65-12.33-13.91-10.3-12.11,3-21.87,19.09-18.22,33.95,5.74,23.4,35.1,21.74,35.33,33.36l23.12-5.67.13,2.88-18.72,4.6,12.17,143.53c2.88,34.32-5.76,76.43-40.45,84.94-23.67,5.81-40.2-3.26-44.46-20.61-5-20.37,8.87-32.82,24-36.54,14.32-3.51,30.38,2.47,33.05,21.66-10.32,2-14.89,8.33-12.86,16.59,1.49,6,6.15,9.58,12.75,8,12.39-3,13.75-15.34,10.71-27.73-5.74-23.4-31.32-23-33.48-48.41l-10.72-129.3-14.59,3.58-.12-2.88Z"/>
        <path class="cls-1" d="M1087.43,433c11.21,45.7-20.08,96.58-69.09,108.61-39.36,9.66-73-9.53-81.88-45.87-11.56-47.07,19.31-96.1,68.87-108.26C1044.69,377.84,1078.51,396.68,1087.43,433Zm-58.29-18.67c-4-16.25-10.61-27.76-23.55-24.58-30.28,7.43-18,96.65-11,125.28,4,16.25,10.82,27.41,23.48,24.31C1047.69,528,1037.11,446.83,1029.14,414.35Z"/>
        <path class="cls-1" d="M1094.07,310.26c-.52-5.71-5.94-8.76-13-4.39l-1-.62c8.49-7,26.27-17.83,39.49-21.07,15.69-3.86,22.61.57,24.18,20l11.5,139.61c1.42,20.08,3.47,56.94,14,59.32l-.62,1c-19.08,7.89-57.61,16.19-61.06-30Z"/>
        <path class="cls-1" d="M1177.3,365.14c-.52-5.71-5.94-8.76-13-4.39l-1-.62c8.49-7.05,26.27-17.83,39.48-21.08,15.69-3.85,22.62.58,24.19,20.05L1232,425c1.42,20.08,3.4,55.5,14.74,57.67l-.63,1a107.43,107.43,0,0,1-19.55,7.14c-20.93,5.13-39.74-.17-42.27-35.45Zm4.68-33.26c3.55-10.5,1.17-32.1-9.66-40.53,3.64-13.74,14.41-24.55,25.7-27.32,10.46-2.57,24.4.72,28.18,16.14,5.27,21.47-14.84,46.55-43.47,52.4Z"/>
        <path class="cls-1" d="M1313.79,312.37c63.16-26.88,125-11.42,154.77-18.72,14.87-3.65,23.84-12.27,20.6-25.48-2.7-11-12.25-13.05-19.41-11.29-6.61,1.62-12.75,6.33-16,14.43-31.47-5.7-24.83-45.27,5.45-52.7,18.17-4.46,40.33,5,45.47,25.9,5.4,22-9.06,45.13-34.67,51.42-27.25,6.69-77-3.57-126.88,8.66-4.13,1-7.91,2.24-12,3.53,35.77-5.28,65.73,13.34,74,46.93,11.21,45.7-20.08,96.58-69.08,108.6-39.37,9.66-73-9.52-81.89-45.86C1243.33,373.74,1269.79,328.13,1313.79,312.37Zm33,24c-4-16.24-10.61-27.75-23.55-24.57-30.28,7.43-18,96.65-11,125.28,4,16.24,10.82,27.41,23.48,24.3C1365.38,450,1354.8,368.86,1346.83,336.37Z"/>
      </g>
    </g>
  </g>
</svg>
