<svg xmlns="http://www.w3.org/2000/svg" width="222" height="56.03" viewBox="0 0 222 56.03">
  <defs>
    <style>
      .cls-1 {
        fill: #f30;
      }

      .cls-2 {
        fill: #fff;
      }

      .cls-3 {
        fill: #222;
      }
    </style>
  </defs>
  <title>uxlogo</title>
  <g id="Layer_2" data-name="Layer 2">
    <g id="Layer_1-2" data-name="Layer 1">
      <g>
        <circle class="cls-1" cx="28.01" cy="28.01" r="28.01"/>
        <g>
          <g>
            <path class="cls-2" d="M35.83,22a6,6,0,1,1,0,12Z"/>
            <path class="cls-2" d="M28.75,12.65h0a5.44,5.44,0,0,1,5.44,5.44V33.84a0,0,0,0,1,0,0h0a5.44,5.44,0,0,1-5.44-5.44V12.65A0,0,0,0,1,28.75,12.65Z" transform="translate(62.94 46.49) rotate(-180)"/>
          </g>
          <g>
            <path class="cls-2" d="M15,36.4h6.58A4.64,4.64,0,0,1,26.23,41v0a0,0,0,0,1,0,0H19.64A4.64,4.64,0,0,1,15,36.4v0A0,0,0,0,1,15,36.4Z"/>
            <path class="cls-2" d="M20.16,21.89h5A1.11,1.11,0,0,1,26.23,23v5A6.06,6.06,0,0,1,20.16,34h0A6.06,6.06,0,0,1,14.1,28v0a6.06,6.06,0,0,1,6.06-6.06Z"/>
          </g>
        </g>
        <g>
          <path class="cls-3" d="M64.5,35.58h4.1a3,3,0,1,1,0,6H66v3.75H64.5Zm3.91,1.28H66v3.42h2.45a1.71,1.71,0,1,0,0-3.42Z"/>
          <path class="cls-3" d="M77.71,35.42a4.78,4.78,0,0,1,4.9,5,4.9,4.9,0,1,1-9.8,0A4.78,4.78,0,0,1,77.71,35.42Zm0,1.3c-2.09,0-3.4,1.59-3.4,3.73s1.31,3.74,3.4,3.74a3.43,3.43,0,0,0,3.4-3.74A3.42,3.42,0,0,0,77.71,36.72Z"/>
          <path class="cls-3" d="M87.66,41.56H85.83v3.75H84.38V35.58h4.1a2.9,2.9,0,0,1,3.12,3,2.73,2.73,0,0,1-2.42,2.85l2.49,3.89H90Zm.63-4.7H85.83v3.42h2.46a1.71,1.71,0,1,0,0-3.42Z"/>
          <path class="cls-3" d="M95.62,36.86h-3V35.58h7.49v1.28h-3v8.45H95.62Z"/>
          <path class="cls-3" d="M101.61,35.58h6.53v1.28h-5.07v2.85h5V41h-5v4.32h-1.46Z"/>
          <path class="cls-3" d="M114.21,35.42a4.78,4.78,0,0,1,4.91,5,4.91,4.91,0,1,1-9.81,0A4.78,4.78,0,0,1,114.21,35.42Zm0,1.3a3.41,3.41,0,0,0-3.4,3.73,3.42,3.42,0,1,0,6.8,0A3.42,3.42,0,0,0,114.21,36.72Z"/>
          <path class="cls-3" d="M120.88,35.58h1.46V44h4.42v1.28h-5.88Z"/>
          <path class="cls-3" d="M128.37,35.58h1.45v9.73h-1.45Z"/>
          <path class="cls-3" d="M136.49,35.42a4.78,4.78,0,0,1,4.91,5,4.91,4.91,0,1,1-9.81,0A4.78,4.78,0,0,1,136.49,35.42Zm0,1.3a3.41,3.41,0,0,0-3.4,3.73,3.42,3.42,0,1,0,6.8,0A3.42,3.42,0,0,0,136.49,36.72Z"/>
        </g>
        <g>
          <path class="cls-3" d="M64.51,10h6.08V21.45a3.43,3.43,0,0,0,6.85,0V10h6.07V21.63c0,4.92-2.81,8.51-9.49,8.51s-9.51-3.59-9.51-8.48Z"/>
          <path class="cls-3" d="M95.26,23.74l-3.62,6.05H84.58l6.61-10.15L85,10h7l3.21,5.63L98.4,10h7.09l-6.17,9.6,6.61,10.18H98.88Z"/>
          <path class="cls-3" d="M114.56,10h8.84c6.23,0,10.85,3.55,10.85,9.87s-4.62,9.91-10.82,9.91h-8.87Zm8.84,14.56a4.57,4.57,0,0,0,4.77-4.69c0-2.67-1.54-4.66-4.74-4.66h-2.88v9.35Z"/>
          <path class="cls-3" d="M136.39,10h15v5h-9V17.3h8.81v5h-8.81V24.8h9v5h-15Z"/>
          <path class="cls-3" d="M155.66,22.55A9.26,9.26,0,0,0,162,25.1c1.13,0,2.19-.39,2.19-1.16s-.83-1.15-2.78-1.51c-3.27-.59-8.25-1.36-8.25-6.32,0-3.35,2.79-6.4,8.22-6.4a13.05,13.05,0,0,1,8.39,2.76l-3.2,4.24a9.83,9.83,0,0,0-5.52-2c-1.48,0-1.81.53-1.81,1,0,.77.8,1,2.91,1.39,3.26.57,8.09,1.51,8.09,6.08,0,4.36-3.23,6.88-8.54,6.88-4.21,0-7.09-1.24-9.19-3.14Z"/>
          <path class="cls-3" d="M172.24,10h6V29.79h-6Z"/>
          <path class="cls-3" d="M191.25,9.68a9.31,9.31,0,0,1,8.69,4.86l-5,2.58A4.12,4.12,0,0,0,191.25,15a4.73,4.73,0,0,0-4.81,4.95,4.73,4.73,0,0,0,4.81,4.95,5.58,5.58,0,0,0,3.23-.89v-.86h-3.82V18.19h9.63v8a11.74,11.74,0,0,1-9,4c-6,0-10.89-3.91-10.89-10.23S185.26,9.68,191.25,9.68Z"/>
          <path class="cls-3" d="M209,19.17V29.79h-6V10h6.17L216,20V10h6V29.79h-5.75Z"/>
        </g>
      </g>
    </g>
  </g>
</svg>
