<svg xmlns="http://www.w3.org/2000/svg" width="222.15" height="54.89" viewBox="0 0 222.15 54.89">
  <defs>
    <style>
      .cls-1 {
        fill: #d33;
      }

      .cls-2 {
        fill: #fff;
      }

      .cls-3 {
        fill: #222;
      }
    </style>
  </defs>
  <title>uxlogo</title>
  <g id="Layer_2" data-name="Layer 2">
    <g id="Layer_1-2" data-name="Layer 1">
      <circle class="cls-1" cx="27.44" cy="27.44" r="27.44"/>
      <g>
        <g>
          <path class="cls-2" d="M35.1,21.53a5.87,5.87,0,0,1,0,11.74Z"/>
          <path class="cls-2" d="M28.16,12.39h0a5.33,5.33,0,0,1,5.33,5.33V33.15a0,0,0,0,1,0,0h0a5.33,5.33,0,0,1-5.33-5.33V12.39A0,0,0,0,1,28.16,12.39Z" transform="translate(61.65 45.55) rotate(-180)"/>
        </g>
        <g>
          <path class="cls-2" d="M14.7,35.66h6.45a4.54,4.54,0,0,1,4.54,4.54v0a0,0,0,0,1,0,0H19.24a4.54,4.54,0,0,1-4.54-4.54v0A0,0,0,0,1,14.7,35.66Z"/>
          <path class="cls-2" d="M19.75,21.44h4.85a1.08,1.08,0,0,1,1.08,1.08v4.85a5.94,5.94,0,0,1-5.94,5.94h0a5.94,5.94,0,0,1-5.94-5.94v0A5.94,5.94,0,0,1,19.75,21.44Z"/>
        </g>
      </g>
      <g>
        <path class="cls-3" d="M66.72,8.67h6v13c0,2.15,1,3.87,3.39,3.87s3.37-1.72,3.37-3.87v-13h6V21.88c0,5.59-2.78,9.67-9.37,9.67s-9.39-4.08-9.39-9.64Z"/>
        <path class="cls-3" d="M97.07,24.27,93.5,31.15h-7l6.53-11.53L87,8.67h6.94l3.16,6.4,3.1-6.4h7l-6.08,10.92,6.52,11.56h-7Z"/>
        <path class="cls-3" d="M116.12,8.67h8.72c6.15,0,10.71,4,10.71,11.22S131,31.15,124.87,31.15h-8.75Zm8.72,16.55c3,0,4.71-2.5,4.71-5.33,0-3-1.52-5.29-4.68-5.29H122V25.22Z"/>
        <path class="cls-3" d="M137.66,8.67h14.81v5.66h-8.9V17h8.69v5.66h-8.69v2.87h8.9v5.66H137.66Z"/>
        <path class="cls-3" d="M156.68,22.92a8.53,8.53,0,0,0,6.3,2.9c1.11,0,2.16-.44,2.16-1.31s-.82-1.32-2.75-1.72c-3.22-.67-8.14-1.55-8.14-7.18,0-3.81,2.76-7.28,8.11-7.28a11.8,11.8,0,0,1,8.28,3.14l-3.16,4.82A8.88,8.88,0,0,0,162,14.06c-1.46,0-1.79.61-1.79,1.18,0,.88.79,1.18,2.87,1.59,3.22.64,8,1.71,8,6.9,0,5-3.19,7.82-8.43,7.82A11.88,11.88,0,0,1,153.61,28Z"/>
        <path class="cls-3" d="M173,8.67H179V31.15H173Z"/>
        <path class="cls-3" d="M191.8,8.3a9.07,9.07,0,0,1,8.58,5.53l-5,2.93a4,4,0,0,0-3.6-2.46c-2.84,0-4.74,2.49-4.74,5.63s1.9,5.62,4.74,5.62a5,5,0,0,0,3.19-1v-1h-3.77V18h9.51v9a11,11,0,0,1-8.93,4.55c-5.91,0-10.74-4.45-10.74-11.62S185.89,8.3,191.8,8.3Z"/>
        <path class="cls-3" d="M209.28,19.08V31.15h-5.92V8.67h6.09L216.24,20V8.67h5.91V31.15h-5.67Z"/>
      </g>
      <g>
        <path class="cls-3" d="M67.36,36.62h4.3c2.1,0,3.26,1.23,3.26,2.68S73.75,42,71.66,42H68.89v3.37H67.36Zm4.11,1.15H68.89v3.06h2.58c1.1,0,1.88-.61,1.88-1.53S72.57,37.77,71.47,37.77Z"/>
        <path class="cls-3" d="M81.21,36.48c3.05,0,5.14,1.92,5.14,4.51s-2.09,4.51-5.14,4.51S76.07,43.58,76.07,41,78.17,36.48,81.21,36.48Zm0,1.16A3.36,3.36,0,1,0,84.78,41,3.29,3.29,0,0,0,81.21,37.64Z"/>
        <path class="cls-3" d="M91.65,42H89.73v3.37H88.2V36.62h4.3c2,0,3.28,1.07,3.28,2.68a2.6,2.6,0,0,1-2.54,2.55l2.61,3.5H94.08Zm.65-4.21H89.73v3.06H92.3c1.11,0,1.9-.61,1.9-1.53S93.41,37.77,92.3,37.77Z"/>
        <path class="cls-3" d="M100,37.77H96.83V36.62h7.85v1.15h-3.15v7.58H100Z"/>
        <path class="cls-3" d="M106.27,36.62h6.86v1.15H107.8v2.55H113v1.15H107.8v3.88h-1.53Z"/>
        <path class="cls-3" d="M119.49,36.48c3.05,0,5.15,1.92,5.15,4.51s-2.1,4.51-5.15,4.51-5.14-1.92-5.14-4.51S116.45,36.48,119.49,36.48Zm0,1.16A3.36,3.36,0,1,0,123.06,41,3.29,3.29,0,0,0,119.49,37.64Z"/>
        <path class="cls-3" d="M126.49,36.62H128v7.57h4.63v1.16h-6.16Z"/>
        <path class="cls-3" d="M134.34,36.62h1.53v8.73h-1.53Z"/>
        <path class="cls-3" d="M142.86,36.48c3,0,5.14,1.92,5.14,4.51s-2.1,4.51-5.14,4.51-5.14-1.92-5.14-4.51S139.81,36.48,142.86,36.48Zm0,1.16A3.36,3.36,0,1,0,146.42,41,3.3,3.3,0,0,0,142.86,37.64Z"/>
      </g>
    </g>
  </g>
</svg>
