<svg xmlns="http://www.w3.org/2000/svg" width="1492.16" height="691.65" viewBox="0 0 1492.16 691.65">
  <defs>
    <style>
      .cls-1, .cls-21, .cls-23, .cls-25, .cls-45, .cls-46, .cls-48, .cls-75, .cls-77 {
        fill: #fff;
      }

      .cls-1, .cls-21, .cls-23, .cls-77 {
        stroke: #e3e3e3;
      }

      .cls-1, .cls-21, .cls-23, .cls-25, .cls-45, .cls-46, .cls-48, .cls-49, .cls-51, .cls-52, .cls-74, .cls-76, .cls-77 {
        stroke-miterlimit: 10;
      }

      .cls-1 {
        stroke-width: 0.59px;
      }

      .cls-2, .cls-65 {
        fill: #f2f2f2;
      }

      .cls-3, .cls-51, .cls-76 {
        fill: #999;
      }

      .cls-4 {
        fill: #666;
      }

      .cls-5 {
        fill: #ccc;
      }

      .cls-22, .cls-47, .cls-52, .cls-6, .cls-71, .cls-74 {
        fill: none;
      }

      .cls-22, .cls-47, .cls-6, .cls-71 {
        stroke: #f2f2f2;
        stroke-linecap: round;
        stroke-linejoin: round;
      }

      .cls-6, .cls-77 {
        stroke-width: 0.34px;
      }

      .cls-7 {
        font-size: 7.44px;
      }

      .cls-27, .cls-64, .cls-65, .cls-68, .cls-7 {
        font-family: MyriadPro-Regular, Myriad Pro;
      }

      .cls-8 {
        letter-spacing: -0.01em;
      }

      .cls-9 {
        letter-spacing: -0.01em;
      }

      .cls-10 {
        letter-spacing: 0em;
      }

      .cls-11 {
        letter-spacing: -0.01em;
      }

      .cls-12 {
        letter-spacing: 0.01em;
      }

      .cls-13 {
        letter-spacing: -0.01em;
      }

      .cls-14 {
        letter-spacing: -0.01em;
      }

      .cls-15 {
        letter-spacing: 0em;
      }

      .cls-16 {
        letter-spacing: -0.01em;
      }

      .cls-17 {
        letter-spacing: 0em;
      }

      .cls-18 {
        letter-spacing: 0em;
      }

      .cls-19 {
        letter-spacing: 0em;
      }

      .cls-20 {
        letter-spacing: 0em;
      }

      .cls-21, .cls-51, .cls-52 {
        stroke-width: 0.85px;
      }

      .cls-22 {
        stroke-width: 0.43px;
      }

      .cls-23 {
        stroke-width: 0.85px;
      }

      .cls-24 {
        fill: #ed1e79;
      }

      .cls-25 {
        stroke: #767676;
        stroke-width: 0.2px;
      }

      .cls-26 {
        font-size: 7.65px;
        font-family: MyriadPro-Bold, Myriad Pro;
        font-weight: 700;
      }

      .cls-27 {
        font-size: 6.8px;
      }

      .cls-28 {
        letter-spacing: -0.01em;
      }

      .cls-29 {
        letter-spacing: -0.01em;
      }

      .cls-30 {
        letter-spacing: 0em;
      }

      .cls-31 {
        letter-spacing: -0.01em;
      }

      .cls-32 {
        letter-spacing: 0.01em;
      }

      .cls-33 {
        letter-spacing: -0.01em;
      }

      .cls-34 {
        letter-spacing: 0em;
      }

      .cls-35 {
        letter-spacing: -0.01em;
      }

      .cls-36 {
        letter-spacing: -0.01em;
      }

      .cls-37 {
        letter-spacing: 0em;
      }

      .cls-38 {
        letter-spacing: -0.01em;
      }

      .cls-39 {
        letter-spacing: -0.01em;
      }

      .cls-40 {
        letter-spacing: 0.02em;
      }

      .cls-41 {
        font-size: 10.69px;
      }

      .cls-41, .cls-53, .cls-54 {
        font-family: MyriadPro-Black, Myriad Pro;
        font-weight: 800;
      }

      .cls-42 {
        letter-spacing: -0.09em;
      }

      .cls-43 {
        letter-spacing: -0.04em;
      }

      .cls-44 {
        letter-spacing: -0.03em;
      }

      .cls-45, .cls-46, .cls-48, .cls-49, .cls-74 {
        stroke: #000;
      }

      .cls-45, .cls-74 {
        stroke-width: 3.4px;
      }

      .cls-46 {
        stroke-width: 0.2px;
      }

      .cls-47 {
        stroke-width: 3.66px;
      }

      .cls-48 {
        stroke-width: 0.34px;
      }

      .cls-49 {
        stroke-width: 0.16px;
      }

      .cls-50 {
        fill: #f68ebc;
      }

      .cls-51, .cls-52, .cls-76 {
        stroke: #fff;
      }

      .cls-53 {
        font-size: 26.73px;
      }

      .cls-54 {
        font-size: 10.47px;
      }

      .cls-55 {
        letter-spacing: 0.01em;
      }

      .cls-56 {
        letter-spacing: -0.04em;
      }

      .cls-57 {
        font-size: 8.02px;
        font-family: MyriadPro-Light, Myriad Pro;
        font-weight: 300;
      }

      .cls-58 {
        letter-spacing: 0em;
      }

      .cls-59 {
        letter-spacing: -0.01em;
      }

      .cls-60 {
        letter-spacing: -0.04em;
      }

      .cls-61 {
        letter-spacing: 0em;
      }

      .cls-62 {
        letter-spacing: -0.01em;
      }

      .cls-63 {
        letter-spacing: -0.02em;
      }

      .cls-64, .cls-68 {
        font-size: 5.35px;
      }

      .cls-65 {
        font-size: 4.01px;
      }

      .cls-66 {
        letter-spacing: -0.01em;
      }

      .cls-67 {
        letter-spacing: 0em;
      }

      .cls-68 {
        letter-spacing: 0.01em;
      }

      .cls-69 {
        letter-spacing: 0em;
      }

      .cls-70 {
        letter-spacing: -0.03em;
      }

      .cls-71 {
        stroke-width: 2.6px;
      }

      .cls-72 {
        fill: #444;
      }

      .cls-73 {
        letter-spacing: 0.01em;
      }

      .cls-76 {
        stroke-width: 1.7px;
      }
    </style>
  </defs>
  <title>wire1</title>
  <g id="Layer_2" data-name="Layer 2">
    <g id="Layer_1-2" data-name="Layer 1">
      <g>
        <rect class="cls-1" x="465.37" y="19.88" width="182.63" height="139.57" rx="3.1"/>
        <g>
          <g>
            <path class="cls-2" d="M575.07,20.06A18.36,18.36,0,1,1,556.72,1.7,18.32,18.32,0,0,1,575.07,20.06Z"/>
            <ellipse class="cls-3" cx="556.71" cy="18.14" rx="6.91" ry="7.18"/>
            <path class="cls-3" d="M571.55,30.85a18.35,18.35,0,0,1-29.68,0c3.34-2.5,8.74-4.12,14.84-4.12S568.22,28.35,571.55,30.85Z"/>
          </g>
          <rect class="cls-4" x="535.15" y="47.33" width="43.1" height="2.69"/>
          <rect class="cls-4" x="537.85" y="41.77" width="37.71" height="2.69"/>
          <rect class="cls-4" x="539.19" y="53.22" width="35.02" height="2.69"/>
          <rect class="cls-5" x="539.66" y="63.49" width="35.02" height="11.79"/>
          <g>
            <polyline class="cls-6" points="552.41 73.43 554.99 70.13 556.36 71.48 558.7 68.94 562.08 73.09"/>
            <path class="cls-2" d="M555.43,66.61a.78.78,0,0,1,.77.77.77.77,0,0,1-.77.76.76.76,0,0,1-.76-.76.77.77,0,0,1,.76-.77m0-.33a1.1,1.1,0,1,0,1.1,1.1,1.1,1.1,0,0,0-1.1-1.1Z"/>
            <path class="cls-2" d="M552.38,64.5H562V74h-9.57V64.5m-.33-.34V74.32h10.25V64.16Z"/>
          </g>
        </g>
        <path class="cls-5" d="M648,84.4l0,72a3.1,3.1,0,0,1-3.1,3.1l-176.43-.06a3.1,3.1,0,0,1-3.1-3.1l0-72Z"/>
        <text class="cls-7" transform="translate(476.4 95.2) rotate(0.02)"><tspan class="cls-8">L</tspan><tspan x="3.41" y="0">o</tspan><tspan class="cls-9" x="7.49" y="0">r</tspan><tspan x="9.85" y="0">em ipsum dolor sit ame</tspan><tspan class="cls-10" x="82.54" y="0">t</tspan><tspan x="84.98" y="0">, </tspan><tspan class="cls-11" x="88.1" y="0">c</tspan><tspan x="91.39" y="0">onse</tspan><tspan class="cls-12" x="106.28" y="0">c</tspan><tspan class="cls-13" x="109.71" y="0">t</tspan><tspan x="112.12" y="0">etuer </tspan><tspan x="0" y="8.93">adipiscing eli</tspan><tspan class="cls-10" x="40.61" y="8.93">t</tspan><tspan x="43.05" y="8.93">, sed diam nonum</tspan><tspan class="cls-14" x="98.57" y="8.93">m</tspan><tspan x="104.67" y="8.93">y nibh euismod </tspan><tspan x="0" y="17.86">tincidu</tspan><tspan class="cls-15" x="21.7" y="17.86">n</tspan><tspan x="25.8" y="17.86">t ut lao</tspan><tspan class="cls-16" x="47.41" y="17.86">r</tspan><tspan x="49.77" y="17.86">eet dolo</tspan><tspan class="cls-9" x="75.38" y="17.86">r</tspan><tspan x="77.74" y="17.86">e ma</tspan><tspan class="cls-11" x="92.84" y="17.86">g</tspan><tspan x="96.95" y="17.86">na aliquam e</tspan><tspan class="cls-17" x="136.71" y="17.86">r</tspan><tspan class="cls-18" x="139.11" y="17.86">a</tspan><tspan x="142.66" y="17.86">t </tspan><tspan class="cls-9" x="0" y="26.79">v</tspan><tspan x="3.5" y="26.79">olutp</tspan><tspan class="cls-18" x="20.14" y="26.79">a</tspan><tspan class="cls-19" x="23.7" y="26.79">t</tspan><tspan x="26.14" y="26.79">. </tspan><tspan class="cls-20" x="29.26" y="26.79">U</tspan><tspan x="34.1" y="26.79">t wisi enim ad minim </tspan><tspan class="cls-9" x="99.96" y="26.79">v</tspan><tspan x="103.46" y="26.79">eniam </tspan></text>
        <g>
          <circle class="cls-3" cx="536.83" cy="145.74" r="6.82"/>
          <circle class="cls-3" cx="556.67" cy="145.75" r="6.82"/>
          <circle class="cls-3" cx="576.51" cy="145.76" r="6.82"/>
        </g>
      </g>
      <g>
        <path class="cls-21" d="M1454.89,159.47l-176.43-.07a3.1,3.1,0,0,1-3.1-3.1l.05-151.21a3.09,3.09,0,0,1,3.1-3.09l176.43.06a3.1,3.1,0,0,1,3.1,3.1l0,151.21A3.1,3.1,0,0,1,1454.89,159.47Z"/>
        <rect class="cls-4" x="1345.17" y="35.67" width="43.1" height="2.69"/>
        <rect class="cls-4" x="1347.86" y="30.11" width="37.71" height="2.69"/>
        <rect class="cls-4" x="1349.2" y="41.56" width="35.02" height="2.69"/>
        <rect class="cls-5" x="1344.81" y="8.66" width="44.74" height="15.06"/>
        <g>
          <polyline class="cls-22" points="1361.1 21.35 1364.4 17.14 1366.15 18.87 1369.14 15.63 1373.46 20.93"/>
          <path class="cls-2" d="M1365,12.65a1,1,0,1,1-1,1,1,1,0,0,1,1-1m0-.43a1.41,1.41,0,0,0,0,2.81h0a1.41,1.41,0,1,0,0-2.81Z"/>
          <path class="cls-2" d="M1361.07,9.94h12.22V22.06h-12.22V9.94m-.43-.43v13h13.08v-13Z"/>
        </g>
        <path class="cls-5" d="M1458,66.54l0,89.83a3.1,3.1,0,0,1-3.1,3.1l-176.43-.07a3.1,3.1,0,0,1-3.1-3.1l0-89.82Z"/>
        <text class="cls-7" transform="translate(1286.4 77.35) rotate(0.02)"><tspan class="cls-8">L</tspan><tspan x="3.41" y="0">o</tspan><tspan class="cls-9" x="7.49" y="0">r</tspan><tspan x="9.85" y="0">em ipsum dolor sit ame</tspan><tspan class="cls-10" x="82.54" y="0">t</tspan><tspan x="84.98" y="0">, </tspan><tspan class="cls-11" x="88.1" y="0">c</tspan><tspan x="91.39" y="0">onse</tspan><tspan class="cls-12" x="106.28" y="0">c</tspan><tspan class="cls-13" x="109.71" y="0">t</tspan><tspan x="112.12" y="0">etuer </tspan><tspan x="0" y="8.93">adipiscing eli</tspan><tspan class="cls-10" x="40.61" y="8.93">t</tspan><tspan x="43.05" y="8.93">, sed diam nonum</tspan><tspan class="cls-14" x="98.57" y="8.93">m</tspan><tspan x="104.67" y="8.93">y nibh euismod </tspan><tspan x="0" y="17.86">tincidu</tspan><tspan class="cls-15" x="21.7" y="17.86">n</tspan><tspan x="25.8" y="17.86">t ut lao</tspan><tspan class="cls-16" x="47.41" y="17.86">r</tspan><tspan x="49.77" y="17.86">eet dolo</tspan><tspan class="cls-9" x="75.38" y="17.86">r</tspan><tspan x="77.74" y="17.86">e ma</tspan><tspan class="cls-11" x="92.84" y="17.86">g</tspan><tspan x="96.95" y="17.86">na aliquam e</tspan><tspan class="cls-17" x="136.71" y="17.86">r</tspan><tspan class="cls-18" x="139.11" y="17.86">a</tspan><tspan x="142.66" y="17.86">t </tspan><tspan class="cls-9" x="0" y="26.79">v</tspan><tspan x="3.5" y="26.79">olutp</tspan><tspan class="cls-18" x="20.14" y="26.79">a</tspan><tspan class="cls-19" x="23.7" y="26.79">t</tspan><tspan x="26.14" y="26.79">. </tspan><tspan class="cls-20" x="29.26" y="26.79">U</tspan><tspan x="34.1" y="26.79">t wisi enim ad minim </tspan><tspan class="cls-9" x="99.96" y="26.79">v</tspan><tspan x="103.46" y="26.79">eniam, quis </tspan></text>
        <g>
          <circle class="cls-3" cx="1346.84" cy="145.73" r="6.82"/>
          <circle class="cls-3" cx="1366.68" cy="145.73" r="6.82"/>
          <circle class="cls-3" cx="1386.52" cy="145.74" r="6.82"/>
        </g>
      </g>
      <g>
        <path class="cls-23" d="M1485.93,441.56l-238.53-.08a4.46,4.46,0,0,1-4.46-4.46l.07-227.53a4.47,4.47,0,0,1,4.47-4.46l238.52.08a4.47,4.47,0,0,1,4.46,4.47l-.07,227.52A4.46,4.46,0,0,1,1485.93,441.56Z"/>
        <polyline class="cls-24" points="1395.48 413.55 1337.92 413.55 1337.92 427 1395.48 427 1395.48 413.55"/>
        <g>
          <rect class="cls-25" x="1260.21" y="261.89" width="103.64" height="15.29"/>
          <rect class="cls-25" x="1260.21" y="300.12" width="103.64" height="15.29"/>
          <rect class="cls-25" x="1260.21" y="338.35" width="103.64" height="15.29"/>
          <rect class="cls-25" x="1260.21" y="376.58" width="103.64" height="15.29"/>
          <text class="cls-26" transform="translate(1259.96 256.79)">FIELD 1</text>
          <text class="cls-26" transform="translate(1259.96 296.72)">FIELD 2</text>
          <text class="cls-26" transform="translate(1259.96 334.95)">FIELD 3</text>
          <text class="cls-26" transform="translate(1259.96 371.48)">FIELD 4</text>
          <text class="cls-27" transform="translate(1373.4 267.19) rotate(0.02)"><tspan class="cls-28">L</tspan><tspan x="3.11" y="0">o</tspan><tspan class="cls-29" x="6.84" y="0">r</tspan><tspan x="9" y="0">em ipsum dolor sit ame</tspan><tspan class="cls-30" x="75.4" y="0">t</tspan><tspan x="77.62" y="0">, </tspan><tspan class="cls-31" x="0" y="8.16">c</tspan><tspan x="3" y="8.16">onse</tspan><tspan class="cls-32" x="16.6" y="8.16">c</tspan><tspan class="cls-31" x="19.74" y="8.16">t</tspan><tspan x="21.95" y="8.16">etuer adipiscing eli</tspan><tspan class="cls-30" x="75.5" y="8.16">t</tspan><tspan x="77.73" y="8.16">, sed </tspan><tspan x="0" y="16.31">diam nonum</tspan><tspan class="cls-33" x="36.49" y="16.31">m</tspan><tspan x="42.07" y="16.31">y nibh euismod </tspan><tspan x="0" y="24.47">tincidu</tspan><tspan class="cls-34" x="19.82" y="24.47">n</tspan><tspan x="23.57" y="24.47">t ut lao</tspan><tspan class="cls-35" x="43.3" y="24.47">r</tspan><tspan x="45.46" y="24.47">eet dolo</tspan><tspan class="cls-29" x="68.85" y="24.47">r</tspan><tspan x="71.01" y="24.47">e ma</tspan><tspan class="cls-31" x="84.8" y="24.47">g</tspan><tspan x="88.56" y="24.47">na </tspan><tspan x="0" y="32.62">aliquam e</tspan><tspan class="cls-36" x="27.83" y="32.62">r</tspan><tspan class="cls-34" x="30.02" y="32.62">a</tspan><tspan x="33.26" y="32.62">t </tspan><tspan class="cls-35" x="36.95" y="32.62">v</tspan><tspan x="40.16" y="32.62">olutp</tspan><tspan class="cls-34" x="55.35" y="32.62">a</tspan><tspan class="cls-30" x="58.6" y="32.62">t</tspan><tspan x="60.83" y="32.62">. </tspan><tspan class="cls-37" x="63.67" y="32.62">U</tspan><tspan x="68.1" y="32.62">t wisi enim </tspan><tspan x="0" y="40.78">ad minim </tspan><tspan class="cls-29" x="28.28" y="40.78">v</tspan><tspan x="31.48" y="40.78">eniam, quis nostrud </tspan><tspan class="cls-30" x="0" y="48.93">e</tspan><tspan class="cls-38" x="3.38" y="48.93">x</tspan><tspan x="6.43" y="48.93">e</tspan><tspan class="cls-29" x="9.83" y="48.93">r</tspan><tspan x="11.99" y="48.93">ci t</tspan><tspan class="cls-34" x="20.31" y="48.93">a</tspan><tspan x="23.56" y="48.93">tion ullam</tspan><tspan class="cls-39" x="52.24" y="48.93">c</tspan><tspan x="55.24" y="48.93">o</tspan><tspan class="cls-37" x="58.98" y="48.93">r</tspan><tspan x="61.23" y="48.93">per suscipit </tspan><tspan x="0" y="57.09">lobo</tspan><tspan class="cls-40" x="12.93" y="57.09">r</tspan><tspan x="15.32" y="57.09">tis nisl ut </tspan></text>
        </g>
        <text class="cls-41" transform="translate(1306.12 234.45)">APP<tspan class="cls-42" x="20.09" y="0">L</tspan><tspan x="24.75" y="0">Y</tspan><tspan class="cls-43" x="31.48" y="0"> </tspan><tspan class="cls-44" x="33.19" y="0">T</tspan><tspan x="38.96" y="0">O BE A SPONSOR</tspan></text>
      </g>
      <g>
        <path class="cls-45" d="M675.91,441.56l-238.52-.08a4.46,4.46,0,0,1-4.46-4.46L433,209.49a4.46,4.46,0,0,1,4.46-4.46l238.53.08a4.47,4.47,0,0,1,4.46,4.47l-.07,227.52A4.46,4.46,0,0,1,675.91,441.56Z"/>
        <polyline class="cls-24" points="585.47 413.55 527.91 413.55 527.91 427 585.47 427 585.47 413.55"/>
        <g>
          <rect class="cls-25" x="450.19" y="261.89" width="103.64" height="15.29"/>
          <rect class="cls-25" x="450.19" y="300.12" width="103.64" height="15.29"/>
          <rect class="cls-25" x="450.19" y="338.35" width="103.64" height="15.29"/>
          <rect class="cls-25" x="450.19" y="376.58" width="103.64" height="15.29"/>
          <text class="cls-26" transform="translate(449.95 256.79)">FIELD 1</text>
          <text class="cls-26" transform="translate(449.95 296.72)">FIELD 2</text>
          <text class="cls-26" transform="translate(449.95 334.95)">FIELD 3</text>
          <text class="cls-26" transform="translate(449.95 371.48)">FIELD 4</text>
          <text class="cls-27" transform="translate(563.4 267.18) rotate(0.02)"><tspan class="cls-28">L</tspan><tspan x="3.11" y="0">o</tspan><tspan class="cls-29" x="6.84" y="0">r</tspan><tspan x="9" y="0">em ipsum dolor sit ame</tspan><tspan class="cls-30" x="75.4" y="0">t</tspan><tspan x="77.62" y="0">, </tspan><tspan class="cls-31" x="0" y="8.16">c</tspan><tspan x="3" y="8.16">onse</tspan><tspan class="cls-32" x="16.6" y="8.16">c</tspan><tspan class="cls-31" x="19.74" y="8.16">t</tspan><tspan x="21.95" y="8.16">etuer adipiscing eli</tspan><tspan class="cls-30" x="75.5" y="8.16">t</tspan><tspan x="77.73" y="8.16">, sed </tspan><tspan x="0" y="16.31">diam nonum</tspan><tspan class="cls-33" x="36.49" y="16.31">m</tspan><tspan x="42.07" y="16.31">y nibh euismod </tspan><tspan x="0" y="24.47">tincidu</tspan><tspan class="cls-34" x="19.82" y="24.47">n</tspan><tspan x="23.57" y="24.47">t ut lao</tspan><tspan class="cls-35" x="43.3" y="24.47">r</tspan><tspan x="45.46" y="24.47">eet dolo</tspan><tspan class="cls-29" x="68.85" y="24.47">r</tspan><tspan x="71.01" y="24.47">e ma</tspan><tspan class="cls-31" x="84.8" y="24.47">g</tspan><tspan x="88.56" y="24.47">na </tspan><tspan x="0" y="32.62">aliquam e</tspan><tspan class="cls-36" x="27.83" y="32.62">r</tspan><tspan class="cls-34" x="30.02" y="32.62">a</tspan><tspan x="33.26" y="32.62">t </tspan><tspan class="cls-35" x="36.95" y="32.62">v</tspan><tspan x="40.16" y="32.62">olutp</tspan><tspan class="cls-34" x="55.35" y="32.62">a</tspan><tspan class="cls-30" x="58.6" y="32.62">t</tspan><tspan x="60.83" y="32.62">. </tspan><tspan class="cls-37" x="63.67" y="32.62">U</tspan><tspan x="68.1" y="32.62">t wisi enim </tspan><tspan x="0" y="40.78">ad minim </tspan><tspan class="cls-29" x="28.28" y="40.78">v</tspan><tspan x="31.48" y="40.78">eniam, quis nostrud </tspan><tspan class="cls-30" x="0" y="48.93">e</tspan><tspan class="cls-38" x="3.38" y="48.93">x</tspan><tspan x="6.43" y="48.93">e</tspan><tspan class="cls-29" x="9.83" y="48.93">r</tspan><tspan x="11.99" y="48.93">ci t</tspan><tspan class="cls-34" x="20.31" y="48.93">a</tspan><tspan x="23.56" y="48.93">tion ullam</tspan><tspan class="cls-39" x="52.24" y="48.93">c</tspan><tspan x="55.24" y="48.93">o</tspan><tspan class="cls-37" x="58.98" y="48.93">r</tspan><tspan x="61.23" y="48.93">per suscipit </tspan><tspan x="0" y="57.09">lobo</tspan><tspan class="cls-40" x="12.93" y="57.09">r</tspan><tspan x="15.32" y="57.09">tis nisl ut </tspan></text>
        </g>
        <text class="cls-41" transform="translate(497.71 234.45)">APP<tspan class="cls-42" x="20.09" y="0">L</tspan><tspan x="24.75" y="0">Y</tspan><tspan class="cls-43" x="31.48" y="0"> </tspan><tspan class="cls-44" x="33.19" y="0">T</tspan><tspan x="38.96" y="0">O BE A SPEAKER</tspan></text>
      </g>
      <g>
        <g>
          <rect class="cls-46" x="796.75" y="3.02" width="399.9" height="687.54"/>
          <rect class="cls-3" x="797.02" y="486.89" width="399.36" height="72.89"/>
          <g>
            <polygon class="cls-5" points="1196.76 139.46 797.39 172.61 797.39 10.08 1196.76 10.08 1196.76 139.46"/>
            <g>
              <polyline class="cls-47" points="950.86 127.33 975.93 95.24 989.25 108.4 1011.97 83.72 1044.88 124.03"/>
              <path class="cls-2" d="M980.21,61.56a6.95,6.95,0,1,1-7,6.94,6.94,6.94,0,0,1,7-6.94m0-3.75A10.7,10.7,0,1,0,990.9,68.5a10.69,10.69,0,0,0-10.69-10.69Z"/>
              <path class="cls-2" d="M1043.1,41v91.22h-92V41h92m3.75-3.75H947.3V136h99.55V37.24Z"/>
            </g>
            <rect class="cls-48" x="796.82" y="1.75" width="399.36" height="31.28"/>
            <rect class="cls-49" x="796.82" y="1.48" width="399.36" height="7.22"/>
            <rect class="cls-24" x="1130.02" y="14.71" width="57.74" height="13.63"/>
            <g>
              <rect class="cls-24" x="932.81" y="123.88" width="57.74" height="13.63"/>
              <polyline class="cls-50" points="1057.02 123.97 999.47 123.97 999.47 137.42 1057.02 137.42 1057.02 123.97"/>
            </g>
            <g>
              <rect class="cls-51" x="818.07" y="16.8" width="12.45" height="12.35"/>
              <polyline class="cls-52" points="818.51 28.07 821.65 24.05 823.32 25.7 826.16 22.61 830.28 27.66"/>
              <circle class="cls-52" cx="822.19" cy="20.71" r="1.34"/>
            </g>
            <text class="cls-53" transform="translate(924.98 98.63)">SPONSORS</text>
            <text class="cls-54" transform="translate(964.87 48.6)"><tspan class="cls-55">E</tspan><tspan x="5.84" y="0">VENT</tspan><tspan class="cls-56" x="31.99" y="0"> </tspan><tspan x="33.66" y="0">TITLE</tspan></text>
            <text class="cls-57" transform="translate(958.09 113.6)"><tspan class="cls-58">E</tspan><tspan class="cls-59" x="3.71" y="0">v</tspan><tspan x="7.27" y="0">ent Sub Header</tspan><tspan class="cls-60" x="57.06" y="0"> </tspan><tspan class="cls-61" x="58.48" y="0">T</tspan><tspan x="62.17" y="0">itle </tspan></text>
            <text class="cls-57" transform="translate(969.51 57.41)">Da<tspan class="cls-62" x="8.83" y="0">t</tspan><tspan x="11.26" y="0">e &amp; </tspan><tspan class="cls-63" x="23.15" y="0">L</tspan><tspan x="26.61" y="0">ocation</tspan></text>
            <text class="cls-64" transform="translate(920.3 23.78)">Home</text>
            <text class="cls-64" transform="translate(947.23 23.78)">Speakers</text>
            <g>
              <text class="cls-65" transform="translate(952.83 6.41)"><tspan class="cls-66">C</tspan><tspan x="2.3" y="0">alendar</tspan></text>
              <text class="cls-65" transform="translate(986.5 6.41)">Channels</text>
              <text class="cls-65" transform="translate(1020.72 6.41)">On<tspan class="cls-67" x="4.99" y="0">D</tspan><tspan x="7.67" y="0">emand</tspan></text>
            </g>
            <text class="cls-68" transform="translate(980.58 23.78)">S<tspan class="cls-69" x="2.67" y="0">chedule</tspan></text>
            <text class="cls-64" transform="translate(1048.41 23.78)"><tspan class="cls-70">V</tspan><tspan x="2.81" y="0">enues</tspan></text>
            <text class="cls-64" transform="translate(1014.55 23.78)">Sponsors</text>
          </g>
          <g>
            <g>
              <rect class="cls-4" x="859.2" y="245.85" width="43.1" height="2.69"/>
              <rect class="cls-4" x="861.89" y="240.3" width="37.71" height="2.69"/>
              <rect class="cls-5" x="852.09" y="200.38" width="57.31" height="33.54"/>
              <g>
                <polyline class="cls-71" points="865.9 228.39 873.66 219.55 878.13 223.57 884.73 215.3 895.76 227.6"/>
                <path class="cls-2" d="M875.09,210.64a.76.76,0,0,1,.75.75.75.75,0,0,1-.75.74.74.74,0,0,1-.74-.74.75.75,0,0,1,.74-.75m0-2.35a3.1,3.1,0,1,0,3.1,3.1,3.1,3.1,0,0,0-3.1-3.1Z"/>
                <path class="cls-2" d="M894.84,204.45v24.93H866.66V204.45h28.18m2.6-2.6H864.06V232h33.38V201.85Z"/>
              </g>
            </g>
            <g>
              <rect class="cls-4" x="934.84" y="245.85" width="43.1" height="2.69"/>
              <rect class="cls-4" x="937.54" y="240.3" width="37.71" height="2.69"/>
              <rect class="cls-5" x="927.74" y="200.38" width="57.31" height="33.54"/>
              <g>
                <polyline class="cls-71" points="941.55 228.39 949.3 219.55 953.77 223.57 960.37 215.3 971.41 227.6"/>
                <path class="cls-2" d="M950.74,210.64a.75.75,0,0,1,.74.75.74.74,0,0,1-.74.74.75.75,0,0,1-.75-.74.76.76,0,0,1,.75-.75m0-2.35a3.1,3.1,0,1,0,3.1,3.1,3.1,3.1,0,0,0-3.1-3.1Z"/>
                <path class="cls-2" d="M970.49,204.45v24.93H942.3V204.45h28.19m2.6-2.6H939.7V232h33.39V201.85Z"/>
              </g>
            </g>
            <g>
              <rect class="cls-4" x="1012.35" y="245.85" width="43.1" height="2.69"/>
              <rect class="cls-4" x="1015.04" y="240.3" width="37.71" height="2.69"/>
              <rect class="cls-5" x="1005.24" y="200.38" width="57.31" height="33.54"/>
              <g>
                <polyline class="cls-71" points="1019.05 228.39 1026.81 219.55 1031.28 223.57 1037.88 215.3 1048.91 227.6"/>
                <path class="cls-2" d="M1028.24,210.64a.76.76,0,0,1,.75.75.75.75,0,0,1-.75.74.74.74,0,0,1-.74-.74.75.75,0,0,1,.74-.75m0-2.35a3.1,3.1,0,1,0,3.1,3.1,3.1,3.1,0,0,0-3.1-3.1Z"/>
                <path class="cls-2" d="M1048,204.45v24.93h-28.18V204.45H1048m2.6-2.6h-33.38V232h33.38V201.85Z"/>
              </g>
            </g>
            <g>
              <rect class="cls-4" x="1091.09" y="245.85" width="43.1" height="2.69"/>
              <rect class="cls-4" x="1093.79" y="240.3" width="37.71" height="2.69"/>
              <rect class="cls-5" x="1083.99" y="200.38" width="57.31" height="33.54"/>
              <g>
                <polyline class="cls-71" points="1097.8 228.39 1105.55 219.55 1110.02 223.57 1116.62 215.3 1127.66 227.6"/>
                <path class="cls-2" d="M1107,210.64a.75.75,0,0,1,.74.75.74.74,0,0,1-.74.74.75.75,0,0,1-.75-.74.76.76,0,0,1,.75-.75m0-2.35a3.1,3.1,0,1,0,3.1,3.1,3.1,3.1,0,0,0-3.1-3.1Z"/>
                <path class="cls-2" d="M1126.73,204.45v24.93h-28.18V204.45h28.18m2.6-2.6H1096V232h33.38V201.85Z"/>
              </g>
            </g>
          </g>
          <g>
            <g>
              <rect class="cls-4" x="859.2" y="325.84" width="43.1" height="2.69"/>
              <rect class="cls-4" x="861.89" y="320.28" width="37.71" height="2.69"/>
              <rect class="cls-5" x="852.09" y="280.36" width="57.31" height="33.54"/>
              <g>
                <polyline class="cls-71" points="865.9 308.37 873.66 299.53 878.13 303.55 884.73 295.28 895.76 307.58"/>
                <path class="cls-2" d="M875.09,290.63a.75.75,0,0,1,.75.74.76.76,0,0,1-.75.75.75.75,0,0,1-.74-.75.74.74,0,0,1,.74-.74m0-2.36a3.1,3.1,0,1,0,3.1,3.1,3.1,3.1,0,0,0-3.1-3.1Z"/>
                <path class="cls-2" d="M894.84,284.43v24.93H866.66V284.43h28.18m2.6-2.6H864.06V312h33.38V281.83Z"/>
              </g>
            </g>
            <g>
              <rect class="cls-4" x="934.84" y="325.84" width="43.1" height="2.69"/>
              <rect class="cls-4" x="937.54" y="320.28" width="37.71" height="2.69"/>
              <rect class="cls-5" x="927.74" y="280.36" width="57.31" height="33.54"/>
              <g>
                <polyline class="cls-71" points="941.55 308.37 949.3 299.53 953.77 303.55 960.37 295.28 971.41 307.58"/>
                <path class="cls-2" d="M950.74,290.63a.74.74,0,0,1,.74.74.75.75,0,0,1-.74.75.76.76,0,0,1-.75-.75.75.75,0,0,1,.75-.74m0-2.36a3.1,3.1,0,1,0,3.1,3.1,3.1,3.1,0,0,0-3.1-3.1Z"/>
                <path class="cls-2" d="M970.49,284.43v24.93H942.3V284.43h28.19m2.6-2.6H939.7V312h33.39V281.83Z"/>
              </g>
            </g>
            <g>
              <rect class="cls-4" x="1012.35" y="325.84" width="43.1" height="2.69"/>
              <rect class="cls-4" x="1015.04" y="320.28" width="37.71" height="2.69"/>
              <rect class="cls-5" x="1005.24" y="280.36" width="57.31" height="33.54"/>
              <g>
                <polyline class="cls-71" points="1019.05 308.37 1026.81 299.53 1031.28 303.55 1037.88 295.28 1048.91 307.58"/>
                <path class="cls-2" d="M1028.24,290.63a.75.75,0,0,1,.75.74.76.76,0,0,1-.75.75.75.75,0,0,1-.74-.75.74.74,0,0,1,.74-.74m0-2.36a3.1,3.1,0,1,0,3.1,3.1,3.1,3.1,0,0,0-3.1-3.1Z"/>
                <path class="cls-2" d="M1048,284.43v24.93h-28.18V284.43H1048m2.6-2.6h-33.38V312h33.38V281.83Z"/>
              </g>
            </g>
            <g>
              <rect class="cls-4" x="1091.09" y="325.84" width="43.1" height="2.69"/>
              <rect class="cls-4" x="1093.79" y="320.28" width="37.71" height="2.69"/>
              <rect class="cls-5" x="1083.99" y="280.36" width="57.31" height="33.54"/>
              <g>
                <polyline class="cls-71" points="1097.8 308.37 1105.55 299.53 1110.02 303.55 1116.62 295.28 1127.66 307.58"/>
                <path class="cls-2" d="M1107,290.63a.74.74,0,0,1,.74.74.75.75,0,0,1-.74.75.76.76,0,0,1-.75-.75.75.75,0,0,1,.75-.74m0-2.36a3.1,3.1,0,1,0,3.1,3.1,3.1,3.1,0,0,0-3.1-3.1Z"/>
                <path class="cls-2" d="M1126.73,284.43v24.93h-28.18V284.43h28.18m2.6-2.6H1096V312h33.38V281.83Z"/>
              </g>
            </g>
          </g>
          <g>
            <g>
              <rect class="cls-4" x="859.2" y="405.82" width="43.1" height="2.69"/>
              <rect class="cls-4" x="861.89" y="400.27" width="37.71" height="2.69"/>
              <rect class="cls-5" x="852.09" y="360.35" width="57.31" height="33.54"/>
              <g>
                <polyline class="cls-71" points="865.9 388.35 873.66 379.52 878.13 383.53 884.73 375.26 895.76 387.57"/>
                <path class="cls-2" d="M875.09,370.61a.76.76,0,0,1,.75.75.75.75,0,0,1-.75.74.74.74,0,0,1-.74-.74.75.75,0,0,1,.74-.75m0-2.35a3.1,3.1,0,1,0,3.1,3.1,3.1,3.1,0,0,0-3.1-3.1Z"/>
                <path class="cls-2" d="M894.84,364.41v24.94H866.66V364.41h28.18m2.6-2.59H864.06V392h33.38V361.82Z"/>
              </g>
            </g>
            <g>
              <rect class="cls-4" x="934.84" y="405.82" width="43.1" height="2.69"/>
              <rect class="cls-4" x="937.54" y="400.27" width="37.71" height="2.69"/>
              <rect class="cls-5" x="927.74" y="360.35" width="57.31" height="33.54"/>
              <g>
                <polyline class="cls-71" points="941.55 388.35 949.3 379.52 953.77 383.53 960.37 375.26 971.41 387.57"/>
                <path class="cls-2" d="M950.74,370.61a.75.75,0,0,1,.74.75.74.74,0,0,1-.74.74.75.75,0,0,1-.75-.74.76.76,0,0,1,.75-.75m0-2.35a3.1,3.1,0,1,0,3.1,3.1,3.1,3.1,0,0,0-3.1-3.1Z"/>
                <path class="cls-2" d="M970.49,364.41v24.94H942.3V364.41h28.19m2.6-2.59H939.7V392h33.39V361.82Z"/>
              </g>
            </g>
            <g>
              <rect class="cls-4" x="1012.35" y="405.82" width="43.1" height="2.69"/>
              <rect class="cls-4" x="1015.04" y="400.27" width="37.71" height="2.69"/>
              <rect class="cls-5" x="1005.24" y="360.35" width="57.31" height="33.54"/>
              <g>
                <polyline class="cls-71" points="1019.05 388.35 1026.81 379.52 1031.28 383.53 1037.88 375.26 1048.91 387.57"/>
                <path class="cls-2" d="M1028.24,370.61a.76.76,0,0,1,.75.75.75.75,0,0,1-.75.74.74.74,0,0,1-.74-.74.75.75,0,0,1,.74-.75m0-2.35a3.1,3.1,0,1,0,3.1,3.1,3.1,3.1,0,0,0-3.1-3.1Z"/>
                <path class="cls-2" d="M1048,364.41v24.94h-28.18V364.41H1048m2.6-2.59h-33.38V392h33.38V361.82Z"/>
              </g>
            </g>
            <g>
              <rect class="cls-4" x="1091.09" y="405.82" width="43.1" height="2.69"/>
              <rect class="cls-4" x="1093.79" y="400.27" width="37.71" height="2.69"/>
              <rect class="cls-5" x="1083.99" y="360.35" width="57.31" height="33.54"/>
              <g>
                <polyline class="cls-71" points="1097.8 388.35 1105.55 379.52 1110.02 383.53 1116.62 375.26 1127.66 387.57"/>
                <path class="cls-2" d="M1107,370.61a.75.75,0,0,1,.74.75.74.74,0,0,1-.74.74.75.75,0,0,1-.75-.74.76.76,0,0,1,.75-.75m0-2.35a3.1,3.1,0,1,0,3.1,3.1,3.09,3.09,0,0,0-3.1-3.1Z"/>
                <path class="cls-2" d="M1126.73,364.41v24.94h-28.18V364.41h28.18m2.6-2.59H1096V392h33.38V361.82Z"/>
              </g>
            </g>
          </g>
          <g>
            <polygon class="cls-72" points="1196.16 555.54 1196.89 552.28 1194.07 555.13 1191.25 552.28 1188.43 555.13 1185.61 552.28 1182.79 555.13 1179.97 552.28 1177.15 555.13 1174.33 552.28 1171.51 555.13 1168.69 552.28 1165.87 555.13 1163.05 552.28 1160.23 555.13 1157.41 552.28 1154.6 555.13 1151.78 552.28 1148.95 555.13 1146.14 552.28 1143.32 555.13 1140.5 552.28 1137.68 555.13 1134.86 552.28 1132.04 555.13 1129.22 552.28 1126.4 555.13 1123.58 552.28 1120.76 555.13 1117.94 552.28 1115.12 555.13 1112.3 552.28 1109.48 555.13 1106.66 552.28 1103.84 555.13 1101.02 552.28 1098.2 555.13 1095.38 552.28 1092.57 555.13 1089.75 552.28 1086.93 555.13 1084.11 552.28 1081.29 555.13 1078.47 552.28 1075.65 555.13 1072.83 552.28 1070.01 555.13 1067.19 552.28 1064.37 555.13 1061.55 552.28 1058.73 555.13 1055.91 552.28 1053.09 555.13 1050.27 552.28 1047.45 555.13 1044.63 552.28 1041.81 555.13 1038.99 552.28 1036.17 555.13 1033.36 552.28 1030.54 555.13 1027.72 552.28 1024.9 555.13 1022.08 552.28 1019.26 555.13 1016.44 552.28 1013.62 555.13 1010.8 552.28 1007.98 555.13 1005.16 552.28 1002.34 555.13 999.52 552.28 996.7 555.13 993.88 552.28 991.06 555.13 988.24 552.28 985.42 555.13 982.6 552.28 979.78 555.13 976.97 552.28 974.14 555.13 971.33 552.28 968.51 555.13 965.69 552.28 962.87 555.13 960.05 552.28 957.23 555.13 954.41 552.28 951.59 555.13 948.77 552.28 945.95 555.13 943.13 552.28 940.31 555.13 937.49 552.28 934.67 555.13 931.85 552.28 929.03 555.13 926.21 552.28 923.39 555.13 920.57 552.28 917.75 555.13 914.93 552.28 912.12 555.13 909.3 552.28 906.48 555.13 903.66 552.28 900.84 555.13 898.02 552.28 895.2 555.13 892.38 552.28 889.56 555.13 886.74 552.28 883.92 555.13 881.1 552.28 878.28 555.13 875.46 552.28 872.64 555.13 869.82 552.28 867 555.13 864.18 552.28 861.36 555.13 858.54 552.28 855.73 555.13 852.91 552.28 850.09 555.13 847.27 552.28 844.45 555.13 841.63 552.28 838.81 555.13 835.99 552.28 833.17 555.13 830.35 552.28 827.53 555.13 824.71 552.28 821.89 555.13 819.07 552.28 816.25 555.13 813.43 552.28 810.61 555.13 807.79 552.28 804.97 555.13 802.15 552.28 799.34 555.13 796.51 552.28 795.84 555.54 796.51 558.81 799.34 555.95 802.15 558.81 804.97 555.95 807.79 558.81 810.61 555.95 813.43 558.81 816.25 555.95 819.07 558.81 821.89 555.95 824.71 558.81 827.53 555.95 830.35 558.81 833.17 555.95 835.99 558.81 838.81 555.95 841.63 558.81 844.45 555.95 847.27 558.81 850.09 555.95 852.91 558.81 855.73 555.95 858.54 558.81 861.36 555.95 864.18 558.81 867 555.95 869.82 558.81 872.64 555.95 875.46 558.81 878.28 555.95 881.1 558.81 883.92 555.95 886.74 558.81 889.56 555.95 892.38 558.81 895.2 555.95 898.02 558.81 900.84 555.95 903.66 558.81 906.48 555.95 909.3 558.81 912.12 555.95 914.93 558.81 917.75 555.95 920.57 558.81 923.39 555.95 926.21 558.81 929.03 555.95 931.85 558.81 934.67 555.95 937.49 558.81 940.31 555.95 943.13 558.81 945.95 555.95 948.77 558.81 951.59 555.95 954.41 558.81 957.23 555.95 960.05 558.81 962.87 555.95 965.69 558.81 968.51 555.95 971.33 558.81 974.14 555.95 976.97 558.81 979.78 555.95 982.6 558.81 985.42 555.95 988.24 558.81 991.06 555.95 993.88 558.81 996.7 555.95 999.52 558.81 1002.34 555.95 1005.16 558.81 1007.98 555.95 1010.8 558.81 1013.62 555.95 1016.44 558.81 1019.26 555.95 1022.08 558.81 1024.9 555.95 1027.72 558.81 1030.54 555.95 1033.36 558.81 1036.17 555.95 1038.99 558.81 1041.81 555.95 1044.63 558.81 1047.45 555.95 1050.27 558.81 1053.09 555.95 1055.91 558.81 1058.73 555.95 1061.55 558.81 1064.37 555.95 1067.19 558.81 1070.01 555.95 1072.83 558.81 1075.65 555.95 1078.47 558.81 1081.29 555.95 1084.11 558.81 1086.93 555.95 1089.75 558.81 1092.57 555.95 1095.38 558.81 1098.2 555.95 1101.02 558.81 1103.84 555.95 1106.66 558.81 1109.48 555.95 1112.3 558.81 1115.12 555.95 1117.94 558.81 1120.76 555.95 1123.58 558.81 1126.4 555.95 1129.22 558.81 1132.04 555.95 1134.86 558.81 1137.68 555.95 1140.5 558.81 1143.32 555.95 1146.14 558.81 1148.95 555.95 1151.78 558.81 1154.6 555.95 1157.41 558.81 1160.23 555.95 1163.05 558.81 1165.87 555.95 1168.69 558.81 1171.51 555.95 1174.33 558.81 1177.15 555.95 1179.97 558.81 1182.79 555.95 1185.61 558.81 1188.43 555.95 1191.25 558.81 1194.07 555.95 1196.89 558.81 1196.16 555.54"/>
            <rect class="cls-72" x="796.33" y="555.07" width="400.6" height="135.8"/>
          </g>
          <polyline class="cls-50" points="1025.48 520.79 967.92 520.79 967.92 534.24 1025.48 534.24 1025.48 520.79"/>
          <text class="cls-41" transform="translate(960.59 505.66)">END SE<tspan class="cls-73" x="35.05" y="0">C</tspan><tspan x="41.57" y="0">TION</tspan></text>
        </g>
        <rect class="cls-74" x="796.43" y="2.41" width="399.9" height="687.54"/>
      </g>
      <g>
        <g>
          <rect class="cls-75" x="1.7" y="3.48" width="399.9" height="687.54"/>
          <rect class="cls-3" x="1.97" y="487.35" width="399.36" height="72.89"/>
          <g>
            <polygon class="cls-5" points="401.71 139.93 2.34 173.07 2.34 10.55 401.71 10.55 401.71 139.93"/>
            <g>
              <polyline class="cls-47" points="155.81 127.79 180.88 95.7 194.2 108.87 216.93 84.18 249.83 124.5"/>
              <path class="cls-2" d="M185.16,62A6.95,6.95,0,1,1,178.21,69,6.94,6.94,0,0,1,185.16,62m0-3.75A10.7,10.7,0,1,0,195.86,69a10.7,10.7,0,0,0-10.7-10.69Z"/>
              <path class="cls-2" d="M248.05,41.45v91.23H156V41.45h92.05m3.75-3.75H152.25v98.73H251.8V37.7Z"/>
            </g>
            <rect class="cls-48" x="1.77" y="2.21" width="399.36" height="31.28"/>
            <rect class="cls-49" x="1.77" y="1.94" width="399.36" height="7.22"/>
            <rect class="cls-24" x="334.97" y="15.18" width="57.74" height="13.63"/>
            <g>
              <rect class="cls-24" x="137.77" y="124.34" width="57.74" height="13.63"/>
              <polyline class="cls-50" points="261.97 124.44 204.42 124.44 204.42 137.88 261.97 137.88 261.97 124.44"/>
            </g>
            <g>
              <rect class="cls-76" x="23.02" y="17.26" width="12.45" height="12.35"/>
              <polyline class="cls-52" points="23.47 28.53 26.6 24.52 28.27 26.16 31.11 23.08 35.23 28.12"/>
              <circle class="cls-52" cx="27.14" cy="21.17" r="1.34"/>
            </g>
            <text class="cls-53" transform="translate(137.6 99.09)">SPEAKERS</text>
            <text class="cls-54" transform="translate(169.83 49.07)"><tspan class="cls-55">E</tspan><tspan x="5.84" y="0">VENT</tspan><tspan class="cls-56" x="31.99" y="0"> </tspan><tspan x="33.66" y="0">TITLE</tspan></text>
            <text class="cls-57" transform="translate(163.04 114.06)"><tspan class="cls-58">E</tspan><tspan class="cls-59" x="3.71" y="0">v</tspan><tspan x="7.27" y="0">ent Sub Header</tspan><tspan class="cls-60" x="57.06" y="0"> </tspan><tspan class="cls-61" x="58.48" y="0">T</tspan><tspan x="62.17" y="0">itle </tspan></text>
            <text class="cls-57" transform="translate(174.46 57.88)">Da<tspan class="cls-62" x="8.83" y="0">t</tspan><tspan x="11.26" y="0">e &amp; </tspan><tspan class="cls-63" x="23.15" y="0">L</tspan><tspan x="26.61" y="0">ocation</tspan></text>
            <text class="cls-64" transform="translate(125.25 24.25)">Home</text>
            <text class="cls-64" transform="translate(152.18 24.25)">Speakers</text>
            <g>
              <text class="cls-65" transform="translate(157.78 6.87)"><tspan class="cls-66">C</tspan><tspan x="2.3" y="0">alendar</tspan></text>
              <text class="cls-65" transform="translate(191.45 6.87)">Channels</text>
              <text class="cls-65" transform="translate(225.68 6.87)">On<tspan class="cls-67" x="4.99" y="0">D</tspan><tspan x="7.67" y="0">emand</tspan></text>
            </g>
            <text class="cls-68" transform="translate(185.53 24.25)">S<tspan class="cls-69" x="2.67" y="0">chedule</tspan></text>
            <text class="cls-64" transform="translate(253.37 24.25)"><tspan class="cls-70">V</tspan><tspan x="2.81" y="0">enues</tspan></text>
            <text class="cls-64" transform="translate(219.5 24.25)">Sponsors</text>
          </g>
          <g>
            <g>
              <rect class="cls-77" x="288.99" y="205.85" width="58.93" height="63.3" rx="1.76"/>
              <g>
                <path class="cls-2" d="M336.8,206a18.35,18.35,0,1,1-18.35-18.35A18.25,18.25,0,0,1,336.8,206Z"/>
                <ellipse class="cls-3" cx="318.45" cy="204.11" rx="6.91" ry="7.18"/>
                <path class="cls-3" d="M333.29,216.82a18.36,18.36,0,0,1-29.68,0c3.34-2.5,8.74-4.13,14.84-4.13S330,214.32,333.29,216.82Z"/>
              </g>
              <rect class="cls-4" x="296.9" y="233.3" width="43.1" height="2.69"/>
              <rect class="cls-4" x="299.59" y="227.74" width="37.71" height="2.69"/>
              <rect class="cls-4" x="300.94" y="239.19" width="35.02" height="2.69"/>
              <rect class="cls-5" x="301.41" y="249.46" width="35.02" height="11.79"/>
              <g>
                <polyline class="cls-6" points="314.17 259.4 316.75 256.1 318.12 257.45 320.45 254.91 323.84 259.06"/>
                <path class="cls-2" d="M317.19,252.58a.77.77,0,0,1,.76.77.76.76,0,0,1-.76.76.77.77,0,0,1-.77-.76.78.78,0,0,1,.77-.77m0-.33a1.1,1.1,0,1,0,1.1,1.1,1.1,1.1,0,0,0-1.1-1.1Z"/>
                <path class="cls-2" d="M323.7,250.47V260h-9.56v-9.48h9.56m.34-.34H313.8v10.16H324V250.13Z"/>
              </g>
            </g>
            <g>
              <rect class="cls-77" x="211.12" y="205.85" width="58.93" height="63.3" rx="1.76"/>
              <g>
                <path class="cls-2" d="M258.94,206a18.36,18.36,0,1,1-18.35-18.35A18.25,18.25,0,0,1,258.94,206Z"/>
                <ellipse class="cls-3" cx="240.59" cy="204.11" rx="6.91" ry="7.18"/>
                <path class="cls-3" d="M255.43,216.82a18.37,18.37,0,0,1-29.69,0c3.34-2.5,8.75-4.13,14.85-4.13S252.09,214.32,255.43,216.82Z"/>
              </g>
              <rect class="cls-4" x="219.04" y="233.3" width="43.1" height="2.69"/>
              <rect class="cls-4" x="221.73" y="227.74" width="37.71" height="2.69"/>
              <rect class="cls-4" x="223.08" y="239.19" width="35.02" height="2.69"/>
              <rect class="cls-5" x="223.55" y="249.46" width="35.02" height="11.79"/>
              <g>
                <polyline class="cls-6" points="236.3 259.4 238.88 256.1 240.25 257.45 242.59 254.91 245.97 259.06"/>
                <path class="cls-2" d="M239.32,252.58a.77.77,0,0,1,.76.77.76.76,0,1,1-1.52,0,.77.77,0,0,1,.76-.77m0-.33a1.1,1.1,0,1,0,1.1,1.1,1.1,1.1,0,0,0-1.1-1.1Z"/>
                <path class="cls-2" d="M245.84,250.47V260h-9.57v-9.48h9.57m.34-.34H235.94v10.16h10.24V250.13Z"/>
              </g>
            </g>
            <g>
              <rect class="cls-77" x="133.26" y="205.85" width="58.93" height="63.3" rx="1.76"/>
              <g>
                <path class="cls-2" d="M181.07,206a18.35,18.35,0,1,1-18.35-18.35A18.25,18.25,0,0,1,181.07,206Z"/>
                <ellipse class="cls-3" cx="162.72" cy="204.11" rx="6.91" ry="7.18"/>
                <path class="cls-3" d="M177.56,216.82a18.36,18.36,0,0,1-29.68,0c3.34-2.5,8.74-4.13,14.84-4.13S174.23,214.32,177.56,216.82Z"/>
              </g>
              <rect class="cls-4" x="141.17" y="233.3" width="43.1" height="2.69"/>
              <rect class="cls-4" x="143.86" y="227.74" width="37.71" height="2.69"/>
              <rect class="cls-4" x="145.21" y="239.19" width="35.02" height="2.69"/>
              <rect class="cls-5" x="145.68" y="249.46" width="35.02" height="11.79"/>
              <g>
                <polyline class="cls-6" points="158.44 259.4 161.02 256.1 162.39 257.45 164.72 254.91 168.11 259.06"/>
                <path class="cls-2" d="M161.46,252.58a.77.77,0,0,1,.76.77.76.76,0,0,1-.76.76.77.77,0,0,1-.77-.76.78.78,0,0,1,.77-.77m0-.33a1.1,1.1,0,1,0,1.1,1.1,1.1,1.1,0,0,0-1.1-1.1Z"/>
                <path class="cls-2" d="M168,250.47V260h-9.57v-9.48H168m.33-.34H158.07v10.16h10.24V250.13Z"/>
              </g>
            </g>
            <g>
              <rect class="cls-77" x="55.39" y="205.85" width="58.93" height="63.3" rx="1.76"/>
              <g>
                <path class="cls-2" d="M103.21,206a18.36,18.36,0,1,1-18.35-18.35A18.25,18.25,0,0,1,103.21,206Z"/>
                <ellipse class="cls-3" cx="84.86" cy="204.11" rx="6.91" ry="7.18"/>
                <path class="cls-3" d="M99.7,216.82a18.37,18.37,0,0,1-29.69,0c3.34-2.5,8.75-4.13,14.85-4.13S96.36,214.32,99.7,216.82Z"/>
              </g>
              <rect class="cls-4" x="63.31" y="233.3" width="43.1" height="2.69"/>
              <rect class="cls-4" x="66" y="227.74" width="37.71" height="2.69"/>
              <rect class="cls-4" x="67.35" y="239.19" width="35.02" height="2.69"/>
              <rect class="cls-5" x="67.82" y="249.46" width="35.02" height="11.79"/>
              <g>
                <polyline class="cls-6" points="80.57 259.4 83.15 256.1 84.52 257.45 86.86 254.91 90.24 259.06"/>
                <path class="cls-2" d="M83.59,252.58a.77.77,0,0,1,.76.77.76.76,0,0,1-1.52,0,.77.77,0,0,1,.76-.77m0-.33a1.1,1.1,0,1,0,1.1,1.1,1.1,1.1,0,0,0-1.1-1.1Z"/>
                <path class="cls-2" d="M90.11,250.47V260H80.54v-9.48h9.57m.34-.34H80.21v10.16H90.45V250.13Z"/>
              </g>
            </g>
          </g>
          <g>
            <g>
              <rect class="cls-77" x="288.99" y="297" width="58.93" height="63.3" rx="1.76"/>
              <g>
                <path class="cls-2" d="M336.8,297.17a18.35,18.35,0,1,1-18.35-18.36A18.25,18.25,0,0,1,336.8,297.17Z"/>
                <ellipse class="cls-3" cx="318.45" cy="295.26" rx="6.91" ry="7.18"/>
                <path class="cls-3" d="M333.29,308a18.35,18.35,0,0,1-29.68,0c3.34-2.5,8.74-4.12,14.84-4.12S330,305.46,333.29,308Z"/>
              </g>
              <rect class="cls-4" x="296.9" y="324.44" width="43.1" height="2.69"/>
              <rect class="cls-4" x="299.59" y="318.88" width="37.71" height="2.69"/>
              <rect class="cls-4" x="300.94" y="330.33" width="35.02" height="2.69"/>
              <rect class="cls-5" x="301.41" y="340.6" width="35.02" height="11.79"/>
              <g>
                <polyline class="cls-6" points="314.17 350.54 316.75 347.24 318.12 348.6 320.45 346.06 323.84 350.2"/>
                <path class="cls-2" d="M317.19,343.73a.76.76,0,0,1,.76.76.77.77,0,0,1-.76.77.78.78,0,0,1-.77-.77.77.77,0,0,1,.77-.76m0-.34a1.1,1.1,0,1,0,1.1,1.1,1.1,1.1,0,0,0-1.1-1.1Z"/>
                <path class="cls-2" d="M323.7,341.61v9.49h-9.56v-9.49h9.56m.34-.33H313.8v10.15H324V341.28Z"/>
              </g>
            </g>
            <g>
              <rect class="cls-77" x="211.12" y="297" width="58.93" height="63.3" rx="1.76"/>
              <g>
                <path class="cls-2" d="M258.94,297.17a18.36,18.36,0,1,1-18.35-18.36A18.25,18.25,0,0,1,258.94,297.17Z"/>
                <ellipse class="cls-3" cx="240.59" cy="295.26" rx="6.91" ry="7.18"/>
                <path class="cls-3" d="M255.43,308a18.36,18.36,0,0,1-29.69,0c3.34-2.5,8.75-4.12,14.85-4.12S252.09,305.46,255.43,308Z"/>
              </g>
              <rect class="cls-4" x="219.04" y="324.44" width="43.1" height="2.69"/>
              <rect class="cls-4" x="221.73" y="318.88" width="37.71" height="2.69"/>
              <rect class="cls-4" x="223.08" y="330.33" width="35.02" height="2.69"/>
              <rect class="cls-5" x="223.55" y="340.6" width="35.02" height="11.79"/>
              <g>
                <polyline class="cls-6" points="236.3 350.54 238.88 347.24 240.25 348.6 242.59 346.06 245.97 350.2"/>
                <path class="cls-2" d="M239.32,343.73a.76.76,0,0,1,.76.76.76.76,0,1,1-1.52,0,.76.76,0,0,1,.76-.76m0-.34a1.1,1.1,0,1,0,1.1,1.1,1.1,1.1,0,0,0-1.1-1.1Z"/>
                <path class="cls-2" d="M245.84,341.61v9.49h-9.57v-9.49h9.57m.34-.33H235.94v10.15h10.24V341.28Z"/>
              </g>
            </g>
            <g>
              <rect class="cls-77" x="133.26" y="297" width="58.93" height="63.3" rx="1.76"/>
              <g>
                <path class="cls-2" d="M181.07,297.17a18.35,18.35,0,1,1-18.35-18.36A18.25,18.25,0,0,1,181.07,297.17Z"/>
                <ellipse class="cls-3" cx="162.72" cy="295.26" rx="6.91" ry="7.18"/>
                <path class="cls-3" d="M177.56,308a18.35,18.35,0,0,1-29.68,0c3.34-2.5,8.74-4.12,14.84-4.12S174.23,305.46,177.56,308Z"/>
              </g>
              <rect class="cls-4" x="141.17" y="324.44" width="43.1" height="2.69"/>
              <rect class="cls-4" x="143.86" y="318.88" width="37.71" height="2.69"/>
              <rect class="cls-4" x="145.21" y="330.33" width="35.02" height="2.69"/>
              <rect class="cls-5" x="145.68" y="340.6" width="35.02" height="11.79"/>
              <g>
                <polyline class="cls-6" points="158.44 350.54 161.02 347.24 162.39 348.6 164.72 346.06 168.11 350.2"/>
                <path class="cls-2" d="M161.46,343.73a.76.76,0,0,1,.76.76.77.77,0,0,1-.76.77.78.78,0,0,1-.77-.77.77.77,0,0,1,.77-.76m0-.34a1.1,1.1,0,1,0,1.1,1.1,1.1,1.1,0,0,0-1.1-1.1Z"/>
                <path class="cls-2" d="M168,341.61v9.49h-9.57v-9.49H168m.33-.33H158.07v10.15h10.24V341.28Z"/>
              </g>
            </g>
            <g>
              <rect class="cls-77" x="55.39" y="297" width="58.93" height="63.3" rx="1.76"/>
              <g>
                <path class="cls-2" d="M103.21,297.17a18.36,18.36,0,1,1-18.35-18.36A18.25,18.25,0,0,1,103.21,297.17Z"/>
                <ellipse class="cls-3" cx="84.86" cy="295.26" rx="6.91" ry="7.18"/>
                <path class="cls-3" d="M99.7,308A18.36,18.36,0,0,1,70,308c3.34-2.5,8.75-4.12,14.85-4.12S96.36,305.46,99.7,308Z"/>
              </g>
              <rect class="cls-4" x="63.31" y="324.44" width="43.1" height="2.69"/>
              <rect class="cls-4" x="66" y="318.88" width="37.71" height="2.69"/>
              <rect class="cls-4" x="67.35" y="330.33" width="35.02" height="2.69"/>
              <rect class="cls-5" x="67.82" y="340.6" width="35.02" height="11.79"/>
              <g>
                <polyline class="cls-6" points="80.57 350.54 83.15 347.24 84.52 348.6 86.86 346.06 90.24 350.2"/>
                <path class="cls-2" d="M83.59,343.73a.76.76,0,0,1,.76.76.76.76,0,1,1-1.52,0,.76.76,0,0,1,.76-.76m0-.34a1.1,1.1,0,1,0,1.1,1.1,1.1,1.1,0,0,0-1.1-1.1Z"/>
                <path class="cls-2" d="M90.11,341.61v9.49H80.54v-9.49h9.57m.34-.33H80.21v10.15H90.45V341.28Z"/>
              </g>
            </g>
          </g>
          <g>
            <g>
              <rect class="cls-77" x="288.99" y="386.28" width="58.93" height="63.3" rx="1.76"/>
              <g>
                <path class="cls-2" d="M336.8,386.45a18.35,18.35,0,1,1-18.35-18.35A18.3,18.3,0,0,1,336.8,386.45Z"/>
                <ellipse class="cls-3" cx="318.45" cy="384.54" rx="6.91" ry="7.18"/>
                <path class="cls-3" d="M333.29,397.25a18.36,18.36,0,0,1-29.68,0c3.34-2.5,8.74-4.13,14.84-4.13S330,394.75,333.29,397.25Z"/>
              </g>
              <rect class="cls-4" x="296.9" y="413.72" width="43.1" height="2.69"/>
              <rect class="cls-4" x="299.59" y="408.17" width="37.71" height="2.69"/>
              <rect class="cls-4" x="300.94" y="419.62" width="35.02" height="2.69"/>
              <rect class="cls-5" x="301.41" y="429.89" width="35.02" height="11.79"/>
              <g>
                <polyline class="cls-6" points="314.17 439.83 316.75 436.53 318.12 437.88 320.45 435.34 323.84 439.49"/>
                <path class="cls-2" d="M317.19,433a.77.77,0,0,1,.76.77.76.76,0,0,1-.76.76.77.77,0,0,1-.77-.76.78.78,0,0,1,.77-.77m0-.33a1.1,1.1,0,1,0,0,2.2,1.1,1.1,0,1,0,0-2.2Z"/>
                <path class="cls-2" d="M323.7,430.9v9.48h-9.56V430.9h9.56m.34-.34H313.8v10.16H324V430.56Z"/>
              </g>
            </g>
            <g>
              <rect class="cls-77" x="211.12" y="386.28" width="58.93" height="63.3" rx="1.76"/>
              <g>
                <path class="cls-2" d="M258.94,386.45a18.36,18.36,0,1,1-18.35-18.35A18.3,18.3,0,0,1,258.94,386.45Z"/>
                <ellipse class="cls-3" cx="240.59" cy="384.54" rx="6.91" ry="7.18"/>
                <path class="cls-3" d="M255.43,397.25a18.37,18.37,0,0,1-29.69,0c3.34-2.5,8.75-4.13,14.85-4.13S252.09,394.75,255.43,397.25Z"/>
              </g>
              <rect class="cls-4" x="219.04" y="413.72" width="43.1" height="2.69"/>
              <rect class="cls-4" x="221.73" y="408.17" width="37.71" height="2.69"/>
              <rect class="cls-4" x="223.08" y="419.62" width="35.02" height="2.69"/>
              <rect class="cls-5" x="223.55" y="429.89" width="35.02" height="11.79"/>
              <g>
                <polyline class="cls-6" points="236.3 439.83 238.88 436.53 240.25 437.88 242.59 435.34 245.97 439.49"/>
                <path class="cls-2" d="M239.32,433a.77.77,0,0,1,.76.77.76.76,0,1,1-1.52,0,.77.77,0,0,1,.76-.77m0-.33a1.1,1.1,0,1,0,1.1,1.1,1.1,1.1,0,0,0-1.1-1.1Z"/>
                <path class="cls-2" d="M245.84,430.9v9.48h-9.57V430.9h9.57m.34-.34H235.94v10.16h10.24V430.56Z"/>
              </g>
            </g>
            <g>
              <rect class="cls-77" x="133.26" y="386.28" width="58.93" height="63.3" rx="1.76"/>
              <g>
                <path class="cls-2" d="M181.07,386.45a18.35,18.35,0,1,1-18.35-18.35A18.3,18.3,0,0,1,181.07,386.45Z"/>
                <ellipse class="cls-3" cx="162.72" cy="384.54" rx="6.91" ry="7.18"/>
                <path class="cls-3" d="M177.56,397.25a18.36,18.36,0,0,1-29.68,0c3.34-2.5,8.74-4.13,14.84-4.13S174.23,394.75,177.56,397.25Z"/>
              </g>
              <rect class="cls-4" x="141.17" y="413.72" width="43.1" height="2.69"/>
              <rect class="cls-4" x="143.86" y="408.17" width="37.71" height="2.69"/>
              <rect class="cls-4" x="145.21" y="419.62" width="35.02" height="2.69"/>
              <rect class="cls-5" x="145.68" y="429.89" width="35.02" height="11.79"/>
              <g>
                <polyline class="cls-6" points="158.44 439.83 161.02 436.53 162.39 437.88 164.72 435.34 168.11 439.49"/>
                <path class="cls-2" d="M161.46,433a.77.77,0,0,1,.76.77.76.76,0,0,1-.76.76.77.77,0,0,1-.77-.76.78.78,0,0,1,.77-.77m0-.33a1.1,1.1,0,0,0,0,2.2,1.1,1.1,0,1,0,0-2.2Z"/>
                <path class="cls-2" d="M168,430.9v9.48h-9.57V430.9H168m.33-.34H158.07v10.16h10.24V430.56Z"/>
              </g>
            </g>
            <g>
              <rect class="cls-77" x="55.39" y="386.28" width="58.93" height="63.3" rx="1.76"/>
              <g>
                <path class="cls-2" d="M103.21,386.45A18.36,18.36,0,1,1,84.86,368.1,18.3,18.3,0,0,1,103.21,386.45Z"/>
                <ellipse class="cls-3" cx="84.86" cy="384.54" rx="6.91" ry="7.18"/>
                <path class="cls-3" d="M99.7,397.25a18.37,18.37,0,0,1-29.69,0c3.34-2.5,8.75-4.13,14.85-4.13S96.36,394.75,99.7,397.25Z"/>
              </g>
              <rect class="cls-4" x="63.31" y="413.72" width="43.1" height="2.69"/>
              <rect class="cls-4" x="66" y="408.17" width="37.71" height="2.69"/>
              <rect class="cls-4" x="67.35" y="419.62" width="35.02" height="2.69"/>
              <rect class="cls-5" x="67.82" y="429.89" width="35.02" height="11.79"/>
              <g>
                <polyline class="cls-6" points="80.57 439.83 83.15 436.53 84.52 437.88 86.86 435.34 90.24 439.49"/>
                <path class="cls-2" d="M83.59,433a.77.77,0,0,1,.76.77.76.76,0,0,1-1.52,0,.77.77,0,0,1,.76-.77m0-.33a1.1,1.1,0,1,0,1.1,1.1,1.1,1.1,0,0,0-1.1-1.1Z"/>
                <path class="cls-2" d="M90.11,430.9v9.48H80.54V430.9h9.57m.34-.34H80.21v10.16H90.45V430.56Z"/>
              </g>
            </g>
          </g>
          <g>
            <polygon class="cls-72" points="401.87 556.49 401.84 552.74 399.02 555.59 396.2 552.74 393.38 555.59 390.56 552.74 387.74 555.59 384.92 552.74 382.1 555.59 379.28 552.74 376.46 555.59 373.64 552.74 370.82 555.59 368 552.74 365.19 555.59 362.37 552.74 359.55 555.59 356.73 552.74 353.91 555.59 351.09 552.74 348.27 555.59 345.45 552.74 342.63 555.59 339.81 552.74 336.99 555.59 334.17 552.74 331.35 555.59 328.53 552.74 325.71 555.59 322.89 552.74 320.07 555.59 317.25 552.74 314.43 555.59 311.62 552.74 308.8 555.59 305.98 552.74 303.16 555.59 300.34 552.74 297.52 555.59 294.7 552.74 291.88 555.59 289.06 552.74 286.24 555.59 283.42 552.74 280.6 555.59 277.78 552.74 274.96 555.59 272.14 552.74 269.32 555.59 266.5 552.74 263.68 555.59 260.86 552.74 258.04 555.59 255.22 552.74 252.41 555.59 249.59 552.74 246.77 555.59 243.95 552.74 241.13 555.59 238.31 552.74 235.49 555.59 232.67 552.74 229.85 555.59 227.03 552.74 224.21 555.59 221.39 552.74 218.57 555.59 215.75 552.74 212.93 555.59 210.11 552.74 207.29 555.59 204.47 552.74 201.65 555.59 198.83 552.74 196.01 555.59 193.19 552.74 190.38 555.59 187.56 552.74 184.74 555.59 181.92 552.74 179.1 555.59 176.28 552.74 173.46 555.59 170.64 552.74 167.82 555.59 165 552.74 162.18 555.59 159.36 552.74 156.54 555.59 153.72 552.74 150.9 555.59 148.08 552.74 145.26 555.59 142.44 552.74 139.62 555.59 136.81 552.74 133.99 555.59 131.16 552.74 128.35 555.59 125.53 552.74 122.71 555.59 119.89 552.74 117.07 555.59 114.25 552.74 111.43 555.59 108.61 552.74 105.79 555.59 102.97 552.74 100.15 555.59 97.33 552.74 94.51 555.59 91.69 552.74 88.87 555.59 86.05 552.74 83.23 555.59 80.41 552.74 77.59 555.59 74.78 552.74 71.95 555.59 69.14 552.74 66.32 555.59 63.5 552.74 60.68 555.59 57.86 552.74 55.04 555.59 52.22 552.74 49.4 555.59 46.58 552.74 43.76 555.59 40.94 552.74 38.12 555.59 35.3 552.74 32.48 555.59 29.66 552.74 26.84 555.59 24.02 552.74 21.2 555.59 18.39 552.74 15.56 555.59 12.75 552.74 9.93 555.59 7.11 552.74 4.29 555.59 1.47 552.74 0.79 556 1.47 559.27 4.29 556.42 7.11 559.27 9.93 556.42 12.75 559.27 15.56 556.42 18.39 559.27 21.2 556.42 24.02 559.27 26.84 556.42 29.66 559.27 32.48 556.42 35.3 559.27 38.12 556.42 40.94 559.27 43.76 556.42 46.58 559.27 49.4 556.42 52.22 559.27 55.04 556.42 57.86 559.27 60.68 556.42 63.5 559.27 66.32 556.42 69.14 559.27 71.95 556.42 74.78 559.27 77.59 556.42 80.41 559.27 83.23 556.42 86.05 559.27 88.87 556.42 91.69 559.27 94.51 556.42 97.33 559.27 100.15 556.42 102.97 559.27 105.79 556.42 108.61 559.27 111.43 556.42 114.25 559.27 117.07 556.42 119.89 559.27 122.71 556.42 125.53 559.27 128.35 556.42 131.16 559.27 133.99 556.42 136.81 559.27 139.62 556.42 142.44 559.27 145.26 556.42 148.08 559.27 150.9 556.42 153.72 559.27 156.54 556.42 159.36 559.27 162.18 556.42 165 559.27 167.82 556.42 170.64 559.27 173.46 556.42 176.28 559.27 179.1 556.42 181.92 559.27 184.74 556.42 187.56 559.27 190.38 556.42 193.19 559.27 196.01 556.42 198.83 559.27 201.65 556.42 204.47 559.27 207.29 556.42 210.11 559.27 212.93 556.42 215.75 559.27 218.57 556.42 221.39 559.27 224.21 556.42 227.03 559.27 229.85 556.42 232.67 559.27 235.49 556.42 238.31 559.27 241.13 556.42 243.95 559.27 246.77 556.42 249.59 559.27 252.41 556.42 255.22 559.27 258.04 556.42 260.86 559.27 263.68 556.42 266.5 559.27 269.32 556.42 272.14 559.27 274.96 556.42 277.78 559.27 280.6 556.42 283.42 559.27 286.24 556.42 289.06 559.27 291.88 556.42 294.7 559.27 297.52 556.42 300.34 559.27 303.16 556.42 305.98 559.27 308.8 556.42 311.62 559.27 314.43 556.42 317.25 559.27 320.07 556.42 322.89 559.27 325.71 556.42 328.53 559.27 331.35 556.42 334.17 559.27 336.99 556.42 339.81 559.27 342.63 556.42 345.45 559.27 348.27 556.42 351.09 559.27 353.91 556.42 356.73 559.27 359.55 556.42 362.37 559.27 365.19 556.42 368 559.27 370.82 556.42 373.64 559.27 376.46 556.42 379.28 559.27 382.1 556.42 384.92 559.27 387.74 556.42 390.56 559.27 393.38 556.42 396.2 559.27 399.02 556.42 401.84 559.27 401.87 556.49"/>
            <rect class="cls-72" x="1.28" y="555.54" width="400.6" height="135.8"/>
          </g>
          <polyline class="cls-50" points="230.43 521.26 172.88 521.26 172.88 534.7 230.43 534.7 230.43 521.26"/>
          <text class="cls-41" transform="translate(165.54 506.12)">END SE<tspan class="cls-73" x="35.05" y="0">C</tspan><tspan x="41.57" y="0">TION</tspan></text>
        </g>
        <rect class="cls-74" x="1.7" y="1.94" width="399.9" height="687.54"/>
      </g>
      <path class="cls-74" d="M1454.89,159.47l-176.43-.07a3.1,3.1,0,0,1-3.1-3.1l.05-151.21a3.09,3.09,0,0,1,3.1-3.09l176.43.06a3.1,3.1,0,0,1,3.1,3.1l0,151.21A3.1,3.1,0,0,1,1454.89,159.47Z"/>
      <path class="cls-74" d="M1485.93,441.56l-238.53-.08a4.46,4.46,0,0,1-4.46-4.46l.07-227.53a4.47,4.47,0,0,1,4.47-4.46l238.52.08a4.47,4.47,0,0,1,4.46,4.47l-.07,227.52A4.46,4.46,0,0,1,1485.93,441.56Z"/>
      <path class="cls-74" d="M648,23a3.1,3.1,0,0,0-3.1-3.1l-69.87,0a18.35,18.35,0,0,0-36.69,0l-69.87,0a3.1,3.1,0,0,0-3.1,3.1l0,133.37a3.1,3.1,0,0,0,3.1,3.1l176.43.06a3.1,3.1,0,0,0,3.1-3.1l0-72h0Z"/>
    </g>
  </g>
</svg>
