<?xml version="1.0" encoding="utf-8"?>
<!-- Generator: Adobe Illustrator 23.0.2, SVG Export Plug-In . SVG Version: 6.00 Build 0)  -->
<svg version="1.1" id="Layer_1" xmlns="http://www.w3.org/2000/svg" xmlns:xlink="http://www.w3.org/1999/xlink" x="0px" y="0px"
	 viewBox="0 0 1942.1 2076.2" style="enable-background:new 0 0 1942.1 2076.2;" xml:space="preserve">
<style type="text/css">
	.st0{fill:#A01721;}
	.st1{fill:#8A161C;}
	.st2{fill:#E5BBAA;}
	.st3{fill:#FFD8C5;}
	.st4{fill:#29ABE2;}
	.st5{fill:#3F3F3F;}
	.st6{fill:#333333;}
	.st7{fill:#293A44;}
	.st8{fill:#4D4D4D;}
	.st9{fill:#0071BC;}
	.st10{fill:#A67C52;}
	.st11{fill:#C1272D;}
	.st12{fill:#534741;}
	.st13{fill:#F7979E;}
	.st14{fill:#DB717D;}
	.st15{fill:#CCCCCC;}
	.st16{fill:none;stroke:#EAA22F;stroke-width:20;stroke-miterlimit:10;}
	.st17{fill:#CE993A;}
	.st18{fill:#EAA22F;}
	.st19{fill:#8CC63F;}
	.st20{fill:#22B573;}
	.st21{fill:#F2F2F2;}
</style>
<title>gavstrange</title>
<g>
	<g id="Layer_1-2">
		<g>
			<g>
				<path class="st0" d="M1244.4,764c0,0-102,100-71,156l-66-35l105-129L1244.4,764z"/>
				<path class="st0" d="M710.4,764c0,0,102,100,71,156l66-35l-105-129L710.4,764z"/>
			</g>
			<path class="st1" d="M1455.4,1276.9c-19.4-10-46.8-18.9-67.5,0c-20.3,18.6-16.4,47.8-40.2,104.3c-14.8,35.3-32,76.1-61.3,90.5
				c-33,16.3-45.1-18.7-88-10.7c-20.6,3.8-43.5,25-89.2,67.4c-40.1,37.2-61,62-95.7,65.2c-8.7,2.3-17.7,3.7-26.7,4.2v-0.2h-6.1v0.2
				c-6.5,0.7-16.5-2.2-26.7-4.2c-33.8-5.7-55.6-28.1-95.7-65.2c-45.8-42.4-68.7-63.6-89.2-67.4c-42.9-8-55,26.9-88,10.7
				c-29.3-14.5-46.5-55.2-61.3-90.5c-23.7-56.4-19.9-85.7-40.2-104.3c-20.7-18.9-48.1-10-67.5,0c0,0,95.4-215.8,239.6-345.8l0,0
				c32.2-29,66.8-53.8,103.4-70.9c26.7-12.5,54.3-20.9,82.8-23.9c18.9-2,34.4-3,39-3.3c0.7,36.6,4.8,73.3,8.3,110l2-110
				c4.6,0.2,20,1.2,39,3.2c25.5,2.7,51,11,76.1,23.6c33.4,16.7,66.3,40.8,97.6,69.2C1343.1,1058.6,1455.4,1276.9,1455.4,1276.9z"/>
			<g>
				<g>
					<path class="st2" d="M1417.4,838.6l20.7-32.7c6.1-9.7,19-12.6,28.6-6.4c0,0,0,0,0,0l1.1,0.7c1.1,0.7,1.5,2.2,0.8,3.4
						l-30.5,48.2c-0.7,1.1-2.1,1.4-3.2,0.7l-16.9-10.7C1417.1,841.1,1416.7,839.7,1417.4,838.6L1417.4,838.6z"/>
					<path class="st2" d="M1388.4,861.2l14.8,4.8c2.9,0.9,6-0.7,6.9-3.5l14.3-49c0.9-2.9,1.2-6.5-1.7-7.5l-14.8-4.8
						c-2.9-0.9-5.2,6.2-6.1,9.1l-23.9,45.8C1376.9,859,1385.5,860.2,1388.4,861.2z"/>
					<path class="st2" d="M1417.6,821.7l-24.3-7.9c-7.5-2.4-11.5-10.4-9.1-17.9l1.2-3.8c0.7-2.3,3.2-3.5,5.5-2.8l0,0l24,7.8
						c7.6,2.5,11.8,10.7,9.3,18.3l0,0l-1.2,3.5C1422.4,821.2,1419.9,822.4,1417.6,821.7z"/>
					<g>
						<path class="st3" d="M1290.1,938.9c-0.3-0.4-0.5-0.9-0.8-1.3C1289.5,938.1,1289.8,938.5,1290.1,938.9z"/>
						<path class="st3" d="M1368.2,858c-11.2-17.2-26.1-27.7-36.2-18.5c-9.2,8.4,4,56.9-24.9,68.9c-10.3,32.4-15.2,32.4-17,30.6
							c4.8,7.5,14.5,10,22.4,5.9l106.2-56.3l-45.2-28.9C1372.5,857.7,1370.1,857,1368.2,858z"/>
					</g>
					<path class="st2" d="M1437,850.2l-90.5,47.5c-1.5,0.7-3.2,0.2-4-1.2l-8.6-16.5c-0.8-1.5,33.1-16.3,34.5-17.1l69-47.6
						c1.4-0.8,2.8,7.2,3.5,8.6l2.8,5.3C1447.6,836.8,1444.6,846.2,1437,850.2z"/>
					<path class="st3" d="M1435.6,861.7l-90,48.5c-1.4,0.7-3.2,0.2-4-1.2l-8.8-16.4c-0.8-1.4,2.7-22.6,4.2-23.4l98.2-35.2
						c1.4-0.7,3.2-0.2,4,1.2l2.8,5.3C1446,848.1,1443.1,857.5,1435.6,861.7z"/>
					<path class="st3" d="M1431.5,882l-23.9,12.9c-10.3,5.6-21.8,7.5-27.3-2.9l-0.5-1c-0.5-1-0.2-2.3,0.8-2.8l48.6-26.2
						c1-0.5,2.3-0.2,2.8,0.8c0,0,0,0,0,0l5.5,10.2C1440.3,878.3,1436.8,879.2,1431.5,882z"/>
					<path class="st3" d="M1414.8,849.5l54.8-39.4c7.5-5.4,18-3.7,23.4,3.8l0,0l0.5,0.6c2.3,3.1,1.5,7.5-1.6,9.8l-62.7,45.1
						c-1.2,0.9-3,0.6-3.8-0.6l0,0l-11.1-15.5C1413.3,852.2,1413.6,850.4,1414.8,849.5C1414.8,849.5,1414.8,849.5,1414.8,849.5z"/>
					<path class="st3" d="M1479,863.9l-49.8,19.5c-1,0.5-2.3,0.1-2.9-0.9l-6.2-9.1c-0.5-1-0.1-2.3,0.9-2.9l38.7-20.3
						c7.8-4.1,17.4-1.1,21.5,6.7l0,0C1482.5,859.4,1481.5,862.6,1479,863.9z"/>
					
						<ellipse transform="matrix(0.7208 -0.6932 0.6932 0.7208 -227.4755 1188.465)" class="st3" cx="1361.5" cy="876.6" rx="31.6" ry="32.6"/>
					<path class="st3" d="M1333.5,824h16.6c2.8,0,5,2.2,5,5v43.1c0,2.8-2.2,5-5,5h-16.6c-2.8,0-5-2.2-5-5V829
						C1328.5,826.2,1330.7,824,1333.5,824z"/>
					<path class="st3" d="M1329.9,824.9l27-22.9c1.8-1.6,4.6-1.3,6.1,0.5c0,0,0,0,0,0l0,0c6.5,7.7,5.6,19.2-2.1,25.7l-16.4,14
						c-1.8,1.6-4.6,1.3-6.1-0.5c0,0,0,0,0,0l-9-10.6C1327.9,829.2,1328.1,826.5,1329.9,824.9L1329.9,824.9L1329.9,824.9z"/>
				</g>
				<path class="st3" d="M1408.5,894.4l-1.5,0.4l-0.2,0.1c-4,1.1-7.9,2.6-11.7,4.4c-6.8,3.3-13.2,7.3-19.2,11.9
					c-21.9,16.8-37.5,39.1-37.5,39.1l-25.5-5l-0.1-0.6l-5.8-26.2l72.7-27.3l0.4-0.2c0,0,29.4-2.1,34.4-0.2c0.1,0,0.3,0.1,0.4,0.2
					L1408.5,894.4z"/>
			</g>
			<g>
				<g>
					<path class="st2" d="M503.9,851.7l-30.5-48.2c-0.7-1.2-0.4-2.7,0.8-3.4c0,0,0,0,0,0l1.1-0.7c9.7-6.1,22.5-3.3,28.6,6.4
						c0,0,0,0,0,0l20.7,32.7c0.7,1.1,0.4,2.5-0.7,3.2l-16.9,10.7C506,853.1,504.6,852.8,503.9,851.7z"/>
					<path class="st2" d="M553.7,861.2l-14.8,4.8c-2.9,0.9-6-0.7-6.9-3.5l-14.3-49c-0.9-2.9-1.2-6.5,1.7-7.5l14.8-4.8
						c2.9-0.9,5.2,6.2,6.1,9.1l23.9,45.8C565.1,859,556.6,860.2,553.7,861.2z"/>
					<path class="st2" d="M527.1,797.1l24-7.8c2.3-0.7,4.7,0.5,5.5,2.8l1.2,3.8c2.4,7.5-1.7,15.5-9.1,17.9l-24.3,7.9
						c-2.3,0.7-4.7-0.5-5.5-2.8l-1.2-3.5C515.4,807.8,519.5,799.6,527.1,797.1z"/>
					<g>
						<path class="st3" d="M652,938.9c0.3-0.4,0.5-0.8,0.8-1.3C652.6,938.1,652.3,938.5,652,938.9z"/>
						<path class="st3" d="M573.9,858c11.2-17.2,26.1-27.7,36.2-18.5c9.2,8.4-4,56.9,24.9,68.9c10.3,32.4,15.2,32.4,17,30.6
							c-4.8,7.5-14.5,10-22.4,5.9l-106.3-56.3l45.2-28.9C569.5,857.7,571.9,856.9,573.9,858C573.9,858,573.9,858,573.9,858z"/>
					</g>
					<path class="st2" d="M505.1,850.2l90.6,47.5c1.5,0.7,3.2,0.2,4-1.2l8.7-16.5c0.8-1.5-33-16.3-34.5-17.1l-69-47.6
						c-1.5-0.8-2.8,7.2-3.5,8.6l-2.8,5.3C494.5,836.8,497.4,846.2,505.1,850.2z"/>
					<path class="st3" d="M506.5,861.7l90,48.5c1.4,0.7,3.2,0.2,4-1.2l8.8-16.4c0.8-1.4-2.7-22.6-4.2-23.4L507,834
						c-1.4-0.7-3.2-0.2-4,1.2l-2.8,5.3C496.1,848.1,499,857.5,506.5,861.7z"/>
					<path class="st3" d="M510.6,882l23.9,12.9c10.3,5.6,21.8,7.5,27.3-2.9l0.5-1c0.5-1,0.2-2.3-0.8-2.8L512.9,862
						c-1-0.5-2.3-0.2-2.8,0.8l-5.5,10.2C501.7,878.3,505.3,879.2,510.6,882z"/>
					<path class="st3" d="M512.9,869.5l-62.7-45.1c-3.1-2.3-3.8-6.6-1.6-9.8l0,0l0.5-0.6c5.4-7.5,15.9-9.2,23.4-3.8l54.7,39.4
						c1.2,0.9,1.6,2.6,0.7,3.8c0,0,0,0-0.1,0.1l-11.1,15.4C515.9,870.1,514.2,870.4,512.9,869.5C513,869.5,512.9,869.5,512.9,869.5z
						"/>
					<path class="st3" d="M463.1,863.9l49.8,19.5c1,0.5,2.3,0.1,2.9-0.9l6.2-9.1c0.5-1,0.1-2.3-0.9-2.9l-38.7-20.3
						c-7.8-4-17.3-1-21.5,6.7l0,0C459.6,859.4,460.6,862.6,463.1,863.9z"/>
					
						<ellipse transform="matrix(0.6932 -0.7208 0.7208 0.6932 -453.7072 687.4789)" class="st3" cx="580.6" cy="876.6" rx="32.6" ry="31.6"/>
					<path class="st3" d="M608.6,877.1H592c-2.8,0-5-2.2-5-5V829c0-2.8,2.2-5,5-5h16.6c2.8,0,5,2.2,5,5v43.1
						C613.6,874.8,611.3,877.1,608.6,877.1z"/>
					<path class="st3" d="M597.5,842.2l-16.4-14c-7.7-6.5-8.6-18-2.1-25.7l0,0l0,0c1.6-1.8,4.3-2,6.1-0.5l27,23
						c1.8,1.6,2,4.3,0.5,6.1l-9,10.6C602.1,843.5,599.4,843.8,597.5,842.2C597.5,842.2,597.5,842.2,597.5,842.2z"/>
				</g>
				<path class="st3" d="M527.1,890.9c0.1-0.1,0.2-0.1,0.4-0.2c5-1.9,34.5,0.2,34.5,0.2l0.4,0.2l72.7,27.3l-5.8,26.2l-0.1,0.6
					l-25.5,5c0,0-15.5-22.3-37.5-39.1c-5.9-4.6-12.4-8.6-19.1-11.9c-3.7-1.8-7.6-3.3-11.6-4.4l-0.2-0.1l-1.5-0.4L527.1,890.9z"/>
			</g>
			<path class="st4" d="M855.8,877h242.6c4.3,0,7.7,3.4,7.7,7.7l0,0v323c0,32.2-26.1,58.2-58.2,58.2H906.4
				c-32.2,0-58.2-26.1-58.2-58.2V884.7C848.1,880.4,851.6,877,855.8,877L855.8,877L855.8,877z"/>
			<path class="st5" d="M1106.1,1156v68.5c0,28.5-27.1,51.5-60.5,51.5h-137c-33.4,0-60.5-23.1-60.5-51.5V1156"/>
			<g>
				<path class="st6" d="M954.3,970.9c13.8-12.9,84.1-80.6,84.1-80.6s66.1-42.4,93.3,3.2c27.2,45.6,90,168.9,90,168.9l91.8-166.7
					l69.5,22.1l-122.6,206.7c-18.2,30.6-62.8,30.6-80.6-0.2c-4.6-7.9-9.3-17.1-14.4-26.5c-28.8-53.5-77.5-120.4-77.5-120.4
					l-59.5,41.8L954.3,970.9z"/>
				<path class="st6" d="M1000,970.9c-13.8-12.9-84.1-80.6-84.1-80.6s-66.1-42.4-93.3,3.2s-90,168.9-90,168.9l-91.8-166.7
					l-69.5,22.1l122.6,206.7c18.2,30.6,62.8,30.6,80.6-0.2c4.5-7.9,9.3-17.1,14.4-26.5c28.8-53.5,77.5-120.4,77.5-120.4l59.5,41.8
					L1000,970.9z"/>
			</g>
			<rect x="935.2" y="978" class="st7" width="83" height="183"/>
			<path class="st5" d="M921.8,1341.2l-260.3-85.8c-30.4-10.1-46.9-42.8-36.9-73.2l0,0c10-30.3,43-46.9,63.8-41.2l344.6,55.2
				c0.5,59.8,2.8,64.3,1.4,68.5l-7.9,23.8C1012,1331.8,965.2,1355.3,921.8,1341.2z"/>
			<path class="st8" d="M653.8,1165.8l412.9,130.8c3,1,4.7,4.2,3.8,7.2c0,0,0,0,0,0l-21.8,68.7c-1,3-4.2,4.7-7.2,3.8c0,0,0,0,0,0
				l-393.3-124.6c-22-7-34.2-30.5-27.2-52.5l6.2-19.6C630.6,1168.5,642.6,1162.3,653.8,1165.8L653.8,1165.8z"/>
			<path class="st9" d="M909.2,886l-86.7,7.5l-18.6,37.4c0,0,42.3,49.1,41.3,167.1l74.4,66.3l79.6-79.3L909.2,886z"/>
			<path class="st9" d="M1055.2,886l80.4,7.5l18.6,37.4c0,0-42.3,49.1-41.3,167.1l-74.4,66.3l-94.3-79.3L1055.2,886z"/>
			<path class="st10" d="M1100.6,1172c-81.9-12.2-165.1-12.2-247,0c-2,0-3.9-0.5-5.6-1.5c-1.4-0.8-2.2-2.1-2.4-3.7v-68.7
				c0-2.9,3.6-5.2,8-5.2c82-10.5,165-10.5,247,0c2,0,3.9,0.5,5.7,1.5c1.4,0.7,2.2,2.1,2.3,3.7v68.7
				C1108.6,1169.6,1105,1172,1100.6,1172z"/>
			<path class="st5" d="M1042.1,1341.2l260.3-85.8c30.4-10.1,46.8-42.8,36.9-73.2l0,0c-10-30.3-42.9-46.9-63.8-41.2L931,1196
				c-0.5,59.8-2.8,64.3-1.4,68.5l7.9,23.8C951.9,1331.8,998.7,1355.3,1042.1,1341.2z"/>
			<path class="st0" d="M1200,929l-2.7-1c-88.3-33.7-150.9,125-165,125c-44,0,14.1-76.2,14.1-76.2l56-117
				C1135.8,876.5,1168.6,900.6,1200,929z"/>
			<path class="st0" d="M925.1,1053c-14.1,0-76.7-158.6-165-125c-2.9,1.1-5.6,2.1-8.3,3.1c32.2-29,66.8-53.8,103.4-70.9l55.8,116.6
				C910.9,976.8,969.1,1053,925.1,1053z"/>
			<polygon class="st6" points="904.5,1235.2 876.8,1322.7 1036.7,1375.9 1037.6,1475.9 1094.5,1498.4 1135.3,1301.2 			"/>
			<path class="st8" d="M1317.2,1250.3l-393.3,124.6c-3,1-6.3-0.7-7.2-3.8c0,0,0,0,0,0l-21.8-68.7c-1-3,0.7-6.3,3.8-7.2c0,0,0,0,0,0
				l412.9-130.8c11.2-3.6,23.1,2.6,26.7,13.8c0,0,0,0,0,0l6.2,19.6C1351.4,1219.9,1339.3,1243.4,1317.2,1250.3
				C1317.2,1250.3,1317.2,1250.3,1317.2,1250.3z"/>
			<polygon class="st6" points="1062,1237.8 1089.8,1325.4 929.9,1378.5 929,1478.5 872,1501 831.3,1303.8 			"/>
			<g>
				<path class="st11" d="M939,1047c-45.3-69-197.7-266.5-226.6-283c0,0,5-54,231-54c0,0-2.1,200-5.5,302.3
					C937.4,1027.8,947.5,1059.9,939,1047z"/>
				<path class="st11" d="M1015.8,1047c45.3-69,197.7-266.5,226.6-283c0,0-5-54-231-54c0,0,2.1,200,5.5,302.3
					C1017.5,1027.8,1007.3,1059.9,1015.8,1047z"/>
				<path class="st2" d="M804.9,692c3.9,25.9,17.4,57.9,28.2,56.2c20.8-3.1,27.7-0.4,8.8-85.3c-3-13.7-8-19-22.8-8.7
					C810.1,660.6,801.1,666,804.9,692z"/>
				<path class="st2" d="M1139.1,692c-3.9,25.9-17.3,57.9-28.2,56.3c-20.8-3.1-27.7-0.4-8.8-85.3c3.1-13.7,8-19,22.8-8.7
					C1133.9,660.6,1143,666,1139.1,692z"/>
				<path class="st3" d="M1099,560c0,65.1-0.1,162.1,0,213c0,31.2,0.1,52-11,77c-3.3,7.5-28.4,61.8-83,74c-12.5,2.8-23.4,6.7-31,6
					h-11c-7.6,0.7-18.5-3.2-31-6c-54.5-12.2-79.7-66.5-83-74c-11.1-25-11-45.8-11-77c0.1-50.9,0-147.9,0-213"/>
				<path class="st12" d="M1099,793c0,31.2,0.1,52-11,77c-3.3,7.5-28.4,94.8-83,107c-12.5,2.8-23.4,6.7-31,6h-11
					c-7.6,0.7-18.5-3.2-31-6c-54.5-12.2-79.7-99.5-83-107c-11.1-25-11-45.8-11-77c0-28.3,0-55.7,0-85.6c0.7,61.1,12,84.3,22,108.6
					c3.1,7.5,24.4,53.8,74.8,66c11.5,2.8,20.2,3,28.6,3h6.6c9.6,0.2,19.2-0.8,28.6-3c50.4-12.2,71.7-58.5,74.8-66
					c8.7-21.3,21.8-41.7,25.5-87.3C1099,750.6,1099,771.5,1099,793z"/>
				<path class="st12" d="M995.5,860.7c-1.8-2.8-7.2-4.7-13.4-4.7h-27.2c-6.2,0-11.6,1.9-13.4,4.7l-8,25.3h70L995.5,860.7z"/>
				<path class="st13" d="M1009.1,836.2c0.3,0.8,0.5,1.5,0.7,2.2c0,0.2,0.1,0.4,0.1,0.5c0.3,1.1,0.5,2.3,0.5,3.5c0,3.9-3.1,7-7,7
					h-72c-3.9,0-7-3.1-7-7c0-1.2,0.2-2.3,0.5-3.5c0-0.2,0.1-0.4,0.1-0.5c0.2-0.7,0.4-1.5,0.7-2.2L1009.1,836.2z"/>
				<path class="st14" d="M924.9,838.2c0.4-1.2,0.9-2.4,1.6-3.4c1.3-2.1,3-3.8,4.9-3.8h72c3,0,5.5,4.1,6.5,7.3
					c-0.4,0.7-0.9,1.3-1.6,1.7c-1.5,1-3.2,1.5-4.9,1.5h-72C928.5,841.5,925.9,840.1,924.9,838.2z"/>
				<path class="st15" d="M1078.4,597.4c8.1,10,12.8,22.2,13.7,35c0.3,5.1,0.1,10.1-0.7,15.2c-3.5,28.5,4.4,64,8.9,64.4
					c4,0.4,3.5,6,17.1-125L1078.4,597.4z"/>
				<path class="st15" d="M863.4,597.4c-8.1,10-12.8,22.2-13.7,35c-0.3,5.1-0.1,10.1,0.7,15.2c3.5,28.5-4.4,64-8.9,64.4
					c-4,0.4-3.5,6-17.1-125L863.4,597.4z"/>
				<path class="st12" d="M1115.4,619c-1.1,4.5-27-15.9-52-14c-9.5,0.7-12.9,2.5-21,4c-22.1,4.2-56.7,2.5-62-10c-6-14-7.7-59,22-73
					C1095.4,482,1129.4,564,1115.4,619z"/>
				<path class="st12" d="M974.4,566c-16.8-46.8-25.2-70.2-37-77c-33.6-19.5-106.7,7.4-119,63c-8,36.3,11.5,77,49,99
					c-3.1-12.5-12.4-54.1,6-67c3.2-2.2,7.7-4,32-2c44.2,3.6,64.6,12.4,71,4C979.8,581.6,977.6,574.9,974.4,566z"/>
				<path class="st12" d="M1024.4,564c-13.1-49.5-18-62-69.7-82.3c-31-12.2-83.1,7.8-92.7,66.6c-6.3,38.4,9,81.5,38.2,104.7
					c-2.4-13.2-9.7-57.2,4.7-70.9c2.5-2.4,6-4.2,24.9-2.1c34.4,3.8,55.5,14.5,65.6,13C1029.8,587.7,1026.9,573.4,1024.4,564z"/>
				<path class="st12" d="M952.1,789.8c-7-0.1-14.1-0.1-21.1,0c-7.1,0.1-14.7-0.4-21.7,1.4c-13.9,3.5-22.9,30.8-29.9,49.8
					c-3,8.1-6,17-5,17c0,0,6,12,31-20.5c1.8-2.3,5.2-6.5,8.3-9.9l4.7-4.7h0.2c11.2-0.2,22.3-0.4,33.5-0.2
					c8.6,0.1,16.8-7.7,16.4-16.5C968.2,797.2,961.3,789.9,952.1,789.8z"/>
				<path class="st12" d="M967.3,806.3c-0.4,8.8,7.8,16.6,16.5,16.5c11.2-0.1,22.3,0.1,33.5,0.2h0.2c1.5,1.5,4.5,4.5,4.7,4.7
					c3.1,3.3,6.5,7.6,8.3,9.8c25,32.5,31,20.5,31,20.5c1,0-2-8.9-5-17c-7-19-16-46.3-29.9-49.8c-6.9-1.7-14.6-1.3-21.7-1.4
					s-14.1-0.1-21.1,0C974.5,789.9,967.7,797.2,967.3,806.3z"/>
				<path class="st2" d="M994.4,779.5c0,27.9-12.1,31.5-27,31.5s-27-3.6-27-31.5s12.1-75.5,27-75.5
					C982.4,704,994.4,751.6,994.4,779.5z"/>
			</g>
			<path class="st9" d="M577.2,938l39.8,76.8c4.9,9.4,16.5,13.1,25.9,8.2c0.3-0.1,0.6-0.3,0.8-0.5l40.1-23.4
				c8.2-4.8,11.7-14.9,8.2-23.7L664.2,905L577.2,938z"/>
			<polygon class="st9" points="1380.2,938 1331.1,1032.7 1259.2,990.8 1293.2,905 			"/>
			<circle class="st16" cx="1065.7" cy="1129.5" r="27.5"/>
			<g>
				<g>
					<path class="st17" d="M981.3,1100.3c16.8,0,42.6-17.1,42.6-38.2s-25.8-38.2-42.6-38.2h-0.5c-16.8,0-42.6,17.1-42.6,38.2
						s25.8,38.2,42.6,38.2L981.3,1100.3z"/>
					<ellipse class="st18" cx="981.1" cy="1062.1" rx="30.4" ry="38.2"/>
					<ellipse class="st19" cx="981.1" cy="1062.1" rx="12.7" ry="35.9"/>
					<ellipse class="st20" cx="981.1" cy="1062.1" rx="4.7" ry="13.2"/>
					<polygon class="st17" points="939.1,1057.1 928.8,1044.5 936.1,1035 948.1,1043.2 					"/>
					<polygon class="st17" points="1022.9,1057.1 1033.2,1044.5 1026,1035 1014,1043.2 					"/>
				</g>
				<polygon class="st6" points="845.2,917.6 929.2,1045 936.2,1035 				"/>
				<polygon class="st6" points="1117.2,917.6 1033.2,1045 1026.2,1035 				"/>
			</g>
			<path class="st9" d="M1176,1154.3l-73.9,12.6c-85.1-13.3-171.8-13.3-256.9,0l-73.9-12.6c0,0-21.3,18.5,5.3,34.6
				c17.5,10.5,67.1,27.6,99.1,38c17.5,5.7,36.8,1,49.7-12.3c16.5-17,38.3-40,48.3-53.7c10,13.6,31.7,36.7,48.3,53.7
				c12.9,13.2,32.2,18,49.7,12.3c32-10.4,81.6-27.4,99-38C1197.3,1172.9,1176,1154.3,1176,1154.3z"/>
			<path class="st2" d="M932.2,693.5c0,26.8-12.3,48.5-27.5,48.5s-27.5-21.7-27.5-48.5c0-0.6,0-1.3,0-1.9c0.1-8.3,1.6-16.5,4.4-24.3
				c9.4-0.9,18.9-0.4,28.2,1.4c6.3,1.2,15.7,3.3,20.8,8.2c0.9,4.4,1.4,8.9,1.6,13.5C932.2,691.4,932.2,692.4,932.2,693.5z"/>
			<path class="st2" d="M1061.2,693.5c0,26.8-12.3,48.5-27.5,48.5c-15.2,0-27.5-21.7-27.5-48.5c0-0.6,0-1.2,0-1.9
				c0.1-7,1.2-13.9,3.1-20.6c3.2-1,6.5-1.8,9.8-2.4c10.7-2.1,21.7-2.4,32.4-0.9c1.9,0.3,3.9,0.5,5.8,1c2.3,7.2,3.6,14.6,3.8,22.1
				C1061.2,691.7,1061.2,692.6,1061.2,693.5z"/>
			<path class="st21" d="M904.7,732c-7.1,0-17.5-15-17.5-38.5c0-0.5,0-1.1,0-1.6v-0.1c0.1-5,0.7-10,1.9-14.9c0.6,0,1.2,0,1.9,0
				c5.7,0,11.3,0.5,16.9,1.6c2.5,0.5,9.4,1.8,13.6,4c0.4,2.7,0.7,5.4,0.8,8.2v0.1c0,0.8,0.1,1.7,0.1,2.7
				C922.2,717,911.9,732,904.7,732z"/>
			<path class="st21" d="M1033.7,732c-7.1,0-17.5-15-17.5-38.5c0-0.5,0-1,0-1.5v-0.1c0.1-4.3,0.5-8.5,1.4-12.7
				c1.2-0.3,2.3-0.5,3.4-0.7c9.4-1.8,19-2.1,28.5-0.9c1,4.5,1.6,9,1.7,13.6c0,0.8,0,1.6,0,2.3C1051.2,717,1040.9,732,1033.7,732z"/>
			<path class="st12" d="M1066.3,688.2c-1.5,1.3-3.2,2.2-5.1,2.6c-3.3,0.8-7.1,0.6-10.4,0.7c-5.3,0.1-10.7,0.2-16,0.2
				c-9.5,0.1-19,0-28.5-0.1l-3.9-0.1l-0.2,0.1c-2.8,0.9-6.5-1.1-7.1-4c-1.9-9.4,6.1-14,14.3-16.6c3.2-1,6.5-1.8,9.8-2.3
				c10.7-2.1,21.7-2.4,32.4-0.9c1.9,0.3,3.9,0.5,5.8,1c3.1,0.5,6,1.9,8.4,3.9C1070.2,676.7,1070.9,684,1066.3,688.2z"/>
			<path class="st12" d="M933.8,687.6c-0.2,1.1-0.8,2-1.7,2.7c-1.5,1.3-3.5,1.8-5.4,1.3c-0.1,0-0.1,0-0.2-0.1
				c-10.8,0.2-21.6,0.3-32.3,0.2c-5.3,0-10.7-0.1-16-0.2h-0.9c-5,0-10.8,0.3-14.7-3.3c-4.6-4.2-3.8-11.5,0.5-15.6
				c3.8-3.5,9.3-4.2,14.2-4.9c1.4-0.2,2.9-0.4,4.3-0.5c9.4-0.9,18.9-0.4,28.1,1.4c6.3,1.2,15.7,3.3,20.8,8.2
				C933.6,679.6,934.8,683.7,933.8,687.6z"/>
		</g>
	</g>
</g>
</svg>
