<?xml version="1.0" encoding="utf-8"?>
<!-- Generator: Adobe Illustrator 23.0.2, SVG Export Plug-In . SVG Version: 6.00 Build 0)  -->
<svg version="1.1" id="Layer_1" xmlns="http://www.w3.org/2000/svg" xmlns:xlink="http://www.w3.org/1999/xlink" x="0px" y="0px"
	 viewBox="0 0 1433.1 1500.7" style="enable-background:new 0 0 1433.1 1500.7;" xml:space="preserve">
<style type="text/css">
	.st0{fill:none;stroke:#FFFFFF;stroke-width:50;}
	.st1{fill:none;stroke:#1D1D1B;stroke-width:30;}
	.st2{fill:#212121;}
	.st3{fill:#E5BBAA;}
	.st4{fill:#FFD8C5;}
	.st5{fill:#8A161C;}
	.st6{fill:#3F3F3F;}
	.st7{fill:#4D4D4D;}
	.st8{fill:#333333;}
	.st9{fill:#0071BC;}
	.st10{fill:#A67C52;}
	.st11{fill:#2D2D2D;}
	.st12{fill:#A01721;}
	.st13{fill:#EAA22F;}
	.st14{fill:#FCC16B;}
	.st15{fill:#8CC63F;}
	.st16{fill:#AAEA44;}
	.st17{fill:#DAFC9A;}
	.st18{fill:#076091;}
	.st19{fill:#C1272D;}
	.st20{fill:#845F3D;}
	.st21{fill:#CCCCCC;}
	.st22{fill:#FFFFFF;}
	.st23{fill:#534741;}
	.st24{fill:#DB717D;}
	.st25{fill:#F7979E;}
	.st26{fill:#2D2927;}
	.st27{fill:#BAB8B6;}
	.st28{fill:#423936;}
	.st29{fill:#6D5A52;}
	.st30{fill:#C9AA9F;}
	.st31{fill:#F2CABB;}
</style>
<title>gavstrange3</title>
<g>
	<polygon class="st0" points="1234.6,535.5 1234.6,525.5 1214.6,525.5 1214.6,515.5 1184.6,515.5 1184.6,534.6 1174.6,535.5 
		1174.6,525.5 1164.6,525.5 1164.6,515.5 1154.6,515.5 1144.6,515.5 1144.6,505.5 1134.6,505.5 1134.6,535.5 1144.6,535.5 
		1144.6,545.5 1134.6,545.5 1134.6,555.5 1134.6,565.5 1124.6,565.5 1114.6,565.5 1104.6,565.5 1104.6,545.5 1114.6,545.5 
		1114.6,525.5 1094.6,525.5 1094.6,535.5 1084.6,535.5 1084.6,545.5 1074.6,545.5 1074.6,615.5 1064.6,615.5 1054.6,615.5 
		1054.6,625.5 1045.1,624.3 1045,625.5 1044.6,625.5 1044.6,635.5 1034.6,635.5 1034.6,645.5 1034.6,655.5 1034.6,665.5 
		1024.6,665.5 1024.6,675.5 1014.6,675.5 1014.6,685.5 1014.6,695.5 1014.6,705.5 1004.6,705.5 1004.6,695.5 994.6,695.5 
		994.6,685.5 984.6,685.5 984.6,675.5 974.6,675.5 974.6,665.5 964.6,665.5 964.6,655.5 954.6,655.5 954.6,645.5 944.6,645.5 
		944.6,635.5 934.6,635.5 934.6,625.5 924.6,625.5 924.6,615.5 914.6,615.5 914.6,605.5 914.6,575.5 924.6,575.5 924.6,565.5 
		924.6,555.5 934.6,555.5 934.6,535.5 944.6,535.5 944.6,525.5 954.6,525.5 954.6,515.5 954.6,505.5 964.6,505.5 964.6,495.5 
		974.6,495.5 974.6,485.5 984.6,485.5 984.6,475.5 974.6,475.5 974.6,465.5 964.6,465.5 954.6,465.5 954.6,455.5 944.6,455.5 
		934.6,455.5 934.6,445.5 924.6,445.5 914.6,445.5 904.6,445.5 894.6,445.5 894.6,435.5 884.6,435.5 884.6,385.5 874.6,385.5 
		874.6,375.5 864.6,375.5 864.6,365.5 854.6,365.5 854.6,345.5 854.6,335.5 854.6,325.5 864.6,325.5 864.6,285.5 854.6,285.5 
		854.6,265.5 844.6,265.5 844.6,245.5 834.6,245.5 824.6,245.5 824.6,235.5 814.6,235.5 804.6,235.5 794.6,235.5 784.6,235.5 
		784.6,225.5 744.6,225.5 734.6,225.5 734.6,215.5 724.6,215.5 724.6,205.5 714.6,205.5 704.6,205.5 704.6,195.5 694.6,195.5 
		684.6,195.5 674.6,195.5 664.6,195.5 654.6,195.5 644.6,195.5 644.6,205.5 634.6,205.5 624.6,205.5 614.6,205.5 614.6,215.5 
		604.6,215.5 594.6,215.5 594.6,225.5 584.6,225.5 584.6,235.5 574.6,235.5 574.6,245.5 564.6,245.5 564.6,265.5 554.6,265.5 
		554.6,315.5 564.6,315.5 564.6,335.5 574.6,335.5 574.6,345.5 574.6,365.5 564.6,365.5 564.6,375.5 554.6,375.5 554.6,385.5 
		544.6,385.5 544.6,435.5 534.6,435.5 534.6,445.5 524.6,445.5 514.6,445.5 504.6,445.5 494.6,445.5 494.6,455.5 484.6,455.5 
		474.6,455.5 474.6,465.5 464.6,465.5 454.6,465.5 454.6,475.5 444.6,475.5 444.6,485.5 454.6,485.5 454.6,495.5 464.6,495.5 
		464.6,505.5 474.6,505.5 474.6,515.5 474.6,525.5 484.6,525.5 484.6,535.5 494.6,535.5 494.6,555.5 504.6,555.5 504.6,565.5 
		504.6,575.5 514.6,575.5 514.6,605.5 514.6,615.5 504.6,615.5 504.6,625.5 494.6,625.5 494.6,635.5 484.6,635.5 484.6,645.5 
		474.6,645.5 474.6,655.5 464.6,655.5 464.6,665.5 454.6,665.5 454.6,675.5 444.6,675.5 444.6,685.5 434.6,685.5 434.6,695.5 
		424.6,695.5 424.6,705.5 414.6,705.5 414.6,695.5 414.6,685.5 414.6,675.5 404.6,675.5 404.6,665.5 394.6,665.5 394.6,655.5 
		394.6,645.5 394.6,635.5 384.6,635.5 384.6,625.5 384.1,625.5 384,624.3 374.6,625.5 374.6,615.5 364.6,615.5 354.6,615.5 
		354.6,545.5 344.6,545.5 344.6,535.5 334.6,535.5 334.6,525.5 314.6,525.5 314.6,545.5 324.6,545.5 324.6,565.5 314.6,565.5 
		304.6,565.5 294.6,565.5 294.6,555.5 294.6,545.5 284.6,545.5 284.6,535.5 294.6,535.5 294.6,505.5 284.6,505.5 284.6,515.5 
		274.6,515.5 264.6,515.5 264.6,525.5 254.6,525.5 254.6,535.5 244.6,534.6 244.6,515.5 214.6,515.5 214.6,525.5 194.6,525.5 
		194.6,535.5 184.6,535.5 184.6,545.5 194.6,545.5 194.6,555.5 204.6,555.5 214.6,555.5 214.6,565.5 204.6,565.5 204.6,585.5 
		224.6,585.5 224.6,595.5 244.6,595.5 244.6,605.5 264.6,605.5 264.6,615.5 284.6,615.5 284.6,625.5 304.6,625.5 304.6,635.5 
		304.6,645.5 304.6,655.5 294.6,655.5 294.6,665.5 304.6,665.5 304.6,675.5 304.6,685.5 314.6,685.5 314.6,695.5 314.6,705.5 
		324.6,705.5 324.6,715.5 324.6,725.5 334.6,725.5 334.6,735.5 344.6,735.5 344.6,745.5 354.6,745.5 364.6,745.5 364.6,755.5 
		374.6,755.5 374.6,765.5 364.6,765.5 364.6,775.5 354.6,775.5 354.6,785.5 344.6,785.5 344.6,805.5 334.6,805.5 334.6,825.5 
		324.6,825.5 324.6,845.5 314.6,845.5 314.6,865.5 304.6,865.5 304.6,875.5 294.6,875.5 294.6,895.5 284.6,895.5 284.6,905.5 
		274.6,905.5 274.6,925.5 264.6,925.5 264.6,945.5 254.6,945.5 254.6,965.5 244.6,965.5 244.6,985.5 254.6,985.5 254.6,975.5 
		294.6,975.5 294.6,985.5 304.6,985.5 314.6,985.5 314.6,995.5 314.6,1005.5 324.6,1005.5 324.6,1025.5 334.6,1025.5 334.6,1065.5 
		344.6,1065.5 344.6,1095.5 354.6,1095.5 354.6,1115.5 364.6,1115.5 364.6,1135.5 374.6,1135.5 374.6,1155.5 384.6,1155.5 
		384.6,1165.5 394.6,1165.5 394.6,1175.5 404.6,1175.5 404.6,1185.5 434.6,1185.5 444.6,1185.5 444.6,1175.5 474.6,1175.5 
		474.6,1165.5 494.6,1165.5 494.6,1175.5 514.6,1175.5 524.6,1175.5 524.6,1185.5 534.6,1185.5 534.6,1195.5 544.6,1195.5 
		544.6,1205.5 554.6,1205.5 554.6,1215.5 564.6,1215.5 564.6,1225.5 574.6,1225.5 574.6,1235.5 584.6,1235.5 594.6,1235.5 
		594.6,1245.5 604.6,1245.5 604.6,1255.5 614.6,1255.5 614.6,1265.5 624.6,1265.5 624.6,1275.5 634.6,1275.5 634.6,1285.5 
		644.6,1285.5 654.6,1285.5 654.6,1295.5 664.6,1295.5 674.6,1295.5 674.6,1305.5 684.6,1305.5 714.6,1305.5 744.6,1305.5 
		754.6,1305.5 754.6,1295.5 764.6,1295.5 774.6,1295.5 774.6,1285.5 784.6,1285.5 794.6,1285.5 794.6,1275.5 804.6,1275.5 
		804.6,1265.5 814.6,1265.5 814.6,1255.5 824.6,1255.5 824.6,1245.5 834.6,1245.5 834.6,1235.5 844.6,1235.5 854.6,1235.5 
		854.6,1225.5 864.6,1225.5 864.6,1215.5 874.6,1215.5 874.6,1205.5 884.6,1205.5 884.6,1195.5 894.6,1195.5 894.6,1185.5 
		904.6,1185.5 904.6,1175.5 914.6,1175.5 934.6,1175.5 934.6,1165.5 954.6,1165.5 954.6,1175.5 984.6,1175.5 984.6,1185.5 
		994.6,1185.5 1024.6,1185.5 1024.6,1175.5 1034.6,1175.5 1034.6,1165.5 1044.6,1165.5 1044.6,1155.5 1054.6,1155.5 1054.6,1135.5 
		1064.6,1135.5 1064.6,1115.5 1074.6,1115.5 1074.6,1095.5 1084.6,1095.5 1084.6,1065.5 1094.6,1065.5 1094.6,1025.5 1104.6,1025.5 
		1104.6,1005.5 1114.6,1005.5 1114.6,995.5 1114.6,985.5 1124.6,985.5 1134.6,985.5 1134.6,975.5 1174.6,975.5 1174.6,985.5 
		1184.6,985.5 1184.6,965.5 1174.6,965.5 1174.6,945.5 1164.6,945.5 1164.6,925.5 1154.6,925.5 1154.6,905.5 1144.6,905.5 
		1144.6,895.5 1134.6,895.5 1134.6,875.5 1124.6,875.5 1124.6,865.5 1114.6,865.5 1114.6,845.5 1104.6,845.5 1104.6,825.5 
		1094.6,825.5 1094.6,805.5 1084.6,805.5 1084.6,785.5 1074.6,785.5 1074.6,775.5 1064.6,775.5 1064.6,765.5 1054.6,765.5 
		1054.6,755.5 1064.6,755.5 1064.6,745.5 1074.6,745.5 1084.6,745.5 1084.6,735.5 1094.6,735.5 1094.6,725.5 1104.6,725.5 
		1104.6,715.5 1104.6,705.5 1114.6,705.5 1114.6,695.5 1114.6,685.5 1124.6,685.5 1124.6,675.5 1124.6,665.5 1134.6,665.5 
		1134.6,655.5 1124.6,655.5 1124.6,645.5 1124.6,635.5 1124.6,625.5 1144.6,625.5 1144.6,615.5 1164.6,615.5 1164.6,605.5 
		1184.6,605.5 1184.6,595.5 1204.6,595.5 1204.6,585.5 1224.6,585.5 1224.6,565.5 1214.6,565.5 1214.6,555.5 1224.6,555.5 
		1234.6,555.5 1234.6,545.5 1244.6,545.5 1244.6,535.5 	"/>
	<polygon class="st1" points="1234.6,535.5 1234.6,525.5 1214.6,525.5 1214.6,515.5 1184.6,515.5 1184.6,534.6 1174.6,535.5 
		1174.6,525.5 1164.6,525.5 1164.6,515.5 1154.6,515.5 1144.6,515.5 1144.6,505.5 1134.6,505.5 1134.6,535.5 1144.6,535.5 
		1144.6,545.5 1134.6,545.5 1134.6,555.5 1134.6,565.5 1124.6,565.5 1114.6,565.5 1104.6,565.5 1104.6,545.5 1114.6,545.5 
		1114.6,525.5 1094.6,525.5 1094.6,535.5 1084.6,535.5 1084.6,545.5 1074.6,545.5 1074.6,615.5 1064.6,615.5 1054.6,615.5 
		1054.6,625.5 1045.1,624.3 1045,625.5 1044.6,625.5 1044.6,635.5 1034.6,635.5 1034.6,645.5 1034.6,655.5 1034.6,665.5 
		1024.6,665.5 1024.6,675.5 1014.6,675.5 1014.6,685.5 1014.6,695.5 1014.6,705.5 1004.6,705.5 1004.6,695.5 994.6,695.5 
		994.6,685.5 984.6,685.5 984.6,675.5 974.6,675.5 974.6,665.5 964.6,665.5 964.6,655.5 954.6,655.5 954.6,645.5 944.6,645.5 
		944.6,635.5 934.6,635.5 934.6,625.5 924.6,625.5 924.6,615.5 914.6,615.5 914.6,605.5 914.6,575.5 924.6,575.5 924.6,565.5 
		924.6,555.5 934.6,555.5 934.6,535.5 944.6,535.5 944.6,525.5 954.6,525.5 954.6,515.5 954.6,505.5 964.6,505.5 964.6,495.5 
		974.6,495.5 974.6,485.5 984.6,485.5 984.6,475.5 974.6,475.5 974.6,465.5 964.6,465.5 954.6,465.5 954.6,455.5 944.6,455.5 
		934.6,455.5 934.6,445.5 924.6,445.5 914.6,445.5 904.6,445.5 894.6,445.5 894.6,435.5 884.6,435.5 884.6,385.5 874.6,385.5 
		874.6,375.5 864.6,375.5 864.6,365.5 854.6,365.5 854.6,345.5 854.6,335.5 854.6,325.5 864.6,325.5 864.6,285.5 854.6,285.5 
		854.6,265.5 844.6,265.5 844.6,245.5 834.6,245.5 824.6,245.5 824.6,235.5 814.6,235.5 804.6,235.5 794.6,235.5 784.6,235.5 
		784.6,225.5 744.6,225.5 734.6,225.5 734.6,215.5 724.6,215.5 724.6,205.5 714.6,205.5 704.6,205.5 704.6,195.5 694.6,195.5 
		684.6,195.5 674.6,195.5 664.6,195.5 654.6,195.5 644.6,195.5 644.6,205.5 634.6,205.5 624.6,205.5 614.6,205.5 614.6,215.5 
		604.6,215.5 594.6,215.5 594.6,225.5 584.6,225.5 584.6,235.5 574.6,235.5 574.6,245.5 564.6,245.5 564.6,265.5 554.6,265.5 
		554.6,315.5 564.6,315.5 564.6,335.5 574.6,335.5 574.6,345.5 574.6,365.5 564.6,365.5 564.6,375.5 554.6,375.5 554.6,385.5 
		544.6,385.5 544.6,435.5 534.6,435.5 534.6,445.5 524.6,445.5 514.6,445.5 504.6,445.5 494.6,445.5 494.6,455.5 484.6,455.5 
		474.6,455.5 474.6,465.5 464.6,465.5 454.6,465.5 454.6,475.5 444.6,475.5 444.6,485.5 454.6,485.5 454.6,495.5 464.6,495.5 
		464.6,505.5 474.6,505.5 474.6,515.5 474.6,525.5 484.6,525.5 484.6,535.5 494.6,535.5 494.6,555.5 504.6,555.5 504.6,565.5 
		504.6,575.5 514.6,575.5 514.6,605.5 514.6,615.5 504.6,615.5 504.6,625.5 494.6,625.5 494.6,635.5 484.6,635.5 484.6,645.5 
		474.6,645.5 474.6,655.5 464.6,655.5 464.6,665.5 454.6,665.5 454.6,675.5 444.6,675.5 444.6,685.5 434.6,685.5 434.6,695.5 
		424.6,695.5 424.6,705.5 414.6,705.5 414.6,695.5 414.6,685.5 414.6,675.5 404.6,675.5 404.6,665.5 394.6,665.5 394.6,655.5 
		394.6,645.5 394.6,635.5 384.6,635.5 384.6,625.5 384.1,625.5 384,624.3 374.6,625.5 374.6,615.5 364.6,615.5 354.6,615.5 
		354.6,545.5 344.6,545.5 344.6,535.5 334.6,535.5 334.6,525.5 314.6,525.5 314.6,545.5 324.6,545.5 324.6,565.5 314.6,565.5 
		304.6,565.5 294.6,565.5 294.6,555.5 294.6,545.5 284.6,545.5 284.6,535.5 294.6,535.5 294.6,505.5 284.6,505.5 284.6,515.5 
		274.6,515.5 264.6,515.5 264.6,525.5 254.6,525.5 254.6,535.5 244.6,534.6 244.6,515.5 214.6,515.5 214.6,525.5 194.6,525.5 
		194.6,535.5 184.6,535.5 184.6,545.5 194.6,545.5 194.6,555.5 204.6,555.5 214.6,555.5 214.6,565.5 204.6,565.5 204.6,585.5 
		224.6,585.5 224.6,595.5 244.6,595.5 244.6,605.5 264.6,605.5 264.6,615.5 284.6,615.5 284.6,625.5 304.6,625.5 304.6,635.5 
		304.6,645.5 304.6,655.5 294.6,655.5 294.6,665.5 304.6,665.5 304.6,675.5 304.6,685.5 314.6,685.5 314.6,695.5 314.6,705.5 
		324.6,705.5 324.6,715.5 324.6,725.5 334.6,725.5 334.6,735.5 344.6,735.5 344.6,745.5 354.6,745.5 364.6,745.5 364.6,755.5 
		374.6,755.5 374.6,765.5 364.6,765.5 364.6,775.5 354.6,775.5 354.6,785.5 344.6,785.5 344.6,805.5 334.6,805.5 334.6,825.5 
		324.6,825.5 324.6,845.5 314.6,845.5 314.6,865.5 304.6,865.5 304.6,875.5 294.6,875.5 294.6,895.5 284.6,895.5 284.6,905.5 
		274.6,905.5 274.6,925.5 264.6,925.5 264.6,945.5 254.6,945.5 254.6,965.5 244.6,965.5 244.6,985.5 254.6,985.5 254.6,975.5 
		294.6,975.5 294.6,985.5 304.6,985.5 314.6,985.5 314.6,995.5 314.6,1005.5 324.6,1005.5 324.6,1025.5 334.6,1025.5 334.6,1065.5 
		344.6,1065.5 344.6,1095.5 354.6,1095.5 354.6,1115.5 364.6,1115.5 364.6,1135.5 374.6,1135.5 374.6,1155.5 384.6,1155.5 
		384.6,1165.5 394.6,1165.5 394.6,1175.5 404.6,1175.5 404.6,1185.5 434.6,1185.5 444.6,1185.5 444.6,1175.5 474.6,1175.5 
		474.6,1165.5 494.6,1165.5 494.6,1175.5 514.6,1175.5 524.6,1175.5 524.6,1185.5 534.6,1185.5 534.6,1195.5 544.6,1195.5 
		544.6,1205.5 554.6,1205.5 554.6,1215.5 564.6,1215.5 564.6,1225.5 574.6,1225.5 574.6,1235.5 584.6,1235.5 594.6,1235.5 
		594.6,1245.5 604.6,1245.5 604.6,1255.5 614.6,1255.5 614.6,1265.5 624.6,1265.5 624.6,1275.5 634.6,1275.5 634.6,1285.5 
		644.6,1285.5 654.6,1285.5 654.6,1295.5 664.6,1295.5 674.6,1295.5 674.6,1305.5 684.6,1305.5 714.6,1305.5 744.6,1305.5 
		754.6,1305.5 754.6,1295.5 764.6,1295.5 774.6,1295.5 774.6,1285.5 784.6,1285.5 794.6,1285.5 794.6,1275.5 804.6,1275.5 
		804.6,1265.5 814.6,1265.5 814.6,1255.5 824.6,1255.5 824.6,1245.5 834.6,1245.5 834.6,1235.5 844.6,1235.5 854.6,1235.5 
		854.6,1225.5 864.6,1225.5 864.6,1215.5 874.6,1215.5 874.6,1205.5 884.6,1205.5 884.6,1195.5 894.6,1195.5 894.6,1185.5 
		904.6,1185.5 904.6,1175.5 914.6,1175.5 934.6,1175.5 934.6,1165.5 954.6,1165.5 954.6,1175.5 984.6,1175.5 984.6,1185.5 
		994.6,1185.5 1024.6,1185.5 1024.6,1175.5 1034.6,1175.5 1034.6,1165.5 1044.6,1165.5 1044.6,1155.5 1054.6,1155.5 1054.6,1135.5 
		1064.6,1135.5 1064.6,1115.5 1074.6,1115.5 1074.6,1095.5 1084.6,1095.5 1084.6,1065.5 1094.6,1065.5 1094.6,1025.5 1104.6,1025.5 
		1104.6,1005.5 1114.6,1005.5 1114.6,995.5 1114.6,985.5 1124.6,985.5 1134.6,985.5 1134.6,975.5 1174.6,975.5 1174.6,985.5 
		1184.6,985.5 1184.6,965.5 1174.6,965.5 1174.6,945.5 1164.6,945.5 1164.6,925.5 1154.6,925.5 1154.6,905.5 1144.6,905.5 
		1144.6,895.5 1134.6,895.5 1134.6,875.5 1124.6,875.5 1124.6,865.5 1114.6,865.5 1114.6,845.5 1104.6,845.5 1104.6,825.5 
		1094.6,825.5 1094.6,805.5 1084.6,805.5 1084.6,785.5 1074.6,785.5 1074.6,775.5 1064.6,775.5 1064.6,765.5 1054.6,765.5 
		1054.6,755.5 1064.6,755.5 1064.6,745.5 1074.6,745.5 1084.6,745.5 1084.6,735.5 1094.6,735.5 1094.6,725.5 1104.6,725.5 
		1104.6,715.5 1104.6,705.5 1114.6,705.5 1114.6,695.5 1114.6,685.5 1124.6,685.5 1124.6,675.5 1124.6,665.5 1134.6,665.5 
		1134.6,655.5 1124.6,655.5 1124.6,645.5 1124.6,635.5 1124.6,625.5 1144.6,625.5 1144.6,615.5 1164.6,615.5 1164.6,605.5 
		1184.6,605.5 1184.6,595.5 1204.6,595.5 1204.6,585.5 1224.6,585.5 1224.6,565.5 1214.6,565.5 1214.6,555.5 1224.6,555.5 
		1234.6,555.5 1234.6,545.5 1244.6,545.5 1244.6,535.5 	"/>
	<polygon class="st2" points="1234.6,535.5 1234.6,525.5 1214.6,525.5 1214.6,515.5 1184.6,515.5 1184.6,534.6 1174.6,535.5 
		1174.6,525.5 1164.6,525.5 1164.6,515.5 1154.6,515.5 1144.6,515.5 1144.6,505.5 1134.6,505.5 1134.6,535.5 1144.6,535.5 
		1144.6,545.5 1134.6,545.5 1134.6,555.5 1134.6,565.5 1124.6,565.5 1114.6,565.5 1104.6,565.5 1104.6,545.5 1114.6,545.5 
		1114.6,525.5 1094.6,525.5 1094.6,535.5 1084.6,535.5 1084.6,545.5 1074.6,545.5 1074.6,615.5 1064.6,615.5 1054.6,615.5 
		1054.6,625.5 1045.1,624.3 1045,625.5 1044.6,625.5 1044.6,635.5 1034.6,635.5 1034.6,645.5 1034.6,655.5 1034.6,665.5 
		1024.6,665.5 1024.6,675.5 1014.6,675.5 1014.6,685.5 1014.6,695.5 1014.6,705.5 1004.6,705.5 1004.6,695.5 994.6,695.5 
		994.6,685.5 984.6,685.5 984.6,675.5 974.6,675.5 974.6,665.5 964.6,665.5 964.6,655.5 954.6,655.5 954.6,645.5 944.6,645.5 
		944.6,635.5 934.6,635.5 934.6,625.5 924.6,625.5 924.6,615.5 914.6,615.5 914.6,605.5 914.6,575.5 924.6,575.5 924.6,565.5 
		924.6,555.5 934.6,555.5 934.6,535.5 944.6,535.5 944.6,525.5 954.6,525.5 954.6,515.5 954.6,505.5 964.6,505.5 964.6,495.5 
		974.6,495.5 974.6,485.5 984.6,485.5 984.6,475.5 974.6,475.5 974.6,465.5 964.6,465.5 954.6,465.5 954.6,455.5 944.6,455.5 
		934.6,455.5 934.6,445.5 924.6,445.5 914.6,445.5 904.6,445.5 894.6,445.5 894.6,435.5 884.6,435.5 884.6,385.5 874.6,385.5 
		874.6,375.5 864.6,375.5 864.6,365.5 854.6,365.5 854.6,345.5 854.6,335.5 854.6,325.5 864.6,325.5 864.6,285.5 854.6,285.5 
		854.6,265.5 844.6,265.5 844.6,245.5 834.6,245.5 824.6,245.5 824.6,235.5 814.6,235.5 804.6,235.5 794.6,235.5 784.6,235.5 
		784.6,225.5 744.6,225.5 734.6,225.5 734.6,215.5 724.6,215.5 724.6,205.5 714.6,205.5 704.6,205.5 704.6,195.5 694.6,195.5 
		684.6,195.5 674.6,195.5 664.6,195.5 654.6,195.5 644.6,195.5 644.6,205.5 634.6,205.5 624.6,205.5 614.6,205.5 614.6,215.5 
		604.6,215.5 594.6,215.5 594.6,225.5 584.6,225.5 584.6,235.5 574.6,235.5 574.6,245.5 564.6,245.5 564.6,265.5 554.6,265.5 
		554.6,315.5 564.6,315.5 564.6,335.5 574.6,335.5 574.6,345.5 574.6,365.5 564.6,365.5 564.6,375.5 554.6,375.5 554.6,385.5 
		544.6,385.5 544.6,435.5 534.6,435.5 534.6,445.5 524.6,445.5 514.6,445.5 504.6,445.5 494.6,445.5 494.6,455.5 484.6,455.5 
		474.6,455.5 474.6,465.5 464.6,465.5 454.6,465.5 454.6,475.5 444.6,475.5 444.6,485.5 454.6,485.5 454.6,495.5 464.6,495.5 
		464.6,505.5 474.6,505.5 474.6,515.5 474.6,525.5 484.6,525.5 484.6,535.5 494.6,535.5 494.6,555.5 504.6,555.5 504.6,565.5 
		504.6,575.5 514.6,575.5 514.6,605.5 514.6,615.5 504.6,615.5 504.6,625.5 494.6,625.5 494.6,635.5 484.6,635.5 484.6,645.5 
		474.6,645.5 474.6,655.5 464.6,655.5 464.6,665.5 454.6,665.5 454.6,675.5 444.6,675.5 444.6,685.5 434.6,685.5 434.6,695.5 
		424.6,695.5 424.6,705.5 414.6,705.5 414.6,695.5 414.6,685.5 414.6,675.5 404.6,675.5 404.6,665.5 394.6,665.5 394.6,655.5 
		394.6,645.5 394.6,635.5 384.6,635.5 384.6,625.5 384.1,625.5 384,624.3 374.6,625.5 374.6,615.5 364.6,615.5 354.6,615.5 
		354.6,545.5 344.6,545.5 344.6,535.5 334.6,535.5 334.6,525.5 314.6,525.5 314.6,545.5 324.6,545.5 324.6,565.5 314.6,565.5 
		304.6,565.5 294.6,565.5 294.6,555.5 294.6,545.5 284.6,545.5 284.6,535.5 294.6,535.5 294.6,505.5 284.6,505.5 284.6,515.5 
		274.6,515.5 264.6,515.5 264.6,525.5 254.6,525.5 254.6,535.5 244.6,534.6 244.6,515.5 214.6,515.5 214.6,525.5 194.6,525.5 
		194.6,535.5 184.6,535.5 184.6,545.5 194.6,545.5 194.6,555.5 204.6,555.5 214.6,555.5 214.6,565.5 204.6,565.5 204.6,585.5 
		224.6,585.5 224.6,595.5 244.6,595.5 244.6,605.5 264.6,605.5 264.6,615.5 284.6,615.5 284.6,625.5 304.6,625.5 304.6,635.5 
		304.6,645.5 304.6,655.5 294.6,655.5 294.6,665.5 304.6,665.5 304.6,675.5 304.6,685.5 314.6,685.5 314.6,695.5 314.6,705.5 
		324.6,705.5 324.6,715.5 324.6,725.5 334.6,725.5 334.6,735.5 344.6,735.5 344.6,745.5 354.6,745.5 364.6,745.5 364.6,755.5 
		374.6,755.5 374.6,765.5 364.6,765.5 364.6,775.5 354.6,775.5 354.6,785.5 344.6,785.5 344.6,805.5 334.6,805.5 334.6,825.5 
		324.6,825.5 324.6,845.5 314.6,845.5 314.6,865.5 304.6,865.5 304.6,875.5 294.6,875.5 294.6,895.5 284.6,895.5 284.6,905.5 
		274.6,905.5 274.6,925.5 264.6,925.5 264.6,945.5 254.6,945.5 254.6,965.5 244.6,965.5 244.6,985.5 254.6,985.5 254.6,975.5 
		294.6,975.5 294.6,985.5 304.6,985.5 314.6,985.5 314.6,995.5 314.6,1005.5 324.6,1005.5 324.6,1025.5 334.6,1025.5 334.6,1065.5 
		344.6,1065.5 344.6,1095.5 354.6,1095.5 354.6,1115.5 364.6,1115.5 364.6,1135.5 374.6,1135.5 374.6,1155.5 384.6,1155.5 
		384.6,1165.5 394.6,1165.5 394.6,1175.5 404.6,1175.5 404.6,1185.5 434.6,1185.5 444.6,1185.5 444.6,1175.5 474.6,1175.5 
		474.6,1165.5 494.6,1165.5 494.6,1175.5 514.6,1175.5 524.6,1175.5 524.6,1185.5 534.6,1185.5 534.6,1195.5 544.6,1195.5 
		544.6,1205.5 554.6,1205.5 554.6,1215.5 564.6,1215.5 564.6,1225.5 574.6,1225.5 574.6,1235.5 584.6,1235.5 594.6,1235.5 
		594.6,1245.5 604.6,1245.5 604.6,1255.5 614.6,1255.5 614.6,1265.5 624.6,1265.5 624.6,1275.5 634.6,1275.5 634.6,1285.5 
		644.6,1285.5 654.6,1285.5 654.6,1295.5 664.6,1295.5 674.6,1295.5 674.6,1305.5 684.6,1305.5 714.6,1305.5 744.6,1305.5 
		754.6,1305.5 754.6,1295.5 764.6,1295.5 774.6,1295.5 774.6,1285.5 784.6,1285.5 794.6,1285.5 794.6,1275.5 804.6,1275.5 
		804.6,1265.5 814.6,1265.5 814.6,1255.5 824.6,1255.5 824.6,1245.5 834.6,1245.5 834.6,1235.5 844.6,1235.5 854.6,1235.5 
		854.6,1225.5 864.6,1225.5 864.6,1215.5 874.6,1215.5 874.6,1205.5 884.6,1205.5 884.6,1195.5 894.6,1195.5 894.6,1185.5 
		904.6,1185.5 904.6,1175.5 914.6,1175.5 934.6,1175.5 934.6,1165.5 954.6,1165.5 954.6,1175.5 984.6,1175.5 984.6,1185.5 
		994.6,1185.5 1024.6,1185.5 1024.6,1175.5 1034.6,1175.5 1034.6,1165.5 1044.6,1165.5 1044.6,1155.5 1054.6,1155.5 1054.6,1135.5 
		1064.6,1135.5 1064.6,1115.5 1074.6,1115.5 1074.6,1095.5 1084.6,1095.5 1084.6,1065.5 1094.6,1065.5 1094.6,1025.5 1104.6,1025.5 
		1104.6,1005.5 1114.6,1005.5 1114.6,995.5 1114.6,985.5 1124.6,985.5 1134.6,985.5 1134.6,975.5 1174.6,975.5 1174.6,985.5 
		1184.6,985.5 1184.6,965.5 1174.6,965.5 1174.6,945.5 1164.6,945.5 1164.6,925.5 1154.6,925.5 1154.6,905.5 1144.6,905.5 
		1144.6,895.5 1134.6,895.5 1134.6,875.5 1124.6,875.5 1124.6,865.5 1114.6,865.5 1114.6,845.5 1104.6,845.5 1104.6,825.5 
		1094.6,825.5 1094.6,805.5 1084.6,805.5 1084.6,785.5 1074.6,785.5 1074.6,775.5 1064.6,775.5 1064.6,765.5 1054.6,765.5 
		1054.6,755.5 1064.6,755.5 1064.6,745.5 1074.6,745.5 1084.6,745.5 1084.6,735.5 1094.6,735.5 1094.6,725.5 1104.6,725.5 
		1104.6,715.5 1104.6,705.5 1114.6,705.5 1114.6,695.5 1114.6,685.5 1124.6,685.5 1124.6,675.5 1124.6,665.5 1134.6,665.5 
		1134.6,655.5 1124.6,655.5 1124.6,645.5 1124.6,635.5 1124.6,625.5 1144.6,625.5 1144.6,615.5 1164.6,615.5 1164.6,605.5 
		1184.6,605.5 1184.6,595.5 1204.6,595.5 1204.6,585.5 1224.6,585.5 1224.6,565.5 1214.6,565.5 1214.6,555.5 1224.6,555.5 
		1234.6,555.5 1234.6,545.5 1244.6,545.5 1244.6,535.5 	"/>
</g>
<g>
	<polygon class="st3" points="274.6,515.5 284.6,515.5 284.6,505.5 294.6,505.5 294.6,535.5 284.6,535.5 284.6,545.5 294.6,545.5 
		294.6,555.5 294.6,565.5 304.6,565.5 304.6,575.5 224.6,575.5 224.6,535.5 214.6,535.5 214.6,515.5 244.6,515.5 244.6,534.6 
		254.6,535.5 254.6,525.5 264.6,525.5 264.6,515.5 	"/>
	<polygon class="st4" points="364.6,625.5 364.6,615.5 354.6,615.5 354.6,545.5 344.6,545.5 344.6,535.5 334.6,535.5 334.6,525.5 
		314.6,525.5 314.6,545.5 324.6,545.5 324.6,565.5 314.6,565.5 304.6,565.5 304.6,575.5 294.6,575.5 294.6,565.5 274.6,565.5 
		264.6,565.5 264.6,555.5 244.6,555.5 244.6,545.5 234.6,545.5 224.6,545.5 224.6,535.5 214.6,535.5 214.6,525.5 194.6,525.5 
		194.6,535.5 184.6,535.5 184.6,545.5 194.6,545.5 194.6,555.5 204.6,555.5 214.6,555.5 214.6,565.5 204.6,565.5 204.6,585.5 
		224.6,585.5 224.6,595.5 244.6,595.5 244.6,605.5 264.6,605.5 264.6,615.5 284.6,615.5 284.6,625.5 304.6,625.5 304.6,635.5 
		364.6,635.5 	"/>
</g>
<g>
	<polygon class="st3" points="1154.6,515.5 1144.6,515.5 1144.6,505.5 1134.6,505.5 1134.6,535.5 1144.6,535.5 1144.6,545.5 
		1134.6,545.5 1134.6,555.5 1134.6,565.5 1124.6,565.5 1124.6,575.5 1204.6,575.5 1204.6,535.5 1214.6,535.5 1214.6,515.5 
		1184.6,515.5 1184.6,534.6 1174.6,535.5 1174.6,525.5 1164.6,525.5 1164.6,515.5 	"/>
	<polygon class="st4" points="1064.6,625.5 1064.6,615.5 1074.6,615.5 1074.6,545.5 1084.6,545.5 1084.6,535.5 1094.6,535.5 
		1094.6,525.5 1114.6,525.5 1114.6,545.5 1104.6,545.5 1104.6,565.5 1114.6,565.5 1124.6,565.5 1124.6,575.5 1134.6,575.5 
		1134.6,565.5 1154.6,565.5 1164.6,565.5 1164.6,555.5 1184.6,555.5 1184.6,545.5 1194.6,545.5 1204.6,545.5 1204.6,535.5 
		1214.6,535.5 1214.6,525.5 1234.6,525.5 1234.6,535.5 1244.6,535.5 1244.6,545.5 1234.6,545.5 1234.6,555.5 1224.6,555.5 
		1214.6,555.5 1214.6,565.5 1224.6,565.5 1224.6,585.5 1204.6,585.5 1204.6,595.5 1184.6,595.5 1184.6,605.5 1164.6,605.5 
		1164.6,615.5 1144.6,615.5 1144.6,625.5 1124.6,625.5 1124.6,635.5 1064.6,635.5 	"/>
</g>
<polygon class="st5" points="1174.6,965.5 1174.6,945.5 1164.6,945.5 1164.6,925.5 1154.6,925.5 1154.6,905.5 1144.6,905.5 
	1144.6,895.5 1134.6,895.5 1134.6,875.5 1124.6,875.5 1124.6,865.5 1114.6,865.5 1114.6,845.5 1104.6,845.5 1104.6,825.5 
	1094.6,825.5 1094.6,805.5 1084.6,805.5 1084.6,785.5 1074.6,785.5 1074.6,775.5 1064.6,775.5 1064.6,765.5 1054.6,765.5 
	1054.6,755.5 1044.6,755.5 1044.6,745.5 1044.6,735.5 1034.6,735.5 1034.6,725.5 1024.6,725.5 1024.6,715.5 1014.6,715.5 
	1014.6,705.5 1004.6,705.5 1004.6,695.5 994.6,695.5 994.6,685.5 984.6,685.5 984.6,675.5 974.6,675.5 974.6,665.5 964.6,665.5 
	964.6,655.5 954.6,655.5 954.6,645.5 944.6,645.5 944.6,635.5 934.6,635.5 934.6,625.5 924.6,625.5 924.6,615.5 914.6,615.5 
	914.6,605.5 904.6,605.5 904.6,595.5 864.6,595.5 864.6,575.5 844.6,575.5 844.6,565.5 824.6,565.5 824.6,555.5 814.6,555.5 
	784.6,555.5 784.6,545.5 714.6,545.5 644.6,545.5 644.6,555.5 614.6,555.5 604.6,555.5 604.6,565.5 584.6,565.5 584.6,575.5 
	564.6,575.5 564.6,595.5 524.6,595.5 524.6,605.5 514.6,605.5 514.6,615.5 504.6,615.5 504.6,625.5 494.6,625.5 494.6,635.5 
	484.6,635.5 484.6,645.5 474.6,645.5 474.6,655.5 464.6,655.5 464.6,665.5 454.6,665.5 454.6,675.5 444.6,675.5 444.6,685.5 
	434.6,685.5 434.6,695.5 424.6,695.5 424.6,705.5 414.6,705.5 414.6,715.5 404.6,715.5 404.6,725.5 394.6,725.5 394.6,735.5 
	384.6,735.5 384.6,745.5 384.6,755.5 374.6,755.5 374.6,765.5 364.6,765.5 364.6,775.5 354.6,775.5 354.6,785.5 344.6,785.5 
	344.6,805.5 334.6,805.5 334.6,825.5 324.6,825.5 324.6,845.5 314.6,845.5 314.6,865.5 304.6,865.5 304.6,875.5 294.6,875.5 
	294.6,895.5 284.6,895.5 284.6,905.5 274.6,905.5 274.6,925.5 264.6,925.5 264.6,945.5 254.6,945.5 254.6,965.5 244.6,965.5 
	244.6,985.5 254.6,985.5 254.6,975.5 294.6,975.5 294.6,985.5 304.6,985.5 314.6,985.5 314.6,995.5 314.6,1005.5 324.6,1005.5 
	324.6,1025.5 334.6,1025.5 334.6,1065.5 344.6,1065.5 344.6,1095.5 354.6,1095.5 354.6,1115.5 364.6,1115.5 364.6,1135.5 
	374.6,1135.5 374.6,1155.5 384.6,1155.5 384.6,1165.5 394.6,1165.5 394.6,1175.5 404.6,1175.5 404.6,1185.5 434.6,1185.5 
	444.6,1185.5 444.6,1175.5 474.6,1175.5 474.6,1165.5 494.6,1165.5 494.6,1175.5 514.6,1175.5 524.6,1175.5 524.6,1185.5 
	534.6,1185.5 534.6,1195.5 544.6,1195.5 544.6,1205.5 554.6,1205.5 554.6,1215.5 564.6,1215.5 564.6,1225.5 574.6,1225.5 
	574.6,1235.5 584.6,1235.5 594.6,1235.5 594.6,1245.5 604.6,1245.5 604.6,1255.5 614.6,1255.5 614.6,1265.5 624.6,1265.5 
	624.6,1275.5 634.6,1275.5 634.6,1285.5 644.6,1285.5 654.6,1285.5 654.6,1295.5 664.6,1295.5 674.6,1295.5 674.6,1305.5 
	684.6,1305.5 714.6,1305.5 744.6,1305.5 754.6,1305.5 754.6,1295.5 764.6,1295.5 774.6,1295.5 774.6,1285.5 784.6,1285.5 
	794.6,1285.5 794.6,1275.5 804.6,1275.5 804.6,1265.5 814.6,1265.5 814.6,1255.5 824.6,1255.5 824.6,1245.5 834.6,1245.5 
	834.6,1235.5 844.6,1235.5 854.6,1235.5 854.6,1225.5 864.6,1225.5 864.6,1215.5 874.6,1215.5 874.6,1205.5 884.6,1205.5 
	884.6,1195.5 894.6,1195.5 894.6,1185.5 904.6,1185.5 904.6,1175.5 914.6,1175.5 934.6,1175.5 934.6,1165.5 954.6,1165.5 
	954.6,1175.5 984.6,1175.5 984.6,1185.5 994.6,1185.5 1024.6,1185.5 1024.6,1175.5 1034.6,1175.5 1034.6,1165.5 1044.6,1165.5 
	1044.6,1155.5 1054.6,1155.5 1054.6,1135.5 1064.6,1135.5 1064.6,1115.5 1074.6,1115.5 1074.6,1095.5 1084.6,1095.5 1084.6,1065.5 
	1094.6,1065.5 1094.6,1025.5 1104.6,1025.5 1104.6,1005.5 1114.6,1005.5 1114.6,995.5 1114.6,985.5 1124.6,985.5 1134.6,985.5 
	1134.6,975.5 1174.6,975.5 1174.6,985.5 1184.6,985.5 1184.6,965.5 "/>
<polygon class="st6" points="1044.6,875.5 1044.6,865.5 1024.6,865.5 1024.6,855.5 1004.6,855.5 1004.6,865.5 944.6,865.5 
	944.6,875.5 914.6,875.5 914.6,885.5 744.6,885.5 744.6,875.5 714.6,875.5 684.6,875.5 684.6,885.5 514.6,885.5 514.6,875.5 
	484.6,875.5 484.6,865.5 424.6,865.5 424.6,855.5 404.6,855.5 404.6,865.5 384.6,865.5 384.6,875.5 374.6,875.5 374.6,885.5 
	404.6,885.5 404.6,955.5 504.6,955.5 504.6,985.5 714.6,985.5 924.6,985.5 924.6,955.5 1024.6,955.5 1024.6,885.5 1054.6,885.5 
	1054.6,875.5 "/>
<polygon class="st7" points="644.6,965.5 644.6,975.5 634.6,975.5 634.6,995.5 624.6,995.5 624.6,1015.5 614.6,1015.5 614.6,1045.5 
	594.6,1045.5 594.6,1035.5 574.6,1035.5 574.6,1025.5 544.6,1025.5 544.6,1015.5 514.6,1015.5 514.6,1005.5 484.6,1005.5 
	484.6,995.5 454.6,995.5 454.6,985.5 414.6,985.5 414.6,975.5 384.6,975.5 384.6,965.5 364.6,965.5 364.6,955.5 364.6,945.5 
	354.6,945.5 354.6,915.5 364.6,915.5 364.6,895.5 374.6,895.5 374.6,885.5 404.6,885.5 404.6,895.5 444.6,895.5 444.6,905.5 
	474.6,905.5 474.6,915.5 504.6,915.5 504.6,925.5 534.6,925.5 534.6,935.5 574.6,935.5 574.6,945.5 604.6,945.5 604.6,955.5 
	634.6,955.5 634.6,965.5 "/>
<g>
	<polygon class="st8" points="939.6,870.5 939.6,860.5 929.6,860.5 929.6,850.5 919.6,850.5 919.6,840.5 909.6,840.5 909.6,820.5 
		899.6,820.5 899.6,800.5 889.6,800.5 889.6,790.5 879.6,790.5 879.6,770.5 869.6,770.5 869.6,750.5 859.6,750.5 859.6,740.5 
		849.6,740.5 849.6,790.5 579.6,790.5 579.6,740.5 569.6,740.5 569.6,750.5 559.6,750.5 559.6,770.5 549.6,770.5 549.6,790.5 
		539.6,790.5 539.6,800.5 529.6,800.5 529.6,820.5 519.6,820.5 519.6,840.5 509.6,840.5 509.6,850.5 499.6,850.5 499.6,860.5 
		489.6,860.5 489.6,870.5 439.6,870.5 439.6,860.5 419.6,860.5 419.6,840.5 409.6,840.5 409.6,830.5 399.6,830.5 399.6,810.5 
		389.6,810.5 389.6,790.5 379.6,790.5 379.6,780.5 369.6,780.5 369.6,760.5 359.6,760.5 359.6,740.5 339.6,740.5 339.6,720.5 
		329.6,720.5 329.6,700.5 319.6,700.5 319.6,680.5 309.6,680.5 309.6,660.5 299.6,660.5 299.6,630.5 319.6,630.5 319.6,620.5 
		349.6,620.5 349.6,610.5 379.6,610.5 379.6,620.5 389.6,620.5 389.6,640.5 399.6,640.5 399.6,660.5 409.6,660.5 409.6,680.5 
		419.6,680.5 419.6,700.5 429.6,700.5 429.6,710.5 439.6,710.5 439.6,730.5 449.6,730.5 449.6,750.5 459.6,750.5 459.6,770.5 
		459.6,760.5 469.6,760.5 469.6,740.5 479.6,740.5 479.6,720.5 489.6,720.5 489.6,700.5 499.6,700.5 499.6,680.5 509.6,680.5 
		509.6,660.5 519.6,660.5 519.6,650.5 529.6,650.5 529.6,640.5 539.6,640.5 539.6,600.5 649.6,600.5 649.6,610.5 669.6,610.5 
		669.6,620.5 679.6,620.5 679.6,630.5 689.6,630.5 689.6,640.5 699.6,640.5 699.6,650.5 709.6,650.5 709.6,660.5 719.6,660.5 
		719.6,650.5 729.6,650.5 729.6,640.5 739.6,640.5 739.6,630.5 749.6,630.5 749.6,620.5 759.6,620.5 759.6,610.5 779.6,610.5 
		779.6,600.5 889.6,600.5 889.6,640.5 899.6,640.5 899.6,650.5 909.6,650.5 909.6,660.5 919.6,660.5 919.6,680.5 929.6,680.5 
		929.6,700.5 939.6,700.5 939.6,720.5 949.6,720.5 949.6,740.5 959.6,740.5 959.6,760.5 969.6,760.5 969.6,770.5 969.6,750.5 
		979.6,750.5 979.6,730.5 989.6,730.5 989.6,710.5 999.6,710.5 999.6,700.5 1009.6,700.5 1009.6,680.5 1019.6,680.5 1019.6,660.5 
		1029.6,660.5 1029.6,640.5 1039.6,640.5 1039.6,620.5 1049.6,620.5 1049.6,610.5 1079.6,610.5 1079.6,620.5 1109.6,620.5 
		1109.6,630.5 1129.6,630.5 1129.6,660.5 1119.6,660.5 1119.6,680.5 1109.6,680.5 1109.6,700.5 1099.6,700.5 1099.6,720.5 
		1089.6,720.5 1089.6,740.5 1069.6,740.5 1069.6,760.5 1059.6,760.5 1059.6,780.5 1049.6,780.5 1049.6,790.5 1039.6,790.5 
		1039.6,810.5 1029.6,810.5 1029.6,830.5 1019.6,830.5 1019.6,840.5 1009.6,840.5 1009.6,860.5 989.6,860.5 989.6,870.5 	"/>
	<path d="M884.6,605.5v40h10v10h10v10h10v10v10h10v20h10v20h10v20h10v20h10v10h10v-10v-10h10v-20h10v-20h10v-10h10v-20h10v-20h10
		v-20h10v-20h10v-10h20v10h30v10h20v10v10h-10v20h-10v20h-10v20h-10v20h-10h-10v20h-10v20h-10v10h-10v20h-10v20h-10v10h-10v20h-10
		h-10v10h-40v-10h-10v-10h-10v-10h-10v-10v-10h-10v-10v-10h-10v-10h-10v-20h-10v-10v-10h-10v-10h-20v50h-130h-130v-50h-20v10h-10v10
		v10h-10v20h-10v10h-10v10v10h-10v10v10h-10v10h-10v10h-10v10h-40v-10h-10h-10v-20h-10v-10h-10v-20h-10v-20h-10v-10h-10v-20h-10v-20
		h-10h-10v-20h-10v-20h-10v-20h-10v-20h-10v-10v-10h20v-10h30v-10h20v10h10v20h10v20h10v20h10v20h10v10h10v20h10v20h10v10v10h10v-10
		h10v-20h10v-20h10v-20h10v-20h10v-10v-10h10v-10h10v-10h10v-40h100v10h10h10v10h10v10h10v10h10v10h10v10h10h10v-10h10v-10h10v-10
		h10v-10h10v-10h10h10v-10H884.6 M894.6,595.5h-10h-100h-10v10h-10h-10v10h-10v10h-10v10h-10v10h-10h-10v-10h-10v-10h-10v-10h-10
		v-10h-10h-10v-10h-10h-100h-10v10v30h-10v10h-10v10h-10v10v10h-10v10v10h-10v10v10h-10v10v10h-10v10h-10v-10v-10h-10v-10v-10h-10
		v-10h-10v-10v-10h-10v-10v-10h-10v-10v-10h-10v-10v-10h-10v-10h-10h-20h-10v10h-20h-10v10h-10h-10v10v10v10v10h10v10v10h10v10v10
		h10v10v10h10v10v10h10h10v10v10h10v10v10h10v10h10v10v10h10v10v10h10v10h10v10v10h10h10v10h10h40h10v-10h10v-10h10v-10h10v-10v-10
		h10v-10v-10h10v-10h10v-10v-10h10v-10v-10h10v-10v40v10h10h130h130h10v-10v-40v10h10v10v10h10v10v10h10v10h10v10v10h10v10v10h10v10
		h10v10h10v10h10h40h10v-10h10h10v-10v-10h10v-10h10v-10v-10h10v-10v-10h10v-10h10v-10v-10h10v-10v-10h10h10v-10v-10h10v-10v-10h10
		v-10v-10h10v-10v-10h10v-10v-10v-10v-10h-10h-10v-10h-10h-20v-10h-10h-20h-10v10h-10v10v10h-10v10v10h-10v10v10h-10v10v10h-10v10
		h-10v10v10h-10v10v10h-10v-10h-10v-10v-10h-10v-10v-10h-10v-10v-10h-10v-10v-10h-10v-10h-10v-10h-10v-30V595.5L894.6,595.5z"/>
</g>
<g>
	<g>
		<polygon class="st9" points="769.6,950.5 769.6,940.5 759.6,940.5 759.6,930.5 749.6,930.5 749.6,920.5 739.6,920.5 739.6,910.5 
			729.6,910.5 729.6,900.5 719.6,900.5 719.6,890.5 709.6,890.5 709.6,900.5 699.6,900.5 699.6,910.5 689.6,910.5 689.6,920.5 
			679.6,920.5 679.6,930.5 669.6,930.5 669.6,940.5 659.6,940.5 659.6,950.5 589.6,950.5 589.6,940.5 559.6,940.5 559.6,930.5 
			539.6,930.5 539.6,920.5 519.6,920.5 519.6,910.5 499.6,910.5 499.6,870.5 559.6,870.5 559.6,880.6 579.4,880.7 579.6,815.5 
			579.6,740.5 569.6,740.5 569.6,710.5 559.6,710.5 559.6,680.5 549.6,680.5 549.6,670.5 539.6,670.5 539.6,630.5 549.6,630.5 
			549.6,620.5 569.6,620.5 569.6,610.5 599.6,610.5 599.6,600.5 659.6,600.5 659.6,620.5 669.6,620.5 669.6,650.5 679.6,650.5 
			679.6,670.5 689.6,670.5 689.6,690.5 699.6,690.5 699.6,710.5 709.6,710.5 709.6,730.5 719.6,730.5 719.6,710.5 729.6,710.5 
			729.6,690.5 739.6,690.5 739.6,670.5 749.6,670.5 749.6,650.5 759.6,650.5 759.6,620.5 769.6,620.5 769.6,600.5 829.6,600.5 
			829.6,610.5 859.6,610.5 859.6,620.5 879.6,620.5 879.6,630.5 889.6,630.5 889.6,670.5 879.6,670.5 879.6,680.5 869.6,680.5 
			869.6,710.5 859.6,710.5 859.6,740.5 849.6,740.5 849.6,880.5 869.6,880.5 869.6,870.5 929.6,870.5 929.6,910.5 909.6,910.5 
			909.6,920.5 889.6,920.5 889.6,930.5 869.6,930.5 869.6,940.5 839.6,940.5 839.6,950.5 		"/>
		<path d="M824.6,605.5v10h30v10h20v10h10v20v10h-10v10h-10v20v10h-10v20v10h-10v80v70h30v-10h50v30h-20v10h-10h-10v10h-20v10h-20
			h-10v10h-60v-10h-10v-10h-10v-10h-10v-10h-10v-10h-10v-10h-10h-10v10h-10v10h-10v10h-10v10h-10v10h-10v10h-60v-10h-10h-20v-10h-20
			v-10h-10h-10v-10h-20v-30h50v10l29.8,0.2l0.2-70.2v-80h-10v-10v-20h-10v-10v-20h-10v-10h-10v-10v-20h10v-10h20v-10h30v-10h10h10
			h10h10h10v20h10v10v20h10v20h10v20h10v20h10v20h10h10v-20h10v-20h10v-20h10v-20h10v-20v-10h10v-20h10h10h10h10H824.6 M834.6,595.5
			h-10h-10h-10h-10h-10h-10h-10v10v10h-10v10v10v10h-10v10v10h-10v10v10h-10v10v10h-10h-10v-10v-10h-10v-10v-10h-10v-10v-10h-10v-10
			v-10v-10h-10v-10v-10h-10h-10h-10h-10h-10h-10h-10v10h-20h-10v10h-10h-10v10h-10v10v20v10v10h10v10h10v10v10v10h10v10v10v10h10v70
			l-0.1,60.1l-9.9-0.1v-0.1v-10h-10h-50h-10v10v30v10h10h10v10h10h10v10h10h10v10h10h20v10h10h60h10v-10h10v-10h10v-10h10v-10h10
			v-10h10v-10v10h10v10h10v10h10v10h10v10h10v10h10h60h10v-10h20h10v-10h10h10v-10h10h10v-10h10h10v-10v-30v-10h-10h-50h-10v10h-10
			v-60v-70h10v-10v-10v-10h10v-10v-10v-10h10v-10h10v-10v-10v-20v-10h-10v-10h-10h-10v-10h-10h-20V595.5L834.6,595.5z"/>
	</g>
	<g>
		<polygon class="st9" points="1059.6,750.5 1059.6,740.5 1039.6,740.5 1039.6,730.5 1019.6,730.5 1019.6,720.5 1009.6,720.5 
			1009.6,680.5 1019.6,680.5 1019.6,660.5 1029.6,660.5 1029.6,630.5 1039.8,630.5 1040.4,618.7 1059.6,621.1 1059.6,630.5 
			1089.6,630.5 1089.6,640.5 1119.6,640.5 1119.6,650.5 1139.6,650.5 1139.6,670.5 1129.6,670.5 1129.6,690.5 1119.6,690.5 
			1119.6,710.5 1109.6,710.5 1109.6,730.5 1099.6,730.5 1099.6,740.5 1089.6,740.5 1089.6,750.5 		"/>
		<path d="M1045.1,624.3l9.5,1.2v10h30v10h30v10h20v10h-10v20h-10v20h-10v20h-10v10h-10v10h-20v-10h-10h-10v-10h-10h-10v-10h-10v-20
			v-10h10v-10v-10h10v-30h10L1045.1,624.3 M1035.6,613l-0.5,10.8l-0.1,1.7h-0.5h-10v10v20h-10v10v10h-10v10v10v20v10h10v10h10h10v10
			h10h10v10h10h20h10v-10h10v-10h10v-10v-10h10v-10v-10h10v-10v-10h10v-10v-10v-10h-10h-10v-10h-10h-20v-10h-10h-20v-8.8l-8.7-1.1
			l-9.5-1.2L1035.6,613L1035.6,613z"/>
	</g>
	<g>
		<polygon class="st9" points="339.6,750.5 339.6,740.5 329.6,740.5 329.6,730.5 319.6,730.5 319.6,710.5 309.6,710.5 309.6,690.5 
			299.6,690.5 299.6,670.5 289.6,670.5 289.6,650.5 309.6,650.5 309.6,640.5 339.6,640.5 339.6,630.5 369.6,630.5 369.6,621.1 
			388.8,618.7 389.3,630.5 399.6,630.5 399.6,660.5 409.6,660.5 409.6,680.5 419.6,680.5 419.6,720.5 409.6,720.5 409.6,730.5 
			389.6,730.5 389.6,740.5 369.6,740.5 369.6,750.5 		"/>
		<path d="M384,624.3l0.5,11.2h10v30h10v10v10h10v10v20h-10v10h-10h-10v10h-10h-10v10h-20v-10h-10v-10h-10v-20h-10v-20h-10v-20h-10
			v-10h20v-10h30v-10h30v-10L384,624.3 M393.5,613l-10.7,1.4l-9.5,1.2l-8.7,1.1v8.8h-20h-10v10h-20h-10v10h-10h-10v10v10v10h10v10
			v10h10v10v10h10v10v10h10v10h10v10h10h20h10v-10h10h10v-10h10h10v-10h10v-10v-20v-10v-10h-10v-10v-10h-10v-20v-10h-10h-0.5
			l-0.1-1.7L393.5,613L393.5,613z"/>
	</g>
</g>
<polygon class="st10" points="814.6,815.4 814.6,805.5 724.6,805.5 704.6,805.5 614.6,805.5 614.6,815.4 584.6,815.4 584.6,885.5 
	634.6,885.5 634.6,875.5 704.6,875.5 724.6,875.5 794.6,875.5 794.6,885.5 844.6,885.5 844.6,815.4 "/>
<g>
	<polygon class="st11" points="789.6,1220.5 789.6,1210.5 759.6,1210.5 759.6,1100.5 739.6,1100.5 739.6,1090.5 709.6,1090.5 
		709.6,1080.5 679.6,1080.5 679.6,1070.5 649.6,1070.5 649.6,1060.5 619.6,1060.5 619.6,1050.5 599.6,1050.5 599.6,1020.5 
		609.6,1020.5 609.6,990.5 619.6,990.5 619.6,960.5 629.6,960.5 629.6,950.5 649.6,950.5 649.6,960.5 689.6,960.5 689.6,970.5 
		719.6,970.5 719.6,980.5 759.6,980.5 759.6,990.5 789.6,990.5 789.6,1000.5 819.6,1000.5 819.6,1010.5 859.6,1010.5 859.6,1020.5 
		869.6,1020.5 869.6,1050.5 859.6,1050.5 859.6,1090.5 849.6,1090.5 849.6,1140.5 839.6,1140.5 839.6,1190.5 829.6,1190.5 
		829.6,1220.5 	"/>
	<path d="M644.6,955.5v10h40v10h30v10h40v10h30v10h30v10h40v10h10v20h-10v40h-10v50h-10v50h-10v30h-10h-20v-10h-10h-20v-110h-20v-10
		h-30v-10h-10h-20v-10h-30v-10h-30v-10h-20v-20h10v-30h10v-10v-20h10v-10H644.6 M654.6,945.5h-10h-10h-10v10h-10v10v20h-10v10v20
		h-10v10v20v10h10h10v10h10h20v10h10h20v10h10h20v10h10h20v10h10h10v100v10h10h20v10h10h20h10h10v-10v-20h10v-10v-40h10v-10v-40h10
		v-10v-30h10v-10v-20v-10h-10v-10h-10h-30v-10h-10h-20v-10h-10h-20v-10h-10h-30v-10h-10h-20v-10h-10h-30V945.5L654.6,945.5z"/>
</g>
<g>
	<g>
		<polygon class="st12" points="759.6,770.5 759.6,760.5 749.6,760.5 749.6,730.5 759.6,730.5 759.6,710.5 769.6,710.5 769.6,690.5 
			779.6,690.5 779.6,680.5 789.6,680.5 789.6,660.5 799.6,660.5 799.6,640.5 809.6,640.5 809.6,610.5 819.6,610.5 819.6,590.5 
			829.6,590.5 829.6,570.5 869.6,570.5 869.6,550.5 879.6,550.5 879.6,540.5 889.6,540.5 889.6,530.5 899.6,530.5 899.6,520.5 
			909.6,520.5 909.6,510.5 919.6,510.5 919.6,490.5 929.6,490.5 929.6,480.5 939.6,480.5 939.6,470.5 949.6,470.5 949.6,460.5 
			979.6,460.5 979.6,470.5 989.6,470.5 989.6,490.5 979.6,490.5 979.6,500.5 969.6,500.5 969.6,510.5 959.6,510.5 959.6,530.5 
			949.6,530.5 949.6,540.5 939.6,540.5 939.6,560.5 929.6,560.5 929.6,580.5 919.6,580.5 919.6,610.5 929.6,610.5 929.6,620.5 
			939.6,620.5 939.6,640.5 889.6,640.5 889.6,650.5 869.6,650.5 869.6,660.5 859.6,660.5 859.6,670.5 849.6,670.5 849.6,680.5 
			839.6,680.5 839.6,690.5 829.6,690.5 829.6,710.5 819.6,710.5 819.6,720.5 809.6,720.5 809.6,730.5 799.6,730.5 799.6,750.5 
			789.6,750.5 789.6,760.5 779.6,760.5 779.6,770.5 		"/>
		<path d="M974.6,465.5v10h10v10h-10v10h-10v10h-10v10v10h-10v10h-10v20h-10v10v10h-10v30v10h10v10h10v10h-30h-20v10h-10h-10v10h-10
			v10h-10v10h-10v10h-10v10v10h-10v10h-10v10h-10v10v10h-10v10h-10v10h-10v-10h-10v-20h10v-20h10v-20h10v-10h10v-20h10v-20h10v-30
			h10v-20h10v-20h30h10v-20h10v-10h10v-10h10v-10h10v-10h10v-10v-10h10v-10h10v-10h10v-10H974.6 M984.6,455.5h-10h-20h-10v10h-10v10
			h-10v10h-10v10v10h-10v10h-10v10h-10v10h-10v10h-10v10v10h-30h-10v10v10h-10v10v10h-10v10v20h-10v10v10h-10v10v10h-10v10h-10v10
			v10h-10v10v10h-10v10v20v10h10v10h10h10h10v-10h10v-10h10v-10v-10h10v-10h10v-10h10v-10v-10h10v-10h10v-10h10v-10h10v-10h10h10
			v-10h10h30h10v-10v-10v-10h-10v-10h-10v-20h10v-10v-10h10v-10v-10h10v-10h10v-10v-10h10v-10h10v-10h10v-10v-10v-10h-10V455.5
			L984.6,455.5z"/>
	</g>
	<g>
		<polygon class="st12" points="649.6,770.5 649.6,760.5 639.6,760.5 639.6,750.5 629.6,750.5 629.6,730.5 619.6,730.5 619.6,720.5 
			609.6,720.5 609.6,710.5 599.6,710.5 599.6,690.5 589.6,690.5 589.6,680.5 579.6,680.5 579.6,670.5 569.6,670.5 569.6,660.5 
			559.6,660.5 559.6,650.5 539.6,650.5 539.6,640.5 489.6,640.5 489.6,620.5 499.6,620.5 499.6,610.5 509.6,610.5 509.6,580.5 
			499.6,580.5 499.6,560.5 489.6,560.5 489.6,540.5 479.6,540.5 479.6,530.5 469.6,530.5 469.6,510.5 459.6,510.5 459.6,500.5 
			449.6,500.5 449.6,490.5 439.6,490.5 439.6,470.5 449.6,470.5 449.6,460.5 479.6,460.5 479.6,470.5 489.6,470.5 489.6,480.5 
			499.6,480.5 499.6,490.5 509.6,490.5 509.6,510.5 519.6,510.5 519.6,520.5 529.6,520.5 529.6,530.5 539.6,530.5 539.6,540.5 
			549.6,540.5 549.6,550.5 559.6,550.5 559.6,570.5 599.6,570.5 599.6,590.5 609.6,590.5 609.6,610.5 619.6,610.5 619.6,640.5 
			629.6,640.5 629.6,660.5 639.6,660.5 639.6,680.5 649.6,680.5 649.6,690.5 659.6,690.5 659.6,710.5 669.6,710.5 669.6,730.5 
			679.6,730.5 679.6,760.5 669.6,760.5 669.6,770.5 		"/>
		<path d="M474.6,465.5v10h10v10h10v10h10v10v10h10v10h10v10h10v10h10v10h10v20h10h30v20h10v20h10v30h10v20h10v20h10v10h10v20h10v20
			h10v20h-10v10h-10v-10h-10v-10h-10v-10v-10h-10v-10h-10v-10h-10v-10v-10h-10v-10h-10v-10h-10v-10h-10v-10h-10h-10v-10h-20h-30v-10
			h10v-10h10v-10v-30h-10v-10v-10h-10v-20h-10v-10h-10v-10v-10h-10v-10h-10v-10h-10v-10h10v-10H474.6 M484.6,455.5h-10h-20h-10v10
			h-10v10v10v10h10v10h10v10h10v10v10h10v10h10v10v10h10v10v10h10v20h-10v10h-10v10v10v10h10h30h10v10h10h10v10h10v10h10v10h10v10
			h10v10v10h10v10h10v10h10v10v10h10v10h10v10h10h10h10v-10h10v-10v-20v-10h-10v-10v-10h-10v-10v-10h-10v-10h-10v-10v-10h-10v-10
			v-10h-10v-20v-10h-10v-10v-10h-10v-10v-10h-10h-30v-10v-10h-10v-10h-10v-10h-10v-10h-10v-10h-10v-10v-10h-10v-10h-10v-10h-10
			V455.5L484.6,455.5z"/>
	</g>
</g>
<g>
	<rect x="654.6" y="745.5" class="st8" width="10" height="20"/>
	<rect x="644.6" y="725.5" class="st8" width="10" height="30"/>
	<rect x="634.6" y="715.5" class="st8" width="10" height="20"/>
	<rect x="624.6" y="705.5" class="st8" width="10" height="20"/>
	<rect x="614.6" y="695.5" class="st8" width="10" height="10"/>
</g>
<g>
	<polygon class="st13" points="744.6,755.5 744.6,745.5 724.6,745.5 714.6,745.5 704.6,745.5 684.6,745.5 684.6,755.5 664.6,755.5 
		664.6,785.5 664.6,795.5 674.6,795.5 674.6,805.5 684.6,805.5 684.6,815.5 694.6,815.5 694.6,825.5 714.6,825.5 734.6,825.5 
		734.6,815.5 744.6,815.5 744.6,805.5 754.6,805.5 754.6,795.5 764.6,795.5 764.6,785.5 764.6,755.5 	"/>
	<polygon class="st14" points="734.6,765.5 734.6,755.5 724.6,755.5 724.6,745.5 714.6,745.5 704.6,745.5 704.6,755.5 694.6,755.5 
		694.6,765.5 684.6,765.5 684.6,775.5 684.6,795.5 684.6,805.5 694.6,805.5 694.6,815.5 704.6,815.5 704.6,825.5 714.6,825.5 
		724.6,825.5 724.6,815.5 734.6,815.5 734.6,805.5 744.6,805.5 744.6,795.5 744.6,775.5 744.6,765.5 	"/>
	<polygon class="st15" points="724.6,765.5 724.6,755.5 714.6,755.5 704.6,755.5 704.6,765.5 694.6,765.5 694.6,795.5 694.6,805.5 
		704.6,805.5 704.6,815.5 714.6,815.5 724.6,815.5 724.6,805.5 734.6,805.5 734.6,795.5 734.6,765.5 	"/>
	
		<rect x="764.6" y="745.5" transform="matrix(-1 -4.511115e-11 4.511115e-11 -1 1539.1265 1511.085)" class="st8" width="10" height="20"/>
	
		<rect x="774.6" y="725.5" transform="matrix(-1 -4.474744e-11 4.474744e-11 -1 1559.1265 1481.085)" class="st8" width="10" height="30"/>
	
		<rect x="784.6" y="715.5" transform="matrix(-1 -4.492907e-11 4.492907e-11 -1 1579.1265 1451.085)" class="st8" width="10" height="20"/>
	
		<rect x="794.6" y="705.5" transform="matrix(-1 -4.492907e-11 4.492907e-11 -1 1599.1265 1431.085)" class="st8" width="10" height="20"/>
	
		<rect x="804.6" y="695.5" transform="matrix(-1 -4.483803e-11 4.483803e-11 -1 1619.1265 1401.085)" class="st8" width="10" height="10"/>
</g>
<rect x="704.6" y="775.5" class="st16" width="10" height="30"/>
<polygon class="st13" points="814.6,815.5 784.6,815.5 784.6,825.5 774.6,825.5 774.6,835.5 764.6,835.5 764.6,855.5 764.6,865.5 
	774.6,865.5 774.6,875.5 784.6,875.5 784.6,885.5 814.6,885.5 824.6,885.5 824.6,875.5 834.6,875.5 834.6,865.5 844.6,865.5 
	844.6,835.5 834.6,835.5 834.6,825.5 824.6,825.5 824.6,815.5 "/>
<rect x="694.6" y="765.5" class="st17" width="10" height="10"/>
<polygon class="st10" points="814.6,835.5 794.6,835.5 794.6,845.5 784.6,845.5 784.6,855.5 794.6,855.5 794.6,865.5 844.6,865.5 
	844.6,855.5 844.6,855.5 844.6,835.5 814.6,835.5 "/>
<polygon class="st7" points="784.6,965.5 784.6,975.5 794.6,975.5 794.6,995.5 804.6,995.5 804.6,1015.5 814.6,1015.5 814.6,1045.5 
	834.6,1045.5 834.6,1035.5 854.6,1035.5 854.6,1025.5 884.6,1025.5 884.6,1015.5 914.6,1015.5 914.6,1005.5 944.6,1005.5 
	944.6,995.5 974.6,995.5 974.6,985.5 1014.6,985.5 1014.6,975.5 1044.6,975.5 1044.6,965.5 1064.6,965.5 1064.6,955.5 1064.6,945.5 
	1074.6,945.5 1074.6,915.5 1064.6,915.5 1064.6,895.5 1054.6,895.5 1054.6,885.5 1024.6,885.5 1024.6,895.5 984.6,895.5 
	984.6,905.5 954.6,905.5 954.6,915.5 924.6,915.5 924.6,925.5 894.6,925.5 894.6,935.5 854.6,935.5 854.6,945.5 824.6,945.5 
	824.6,955.5 794.6,955.5 794.6,965.5 "/>
<g>
	<rect x="304.6" y="675.5" class="st18" width="10" height="10"/>
	<rect x="314.6" y="665.5" class="st18" width="10" height="10"/>
	<rect x="324.6" y="655.5" class="st18" width="10" height="10"/>
	<rect x="334.6" y="645.5" class="st18" width="10" height="10"/>
	<rect x="314.6" y="695.5" class="st18" width="10" height="10"/>
	<rect x="324.6" y="685.5" class="st18" width="10" height="10"/>
	<rect x="334.6" y="675.5" class="st18" width="10" height="10"/>
	<rect x="344.6" y="665.5" class="st18" width="10" height="10"/>
	<rect x="354.6" y="655.5" class="st18" width="10" height="10"/>
	<rect x="364.6" y="645.5" class="st18" width="10" height="10"/>
	<rect x="374.6" y="635.5" class="st18" width="10" height="10"/>
	<rect x="324.6" y="715.5" class="st18" width="10" height="10"/>
	<rect x="334.6" y="705.5" class="st18" width="10" height="10"/>
	<rect x="344.6" y="695.5" class="st18" width="10" height="10"/>
	<rect x="354.6" y="685.5" class="st18" width="10" height="10"/>
	<rect x="364.6" y="675.5" class="st18" width="10" height="10"/>
	<rect x="374.6" y="665.5" class="st18" width="10" height="10"/>
	<rect x="384.6" y="655.5" class="st18" width="10" height="10"/>
	<rect x="344.6" y="735.5" class="st18" width="10" height="10"/>
	<rect x="354.6" y="725.5" class="st18" width="10" height="10"/>
	<rect x="364.6" y="715.5" class="st18" width="10" height="10"/>
	<rect x="374.6" y="705.5" class="st18" width="10" height="10"/>
	<rect x="384.6" y="695.5" class="st18" width="10" height="10"/>
	<rect x="394.6" y="685.5" class="st18" width="10" height="10"/>
	<rect x="404.6" y="675.5" class="st18" width="10" height="10"/>
</g>
<g>
	
		<rect x="1114.6" y="675.5" transform="matrix(-1 -4.492907e-11 4.492907e-11 -1 2239.1265 1361.085)" class="st18" width="10" height="10"/>
	
		<rect x="1104.6" y="665.5" transform="matrix(-1 -4.492907e-11 4.492907e-11 -1 2219.1265 1341.085)" class="st18" width="10" height="10"/>
	
		<rect x="1094.6" y="655.5" transform="matrix(-1 -4.483803e-11 4.483803e-11 -1 2199.1265 1321.085)" class="st18" width="10" height="10"/>
	
		<rect x="1084.6" y="645.5" transform="matrix(-1 -4.492907e-11 4.492907e-11 -1 2179.1265 1301.085)" class="st18" width="10" height="10"/>
	
		<rect x="1104.6" y="695.5" transform="matrix(-1 -4.492907e-11 4.492907e-11 -1 2219.1265 1401.085)" class="st18" width="10" height="10"/>
	
		<rect x="1094.6" y="685.5" transform="matrix(-1 -4.483803e-11 4.483803e-11 -1 2199.1265 1381.085)" class="st18" width="10" height="10"/>
	
		<rect x="1084.6" y="675.5" transform="matrix(-1 -4.492907e-11 4.492907e-11 -1 2179.1265 1361.085)" class="st18" width="10" height="10"/>
	
		<rect x="1074.6" y="665.5" transform="matrix(-1 -4.483803e-11 4.483803e-11 -1 2159.1265 1341.085)" class="st18" width="10" height="10"/>
	
		<rect x="1064.6" y="655.5" transform="matrix(-1 -4.492907e-11 4.492907e-11 -1 2139.1265 1321.085)" class="st18" width="10" height="10"/>
	
		<rect x="1054.6" y="645.5" transform="matrix(-1 -4.492907e-11 4.492907e-11 -1 2119.1265 1301.085)" class="st18" width="10" height="10"/>
	
		<rect x="1044.6" y="635.5" transform="matrix(-1 -4.483803e-11 4.483803e-11 -1 2099.1265 1281.085)" class="st18" width="10" height="10"/>
	
		<rect x="1094.6" y="715.5" transform="matrix(-1 -4.483803e-11 4.483803e-11 -1 2199.1265 1441.085)" class="st18" width="10" height="10"/>
	
		<rect x="1084.6" y="705.5" transform="matrix(-1 -4.492907e-11 4.492907e-11 -1 2179.1265 1421.085)" class="st18" width="10" height="10"/>
	
		<rect x="1074.6" y="695.5" transform="matrix(-1 -4.483803e-11 4.483803e-11 -1 2159.1265 1401.085)" class="st18" width="10" height="10"/>
	
		<rect x="1064.6" y="685.5" transform="matrix(-1 -4.492907e-11 4.492907e-11 -1 2139.1265 1381.085)" class="st18" width="10" height="10"/>
	
		<rect x="1054.6" y="675.5" transform="matrix(-1 -4.492907e-11 4.492907e-11 -1 2119.1265 1361.085)" class="st18" width="10" height="10"/>
	
		<rect x="1044.6" y="665.5" transform="matrix(-1 -4.483803e-11 4.483803e-11 -1 2099.1265 1341.085)" class="st18" width="10" height="10"/>
	
		<rect x="1034.6" y="655.5" transform="matrix(-1 -4.492907e-11 4.492907e-11 -1 2079.1265 1321.085)" class="st18" width="10" height="10"/>
	
		<rect x="1074.6" y="735.5" transform="matrix(-1 -4.483803e-11 4.483803e-11 -1 2159.1265 1481.085)" class="st18" width="10" height="10"/>
	
		<rect x="1064.6" y="725.5" transform="matrix(-1 -4.492907e-11 4.492907e-11 -1 2139.1265 1461.085)" class="st18" width="10" height="10"/>
	
		<rect x="1054.6" y="715.5" transform="matrix(-1 -4.492907e-11 4.492907e-11 -1 2119.1265 1441.085)" class="st18" width="10" height="10"/>
	
		<rect x="1044.6" y="705.5" transform="matrix(-1 -4.483803e-11 4.483803e-11 -1 2099.1265 1421.085)" class="st18" width="10" height="10"/>
	
		<rect x="1034.6" y="695.5" transform="matrix(-1 -4.492907e-11 4.492907e-11 -1 2079.1265 1401.085)" class="st18" width="10" height="10"/>
	
		<rect x="1024.6" y="685.5" transform="matrix(-1 -4.492907e-11 4.492907e-11 -1 2059.1265 1381.085)" class="st18" width="10" height="10"/>
	
		<rect x="1014.6" y="675.5" transform="matrix(-1 -4.483803e-11 4.483803e-11 -1 2039.1265 1361.085)" class="st18" width="10" height="10"/>
</g>
<g>
	<polygon class="st19" points="964.6,475.5 964.6,465.5 954.6,465.5 954.6,455.5 944.6,455.5 934.6,455.5 934.6,445.5 924.6,445.5 
		914.6,445.5 904.6,445.5 894.6,445.5 894.6,435.5 884.6,435.5 874.6,435.5 864.6,435.5 854.6,435.5 844.6,435.5 834.6,435.5 
		824.6,435.5 814.6,435.5 804.6,435.5 794.6,435.5 784.6,435.5 774.6,435.5 764.6,435.5 754.6,435.5 744.6,435.5 744.6,765.5 
		754.6,765.5 754.6,755.5 764.6,755.5 764.6,735.5 774.6,735.5 774.6,725.5 784.6,725.5 784.6,705.5 794.6,705.5 794.6,695.5 
		804.6,695.5 804.6,685.5 814.6,685.5 814.6,665.5 824.6,665.5 824.6,655.5 834.6,655.5 834.6,645.5 844.6,645.5 844.6,625.5 
		854.6,625.5 854.6,615.5 864.6,615.5 864.6,605.5 874.6,605.5 874.6,585.5 884.6,585.5 884.6,575.5 894.6,575.5 894.6,565.5 
		904.6,565.5 904.6,555.5 914.6,555.5 914.6,545.5 924.6,545.5 924.6,535.5 934.6,535.5 934.6,515.5 944.6,515.5 944.6,505.5 
		954.6,505.5 954.6,495.5 964.6,495.5 964.6,485.5 974.6,485.5 974.6,475.5 	"/>
	<polygon class="st19" points="664.6,435.5 654.6,435.5 644.6,435.5 634.6,435.5 624.6,435.5 614.6,435.5 604.6,435.5 594.6,435.5 
		584.6,435.5 574.6,435.5 564.6,435.5 554.6,435.5 544.6,435.5 534.6,435.5 534.6,445.5 524.6,445.5 514.6,445.5 504.6,445.5 
		494.6,445.5 494.6,455.5 484.6,455.5 474.6,455.5 474.6,465.5 464.6,465.5 464.6,475.5 454.6,475.5 454.6,485.5 464.6,485.5 
		464.6,495.5 474.6,495.5 474.6,505.5 484.6,505.5 484.6,515.5 494.6,515.5 494.6,535.5 504.6,535.5 504.6,545.5 514.6,545.5 
		514.6,555.5 524.6,555.5 524.6,565.5 534.6,565.5 534.6,575.5 544.6,575.5 544.6,585.5 554.6,585.5 554.6,605.5 564.6,605.5 
		564.6,615.5 574.6,615.5 574.6,625.5 584.6,625.5 584.6,645.5 594.6,645.5 594.6,655.5 604.6,655.5 604.6,665.5 614.6,665.5 
		614.6,685.5 624.6,685.5 624.6,695.5 634.6,695.5 634.6,705.5 644.6,705.5 644.6,725.5 654.6,725.5 654.6,735.5 664.6,735.5 
		664.6,755.5 674.6,755.5 674.6,765.5 684.6,765.5 684.6,435.5 674.6,435.5 	"/>
</g>
<rect x="584.6" y="825.5" class="st20" width="20" height="10"/>
<rect x="604.6" y="835.5" class="st20" width="20" height="10"/>
<rect x="624.6" y="845.5" class="st20" width="20" height="10"/>
<rect x="584.6" y="875.5" class="st20" width="20" height="10"/>
<rect x="604.6" y="865.5" class="st20" width="20" height="10"/>
<rect x="624.6" y="855.5" class="st20" width="20" height="10"/>
<rect x="644.6" y="855.5" class="st20" width="30" height="10"/>
<rect x="674.6" y="865.5" class="st20" width="30" height="10"/>
<rect x="634.6" y="805.5" class="st20" width="20" height="10"/>
<rect x="654.6" y="815.5" class="st20" width="20" height="10"/>
<rect x="754.6" y="855.5" class="st20" width="10" height="10"/>
<rect x="674.6" y="825.5" class="st20" width="20" height="10"/>
<rect x="694.6" y="835.5" class="st20" width="30" height="10"/>
<rect x="724.6" y="845.5" class="st20" width="30" height="10"/>
<g>
	<polygon class="st4" points="834.6,365.5 834.6,295.5 714.6,295.5 594.6,295.5 594.6,365.5 584.6,365.5 584.6,505.5 584.6,575.5 
		624.6,575.5 624.6,645.5 714.6,645.5 804.6,645.5 804.6,575.5 844.6,575.5 844.6,505.5 844.6,365.5 	"/>
	<polygon class="st3" points="664.6,415.5 664.6,435.5 654.6,435.5 654.6,445.5 644.6,445.5 644.6,435.5 634.6,435.5 634.6,425.5 
		634.6,415.5 624.6,415.5 624.6,425.5 624.6,435.5 624.6,445.5 634.6,445.5 634.6,455.5 644.6,455.5 644.6,465.5 654.6,465.5 
		654.6,455.5 664.6,455.5 664.6,445.5 674.6,445.5 674.6,415.5 	"/>
	<polygon class="st21" points="584.6,315.5 584.6,335.5 574.6,335.5 574.6,425.5 584.6,425.5 584.6,405.5 594.6,405.5 594.6,315.5 	
		"/>
	<polygon class="st21" points="844.6,315.5 844.6,335.5 854.6,335.5 854.6,425.5 844.6,425.5 844.6,405.5 834.6,405.5 834.6,315.5 	
		"/>
	<polygon class="st22" points="634.6,415.5 634.6,435.5 644.6,435.5 644.6,445.5 654.6,445.5 654.6,435.5 664.6,435.5 664.6,415.5 	
		"/>
	<path class="st23" d="M834.6,505.5v20h-10v20h-10v20h-10v-20h-10v-20h-10v-10h-10v-10h-10h-10h-10h-10h-10v-10h-10h-10v10h-10h-10
		h-10h-10h-10v10h-10v10h-10v20h-10v20h-10v-20h-10v-20h-10v-20h-10v80h10v30h10v20h10v20h10v10h10v10h10v10h10v10h10h10h10v10h10
		h10h10h10h10h10v-10h10h10h10v-10h10v-10h10v-10h10v-10h10v-20h10v-20h10v-30h10v-80H834.6z M794.6,585.5h-10h-10v10h-10h-10h-10
		v-20h-10h-10h-10h-10h-10h-10v20h-10h-10h-10v-10h-10h-10v-20h10v-10h10v-10h10h10h10h10h10v-10h10h10v10h10h10h10h10h10v10h10v10
		h10V585.5z"/>
	<polygon class="st3" points="734.6,455.5 734.6,425.5 724.6,425.5 714.6,425.5 704.6,425.5 694.6,425.5 694.6,455.5 684.6,455.5 
		684.6,525.5 694.6,525.5 704.6,525.5 704.6,535.5 714.6,535.5 724.6,535.5 724.6,525.5 734.6,525.5 744.6,525.5 744.6,455.5 	"/>
	<polygon class="st3" points="764.6,415.5 764.6,435.5 774.6,435.5 774.6,445.5 784.6,445.5 784.6,435.5 794.6,435.5 794.6,425.5 
		794.6,415.5 804.6,415.5 804.6,425.5 804.6,435.5 804.6,445.5 794.6,445.5 794.6,455.5 784.6,455.5 784.6,465.5 774.6,465.5 
		774.6,455.5 764.6,455.5 764.6,445.5 754.6,445.5 754.6,415.5 	"/>
	<g>
		<polygon class="st23" points="664.6,385.5 614.6,385.5 614.6,395.5 604.6,395.5 604.6,405.5 614.6,405.5 614.6,415.5 674.6,415.5 
			674.6,405.5 674.6,395.5 664.6,395.5 		"/>
		<polygon class="st23" points="814.6,395.5 814.6,385.5 764.6,385.5 764.6,395.5 754.6,395.5 754.6,405.5 754.6,415.5 814.6,415.5 
			814.6,405.5 824.6,405.5 824.6,395.5 		"/>
	</g>
	<polygon class="st24" points="714.6,545.5 674.6,545.5 674.6,555.5 714.6,555.5 754.6,555.5 754.6,545.5 	"/>
	<polygon class="st25" points="714.6,555.5 664.6,555.5 664.6,565.5 714.6,565.5 764.6,565.5 764.6,555.5 	"/>
	<g>
		<polyline class="st3" points="554.6,385.5 554.6,385.5 544.6,385.5 544.6,435.5 554.6,435.5 554.6,455.5 564.6,455.5 564.6,465.5 
			574.6,465.5 584.6,465.5 584.6,425.5 574.6,425.5 574.6,365.5 564.6,365.5 564.6,375.5 554.6,375.5 554.6,385.5 		"/>
		<polygon class="st3" points="874.6,385.5 874.6,375.5 864.6,375.5 864.6,365.5 854.6,365.5 854.6,425.5 844.6,425.5 844.6,465.5 
			854.6,465.5 864.6,465.5 864.6,455.5 874.6,455.5 874.6,435.5 884.6,435.5 884.6,385.5 		"/>
	</g>
	<polygon class="st22" points="794.6,415.5 794.6,435.5 784.6,435.5 784.6,445.5 774.6,445.5 774.6,435.5 764.6,435.5 764.6,415.5 	
		"/>
	<g>
		<rect x="634.6" y="355.5" class="st23" width="10" height="10"/>
		<polygon class="st23" points="854.6,285.5 854.6,265.5 844.6,265.5 844.6,245.5 834.6,245.5 824.6,245.5 824.6,235.5 814.6,235.5 
			804.6,235.5 794.6,235.5 784.6,235.5 774.6,235.5 764.6,235.5 754.6,235.5 744.6,235.5 744.6,225.5 734.6,225.5 734.6,215.5 
			724.6,215.5 724.6,205.5 714.6,205.5 704.6,205.5 704.6,195.5 694.6,195.5 684.6,195.5 674.6,195.5 664.6,195.5 654.6,195.5 
			644.6,195.5 644.6,205.5 634.6,205.5 624.6,205.5 614.6,205.5 614.6,215.5 604.6,215.5 594.6,215.5 594.6,225.5 584.6,225.5 
			584.6,235.5 574.6,235.5 574.6,245.5 564.6,245.5 564.6,265.5 554.6,265.5 554.6,315.5 564.6,315.5 564.6,335.5 574.6,335.5 
			574.6,345.5 584.6,345.5 584.6,355.5 594.6,355.5 594.6,365.5 604.6,365.5 604.6,355.5 604.6,325.5 614.6,325.5 614.6,345.5 
			624.6,345.5 624.6,355.5 634.6,355.5 634.6,315.5 644.6,315.5 644.6,305.5 654.6,305.5 664.6,305.5 674.6,305.5 684.6,305.5 
			694.6,305.5 704.6,305.5 714.6,305.5 724.6,305.5 724.6,315.5 734.6,315.5 744.6,315.5 754.6,315.5 754.6,325.5 764.6,325.5 
			764.6,325.5 774.6,325.5 784.6,325.5 794.6,325.5 804.6,325.5 814.6,325.5 824.6,325.5 834.6,325.5 834.6,335.5 844.6,335.5 
			854.6,335.5 854.6,325.5 864.6,325.5 864.6,285.5 		"/>
	</g>
</g>
<g>
	<path d="M704.6,195.5v10h10h10v10h10v10h10v10h10h10h10h10h10h10h10h10v10h10h10v20h10v20h10v40h-10v10v30h10v10h10v10h10v50h-10
		v20h-10v10h-10h-10v40v70v10h-10v30h-10v20h-10v20h-10v10h-10v10h-10v10h-10v10h-10h-10h-10v10h-10h-10h-10h-10h-10h-10v-10h-10
		h-10h-10v-10h-10v-10h-10v-10h-10v-10h-10v-20h-10v-20h-10v-30h-10v-10v-70v-40h-10h-10v-10h-10v-20h-10v-50h10v-10h10v-10h10v-20
		v-10h-10v-20h-10v-50h10v-20h10v-10h10v-10h10v-10h10h10v-10h10h10h10v-10h10h10h10h10h10H704.6 M714.6,185.5h-10h-10h-10h-10h-10
		h-10h-10h-10v10h-10h-10h-10v10h-10h-10v10h-10v10h-10v10h-10v10v10h-10v10v50v10h10v10v10h10v10h-10v10h-10v10h-10v10v50v10h10v10
		v10h10v10h10h10v30v70v10v10h10v20v10h10v10v10h10v10v10h10v10h10v10h10v10h10v10h10h10h10v10h10h10h10h10h10h10h10h10v-10h10h10
		h10v-10h10v-10h10v-10h10v-10h10v-10v-10h10v-10v-10h10v-10v-20h10v-10v-10v-70v-30h10h10v-10h10v-10v-10h10v-10v-50v-10h-10v-10
		h-10v-10h-10v-20h10v-10v-40v-10h-10v-10v-10h-10v-10v-10h-10h-10v-10h-10h-10h-10h-10h-10h-10h-10h-10v-10h-10v-10h-10v-10h-10
		h-10V185.5L714.6,185.5z"/>
</g>
<rect x="644.6" y="295.5" class="st26" width="10" height="10"/>
<rect x="604.6" y="325.5" class="st26" width="10" height="10"/>
<rect x="614.6" y="335.5" class="st26" width="10" height="10"/>
<rect x="624.6" y="345.5" class="st26" width="10" height="10"/>
<rect x="584.6" y="375.5" class="st27" width="10" height="10"/>
<rect x="574.6" y="365.5" class="st27" width="10" height="10"/>
<rect x="834.6" y="375.5" transform="matrix(-1 -4.492907e-11 4.492907e-11 -1 1679.1265 761.085)" class="st27" width="10" height="10"/>
<rect x="844.6" y="365.5" transform="matrix(-1 -4.483803e-11 4.483803e-11 -1 1699.1265 741.085)" class="st27" width="10" height="10"/>
<rect x="584.6" y="395.5" class="st27" width="10" height="10"/>
<rect x="574.6" y="385.5" class="st27" width="10" height="10"/>
<rect x="834.6" y="395.5" transform="matrix(-1 -4.492907e-11 4.492907e-11 -1 1679.1265 801.085)" class="st27" width="10" height="10"/>
<rect x="844.6" y="385.5" transform="matrix(-1 -4.483803e-11 4.483803e-11 -1 1699.1265 781.085)" class="st27" width="10" height="10"/>
<rect x="844.6" y="335.5" transform="matrix(-1 -4.483803e-11 4.483803e-11 -1 1699.1265 681.085)" class="st27" width="10" height="10"/>
<rect x="834.6" y="335.5" transform="matrix(-1 -4.483803e-11 4.483803e-11 -1 1679.1265 681.085)" class="st27" width="10" height="10"/>
<rect x="654.6" y="285.5" class="st26" width="10" height="10"/>
<rect x="664.6" y="275.5" class="st26" width="10" height="10"/>
<rect x="624.6" y="285.5" class="st28" width="10" height="10"/>
<rect x="774.6" y="255.5" class="st28" width="20" height="10"/>
<rect x="774.6" y="265.5" class="st28" width="10" height="10"/>
<rect x="764.6" y="245.5" class="st28" width="40" height="10"/>
<rect x="754.6" y="235.5" class="st28" width="70" height="10"/>
<rect x="744.6" y="225.5" class="st28" width="40" height="10"/>
<rect x="614.6" y="295.5" class="st28" width="10" height="10"/>
<rect x="614.6" y="305.5" class="st28" width="10" height="10"/>
<rect x="624.6" y="315.5" class="st28" width="10" height="30"/>
<rect x="634.6" y="275.5" class="st28" width="10" height="10"/>
<rect x="644.6" y="265.5" class="st28" width="10" height="10"/>
<rect x="694.6" y="245.5" class="st29" width="10" height="10"/>
<rect x="684.6" y="235.5" class="st29" width="10" height="10"/>
<rect x="744.6" y="275.5" class="st29" width="10" height="20"/>
<rect x="734.6" y="265.5" class="st29" width="10" height="10"/>
<rect x="734.6" y="295.5" class="st29" width="10" height="10"/>
<rect x="634.6" y="245.5" class="st29" width="10" height="10"/>
<rect x="624.6" y="255.5" class="st29" width="10" height="10"/>
<rect x="814.6" y="265.5" class="st29" width="10" height="10"/>
<rect x="804.6" y="275.5" class="st29" width="10" height="10"/>
<rect x="664.6" y="235.5" class="st29" width="20" height="10"/>
<rect x="674.6" y="275.5" class="st26" width="10" height="10"/>
<rect x="604.6" y="265.5" class="st26" width="10" height="10"/>
<rect x="694.6" y="285.5" class="st26" width="10" height="10"/>
<rect x="744.6" y="235.5" class="st26" width="10" height="10"/>
<rect x="754.6" y="245.5" class="st26" width="10" height="10"/>
<rect x="764.6" y="255.5" class="st26" width="10" height="10"/>
<rect x="764.6" y="295.5" class="st26" width="10" height="10"/>
<rect x="774.6" y="285.5" class="st26" width="10" height="10"/>
<rect x="774.6" y="275.5" class="st26" width="10" height="10"/>
<rect x="594.6" y="315.5" class="st26" width="10" height="10"/>
<rect x="584.6" y="295.5" class="st26" width="10" height="20"/>
<rect x="594.6" y="275.5" class="st26" width="10" height="20"/>
<rect x="594.6" y="325.5" class="st28" width="10" height="40"/>
<rect x="591.2" y="265.5" class="st28" width="13.3" height="10"/>
<rect x="751.2" y="305.5" class="st28" width="13.3" height="10"/>
<rect x="581.2" y="315.5" class="st28" width="13.3" height="10"/>
<rect x="571.2" y="295.5" class="st28" width="13.3" height="20"/>
<rect x="581.2" y="275.5" class="st28" width="13.3" height="20"/>
<rect x="704.6" y="295.5" class="st26" width="10" height="10"/>
<rect x="714.6" y="295.5" class="st26" width="10" height="10"/>
<rect x="634.6" y="305.5" class="st28" width="10" height="10"/>
<rect x="654.6" y="295.5" class="st28" width="50" height="10"/>
<rect x="664.6" y="285.5" class="st28" width="30" height="10"/>
<rect x="684.6" y="275.5" class="st28" width="10" height="10"/>
<rect x="694.6" y="525.5" class="st30" width="10" height="10"/>
<rect x="724.6" y="525.5" class="st30" width="10" height="10"/>
<polygon class="st30" points="574.6,425.5 574.6,395.5 574.6,385.5 564.6,385.5 564.6,395.5 564.6,405.5 554.6,405.5 554.6,425.5 
	564.6,425.5 564.6,435.5 564.6,445.5 574.6,445.5 574.6,455.5 584.6,455.5 584.6,425.5 "/>
<polygon class="st30" points="854.6,425.5 854.6,395.5 854.6,385.5 864.6,385.5 864.6,395.5 864.6,405.5 874.6,405.5 874.6,425.5 
	864.6,425.5 864.6,435.5 864.6,445.5 854.6,445.5 854.6,455.5 844.6,455.5 844.6,425.5 "/>
<rect x="554.6" y="375.5" class="st30" width="10" height="10"/>
<polygon class="st31" points="694.6,305.5 694.6,315.5 684.6,315.5 684.6,325.5 674.6,325.5 674.6,375.5 674.6,395.5 664.6,395.5 
	664.6,385.5 614.6,385.5 614.6,395.5 604.6,395.5 604.6,405.5 614.6,405.5 614.6,415.5 624.6,415.5 624.6,445.5 634.6,445.5 
	634.6,455.5 644.6,455.5 644.6,465.5 654.6,465.5 654.6,455.5 664.6,455.5 664.6,445.5 674.6,445.5 684.6,445.5 684.6,505.5 
	654.6,505.5 654.6,515.5 644.6,515.5 644.6,525.5 634.6,525.5 634.6,545.5 624.6,545.5 624.6,565.5 614.6,565.5 614.6,545.5 
	604.6,545.5 604.6,525.5 594.6,525.5 594.6,505.5 584.6,505.5 584.6,405.5 594.6,405.5 594.6,365.5 604.6,365.5 604.6,335.5 
	614.6,335.5 614.6,345.5 624.6,345.5 624.6,355.5 634.6,355.5 634.6,315.5 644.6,315.5 644.6,305.5 "/>
<polygon class="st31" points="674.6,545.5 654.6,545.5 654.6,555.5 644.6,555.5 644.6,565.5 634.6,565.5 634.6,585.5 654.6,585.5 
	654.6,595.5 684.6,595.5 684.6,575.5 704.6,575.5 714.6,575.5 714.6,565.5 664.6,565.5 664.6,555.5 674.6,555.5 "/>
<rect x="604.6" y="785.5" class="st18" width="10" height="30"/>
<rect x="594.6" y="775.5" class="st18" width="10" height="10"/>
<rect x="584.6" y="755.5" class="st18" width="10" height="20"/>
<rect x="574.6" y="715.5" class="st18" width="10" height="20"/>
<rect x="564.6" y="685.5" class="st18" width="10" height="20"/>
<rect x="554.6" y="665.5" class="st18" width="10" height="10"/>
<rect x="544.6" y="655.5" class="st18" width="10" height="10"/>
<rect x="844.6" y="715.5" transform="matrix(-1 -4.492907e-11 4.492907e-11 -1 1699.1265 1451.085)" class="st18" width="10" height="20"/>
<rect x="854.6" y="685.5" transform="matrix(-1 -4.483803e-11 4.483803e-11 -1 1719.1265 1391.085)" class="st18" width="10" height="20"/>
<rect x="864.6" y="665.5" transform="matrix(-1 -4.492907e-11 4.492907e-11 -1 1739.1265 1341.085)" class="st18" width="10" height="10"/>
<rect x="874.6" y="655.5" transform="matrix(-1 -4.492907e-11 4.492907e-11 -1 1759.1265 1321.085)" class="st18" width="10" height="10"/>
<rect x="634.6" y="785.5" class="st18" width="10" height="20"/>
<g>
	<rect x="604.6" y="885.5" class="st18" width="10" height="10"/>
	<rect x="644.6" y="875.5" class="st18" width="10" height="10"/>
	<rect x="654.6" y="885.5" class="st18" width="10" height="10"/>
	<rect x="624.6" y="895.5" class="st18" width="10" height="10"/>
	<rect x="594.6" y="895.5" class="st18" width="10" height="10"/>
	<rect x="614.6" y="905.5" class="st18" width="10" height="10"/>
	<rect x="554.6" y="905.5" class="st18" width="20" height="10"/>
	<rect x="584.6" y="915.5" class="st18" width="20" height="10"/>
	<rect x="574.6" y="885.5" class="st18" width="10" height="10"/>
	<rect x="524.6" y="875.5" class="st18" width="10" height="10"/>
	<rect x="534.6" y="875.5" class="st18" width="10" height="10"/>
	<rect x="544.6" y="885.5" class="st18" width="10" height="10"/>
	<rect x="564.6" y="885.5" class="st18" width="10" height="10"/>
	<rect x="634.6" y="885.5" class="st18" width="10" height="10"/>
	<rect x="664.6" y="875.5" class="st18" width="10" height="10"/>
	<rect x="704.6" y="875.5" class="st18" width="20" height="10"/>
</g>
<g>
	
		<rect x="814.6" y="885.5" transform="matrix(-1 -4.474744e-11 4.474744e-11 -1 1639.1265 1781.085)" class="st18" width="10" height="10"/>
	
		<rect x="774.6" y="875.5" transform="matrix(-1 -4.492907e-11 4.492907e-11 -1 1559.1265 1761.085)" class="st18" width="10" height="10"/>
	
		<rect x="764.6" y="885.5" transform="matrix(-1 -4.492907e-11 4.492907e-11 -1 1539.1265 1781.085)" class="st18" width="10" height="10"/>
	
		<rect x="794.6" y="895.5" transform="matrix(-1 -4.474744e-11 4.474744e-11 -1 1599.1265 1801.085)" class="st18" width="10" height="10"/>
	
		<rect x="824.6" y="895.5" transform="matrix(-1 -4.492907e-11 4.492907e-11 -1 1659.1265 1801.085)" class="st18" width="10" height="10"/>
	
		<rect x="804.6" y="905.5" transform="matrix(-1 -4.511115e-11 4.511115e-11 -1 1619.1265 1821.085)" class="st18" width="10" height="10"/>
	
		<rect x="854.6" y="905.5" transform="matrix(-1 -4.492907e-11 4.492907e-11 -1 1729.1265 1821.085)" class="st18" width="20" height="10"/>
	
		<rect x="824.6" y="915.5" transform="matrix(-1 -4.492907e-11 4.492907e-11 -1 1669.1265 1841.085)" class="st18" width="20" height="10"/>
	
		<rect x="844.6" y="885.5" transform="matrix(-1 -4.474744e-11 4.474744e-11 -1 1699.1265 1781.085)" class="st18" width="10" height="10"/>
	
		<rect x="894.6" y="875.5" transform="matrix(-1 -4.474744e-11 4.474744e-11 -1 1799.1265 1761.085)" class="st18" width="10" height="10"/>
	
		<rect x="884.6" y="875.5" transform="matrix(-1 -4.492907e-11 4.492907e-11 -1 1779.1265 1761.085)" class="st18" width="10" height="10"/>
	
		<rect x="874.6" y="885.5" transform="matrix(-1 -4.492907e-11 4.492907e-11 -1 1759.1265 1781.085)" class="st18" width="10" height="10"/>
	
		<rect x="854.6" y="885.5" transform="matrix(-1 -4.511115e-11 4.511115e-11 -1 1719.1265 1781.085)" class="st18" width="10" height="10"/>
	
		<rect x="784.6" y="885.5" transform="matrix(-1 -4.492907e-11 4.492907e-11 -1 1579.1265 1781.085)" class="st18" width="10" height="10"/>
	
		<rect x="754.6" y="875.5" transform="matrix(-1 -4.492907e-11 4.492907e-11 -1 1519.1265 1761.085)" class="st18" width="10" height="10"/>
</g>
<rect x="624.6" y="765.5" class="st18" width="10" height="20"/>
<rect x="614.6" y="745.5" class="st18" width="10" height="20"/>
<rect x="804.6" y="785.5" transform="matrix(-1 -4.511115e-11 4.511115e-11 -1 1619.1265 1601.085)" class="st18" width="10" height="30"/>
<rect x="814.6" y="775.5" transform="matrix(-1 -4.474744e-11 4.474744e-11 -1 1639.1265 1561.085)" class="st18" width="10" height="10"/>
<rect x="824.6" y="755.5" transform="matrix(-1 -4.492907e-11 4.492907e-11 -1 1659.1265 1531.085)" class="st18" width="10" height="20"/>
<rect x="774.6" y="785.5" transform="matrix(-1 -4.492907e-11 4.492907e-11 -1 1559.1265 1591.085)" class="st18" width="10" height="20"/>
<rect x="784.6" y="765.5" transform="matrix(-1 -4.492907e-11 4.492907e-11 -1 1579.1265 1551.085)" class="st18" width="10" height="20"/>
<rect x="794.6" y="745.5" transform="matrix(-1 -4.474744e-11 4.474744e-11 -1 1599.1265 1511.085)" class="st18" width="10" height="20"/>
<rect x="464.6" y="775.5" class="st2" width="10" height="10"/>
<polygon class="st2" points="534.6,645.5 534.6,655.5 524.6,655.5 524.6,665.5 514.6,665.5 514.6,685.5 504.6,685.5 504.6,705.5 
	494.6,705.5 494.6,725.5 484.6,725.5 484.6,745.5 474.6,745.5 474.6,755.5 474.6,765.5 464.6,765.5 464.6,785.5 474.6,785.5 
	474.6,795.5 484.6,795.5 484.6,805.5 494.6,805.5 494.6,795.5 494.6,775.5 504.6,775.5 504.6,745.5 514.6,745.5 514.6,715.5 
	524.6,715.5 524.6,705.5 534.6,705.5 534.6,685.5 544.6,685.5 544.6,645.5 "/>
<g>
	<rect x="444.6" y="855.5" class="st2" width="40" height="10"/>
	<polygon class="st2" points="434.6,835.5 434.6,815.5 424.6,815.5 424.6,795.5 404.6,795.5 404.6,775.5 394.6,775.5 394.6,765.5 
		384.6,765.5 384.6,745.5 374.6,745.5 374.6,735.5 364.6,735.5 364.6,755.5 374.6,755.5 374.6,775.5 384.6,775.5 384.6,785.5 
		394.6,785.5 394.6,805.5 404.6,805.5 404.6,815.5 404.6,825.5 414.6,825.5 414.6,835.5 424.6,835.5 424.6,855.5 444.6,855.5 
		444.6,835.5 	"/>
</g>
<polygon class="st2" points="894.6,645.5 894.6,655.5 904.6,655.5 904.6,665.5 914.6,665.5 914.6,685.5 924.6,685.5 924.6,705.5 
	934.6,705.5 934.6,725.5 944.6,725.5 944.6,745.5 954.6,745.5 954.6,755.5 954.6,765.5 964.6,765.5 964.6,785.5 954.6,785.5 
	954.6,795.5 944.6,795.5 944.6,805.5 934.6,805.5 934.6,795.5 934.6,775.5 924.6,775.5 924.6,745.5 914.6,745.5 914.6,715.5 
	904.6,715.5 904.6,705.5 894.6,705.5 894.6,685.5 884.6,685.5 884.6,645.5 "/>
<g>
	<rect x="944.6" y="855.5" class="st2" width="40" height="10"/>
	<polygon class="st2" points="994.6,835.5 994.6,815.5 1004.6,815.5 1004.6,795.5 1024.6,795.5 1024.6,775.5 1034.6,775.5 
		1034.6,765.5 1044.6,765.5 1044.6,745.5 1054.6,745.5 1054.6,735.5 1064.6,735.5 1064.6,755.5 1054.6,755.5 1054.6,775.5 
		1044.6,775.5 1044.6,785.5 1034.6,785.5 1034.6,805.5 1024.6,805.5 1024.6,815.5 1024.6,825.5 1014.6,825.5 1014.6,835.5 
		1004.6,835.5 1004.6,855.5 984.6,855.5 984.6,835.5 	"/>
</g>
<rect x="724.6" y="425.5" class="st30" width="10" height="30"/>
<rect x="734.6" y="455.5" class="st30" width="10" height="30"/>
<rect x="734.6" y="485.5" class="st30" width="10" height="30"/>
<rect x="734.6" y="495.5" class="st30" width="10" height="30"/>
<g>
	<path d="M1024.6,855.5v10h20v10h10v10v10h10v20h10v30h-10v10v10h-20v10h-30v10h-40v10h-30v10h-30v10h-30v10h-30v10h-20v10h-20v-30
		h-10v-20h-10v-10h-80h-80v10h-10v20h-10v30h-20v-10h-20v-10h-30v-10h-30v-10h-30v-10h-30v-10h-40v-10h-30v-10h-20v-10v-10h-10v-30
		h10v-20h10v-10v-10h10v-10h20v-10h20v10h60v10h30v10h170v-10h30h30v10h170v-10h30v-10h60v-10H1024.6 M1034.6,845.5h-10h-20h-10v10
		h-50h-10v10h-20h-10v10h-150v-10h-10h-30h-30h-10v10h-150v-10h-10h-20v-10h-10h-50v-10h-10h-20h-10v10h-10h-10v10h-10v10v10h-10v10
		v10h-10v10v30v10h10v10v10h10h10v10h10h20v10h10h30v10h10h20v10h10h20v10h10h20v10h10h20v10h10h10v10h10h20h10v-10v-20h10v-10v-10
		h10v-10h70h70v10h10v10v10h10v20v10h10h20h10v-10h10h10v-10h20h10v-10h20h10v-10h20h10v-10h20h10v-10h30h10v-10h20h10v-10h10h10
		v-10v-10h10v-10v-30v-10h-10v-10v-10h-10v-10v-10h-10v-10h-10h-10V845.5L1034.6,845.5z"/>
</g>
<g>
	<polygon class="st8" points="599.6,1220.5 599.6,1190.5 589.6,1190.5 589.6,1140.5 579.6,1140.5 579.6,1090.5 569.6,1090.5 
		569.6,1050.5 559.6,1050.5 559.6,1020.5 569.6,1020.5 569.6,1010.5 609.6,1010.5 609.6,1000.5 639.6,1000.5 639.6,990.5 
		669.6,990.5 669.6,980.5 709.6,980.5 709.6,970.5 739.6,970.5 739.6,960.5 779.6,960.5 779.6,950.5 799.6,950.5 799.6,960.5 
		809.6,960.5 809.6,990.5 819.6,990.5 819.6,1020.5 829.6,1020.5 829.6,1050.5 809.6,1050.5 809.6,1060.5 779.6,1060.5 
		779.6,1070.5 749.6,1070.5 749.6,1080.5 719.6,1080.5 719.6,1090.5 689.6,1090.5 689.6,1100.5 669.6,1100.5 669.6,1210.5 
		639.6,1210.5 639.6,1220.5 	"/>
	<path d="M794.6,955.5v10h10v20v10h10v30h10v20h-20v10h-30v10h-30v10h-20h-10v10h-30v10h-20v110h-20h-10v10h-20h-10v-30h-10v-50h-10
		v-50h-10v-40h-10v-20h10v-10h40v-10h30v-10h30v-10h40v-10h30v-10h40v-10H794.6 M804.6,945.5h-10h-10h-10v10h-30h-10v10h-20h-10v10
		h-30h-10v10h-20h-10v10h-20h-10v10h-30h-10v10h-10v10v20v10h10v30v10h10v40v10h10v40v10h10v20v10h10h10h20h10v-10h20h10v-10v-100
		h10h10v-10h20h10v-10h20h10v-10h20h10v-10h20h10v-10h10h10v-10v-20v-10h-10v-20v-10h-10v-20v-10h-10V945.5L804.6,945.5z"/>
</g>
</svg>
