<svg xmlns="http://www.w3.org/2000/svg" width="1042.01" height="189.59" viewBox="0 0 1042.01 189.59">
  <defs>
    <style>
      .cls-1 {
        fill: #fff;
      }
    </style>
  </defs>
  <title>insertcoin</title>
  <g id="Layer_2" data-name="Layer 2">
    <g id="Layer_1-2" data-name="Layer 1">
      <g>
        <path d="M12,189.59V12H47.52V189.59Z"/>
        <path d="M136.31,29.76h17.76V189.59H118.55V47.52H100.79V189.59H65.28V12h71Z"/>
        <path d="M242.86,29.76h17.76V65.28H225.11V47.52H207.35V83h35.51v17.75h17.76v71H242.86v17.76H189.59V171.83H171.83V136.31h35.52v17.76h17.76V118.55H189.59V100.79H171.83v-71h17.76V12h53.27Z"/>
        <path d="M296.14,171.83H278.38V29.76h17.76V12h71V47.52H313.9V83h53.28v35.51H313.9v35.52h53.28v35.52h-71Z"/>
        <path d="M384.94,189.59V12h71V29.76h17.76v88.79H456v17.76h17.76v53.28H438.21V136.31H420.45v53.28Zm35.51-88.8h17.76V47.52H420.45Z"/>
        <path d="M491.49,47.52V12H598V47.52H562.52V189.59H527V47.52Z"/>
        <path d="M704.59,171.83H686.83V29.76h17.76V12h53.28V29.76h17.76V83H740.11V47.52H722.35V154.07h17.76V118.55h35.52v53.28H757.87v17.76H704.59Z"/>
        <path d="M811.15,171.83H793.39V29.76h17.76V12h53.27V29.76h17.76V171.83H864.42v17.76H811.15Zm17.75-17.76h17.76V47.52H828.9Z"/>
        <path d="M899.94,189.59V12h35.52V189.59Z"/>
        <path d="M1024.25,29.76H1042V189.59h-35.52V47.52H988.73V189.59H953.22V12h71Z"/>
      </g>
      <g>
        <path class="cls-1" d="M0,177.59V0H35.52V177.59Z"/>
        <path class="cls-1" d="M124.31,17.76h17.76V177.59H106.55V35.52H88.79V177.59H53.28V0h71Z"/>
        <path class="cls-1" d="M230.86,17.76h17.76V53.28H213.11V35.52H195.35V71h35.51V88.79h17.76v71H230.86v17.76H177.59V159.83H159.83V124.31h35.52v17.76h17.76V106.55H177.59V88.79H159.83v-71h17.76V0h53.27Z"/>
        <path class="cls-1" d="M284.14,159.83H266.38V17.76h17.76V0h71V35.52H301.9V71h53.28v35.51H301.9v35.52h53.28v35.52h-71Z"/>
        <path class="cls-1" d="M372.94,177.59V0h71V17.76h17.76v88.79H444v17.76h17.76v53.28H426.21V124.31H408.45v53.28Zm35.51-88.8h17.76V35.52H408.45Z"/>
        <path class="cls-1" d="M479.49,35.52V0H586V35.52H550.52V177.59H515V35.52Z"/>
        <path class="cls-1" d="M692.59,159.83H674.83V17.76h17.76V0h53.28V17.76h17.76V71H728.11V35.52H710.35V142.07h17.76V106.55h35.52v53.28H745.87v17.76H692.59Z"/>
        <path class="cls-1" d="M799.15,159.83H781.39V17.76h17.76V0h53.27V17.76h17.76V159.83H852.42v17.76H799.15Zm17.75-17.76h17.76V35.52H816.9Z"/>
        <path class="cls-1" d="M887.94,177.59V0h35.52V177.59Z"/>
        <path class="cls-1" d="M1012.25,17.76H1030V177.59H994.49V35.52H976.73V177.59H941.22V0h71Z"/>
      </g>
    </g>
  </g>
</svg>
