<?xml version="1.0" encoding="utf-8"?>
<!-- Generator: Adobe Illustrator 23.0.2, SVG Export Plug-In . SVG Version: 6.00 Build 0)  -->
<svg version="1.1" id="Layer_1" xmlns="http://www.w3.org/2000/svg" xmlns:xlink="http://www.w3.org/1999/xlink" x="0px" y="0px"
	 viewBox="0 0 1545.3 1606" style="enable-background:new 0 0 1545.3 1606;" xml:space="preserve">
<style type="text/css">
	.st0{fill:#FFFFFF;stroke:#49A2E2;stroke-width:5.43;stroke-miterlimit:10;}
	.st1{fill:#49A2E2;}
	.st2{fill:#0E2C47;stroke:#29ABE2;stroke-width:16;stroke-miterlimit:10;}
	.st3{fill:#29ABE2;}
	.st4{font-family:'MyriadPro-Regular';}
	.st5{font-size:135.0656px;}
	.st6{fill:#44210E;stroke:#E0742B;stroke-width:16;stroke-miterlimit:10;}
	.st7{fill:#E0742B;}
	.st8{fill:#420E42;stroke:#DD2C9E;stroke-width:16;stroke-miterlimit:10;}
	.st9{fill:#E283C5;}
	.st10{font-size:120.3978px;}
	.st11{letter-spacing:-4;}
	.st12{fill:#FDB300;}
	.st13{fill:#EB6C00;}
	.st14{fill:#FDAD00;}
	.st15{fill:#FDD231;}
	.st16{fill:#FEEEB7;}
	.st17{fill:#DC395F;}
	.st18{fill:#FFFFFF;}
	.st19{fill:#265AA6;}
	.st20{fill:#449DD7;}
	.st21{fill:#335CA4;}
	.st22{clip-path:url(#SVGID_2_);}
	.st23{fill:#F0F0EF;}
	.st24{fill:#DF4114;}
	.st25{fill:#EA5C1B;}
	.st26{fill:#F1F1F2;}
	.st27{fill:none;stroke:#C1FF00;stroke-width:8;stroke-miterlimit:10;}
</style>
<title>magicapps</title>
<g>
	<g id="Layer_1-2_1_">
		
			<rect x="962.5" y="1328.5" transform="matrix(0.9006 -0.4347 0.4347 0.9006 -514.0759 601.8854)" class="st0" width="192.8" height="192.8"/>
		<g>
			<path class="st1" d="M1119.3,1420.1l-14.2-29.4c-0.6-1.3-1.2-2.5-1.8-3.6c-0.6-1-1.3-1.9-2.1-2.7c-0.8-0.7-1.7-1-2.7-1.1
				c-1.3-0.1-2.6,0.2-3.7,0.9c-2.3,1.1-3.6,2.6-3.8,4.4c0,2.7,0.7,5.3,2,7.7l14.3,29.7l-4.6,2.2l-14.2-29.4
				c-0.4-0.8-0.7-1.7-1.1-2.7c-0.4-1-0.8-2-1.1-3.1c-0.3-1.1-0.4-2.3-0.5-3.3c-0.1-1.2,0.2-2.4,0.7-3.5c0.5-1.2,1.3-2.3,2.2-3.2
				c1.2-1.2,2.7-2.2,4.3-2.9c2.1-1.2,4.3-1.7,6.7-1.7c1.7,0.1,3.3,0.6,4.6,1.6c1.3,1,2.4,2.3,3.2,3.8c0.8,1.5,1.7,3,2.5,4.6
				l14.1,29.3l-4.8,2.3L1119.3,1420.1z"/>
			<path class="st1" d="M1098.4,1430.2l-5.2,2.5l-12.9-12.3l1.4,17.9l-4.7,2.3l-1-23.3l-20.3-18.1l5.4-2.6l15.1,14.1l-1.7-20.7
				l4.7-2.3l1.4,26.4L1098.4,1430.2z"/>
			<path class="st1" d="M1071.8,1443l-8.1,3.9c-1.9,1-3.9,1.6-6,2.1c-1.8,0.3-3.7,0-5.3-0.8c-0.6-0.3-1.2-0.6-1.6-0.9
				c-0.7-0.5-1.2-0.9-1.8-1.5c-0.7-0.6-1.4-1.4-1.8-2.2c-0.8-1-1.4-2.1-1.8-3.2c-0.8-1.6-1.3-3.3-1.7-5c-0.3-1.6-0.3-3.3,0.1-4.9
				c0.4-1.6,1.2-3.2,2.2-4.4c1.4-1.5,3.1-2.7,5-3.6l4.1-2l-8.2-17.1l4.8-2.3L1071.8,1443z M1057,1424.5l-4,1.9
				c-0.9,0.4-1.8,1-2.6,1.6c-0.7,0.6-1.2,1.4-1.6,2.2c-0.4,1-0.5,2.1-0.3,3.2c0.3,1.5,0.8,3,1.5,4.4c0.7,1.7,1.8,3.2,3.2,4.5
				c0.9,0.8,2,1.3,3.2,1.6c0.9,0.2,2,0.1,2.9-0.2c0.7-0.3,1.4-0.6,2.1-0.9l3.7-1.8l-8-16.6L1057,1424.5z"/>
			<path class="st1" d="M1043,1456.9l-2.6-5.4l4.7-2.3l2.6,5.4L1043,1456.9z M1042.2,1443.9l-4.3,2.1l-15-31.1l4.3-2.1
				L1042.2,1443.9z"/>
			<path class="st1" d="M1033,1448.4l-4,1.9l-2.3-4.7c0.1,0.6,0.1,1.2,0.1,1.8c0,0.8-0.1,1.6-0.4,2.4c-0.3,0.9-0.7,1.7-1.2,2.5
				c-0.7,0.9-1.6,1.6-2.7,2.1c-1.2,0.6-2.5,0.9-3.9,0.8c-1.2-0.1-2.3-0.5-3.3-1.3c-1.1-0.9-2.1-2.1-2.8-3.4c-0.8-1.5-1.6-3.2-2.5-5
				l-9.5-19.7l4.2-2l9.5,19.6c0.5,1,1,2,1.5,2.9c0.4,0.9,1,1.7,1.7,2.4c0.6,0.6,1.3,1,2.1,1.4c0.8,0.3,1.8,0.1,2.5-0.4
				c1-0.4,1.8-1.3,2.2-2.4c0.3-1,0.4-2.1,0.3-3.2c-0.2-1.2-0.5-2.4-0.9-3.6c-0.5-1.2-1-2.2-1.4-3.1l-8.6-17.9l4.3-2.1l15,31.1
				L1033,1448.4L1033,1448.4z"/>
		</g>
	</g>
</g>
<g>
	
		<rect x="1003.4" y="92.9" transform="matrix(0.4786 -0.878 0.878 0.4786 409.3007 1056.4833)" class="st2" width="181.5" height="181.5"/>
	<text transform="matrix(0.878 0.4786 -0.4786 0.878 1021.5276 189.1353)" class="st3 st4 st5">Ps</text>
</g>
<g>
	
		<rect x="1312" y="454.4" transform="matrix(0.936 -0.3519 0.3519 0.936 -102.1206 528.4636)" class="st6" width="181.5" height="181.5"/>
	<text transform="matrix(0.3519 0.936 -0.936 0.3519 1345.5531 505.8126)" class="st7 st4 st5">Ai</text>
</g>
<g>
	
		<rect x="1296.1" y="962.2" transform="matrix(0.4396 -0.8982 0.8982 0.4396 -168.5672 1835.6659)" class="st8" width="181.5" height="181.5"/>
	<text transform="matrix(-0.4396 0.8982 -0.8982 -0.4396 1384.043 978.3887)" class="st9 st4 st10 st11">X</text>
	<text transform="matrix(-0.4396 0.8982 -0.8982 -0.4396 1356.0941 1035.4877)" class="st9 st4 st10">d</text>
</g>
<g>
	<polygon class="st12" points="454.6,1514.9 506.4,1538.6 574.2,1510.3 547.3,1358.3 401.1,1407.8 408.8,1480.9 	"/>
	<polygon class="st13" points="574.2,1510.3 547.3,1358.3 539.1,1489.5 	"/>
	<polygon class="st13" points="436.1,1428.5 547.3,1358.3 401.1,1407.8 	"/>
	<polygon class="st14" points="539.1,1489.5 547.3,1358.3 436.1,1428.5 	"/>
	<polygon class="st15" points="506.4,1538.6 539.1,1489.5 454.6,1514.9 	"/>
	<polygon class="st15" points="436.1,1428.5 408.8,1480.9 454.6,1514.9 	"/>
	<polygon class="st14" points="436.1,1428.5 401.1,1407.8 408.8,1480.9 	"/>
	<polygon class="st14" points="574.2,1510.3 539.1,1489.5 506.4,1538.6 	"/>
	<polygon class="st16" points="454.6,1514.9 539.1,1489.5 436.1,1428.5 	"/>
</g>
<g>
	<path class="st17" d="M18.9,1030.3l59.9,151.3c3.7,9.3,14.2,13.8,23.4,10.1l151.3-59.9c9.3-3.7,13.8-14.2,10.1-23.4l-59.9-151.3
		c-3.7-9.3-14.2-13.8-23.4-10.1L29,1006.9C19.8,1010.6,15.2,1021.1,18.9,1030.3"/>
	<path class="st18" d="M119.1,1113.6c-2.4-6.1-9.3-9.4-15.6-6.9c-6.3,2.5-9.1,9.5-6.6,15.7c2.5,6.2,9.3,9.4,15.6,6.9
		S121.5,1119.7,119.1,1113.6 M188,1113.4c3.1-0.5,6.2-1.3,8.7-2.3c9.8-3.9,14.2-11.8,9.7-23c-3.7-9.4-12.3-14.8-23.4-16.7l14.7-1.9
		l-7.4-18.6l-46.8,6.3c-11.9,1.7-19.5-1.3-22.6-9.2c-2.4-6.1-0.1-11.4,6.2-14c1.8-0.7,3.9-1.4,6.3-1.6l21.8-2.3
		c3.2-0.3,6.1-1.1,8.8-2.1c9.3-3.7,13.9-11.8,9.4-23.3c-3.9-9.8-13.3-15.1-30.1-13.4l0,8.4c11.6-0.4,14.7,2.1,15.7,4.5
		c1,2.5-0.2,4.5-3.5,5.8c-1.5,0.6-3.3,0.9-5.4,1.2l-21.2,2.2c-5,0.4-9.2,1.5-12.9,3c-14.2,5.6-18.3,17.2-14.1,27.7
		c3.9,9.8,16.7,16.2,27.9,17.6l-18.1,2.9l11.3,28.4l16.3-1.8l-5.3-13.3l36-4.8c16.8,0.8,21.7,12.4,22,14.1c0.4,2.6,0.1,4.6-3,5.8
		c-1.8,0.7-4.6,1.4-8.1,1.8l-54.3,7.1l12.5,31.6l16.3-1.8l-5.2-13.2L188,1113.4"/>
</g>
<polyline class="st19" points="598.6,223.1 545.1,270.6 474.8,284.8 383.3,137.2 535.8,61.2 598.6,223.1 "/>
<polyline class="st20" points="467.1,111.7 539.8,257.3 540,257.3 583.3,218.8 528.9,80.9 467.1,111.7 "/>
<polygon class="st18" points="413.1,94 408.5,84.8 421.9,78.1 416.9,68 393.4,79.7 407.6,108.2 431.1,96.4 426.5,87.3 "/>
<path class="st18" d="M446.1,66l9.4-4.7l-5-10.1L427,63c0,0,2.5,5.1,5,10.1c4.7,1.6,7.1,2.3,13.9,4.5c-2.7,1.3-9.4,4.7-9.4,4.7
	l4.6,9.2l23.6-11.7l-4.6-9.2L446.1,66L446.1,66z"/>
<path class="st18" d="M479.4,49.4l9.4-4.7l-5-10.1l-23.6,11.7c0,0,2.5,5.1,5,10.1c4.7,1.6,7.1,2.3,13.9,4.5
	c-2.7,1.3-9.4,4.7-9.4,4.7l4.6,9.2L498,63.1l-4.6-9.2L479.4,49.4L479.4,49.4z"/>
<polyline class="st21" points="503.4,187.3 460.5,208.5 450,191 460.5,208.5 460.6,208.5 460.6,208.5 503.4,187.3 503.4,187.3 "/>
<g>
	<g>
		<defs>
			<polyline id="SVGID_1_" points="460.5,208.5 450,191 450,191 460.6,208.5 460.5,208.5 			"/>
		</defs>
		<clipPath id="SVGID_2_">
			<use xlink:href="#SVGID_1_"  style="overflow:visible;"/>
		</clipPath>
		<g class="st22">
			
				<image style="overflow:visible;enable-background:new    ;" width="13" height="89" xlink:href="C60894875AE0188D.jpg"  transform="matrix(0.2146 -0.107 0.1067 0.2139 449.0371 190.8682)">
			</image>
		</g>
	</g>
</g>
<path class="st21" d="M528.8,238.2l-44.8,8l-17.1-27.9l0.1,0l17.1,27.9L528.8,238.2L528.8,238.2 M518.5,217.9L518.5,217.9l0.1-0.1
	l0,0L518.5,217.9"/>
<g>
	<g>
		<g>
			<g>
				<path class="st23" d="M538.1,147l-11.3,5.6l-14.5,7.2l-4.1,2l0,0l0,0l-13,5.7l34.8-41l-7.4-19.6l-4.4,2.2v0l0,0l-0.1,0l0,0
					l-0.7,0.3l0,0l0,0l-4.1,2l-1.1,0.6l-1.9,0.9l-3.7,1.9l-5.2,2.6l-1.9,0.9l-1.5,0.7l-1.9,0.9l-4.5,2.2l-1.5,0.7l-4.9,2.4l-4.4,2.2
					l-0.1,0.1h0l-0.8,0.4l0,0l0,0l0,0h0l-1.1,0.5h0l-3,1.5l-0.6,0.3l-0.1,0l0,0l-0.4,0.2l0,0l0,0l-0.3,0.2l0,0l-1.1,0.5l-0.5,0.2
					l0,0l-5,2.5l-0.1,0.1l0,0l0,0l-0.1,0.1l0.1-0.1l-0.4,0.2l0,0l-0.2,0.1l-0.5,0.3l-1.8,0.9l-0.2,0.1l-2.1,1.1l-0.3,0.1l-6.8,3.4
					l-0.1,0l0,0l-2.9,1.5l0,0l-0.3,0.1l-2.4,1.2l-1.9,0.9l0,0l-0.1,0l-0.1,0.1l-0.2,0.1l0,0l-5.5,2.7l-0.4,0.2l-0.4,0.2l0,0l0,0l0,0
					l-0.4,0.2l0,0l-5.9,2.9l-0.9,0.4l-0.2,0.1l-0.2,0.1l-0.2,0.1l-6.5,3.2l11.6,17.5l3.3-1.7l0.3-0.2l1.1-0.6l1.4-0.7l1.8-0.9
					l1.3-0.6l2.3-1.1l1.5-0.7l1.9-0.9l1.7-0.8l1.5-0.7l0.2-0.1v0l0.1,0l1.3-0.6l4.2-2.1l1.7-0.8l0.5-0.2l0.2-0.1l0,0l6.9-3.4
					l0.2-0.1l1.8-0.9l11-5.5l0.1,0l2.5-1.3l-2,2.4L449.8,191l0.1,0l10.6,17.5l6.1-3l1.7-0.8l0.1,0l23.4-11.6l0,0l2.8-1.4l0.9-0.5
					l0.3-0.2l0.6-0.3l0.5-0.2l2.4-1.2l1.1-0.5l3-1.4l0.8-0.4l2.7-1.4l1.1-0.5l0.3-0.1l0.4-0.2l0,0l8.6-4.3l0.1,0l9-4.4l10.7,25.1
					l-1.6,1.4l-0.2,0.2l-0.7,0.6l-3.9,3.5l-0.1,0.1l-0.9,0.8l-3,2.7l-3.5,3.2l-0.1,0.1l-0.1,0l-1.6,1.5l-2.1,1.9l-0.7,0.7l-0.1,0
					l-0.1,0.1l-0.1,0l-13.6,3l-0.2,0l0,0l-9.5,2.1l-8.8-14.6l8.8,14.5l0.2-0.1l0.8-0.2l0.8-0.2l3.5-0.8l1.2-0.3l2.2-0.5l1.3-0.3
					l2.2-0.5l0.1,0l0,0l2.7-0.6l2.7-0.6l1.5-0.3l1.6-0.4l0.8-0.2l1.5-0.3l0.3-0.1l-2.4,0.5l-1.4,0.3l-1.3,0.3l-1.4,0.3l-2,0.4
					L509,220l-4.2,0.9l0,0l-7.8,1.7l-0.3,0.1l-0.1,0l-1.7,0.4l-8.8-14.5l-1,0.5l0,0l-0.1,0h0l-1.7,0.8l-2.3,1.2l-1.1,0.5l0,0l0,0
					l0,0l0,0l0,0l0,0l-1.1,0.5l-0.5,0.2l-0.1,0l-0.1,0l-1.4,0.7l-0.1,0l-0.1,0.1l-0.6,0.3l-1.4,0.7v0l-0.3,0.1l-1.1,0.6l-0.5,0.2
					l-2.9,1.5l-0.4,0.2l0,0l-0.2,0.1l0,0l-2.2,1.1l-0.1,0.1l-0.2,0.1l0,0l14.1,23.2l2.9,4.8l0.3-0.1l1.2-0.2l3.1-0.6l1.6-0.3
					l2.3-0.4l1.6-0.3l1.5-0.3l0.4-0.1l0,0l0.1,0l1.4-0.2l1.7-0.3l0.4-0.1l2.3-0.4h0l2.9-0.5l2.3-0.4l0.5-0.1l6.6-1.2l0.1,0l0.2,0
					l0.9-0.2v0l0,0l8.8-1.6l1.5-0.3v0l2.9-0.5l0.1,0l0,0h0l0.3-0.2l3.2-3l0.5-0.4l0.4-0.4l1.8-1.6l1.9-1.7l3.8-3.6l0.3-0.3l0.3-0.3
					l2.5-2.4l0.4-0.4l1.2-1.1l1.4-1.3l1.2-1.1l1.4-1.3l2-1.9l1.4-1.3l0.7-0.7l0.4-0.4l1.7-1.6l0.8-0.8l1.5-1.4l0.8-0.8l0.6-0.5
					l2.4-2.3L538.1,147z M494.1,168.9L494.1,168.9L494.1,168.9L494.1,168.9z"/>
			</g>
		</g>
	</g>
</g>
<g>
	<g>
		<g>
			<polygon class="st24" points="196.8,611.1 43.3,534 131.5,391.5 268.9,494.5 249,562.8 			"/>
		</g>
	</g>
	<polygon class="st25" points="236.6,555.1 252.8,499.9 135.4,411.9 99.3,470.1 	"/>
	<polygon class="st26" points="153.2,503.5 138.6,527.1 119.4,517.4 135,492.2 117.2,481.2 117.2,481.2 89.5,525.9 94.5,528.4 
		146.4,554.4 171.1,514.6 	"/>
	<polygon class="st26" points="199.6,532.2 199.6,532.3 181.9,548.8 166.9,541.3 161,550.9 155.8,559.2 185.4,574 218.2,543.8 
		218.1,543.7 	"/>
	<polygon class="st18" points="12,496.2 17.6,487.2 26.6,492.8 31.7,484.5 22.7,478.9 28.4,469.8 55.5,486.6 49.9,495.7 40.8,490.1 
		35.6,498.4 44.7,504 39.1,513 12,496.2 	"/>
	<polygon class="st18" points="44.7,463.5 39.8,471.5 30.8,465.9 46.3,440.8 55.3,446.4 50.4,454.4 68.5,465.6 62.9,474.7 
		44.8,463.5 	"/>
	<polygon class="st18" points="48.7,436.9 54.6,427.4 67.8,427.5 61.8,415.8 67.6,406.4 94.8,423.1 89.2,432.2 75.7,423.9 81.5,436 
		81.4,436.2 67.9,436.5 81.4,444.8 75.9,453.7 	"/>
	<polygon class="st18" points="70.4,401.8 76,392.8 94.2,404 102.1,391.3 111.1,396.8 97.6,418.6 	"/>
	<polygon class="st18" points="153.2,503.5 171.1,514.6 184.6,492.6 206.5,509 199.6,532.2 218.1,543.7 230.7,500.9 227.8,498.7 
		183.4,465.5 178.9,462.1 175.9,466.9 	"/>
	<polygon class="st18" points="117.2,481.2 128.3,488 134.9,492.2 135,492.2 161.6,449.2 161.6,449.2 161.6,449.2 157.9,446.3 
		149.3,439.9 144.8,436.5 	"/>
</g>
<g>
	<polygon class="st27" points="772.7,535.7 977.2,309.1 961.6,614 1266.5,598.5 1039.9,803 1266.5,1007.5 961.6,992 977.2,1296.9 
		772.7,1070.3 568,1296.9 583.7,992 278.8,1007.5 505.3,803 278.8,598.5 583.7,614 568,309.1 	"/>
	<circle class="st27" cx="772.7" cy="803" r="529.9"/>
	<circle class="st27" cx="772.7" cy="803" r="365.8"/>
	<g>
		<polygon class="st27" points="769.5,915.4 796.6,831.9 884.3,831.9 813.4,780.4 840.5,696.9 769.5,748.5 698.5,696.9 725.6,780.4 
			654.6,831.9 742.4,831.9 		"/>
		<polyline class="st27" points="881.2,829.6 884.3,831.9 798.3,831.9 		"/>
		<polyline class="st27" points="798.3,831.9 796.6,831.9 770.1,913.3 		"/>
		<polyline class="st27" points="796.4,832.8 813.4,780.4 881.2,829.6 		"/>
		<polyline class="st27" points="840.2,697.8 813.4,780.4 770.5,747.8 840.5,696.9 840.2,697.8 		"/>
		<polyline class="st27" points="770.1,913.3 769.5,915.4 742.4,831.9 797.5,831.9 		"/>
		<polyline class="st27" points="702.9,700.1 769.5,748.5 725.4,780.4 698.5,696.9 702.9,700.1 		"/>
		<polyline class="st27" points="657.6,829.8 725.6,780.4 742.3,831.9 654.6,831.9 657.6,829.8 		"/>
	</g>
	<circle class="st27" cx="769.5" cy="806.1" r="101"/>
	<line class="st27" x1="501.9" y1="800.4" x2="793.5" y2="1091"/>
	<line class="st27" x1="1044.4" y1="799.3" x2="751.7" y2="1093"/>
	<line class="st27" x1="770.5" y1="530.7" x2="1048.5" y2="809.8"/>
	<line class="st27" x1="499.8" y1="807.7" x2="781" y2="524.4"/>
	<line class="st27" x1="581.9" y1="610.6" x2="583.4" y2="994.8"/>
	<line class="st27" x1="959.7" y1="612.2" x2="961.2" y2="993.2"/>
	<line class="st27" x1="580.3" y1="613.8" x2="961.2" y2="613.8"/>
	<line class="st27" x1="585" y1="990.1" x2="962.8" y2="991.7"/>
</g>
</svg>
