<?xml version="1.0" encoding="utf-8"?>
<!-- Generator: Adobe Illustrator 23.0.3, SVG Export Plug-In . SVG Version: 6.00 Build 0)  -->
<svg version="1.1" id="Layer_1" xmlns="http://www.w3.org/2000/svg" xmlns:xlink="http://www.w3.org/1999/xlink" x="0px" y="0px"
	 viewBox="0 0 1545.3 1606" style="enable-background:new 0 0 1545.3 1606;" xml:space="preserve">
<style type="text/css">
	.st0{fill:#C1FF00;}
	.st1{fill:#FFFFFF;stroke:#49A2E2;stroke-width:5.43;stroke-miterlimit:10;}
	.st2{fill:#49A2E2;}
	.st3{fill:#0E2C47;stroke:#29ABE2;stroke-width:16;stroke-miterlimit:10;}
	.st4{enable-background:new    ;}
	.st5{fill:#29ABE2;}
	.st6{fill:#44210E;stroke:#E0742B;stroke-width:16;stroke-miterlimit:10;}
	.st7{fill:#E0742B;}
	.st8{fill:#420E42;stroke:#DD2C9E;stroke-width:16;stroke-miterlimit:10;}
	.st9{fill:#E283C5;}
	.st10{fill:#FDB300;}
	.st11{fill:#EB6C00;}
	.st12{fill:#FDAD00;}
	.st13{fill:#FDD231;}
	.st14{fill:#FEEEB7;}
	.st15{fill:#DC395F;}
	.st16{fill:#FFFFFF;}
	.st17{fill:#265AA6;}
	.st18{fill:#449DD7;}
	.st19{fill:#335CA4;}
	.st20{clip-path:url(#SVGID_2_);}
	.st21{fill:#F0F0EF;}
	.st22{fill:#DF4114;}
	.st23{fill:#EA5C1B;}
	.st24{fill:#F1F1F2;}
	.st25{fill:none;stroke:#C1FF00;stroke-width:8;stroke-miterlimit:10;}
</style>
<g>
	<g>
		<path class="st0" d="M717.9,268.4l46.2,20.4l0.3,7.3l-27.4,1.1l0.3,6.9l34.7-1.4l6.3,10l-50.8,2l-0.6-16.3c-0.1-3.3,0.8-6,2.7-8.1
			c1.9-2.1,4.5-3.2,7.9-3.3l4.6-0.2c1,0,1.4-0.5,1.4-1.4c0-0.7-0.5-1.3-1.3-1.8L718,271.4L717.9,268.4z"/>
		<path class="st0" d="M701.7,308l-0.4-2.9l-14.4,2c-2.4,0.3-4.5-0.2-6.5-1.7c-1.9-1.5-3.1-3.4-3.4-5.8c-0.3-2.4,0.2-4.6,1.7-6.5
			c1.5-1.9,3.3-3.1,5.7-3.4l11.2-1.6c2.8-0.4,5.5-1.2,8-2.5c3.4-1.8,4.9-3.9,4.6-6.2l3.7,27.1l7.7-1.1l7.3,9.3l-54.3,7.6l-1.5-10.1
			L701.7,308z M678.4,266.7c0.9-1.1,2-1.8,3.4-2c1.4-0.2,2.7,0.1,3.8,1c1.1,0.9,1.8,2,2,3.4c0.2,1.4-0.1,2.7-1,3.8
			c-0.9,1.1-2,1.8-3.4,2c-1.4,0.2-2.7-0.1-3.8-1c-1.1-0.9-1.8-2-2-3.4C677.3,269.1,677.6,267.9,678.4,266.7z M684.2,300.4
			c0.5,0.4,1.1,0.5,1.8,0.4l14.5-2.1l-0.7-4.7l-14.5,2c-0.6,0.1-1.2,0.4-1.6,0.9c-0.4,0.5-0.6,1.1-0.5,1.8
			C683.3,299.5,683.6,300,684.2,300.4z M684.7,255.5c0.9-1.1,2-1.8,3.4-2c1.4-0.2,2.7,0.1,3.8,1c1.1,0.9,1.8,2,2,3.4
			c0.2,1.4-0.1,2.7-1,3.8c-0.9,1.1-2,1.8-3.4,2c-1.4,0.2-2.7-0.1-3.8-1c-1.1-0.9-1.8-2-2-3.4C683.5,257.9,683.8,256.7,684.7,255.5z
			 M693.7,264.6c0.9-1.1,2-1.8,3.4-2c1.4-0.2,2.7,0.1,3.8,1c1.1,0.9,1.8,2,2,3.4c0.2,1.4-0.1,2.7-1,3.8c-0.9,1.1-2,1.8-3.4,2
			c-1.4,0.2-2.7-0.1-3.8-1c-1.1-0.9-1.8-2-2-3.4C692.5,267,692.8,265.7,693.7,264.6z"/>
		<path class="st0" d="M629.5,323.1l17.9-4.2c1.3-0.3,2.6-0.9,4-1.7c1.9-1.1,2.8-2.2,2.5-3.3l-0.8-3.4l-15.2,3.6l-3.8-16.6
			c0.5,2.1,2.3,3.4,5.5,4c2.5,0.5,4.9,0.5,7.3-0.1l8.8-2.1c1.4-0.3,2.7-0.1,3.9,0.6c1.2,0.7,2,1.8,2.3,3.2l2.2,9
			c0.2,0.8,0.2,1.7,0.1,2.8l12.1-2.8l8.1,8.6l-6.1,1.4c0.8,1.2,1.3,2.5,1.6,4c0.9,3.9,0.3,7.5-1.8,10.9c-2.1,3.4-5.1,5.6-9,6.5
			l-18.3,4.3c-1.4,0.3-2.7,0.1-3.9-0.6c-1.2-0.7-2-1.8-2.3-3.2l-1.2-5.1l23.3-5.5c1.2-0.3,2-0.9,2.7-1.9c0.6-1,0.8-2,0.6-3.1
			c-0.3-1.2-0.9-2-1.9-2.6c-1-0.6-2.1-0.8-3.2-0.5l-33,7.7L629.5,323.1z"/>
		<path class="st0" d="M552,347.3c0.8,1.7,2.6,2.6,5.6,2.8c3,0.2,6.2-0.5,9.6-2l6.6-2.9c1.2-0.5,2.4-1.3,3.7-2.4
			c1.7-1.4,2.3-2.6,1.8-3.6l-1.4-3.2l-14.3,6.3l-6.9-15.6c0.9,2.1,3.3,3,7.1,2.8c2.8-0.2,5.6-0.9,8.1-2c0.3-0.1,1-0.4,1.8-0.9
			c0.9-0.4,1.6-0.8,2.2-1c4.7-2.1,7.8-1.5,9.2,1.7c2.5,5.6,3.8,8.7,3.9,9.1c1.4,3.7,0.7,7.4-2,11c-2.3,3.2-5.4,5.6-9.2,7.3
			l-19.1,8.4L552,347.3z M556,310.5c0.5-1.3,1.4-2.3,2.7-2.8c1.3-0.6,2.6-0.6,3.9-0.1c1.3,0.5,2.3,1.4,2.8,2.7
			c0.6,1.3,0.6,2.6,0.1,3.9c-0.5,1.3-1.4,2.3-2.7,2.8c-1.3,0.6-2.6,0.6-3.9,0.1c-1.3-0.5-2.3-1.4-2.8-2.7
			C555.5,313.1,555.5,311.8,556,310.5z"/>
		<path class="st0" d="M505,381.9l9.7-5.5l-11.8-20.8c1.1,2,3.6,2.7,7.3,2c2.8-0.5,5.4-1.4,7.9-2.8l4-2.3c3.7-2.1,7.8-2.3,12.1-0.6
			c3.7,1.5,7,4.2,9.7,7.9l5.6-3.2l10.2,6l-49.7,28.1L505,381.9z M534.9,365c-1-1.3-2.2-2.2-3.5-3c-1.7-1-3.1-1.1-4.3-0.5l-6.9,3.9
			c0.4,0.7,0.9,1.7,1.6,3c0.8,1.3,1.3,2.3,1.7,3L534.9,365z"/>
		<path class="st0" d="M477.4,402.4l-6.8-9.8c-0.8-1.2-1.1-2.4-0.8-3.8c0.2-1.4,1-2.5,2.1-3.3l8.4-5.9c2.9-2.1,6.1-2.5,9.5-1.2
			l-4.6-6.6l11.8-1.1l8.5,12.1l4.6-3.2l10.7,5l-17.9,12.5l-9.8-14l-11.1,7.7l9.8,14l-17.8,12.4L468,409L477.4,402.4z"/>
		<path class="st0" d="M441.4,432.8l12.2-10.3l8.3,9.9c0.8,0.9,1.7,1.4,2.9,1.5c1.2,0.1,2.2-0.3,3.1-1c0.9-0.8,1.4-1.7,1.5-2.9
			c0.1-1.1-0.3-2.2-1-3.1L449.1,404l-11.4,9.6l-2-11.7l6.8-5.8l-6.8-8.1l-0.1,0c-1.8-2.2-2.6-4.7-2.4-7.5c0.2-2.8,1.4-5.1,3.6-6.9
			l31,36.8l4.8-4l11.1,4l-9.4,7.9l1.7,2c2.6,3.1,3.7,6.6,3.4,10.5c-0.3,3.9-2,7.2-5.1,9.8c-3.1,2.6-6.6,3.7-10.6,3.4
			c-4-0.3-7.3-2-9.9-5.1l-1.7-2l-4.4,3.7L441.4,432.8z"/>
		<path class="st0" d="M372.4,512.9l6.9-8.7l-18.7-14.8c1.8,1.4,4.3,1.1,7.6-0.9c2.4-1.5,4.5-3.4,6.2-5.6l2.8-3.6
			c2.7-3.4,6.3-5,11-5.1c4.1,0,8,1.2,11.9,3.6l4-5.1l11.7,1.7l-35.4,44.8L372.4,512.9z M393.6,485.9c-1.4-0.8-2.9-1.3-4.3-1.4
			c-1.9-0.3-3.3,0.1-4.2,1.2l-4.9,6.2c0.6,0.5,1.5,1.2,2.6,2.2c1.2,1,2.1,1.7,2.7,2.1L393.6,485.9z"/>
		<path class="st0" d="M353.8,543.3l8.7-13.4l10.8,7.1c1,0.6,2.1,0.8,3.2,0.6c1.1-0.3,2-0.9,2.7-1.9c0.6-1,0.8-2,0.6-3.2
			c-0.2-1.1-0.9-2-1.9-2.6l-25.1-16.4l-8.2,12.5l-5.3-10.6l4.9-7.5l-8.9-5.8l0,0.1c-2.4-1.6-3.9-3.7-4.5-6.5s-0.1-5.3,1.5-7.7
			l40.3,26.3l3.4-5.3l11.8,0.6l-6.7,10.2l2.2,1.5c3.4,2.2,5.4,5.2,6.3,9.1c0.8,3.9,0.2,7.5-2,10.8c-2.2,3.4-5.2,5.4-9.2,6.3
			c-3.9,0.8-7.6,0.2-10.9-2l-2.2-1.5l-3.1,4.8L353.8,543.3z"/>
		<path class="st0" d="M279.1,709.4c-0.8-1.2-1-2.5-0.7-3.9l1.6-7.5c0.8-3.6,2.9-6,6.3-7.4c-1.3-0.4-2.2-1.2-2.9-2.3
			c-0.6-1.1-0.8-2.3-0.6-3.6l1.7-7.7c0.7-3.4,2.7-5.8,6-7.2l-7.7-1.7l7.9-8.8l14.5,3.1l1.4-6.5l11.3-3.6l-4.9,22.3l-16.6-3.6
			l-2.3,10.8l6.7,1.4l1-4.5l10,2.1l-3.2,14.6l-16.7-3.6l-2.3,10.8l16.7,3.6l-2.2,10l-21.7-4.7C281,711.3,279.9,710.6,279.1,709.4z
			 M319.1,694c-0.8-1.2-1-2.5-0.7-3.9c0.3-1.4,1-2.5,2.2-3.2c1.2-0.8,2.5-1,3.9-0.7c1.4,0.3,2.5,1,3.2,2.2c0.8,1.2,1,2.5,0.7,3.9
			c-0.3,1.4-1,2.5-2.2,3.2c-1.2,0.8-2.5,1-3.9,0.7C320.9,696,319.8,695.2,319.1,694z M322.1,679.7c-0.8-1.2-1-2.5-0.7-3.8
			c0.3-1.4,1-2.5,2.2-3.2c1.2-0.8,2.5-1,3.9-0.7c1.4,0.3,2.5,1,3.2,2.2c0.8,1.2,1,2.5,0.7,3.9c-0.3,1.3-1,2.4-2.2,3.2
			c-1.2,0.8-2.5,1-3.9,0.7C324,681.7,322.9,680.9,322.1,679.7z"/>
		<path class="st0" d="M289.1,771.2l1.1-11.1l-23.8-2.3c2.3,0.2,4.3-1.4,5.9-4.8c1.2-2.6,2-5.3,2.2-8.1l0.4-4.6
			c0.4-4.3,2.6-7.7,6.5-10.2c3.4-2.2,7.4-3.3,12-3.4l0.6-6.5l10.8-4.9l-5.5,56.9L289.1,771.2z M292.4,737c-1.6,0.1-3.1,0.5-4.4,1.1
			c-1.8,0.8-2.7,1.9-2.9,3.3l-0.8,7.9c0.8,0.1,1.9,0.2,3.4,0.4c1.5,0.1,2.7,0.3,3.4,0.3L292.4,737z"/>
		<path class="st0" d="M237.6,801.1c-1-1-1.5-2.2-1.4-3.6c0-1.4,0.5-2.6,1.6-3.6c1-1,2.2-1.5,3.6-1.4c1.4,0,2.6,0.5,3.6,1.6
			c1,1,1.5,2.2,1.5,3.6c0,1.4-0.6,2.6-1.6,3.6c-1,1-2.2,1.5-3.6,1.4C239.8,802.6,238.6,802.1,237.6,801.1z M250.8,801.3
			c-1-1-1.5-2.2-1.4-3.6c0-1.4,0.5-2.6,1.6-3.6c1-1,2.2-1.5,3.6-1.4c1.4,0,2.6,0.5,3.6,1.6c1,1,1.5,2.2,1.4,3.6
			c0,1.4-0.5,2.6-1.6,3.6c-1,1-2.2,1.5-3.6,1.4C252.9,802.8,251.7,802.3,250.8,801.3z M289.8,803.9l-23.9-0.4c2.3,0,4.1-1.8,5.5-5.4
			c1-2.6,1.5-5.3,1.6-8.2l0.1-6.8c0-2.4,0.9-4.4,2.7-6c1.8-1.7,3.8-2.5,6.3-2.4c2.4,0,4.4,0.9,6.1,2.6c1.7,1.7,2.5,3.8,2.5,6.1
			l-0.2,10.2l11.8,0.2c0-1.5,1.5-3.1,4.3-5.1c2.8-1.9,4.3-3.6,4.3-5.1c0.1-4-1.5-7.1-4.6-9.3c-2.7-2-6.1-3-10.3-3
			c0.9-3.4,4.2-5.1,9.7-5c4.8,0.1,8.5,2,11.3,5.9c2.5,3.5,3.7,7.7,3.6,12.6c-0.1,5.6-1.8,10.2-5.1,13.7c-3.4,3.7-7.9,5.5-13.5,5.4
			l-2,0l-0.2,11.1l-10.2-0.1L289.8,803.9z M284.2,783.3L284.2,783.3c-0.1-0.6-0.3-1.1-0.7-1.5c-0.4-0.4-1-0.7-1.6-0.7
			c-0.6,0-1.2,0.2-1.7,0.6c-0.5,0.4-0.7,0.9-0.7,1.5l-0.2,10.2l4.7,0.1L284.2,783.3z"/>
		<path class="st0" d="M252.9,827.9c-1.1-0.9-1.7-2.1-1.8-3.5c-0.1-1.4,0.3-2.6,1.2-3.7c0.9-1.1,2.1-1.7,3.5-1.8
			c1.4-0.1,2.6,0.3,3.7,1.3c1.1,0.9,1.7,2.1,1.8,3.5c0.1,1.4-0.3,2.6-1.2,3.7c-0.9,1.1-2.1,1.7-3.5,1.8
			C255.2,829.2,254,828.8,252.9,827.9z M289,840.9c3.5-0.3,6.4-1,8.9-2.1c3.4-1.6,5.1-3.9,4.8-6.7c-0.1-2-1.1-3.5-2.7-4.6
			c-1.5-1.1-3.3-1.5-5.2-1.3l-14.8,1.1c-2.8,0.2-5.3-0.6-7.4-2.5c-2.1-1.9-3.3-4.2-3.5-7l22.1-1.6l-0.5-6.5l9.8-6.7l1,13.9
			c3.2,1,5.8,2.6,7.8,5c2,2.4,3.1,5.2,3.4,8.4c0.3,4.1-0.9,7.5-3.5,10.1c-2.6,2.7-6,4.1-10.1,4.4C293.5,845.3,290.2,844,289,840.9z"
			/>
		<path class="st0" d="M258.7,874.1c-1.1-0.8-1.8-2-2-3.4c-0.2-1.4,0.1-2.7,1-3.8c0.8-1.1,2-1.8,3.4-2c1.4-0.2,2.7,0.1,3.8,1
			c1.1,0.8,1.8,2,2,3.4c0.2,1.4-0.1,2.7-1,3.8c-0.8,1.1-2,1.8-3.4,2C261.2,875.2,259.9,874.9,258.7,874.1z M300,886.5l-3.1-20.7
			c-0.2-1.3-0.7-2.7-1.4-4.1c-0.9-2-2-3-3-2.8l-3.4,0.5l2.3,15.4l-16.9,2.5c2.3-0.3,3.8-2.4,4.5-6.1c0.5-2.8,0.6-5.6,0.2-8.4
			c-0.1-0.4-0.2-1-0.4-2c-0.2-1-0.3-1.8-0.4-2.4c-0.8-5.1,0.6-7.9,4.1-8.4c6.1-0.9,9.3-1.4,9.8-1.4c3.9-0.4,7.3,1.3,10.1,4.8
			c2.5,3.1,4,6.7,4.7,10.8l3.1,20.7L300,886.5z"/>
		<path class="st0" d="M332.9,1061.1l-2.4-50.5l6.4-3.5l13.2,24l6-3.3l-16.7-30.5l6.1-10.1l24.4,44.5l-14.3,7.8
			c-2.9,1.6-5.7,2-8.4,1.2c-2.7-0.8-4.9-2.6-6.5-5.6l-2.2-4.1c-0.5-0.8-1.1-1-1.8-0.6c-0.6,0.3-1,1-1,2l-0.1,27.2L332.9,1061.1z"/>
		<path class="st0" d="M336.2,1096.6c-1.4-0.3-2.5-1-3.3-2.1c-0.8-1.2-1.1-2.4-0.8-3.8c0.3-1.4,1-2.5,2.1-3.3
			c1.2-0.8,2.4-1.1,3.8-0.8c1.4,0.3,2.5,1,3.3,2.1s1.1,2.4,0.8,3.8c-0.3,1.4-1,2.5-2.1,3.3C338.9,1096.5,337.6,1096.8,336.2,1096.6z
			 M340.3,1084.4c-1.4-0.3-2.5-1-3.3-2.1c-0.8-1.2-1.1-2.4-0.8-3.8c0.3-1.4,1-2.5,2.1-3.3c1.2-0.8,2.4-1.1,3.8-0.8
			c1.4,0.3,2.5,1,3.3,2.1c0.8,1.2,1.1,2.4,0.8,3.8c-0.3,1.4-1,2.5-2.1,3.3C343,1084.4,341.7,1084.7,340.3,1084.4z M349,1097.1
			c-1.4-0.3-2.5-1-3.3-2.1c-0.8-1.2-1.1-2.4-0.8-3.8c0.3-1.4,1-2.5,2.1-3.3c1.2-0.8,2.4-1.1,3.8-0.8c1.4,0.3,2.5,1,3.3,2.1
			c0.8,1.2,1.1,2.4,0.8,3.8c-0.3,1.4-1,2.5-2.1,3.3C351.7,1097.1,350.4,1097.4,349,1097.1z M375.6,1057.9l-2.4,1.7l8.2,12
			c1.4,2,1.8,4.2,1.4,6.5s-1.7,4.2-3.6,5.6c-2,1.4-4.2,1.8-6.6,1.4c-2.4-0.4-4.3-1.6-5.6-3.6l-6.4-9.3c-1.6-2.3-3.5-4.3-5.8-6
			c-3.1-2.2-5.6-2.7-7.6-1.4l22.5-15.4l-4.4-6.4l5.1-10.7l31,45.2l-8.4,5.9L375.6,1057.9z M376.6,1077c0.1-0.7,0-1.2-0.4-1.8
			l-8.4-12.1l-3.9,2.7l8.3,12.1c0.4,0.5,0.9,0.8,1.5,1s1.3,0,1.8-0.4C376.2,1078.1,376.5,1077.6,376.6,1077z"/>
		<path class="st0" d="M421.2,1115.8l-11.8-14.2c-0.8-1-1.9-2-3.3-2.8c-1.9-1.2-3.2-1.5-4-0.8l-2.7,2.2l10,12l-13.1,10.8
			c1.6-1.4,2-3.6,1.2-6.7c-0.7-2.5-1.8-4.6-3.4-6.5l-5.7-6.9c-0.9-1.1-1.3-2.3-1.2-3.7c0.1-1.4,0.7-2.6,1.8-3.5l7.1-5.9
			c0.6-0.5,1.4-0.9,2.5-1.3l-7.9-9.6l4.1-11.1l4,4.8c0.8-1.2,1.7-2.3,2.8-3.2c3.1-2.5,6.6-3.6,10.6-3.2c4,0.4,7.3,2.1,9.8,5.2
			l12,14.5c0.9,1.1,1.3,2.3,1.2,3.7c-0.1,1.4-0.7,2.6-1.8,3.5l-4,3.4l-15.3-18.5c-0.8-0.9-1.7-1.4-2.9-1.6s-2.2,0.2-3,0.9
			c-0.9,0.8-1.4,1.7-1.5,2.9c-0.1,1.2,0.2,2.2,1,3.1l21.6,26.1L421.2,1115.8z"/>
		<path class="st0" d="M440.3,1134.2l-7.7-8.1c-18.8,18-27.6,26.4-26.5,25.3c-5.9,5.6-8.7,8.2-8.3,7.9c-2-2-2.9-4.5-2.9-7.4
			c0-2.9,1-5.3,3.1-7.2l27.3-26.2l-6.9-7.2l3.3-11.4l26,27.2L440.3,1134.2z"/>
		<path class="st0" d="M460.1,1151.9l-8.2-7.7c-17.8,19-26.2,27.9-25.1,26.8c-5.6,5.9-8.2,8.7-7.9,8.3c-2.1-1.9-3.2-4.3-3.3-7.2
			c-0.1-2.9,0.8-5.3,2.7-7.4l25.9-27.7l-7.3-6.8l2.7-11.5l27.5,25.8L460.1,1151.9z"/>
		<path class="st0" d="M475,1209.6l-21.8-45.6l4.5-5.7l21.4,17l4.3-5.4l-27.2-21.6l1.7-11.7l39.8,31.6l-10.1,12.8
			c-2.1,2.6-4.5,4.1-7.3,4.4c-2.8,0.3-5.5-0.5-8.1-2.6l-3.6-2.9c-0.7-0.6-1.4-0.6-1.9,0.1c-0.5,0.6-0.5,1.3-0.2,2.2l10.4,25.1
			L475,1209.6z"/>
		<path class="st0" d="M646.3,1287.4l-36.6-34.8l2.2-7l26.1,8.2l2.1-6.6l-33.1-10.5l-2.6-11.6l48.4,15.3l-4.9,15.6
			c-1,3.2-2.8,5.4-5.3,6.7c-2.5,1.3-5.4,1.5-8.5,0.5l-4.4-1.4c-0.9-0.3-1.5,0-1.8,0.8c-0.2,0.7,0,1.4,0.6,2.1l18.7,19.7
			L646.3,1287.4z"/>
		<path class="st0" d="M675,1255.5l-0.6,2.9l14.2,3c2.4,0.5,4.2,1.7,5.5,3.8c1.3,2,1.7,4.2,1.2,6.6c-0.5,2.4-1.7,4.2-3.8,5.6
			c-2,1.3-4.2,1.8-6.5,1.3l-11-2.3c-2.8-0.6-5.6-0.7-8.4-0.3c-3.8,0.6-5.9,2-6.4,4.3l5.6-26.7l-7.6-1.6l-3.7-11.2l53.7,11.1l-2,10
			L675,1255.5z M667.9,1299.1c-1.2,0.8-2.5,1-3.8,0.7c-1.4-0.3-2.5-1-3.2-2.2c-0.8-1.2-1-2.5-0.7-3.8c0.3-1.4,1-2.5,2.2-3.2
			c1.2-0.8,2.5-1,3.8-0.7c1.4,0.3,2.5,1,3.2,2.2c0.8,1.2,1,2.5,0.7,3.8C669.8,1297.2,669,1298.3,667.9,1299.1z M673.3,1310.7
			c-1.2,0.8-2.5,1-3.8,0.7c-1.4-0.3-2.5-1-3.2-2.2c-0.8-1.2-1-2.5-0.7-3.8c0.3-1.4,1-2.5,2.2-3.2c1.2-0.8,2.5-1,3.8-0.7
			c1.4,0.3,2.5,1,3.2,2.2c0.8,1.2,1,2.5,0.7,3.8C675.2,1308.8,674.4,1309.9,673.3,1310.7z M688.9,1268.6c-0.4-0.5-0.9-0.9-1.5-1
			l-14.4-2.9l-1,4.6l14.4,3c0.6,0.1,1.2,0,1.8-0.4c0.6-0.4,0.9-0.9,1-1.5C689.4,1269.7,689.2,1269.1,688.9,1268.6z M682.9,1302.2
			c-1.2,0.8-2.5,1-3.8,0.7c-1.4-0.3-2.5-1-3.2-2.2c-0.8-1.2-1-2.5-0.7-3.8c0.3-1.4,1-2.5,2.2-3.2c1.2-0.8,2.5-1,3.8-0.7
			c1.4,0.3,2.5,1,3.2,2.2c0.8,1.2,1,2.5,0.7,3.8C684.8,1300.4,684.1,1301.4,682.9,1302.2z"/>
		<path class="st0" d="M748,1265.7l-18.3-2.1c-1.3-0.2-2.8-0.1-4.4,0.3c-2.2,0.4-3.4,1.1-3.5,2.2l-0.4,3.5l15.5,1.8l-2,16.9
			c0.2-2.1-1-4-3.8-5.7c-2.2-1.3-4.5-2.1-6.9-2.4l-9-1c-1.4-0.2-2.5-0.8-3.4-1.9c-0.9-1.1-1.2-2.4-1.1-3.8l1-9.2
			c0.1-0.8,0.4-1.7,0.9-2.7l-12.3-1.4l-4.7-10.9l6.2,0.7c-0.3-1.4-0.4-2.8-0.2-4.3c0.5-3.9,2.3-7.2,5.4-9.7s6.7-3.5,10.7-3.1
			l18.7,2.2c1.4,0.2,2.5,0.8,3.4,1.9c0.9,1.1,1.2,2.4,1.1,3.8l-0.6,5.2l-23.8-2.7c-1.2-0.1-2.2,0.1-3.2,0.8s-1.5,1.6-1.6,2.7
			c-0.1,1.2,0.2,2.2,0.9,3.1s1.7,1.4,2.9,1.6l33.6,3.9L748,1265.7z"/>
		<path class="st0" d="M774.5,1265.7l-11.2-0.5c-1.1,26-1.7,38.2-1.6,36.6c-0.4,8.1-0.6,12-0.6,11.5c-2.8-0.1-5.2-1.2-7.2-3.3
			c-2-2.1-2.9-4.5-2.8-7.4l1.6-37.9l-10-0.4l-5.5-10.5l37.7,1.6L774.5,1265.7z"/>
		<path class="st0" d="M801,1264.7l-11.2,0.2c0.4,26,0.6,38.2,0.6,36.7c0.1,8.1,0.1,12,0.1,11.5c-2.8,0-5.3-0.9-7.4-2.9
			c-2.1-2-3.2-4.4-3.2-7.2l-0.7-37.9l-10,0.2l-6.1-10.1l37.7-0.6L801,1264.7z"/>
		<path class="st0" d="M841.2,1267.6c-0.2-1.9-1.7-3.3-4.4-4.4c-2.8-1.1-6.1-1.5-9.8-1.1l-7.2,0.7c-1.3,0.1-2.7,0.5-4.3,1.1
			c-2,0.8-3,1.8-2.9,2.9l0.3,3.5l15.5-1.4l1.5,17c-0.2-2.3-2.2-3.9-5.9-4.9c-2.8-0.7-5.5-0.9-8.4-0.7c-0.4,0-1,0.1-2,0.3
			c-1,0.1-1.8,0.2-2.4,0.3c-5.1,0.5-7.8-1-8.2-4.5c-0.6-6.1-0.8-9.4-0.8-9.9c-0.1-3.9,1.7-7.2,5.4-9.8c3.2-2.3,6.9-3.6,11.1-4
			l20.8-1.9L841.2,1267.6z M825.7,1301.3c-0.9,1.1-2.1,1.7-3.5,1.8c-1.4,0.1-2.7-0.3-3.7-1.2c-1.1-0.9-1.7-2.1-1.8-3.5
			c-0.1-1.4,0.3-2.7,1.2-3.7c0.9-1.1,2.1-1.7,3.5-1.8c1.4-0.1,2.7,0.3,3.7,1.2c1.1,0.9,1.7,2.1,1.8,3.5
			C827,1299,826.7,1300.2,825.7,1301.3z"/>
		<path class="st0" d="M896.7,1249.9l-10.9,2.1l4.5,23.5c-0.4-2.3-2.5-3.7-6.3-4.3c-2.8-0.4-5.6-0.4-8.4,0.2l-4.5,0.9
			c-4.2,0.8-8.1-0.3-11.6-3.3c-3.1-2.7-5.3-6.2-6.7-10.5l-6.4,1.2l-7.8-8.9l56.1-10.9L896.7,1249.9z M863,1256.4
			c0.6,1.5,1.4,2.8,2.4,3.9c1.3,1.5,2.6,2.1,4,1.8l7.8-1.5c-0.2-0.8-0.3-1.9-0.6-3.4c-0.3-1.5-0.5-2.6-0.6-3.4L863,1256.4z"/>
		<path class="st0" d="M1004.2,1205.6l5.3,10.7c0.6,1.3,0.7,2.6,0.3,3.9c-0.5,1.3-1.3,2.3-2.6,2.9l-9.2,4.5
			c-3.2,1.6-6.4,1.5-9.6-0.2l3.6,7.2l-11.8-0.7l-6.6-13.3l-5,2.5l-9.9-6.6l19.5-9.6l7.6,15.3l12.1-6l-7.6-15.3l19.5-9.6l4.6,9.2
			L1004.2,1205.6z"/>
		<path class="st0" d="M1044.4,1181l-13.6,8.3l-6.7-11c-0.6-1-1.5-1.6-2.6-1.9c-1.1-0.3-2.2-0.1-3.2,0.5c-1,0.6-1.6,1.5-1.9,2.6
			c-0.3,1.1-0.1,2.2,0.5,3.2l15.6,25.6l12.7-7.8l0.3,11.8l-7.6,4.7l5.5,9l0.1,0c1.5,2.4,1.9,5,1.3,7.8c-0.7,2.7-2.2,4.8-4.6,6.3
			l-25.1-41l-5.4,3.3l-10.4-5.6l10.4-6.4l-1.4-2.3c-2.1-3.4-2.7-7.1-1.8-10.9s3.1-6.8,6.5-8.9c3.4-2.1,7.1-2.7,11-1.7
			c3.9,0.9,6.9,3.1,9,6.5l1.4,2.3l4.9-3L1044.4,1181z"/>
		<path class="st0" d="M1084.7,1150.5l-8.9,6.6l14.2,19.2c-1.4-1.9-3.9-2.2-7.5-1.1c-2.7,0.8-5.2,2.1-7.5,3.8l-3.7,2.7
			c-3.4,2.5-7.4,3.2-11.9,2c-3.9-1.1-7.4-3.3-10.6-6.6l-5.2,3.9l-10.9-4.7l45.9-34L1084.7,1150.5z M1057.1,1170.9
			c1.2,1.1,2.4,2,3.8,2.5c1.8,0.8,3.3,0.7,4.4-0.1l6.4-4.7c-0.5-0.7-1.1-1.6-2-2.8c-0.9-1.2-1.6-2.2-2-2.7L1057.1,1170.9z"/>
		<path class="st0" d="M1110.6,1126l-11.9,10.6l-8.6-9.6c-0.8-0.9-1.8-1.4-2.9-1.4c-1.2-0.1-2.2,0.3-3.1,1.1
			c-0.9,0.8-1.4,1.8-1.4,2.9c-0.1,1.1,0.3,2.2,1.1,3l19.9,22.4l11.1-9.9l2.4,11.6l-6.7,5.9l7,7.9l0.1,0c1.9,2.1,2.8,4.6,2.6,7.4
			s-1.3,5.1-3.4,7l-32-35.9l-4.7,4.2l-11.2-3.7l9.1-8.1l-1.8-2c-2.7-3-3.9-6.5-3.7-10.4c0.2-4,1.8-7.3,4.8-9.9s6.5-3.9,10.5-3.7
			c4,0.2,7.3,1.8,10,4.8l1.8,2l4.3-3.8L1110.6,1126z"/>
		<path class="st0" d="M1134.1,1106.4c-2.5-2.4-5-4.2-7.5-5.2c-3.5-1.5-6.2-1.2-8.2,0.9c-1.4,1.4-1.9,3.1-1.6,5.1
			c0.2,1.9,1.1,3.4,2.5,4.7l10.6,10.3c2,2,3.1,4.4,3.1,7.2c0,2.8-0.9,5.3-2.9,7.3l-15.9-15.4l-4.6,4.7l-11.5-2.9l9.7-10
			c-1.4-3-1.9-6-1.5-9.1c0.4-3.1,1.8-5.8,4.1-8.1c2.8-2.9,6.1-4.3,9.9-4.1c3.7,0.2,7.1,1.7,10.1,4.6
			C1134.5,1100.2,1135.7,1103.6,1134.1,1106.4z M1148.4,1142.1c0,1.4-0.5,2.6-1.4,3.6c-0.9,1-2.1,1.5-3.6,1.5
			c-1.4,0-2.7-0.4-3.7-1.4c-1-1-1.5-2.2-1.5-3.6c0-1.4,0.5-2.6,1.4-3.6c1-1,2.2-1.5,3.6-1.6c1.4,0,2.6,0.5,3.6,1.4
			C1147.9,1139.5,1148.4,1140.7,1148.4,1142.1z"/>
		<path class="st0" d="M1158.8,1070.1c3.4,4.4,4.2,10,2.3,16.9c-0.5,1.8-0.3,3.7,0.4,5.6c0.8,1.9,1.9,3.5,3.4,4.8
			c-1.5-1.3-3.3-2.1-5.4-2.4c-2.1-0.3-3.9-0.1-5.7,0.7c-6.3,3.1-11.9,3.4-16.9,0.9l-4.9,5.9l-11.7-1.9l9-11
			c-1.8-3.1-2.6-6.5-2.3-10.2c0.3-3.7,1.6-7,3.9-9.8c2.4-2.9,5.3-4.8,8.9-5.8s7-0.9,10.5,0.3l6.5-7.9l7.9,6.5L1158.8,1070.1z
			 M1144,1073.4c-2,0.2-3.7,1.1-5,2.7c-1.3,1.5-1.8,3.3-1.6,5.4c0.2,2,1,3.7,2.6,5c1.6,1.3,3.4,1.8,5.4,1.6c2-0.2,3.7-1.1,5-2.6
			c1.3-1.6,1.9-3.4,1.7-5.4c-0.2-2-1.1-3.7-2.7-5C1147.8,1073.7,1146,1073.2,1144,1073.4z"/>
		<path class="st0" d="M1183.2,1033.5l9.9,6.7c1.2,0.8,1.9,1.9,2.2,3.3c0.3,1.4,0,2.7-0.8,3.8l-5.7,8.5c-2,3-4.8,4.5-8.4,4.5
			l6.7,4.5l-10.6,5.2l-12.3-8.3l-3.1,4.6l-11.8-0.8l12.2-18.1l14.2,9.5l7.5-11.2l-14.2-9.5l12.1-18l8.5,5.7L1183.2,1033.5z"/>
		<path class="st0" d="M1219.5,891.6c0.8,1.2,1,2.5,0.7,3.8c-0.3,1.4-1.1,2.4-2.3,3.2c-1.2,0.8-2.5,1-3.9,0.7
			c-1.4-0.3-2.4-1.1-3.2-2.3c-0.8-1.2-1-2.5-0.7-3.9c0.3-1.3,1-2.4,2.2-3.2c1.2-0.8,2.5-1,3.9-0.7
			C1217.7,889.6,1218.7,890.3,1219.5,891.6z M1222.7,877.3c0.8,1.2,1,2.5,0.7,3.9c-0.3,1.4-1.1,2.4-2.3,3.2c-1.2,0.8-2.5,1-3.9,0.7
			c-1.4-0.3-2.4-1.1-3.2-2.3c-0.8-1.2-1-2.5-0.7-3.9c0.3-1.4,1.1-2.4,2.3-3.2c1.2-0.8,2.5-1,3.9-0.7
			C1220.8,875.3,1221.9,876.1,1222.7,877.3z M1262.7,862.2c0.8,1.2,1,2.5,0.7,3.9l-1.7,7.5c-0.8,3.6-2.9,6-6.3,7.3
			c1.3,0.4,2.2,1.2,2.8,2.3c0.6,1.1,0.8,2.3,0.5,3.6l-1.7,7.7c-0.8,3.4-2.8,5.8-6,7.2l7.7,1.7l-8,8.7l-14.5-3.2l-1.4,6.5l-11.3,3.6
			l5-22.2l16.6,3.7l2.4-10.8l-6.7-1.5l-1,4.5l-10-2.2l3.3-14.6l16.7,3.7l2.4-10.8l-16.7-3.7l2.2-10l21.7,4.8
			C1260.8,860.2,1261.9,861,1262.7,862.2z"/>
		<path class="st0" d="M1253.2,800.3l-1.1,11.1l23.8,2.5c-2.3-0.2-4.3,1.4-5.9,4.8c-1.2,2.6-2,5.3-2.3,8.1l-0.5,4.5
			c-0.4,4.3-2.6,7.6-6.5,10.2c-3.4,2.2-7.4,3.3-12,3.4l-0.7,6.5l-10.8,4.9l5.9-56.8L1253.2,800.3z M1249.6,834.5
			c1.6-0.1,3.1-0.5,4.4-1.1c1.8-0.8,2.7-1.9,2.9-3.3l0.8-7.9c-0.8-0.1-1.9-0.2-3.4-0.4c-1.5-0.2-2.7-0.3-3.4-0.4L1249.6,834.5z"/>
		<path class="st0" d="M1252.5,767.6l23.9,0.4c-2.3,0-4.1,1.8-5.5,5.4c-1,2.6-1.5,5.3-1.6,8.2l-0.1,6.8c0,2.4-0.9,4.4-2.7,6
			c-1.8,1.7-3.8,2.5-6.3,2.4c-2.4,0-4.4-0.9-6.1-2.6c-1.7-1.7-2.5-3.8-2.5-6.1l0.2-10.2l-11.8-0.2c0,1.5-1.5,3.1-4.3,5.1
			c-2.8,1.9-4.3,3.6-4.3,5.1c-0.1,4,1.5,7.1,4.6,9.3c2.7,2,6.1,3,10.3,3c-0.9,3.4-4.2,5.1-9.7,5c-4.8-0.1-8.5-2-11.3-5.9
			c-2.5-3.5-3.7-7.7-3.6-12.6c0.1-5.6,1.8-10.2,5.1-13.7c3.4-3.7,7.9-5.5,13.5-5.4l2,0l0.2-11.1l10.2,0.1L1252.5,767.6z
			 M1258.2,788.1L1258.2,788.1c0.1,0.6,0.3,1.1,0.7,1.5c0.4,0.4,1,0.7,1.6,0.7c0.6,0,1.2-0.2,1.7-0.6s0.7-0.9,0.7-1.5l0.2-10.2
			l-4.7-0.1L1258.2,788.1z M1291.6,770.2c1,1,1.5,2.2,1.4,3.6c0,1.4-0.5,2.6-1.6,3.6c-1,1-2.2,1.5-3.6,1.4c-1.4,0-2.6-0.5-3.6-1.6
			c-1-1-1.5-2.2-1.4-3.6c0-1.4,0.5-2.6,1.6-3.6c1-1,2.2-1.5,3.6-1.4C1289.4,768.6,1290.6,769.2,1291.6,770.2z M1304.7,770.4
			c1,1,1.5,2.2,1.4,3.6c0,1.4-0.5,2.6-1.6,3.6c-1,1-2.2,1.5-3.6,1.4c-1.4,0-2.6-0.5-3.6-1.6c-1-1-1.5-2.2-1.5-3.6
			c0-1.4,0.6-2.6,1.6-3.6c1-1,2.2-1.5,3.6-1.4C1302.5,768.9,1303.7,769.4,1304.7,770.4z"/>
		<path class="st0" d="M1253.7,730.6c-3.5,0.2-6.4,0.9-8.9,2c-3.5,1.6-5.1,3.8-4.9,6.7c0.1,2,1,3.5,2.7,4.6c1.5,1.1,3.3,1.5,5.2,1.3
			l14.8-1c2.8-0.2,5.3,0.6,7.4,2.5c2.1,1.9,3.3,4.2,3.5,7l-22.1,1.5l0.4,6.5l-9.8,6.6l-0.9-13.9c-3.2-1-5.7-2.6-7.7-5
			c-2-2.4-3.1-5.2-3.3-8.5c-0.3-4.1,0.9-7.5,3.6-10.1c2.7-2.6,6-4.1,10.2-4.4C1249.3,726.1,1252.6,727.5,1253.7,730.6z
			 M1289.7,743.9c1.1,0.9,1.6,2.1,1.7,3.5c0.1,1.4-0.3,2.6-1.3,3.7c-0.9,1.1-2.1,1.7-3.5,1.8c-1.4,0.1-2.6-0.3-3.7-1.3
			c-1.1-1-1.6-2.1-1.7-3.5c-0.1-1.4,0.3-2.6,1.3-3.7c0.9-1.1,2.1-1.6,3.5-1.7C1287.4,742.5,1288.6,743,1289.7,743.9z"/>
		<path class="st0" d="M1243,684.9l2.9,20.7c0.2,1.3,0.6,2.7,1.4,4.2c0.9,2,1.9,3,3,2.8l3.4-0.5l-2.2-15.4l16.9-2.4
			c-2.3,0.3-3.8,2.4-4.6,6.1c-0.6,2.8-0.7,5.6-0.3,8.4c0.1,0.4,0.2,1,0.4,2c0.2,1,0.3,1.8,0.4,2.4c0.7,5.1-0.6,7.9-4.1,8.4
			c-6.1,0.9-9.4,1.3-9.8,1.3c-3.9,0.3-7.3-1.3-10.1-4.9c-2.5-3.1-4-6.7-4.6-10.9l-2.9-20.7L1243,684.9z M1284.2,697.6
			c1.1,0.9,1.8,2,2,3.4c0.2,1.4-0.1,2.7-1,3.8c-0.9,1.1-2,1.8-3.4,2c-1.4,0.2-2.7-0.1-3.8-1c-1.1-0.8-1.8-2-2-3.4
			c-0.2-1.4,0.1-2.7,1-3.8c0.8-1.1,2-1.8,3.4-2C1281.8,696.4,1283.1,696.8,1284.2,697.6z"/>
		<path class="st0" d="M1211.4,510.1l2,50.5l-6.4,3.5l-13-24.1l-6.1,3.3l16.5,30.6l-6.2,10.1l-24.1-44.7l14.4-7.8
			c2.9-1.6,5.7-2,8.5-1.2c2.7,0.8,4.9,2.7,6.4,5.6l2.2,4.1c0.5,0.8,1.1,1.1,1.8,0.6c0.6-0.3,1-1,1-2l0.3-27.2L1211.4,510.1z"/>
		<path class="st0" d="M1168.6,513l2.4-1.6l-8.2-12c-1.4-2-1.8-4.2-1.3-6.6c0.5-2.4,1.7-4.2,3.7-5.6c2-1.4,4.2-1.8,6.6-1.4
			c2.4,0.4,4.2,1.6,5.6,3.6l6.3,9.3c1.6,2.3,3.5,4.4,5.8,6.1c3.1,2.2,5.6,2.7,7.5,1.4l-22.7,15.3l4.4,6.4l-5.2,10.7l-30.7-45.4
			l8.4-5.8L1168.6,513z M1167.7,493.9c-0.1,0.7,0,1.2,0.4,1.8l8.3,12.1l3.9-2.6l-8.2-12.2c-0.4-0.5-0.9-0.9-1.5-1
			c-0.7-0.1-1.3,0-1.8,0.3C1168.2,492.8,1167.9,493.3,1167.7,493.9z M1195.5,474c1.4,0.3,2.5,1,3.3,2.2c0.8,1.2,1.1,2.4,0.8,3.8
			c-0.3,1.4-1,2.5-2.2,3.3c-1.2,0.8-2.4,1.1-3.8,0.8c-1.4-0.3-2.5-1-3.3-2.2c-0.8-1.2-1.1-2.4-0.8-3.8c0.3-1.4,1-2.5,2.2-3.3
			C1192.8,474,1194.1,473.7,1195.5,474z M1204.1,486.7c1.4,0.3,2.5,1,3.3,2.2c0.8,1.2,1.1,2.4,0.8,3.8c-0.3,1.4-1,2.5-2.2,3.3
			c-1.2,0.8-2.4,1.1-3.8,0.8c-1.4-0.3-2.5-1-3.3-2.2c-0.8-1.2-1.1-2.4-0.8-3.8c0.3-1.4,1-2.5,2.2-3.3
			C1201.4,486.7,1202.7,486.4,1204.1,486.7z M1208.3,474.6c1.4,0.3,2.5,1,3.3,2.2c0.8,1.2,1.1,2.4,0.8,3.8c-0.3,1.4-1,2.5-2.2,3.3
			c-1.2,0.8-2.4,1.1-3.8,0.8c-1.4-0.3-2.5-1-3.3-2.2c-0.8-1.2-1.1-2.4-0.8-3.8c0.3-1.4,1-2.5,2.2-3.3
			C1205.6,474.6,1206.9,474.3,1208.3,474.6z"/>
		<path class="st0" d="M1123.4,454.8l11.7,14.3c0.8,1,1.9,2,3.3,2.9c1.8,1.3,3.2,1.5,4,0.8l2.7-2.2l-9.9-12.1l13.2-10.7
			c-1.7,1.4-2.1,3.6-1.2,6.7c0.7,2.5,1.8,4.6,3.3,6.5l5.7,7c0.9,1.1,1.3,2.3,1.1,3.8c-0.1,1.4-0.8,2.6-1.9,3.5l-7.1,5.9
			c-0.6,0.5-1.4,0.9-2.5,1.3l7.9,9.6l-4.2,11.1l-4-4.9c-0.8,1.2-1.7,2.3-2.8,3.2c-3.1,2.5-6.6,3.6-10.6,3.1c-4-0.4-7.3-2.2-9.8-5.3
			l-11.9-14.6c-0.9-1.1-1.3-2.3-1.1-3.8c0.1-1.4,0.8-2.6,1.9-3.5l4.1-3.3l15.2,18.6c0.7,0.9,1.7,1.4,2.8,1.6c1.2,0.1,2.2-0.1,3-0.9
			c0.9-0.7,1.4-1.7,1.5-2.9c0.1-1.2-0.2-2.2-1-3.1l-21.4-26.2L1123.4,454.8z"/>
		<path class="st0" d="M1104.4,436.3l7.7,8.1c18.9-17.9,27.8-26.2,26.7-25.2c6-5.6,8.8-8.2,8.4-7.8c1.9,2.1,2.9,4.5,2.9,7.4
			c0,2.9-1.1,5.3-3.1,7.2l-27.5,26l6.8,7.3l-3.4,11.3l-25.9-27.4L1104.4,436.3z"/>
		<path class="st0" d="M1084.8,418.5l8.1,7.7c17.9-18.9,26.4-27.7,25.3-26.6c5.6-5.9,8.3-8.6,8-8.3c2,1.9,3.1,4.4,3.3,7.2
			c0.1,2.9-0.8,5.3-2.7,7.4l-26.1,27.5l7.2,6.9l-2.7,11.5l-27.3-26L1084.8,418.5z"/>
		<path class="st0" d="M1070.3,360.6l21.4,45.8l-4.6,5.7l-21.3-17.2l-4.3,5.4l27.1,21.8l-1.8,11.7l-39.6-31.9l10.2-12.7
			c2.1-2.6,4.5-4,7.4-4.3c2.8-0.3,5.5,0.6,8.1,2.7l3.6,2.9c0.7,0.6,1.4,0.6,1.9-0.1c0.5-0.6,0.5-1.3,0.2-2.2l-10.2-25.2
			L1070.3,360.6z"/>
		<path class="st0" d="M908.5,322.3l10.6,3.7c8.7-24.5,12.8-36.1,12.2-34.6c2.8-7.7,4.1-11.3,3.9-10.8c2.7,0.9,4.6,2.7,5.9,5.3
			c1.3,2.6,1.5,5.2,0.5,7.9L929,329.5l9.4,3.3l2.2,11.6l-35.5-12.6L908.5,322.3z"/>
		<path class="st0" d="M882.9,315.4l10.7,3.1c7.3-25,10.7-36.7,10.3-35.2c2.3-7.8,3.4-11.5,3.3-11c2.7,0.8,4.8,2.4,6.2,4.9
			c1.4,2.5,1.7,5.1,1,7.8l-10.6,36.4l9.6,2.8l2.8,11.5L880,325.3L882.9,315.4z"/>
		<path class="st0" d="M843.5,270.6l40,30.8l-1.5,7.2l-26.8-5.5l-1.4,6.8l34,7l3.8,11.2l-49.8-10.2l3.3-16c0.7-3.3,2.2-5.7,4.5-7.2
			c2.4-1.6,5.2-2,8.4-1.3l4.5,0.9c0.9,0.2,1.5-0.1,1.7-1c0.1-0.7-0.1-1.4-0.8-2.1l-20.6-17.7L843.5,270.6z"/>
	</g>
	<title>magicapps</title>
	<g>
		<g id="Layer_1-2_2_">
			
				<rect x="972.2" y="1307.7" transform="matrix(0.9006 -0.4347 0.4347 0.9006 -504.1161 604.1172)" class="st1" width="192.8" height="192.8"/>
			<g>
				<path class="st2" d="M1128.9,1399.4l-14.2-29.4c-0.6-1.3-1.2-2.5-1.8-3.6c-0.6-1-1.3-1.9-2.1-2.7c-0.8-0.7-1.7-1-2.7-1.1
					c-1.3-0.1-2.6,0.2-3.7,0.9c-2.3,1.1-3.6,2.6-3.8,4.4c0,2.7,0.7,5.3,2,7.7l14.3,29.7l-4.6,2.2l-14.2-29.4
					c-0.4-0.8-0.7-1.7-1.1-2.7s-0.8-2-1.1-3.1c-0.3-1.1-0.4-2.3-0.5-3.3c-0.1-1.2,0.2-2.4,0.7-3.5c0.5-1.2,1.3-2.3,2.2-3.2
					c1.2-1.2,2.7-2.2,4.3-2.9c2.1-1.2,4.3-1.7,6.7-1.7c1.7,0.1,3.3,0.6,4.6,1.6c1.3,1,2.4,2.3,3.2,3.8c0.8,1.5,1.7,3,2.5,4.6
					l14.1,29.3L1128.9,1399.4L1128.9,1399.4z"/>
				<path class="st2" d="M1108,1409.5l-5.2,2.5l-12.9-12.3l1.4,17.9l-4.7,2.3l-1-23.3l-20.3-18.1l5.4-2.6l15.1,14.1l-1.7-20.7
					l4.7-2.3l1.4,26.4L1108,1409.5z"/>
				<path class="st2" d="M1081.4,1422.3l-8.1,3.9c-1.9,1-3.9,1.6-6,2.1c-1.8,0.3-3.7,0-5.3-0.8c-0.6-0.3-1.2-0.6-1.6-0.9
					c-0.7-0.5-1.2-0.9-1.8-1.5c-0.7-0.6-1.4-1.4-1.8-2.2c-0.8-1-1.4-2.1-1.8-3.2c-0.8-1.6-1.3-3.3-1.7-5c-0.3-1.6-0.3-3.3,0.1-4.9
					s1.2-3.2,2.2-4.4c1.4-1.5,3.1-2.7,5-3.6l4.1-2l-8.2-17.1l4.8-2.3L1081.4,1422.3z M1066.6,1403.8l-4,1.9c-0.9,0.4-1.8,1-2.6,1.6
					c-0.7,0.6-1.2,1.4-1.6,2.2c-0.4,1-0.5,2.1-0.3,3.2c0.3,1.5,0.8,3,1.5,4.4c0.7,1.7,1.8,3.2,3.2,4.5c0.9,0.8,2,1.3,3.2,1.6
					c0.9,0.2,2,0.1,2.9-0.2c0.7-0.3,1.4-0.6,2.1-0.9l3.7-1.8l-8-16.6L1066.6,1403.8z"/>
				<path class="st2" d="M1052.6,1436.2l-2.6-5.4l4.7-2.3l2.6,5.4L1052.6,1436.2z M1051.8,1423.2l-4.3,2.1l-15-31.1l4.3-2.1
					L1051.8,1423.2z"/>
				<path class="st2" d="M1042.6,1427.7l-4,1.9l-2.3-4.7c0.1,0.6,0.1,1.2,0.1,1.8c0,0.8-0.1,1.6-0.4,2.4c-0.3,0.9-0.7,1.7-1.2,2.5
					c-0.7,0.9-1.6,1.6-2.7,2.1c-1.2,0.6-2.5,0.9-3.9,0.8c-1.2-0.1-2.3-0.5-3.3-1.3c-1.1-0.9-2.1-2.1-2.8-3.4c-0.8-1.5-1.6-3.2-2.5-5
					l-9.5-19.7l4.2-2l9.5,19.6c0.5,1,1,2,1.5,2.9c0.4,0.9,1,1.7,1.7,2.4c0.6,0.6,1.3,1,2.1,1.4c0.8,0.3,1.8,0.1,2.5-0.4
					c1-0.4,1.8-1.3,2.2-2.4c0.3-1,0.4-2.1,0.3-3.2c-0.2-1.2-0.5-2.4-0.9-3.6c-0.5-1.2-1-2.2-1.4-3.1l-8.6-17.9l4.3-2.1l15,31.1
					L1042.6,1427.7L1042.6,1427.7z"/>
			</g>
		</g>
	</g>
	<g>
		
			<rect x="1013.1" y="72.2" transform="matrix(0.4786 -0.878 0.878 0.4786 432.4243 1054.1921)" class="st3" width="181.5" height="181.5"/>
		<g class="st4">
			<path class="st5" d="M1083.2,94.3c5.4,1.9,12.3,4.7,20.6,9.3c10.2,5.6,16.4,12,18.8,18.9c2.2,6.1,1.8,13.4-2.1,20.5
				c-3.9,7.2-9.2,11.8-15.5,13.7c-8.7,2.8-19.1,1-29.2-4.5c-3.1-1.7-5.9-3.4-7.9-5.2l-17.5,32l-10.3-5.6L1083.2,94.3z M1072.6,138.5
				c1.9,1.8,4.6,3.6,8.1,5.5c12.5,6.8,23.4,4.8,29.3-6c5.8-10.7,1-19.9-10.3-26.1c-4.5-2.5-8.1-4-10.2-4.5L1072.6,138.5z"/>
			<path class="st5" d="M1104.6,194.8c2.2,3.6,6.5,8.8,11.7,11.6c7.5,4.1,13,2.3,15.7-2.5c2.7-5,1.2-9.2-4.9-16.2
				c-8.4-9.5-10.2-17.7-6.4-24.6c5-9.2,16.8-12.7,29-6c5.8,3.2,10.1,7.5,12.1,11.2l-6.6,6.2c-1.5-2.7-4.5-6.9-9.9-9.8
				c-6.2-3.4-11.4-1.6-13.8,2.7c-2.6,4.7-0.4,8.7,5.4,15.7c7.8,9,10.3,16.9,5.7,25.4c-5.6,10.2-17.4,13-30.8,5.7
				c-6.3-3.4-11.2-8.3-13.9-12.8L1104.6,194.8z"/>
		</g>
	</g>
	<g>
		
			<rect x="1321.6" y="433.6" transform="matrix(0.936 -0.3519 0.3519 0.936 -94.1898 530.5623)" class="st6" width="181.5" height="181.5"/>
		<g class="st4">
			<path class="st7" d="M1390.8,498.4l-30.1,1.2l-4.3-11.4l96.1-3l4.9,13.1l-74.3,61.1l-4.4-11.8l23.4-19.2L1390.8,498.4z
				 M1409.9,523.2l21.3-17.7c4.9-4,9.4-7.2,13.9-10.3l-0.1-0.3c-5.4,0.6-11.2,1.3-17,1.5l-27.8,0.9L1409.9,523.2z"/>
			<path class="st7" d="M1387.6,571.3l61.2-23l4.2,11.1l-61.2,23L1387.6,571.3z M1470.7,554.2c-3.8,1.4-7.8-0.1-9.5-4.5
				c-1.5-4,0.5-7.8,4.3-9.3c3.8-1.4,8,0.2,9.6,4.3C1476.6,548.8,1474.6,552.8,1470.7,554.2z"/>
		</g>
	</g>
	<g>
		
			<rect x="1305.7" y="941.4" transform="matrix(0.4396 -0.8982 0.8982 0.4396 -144.4699 1832.748)" class="st8" width="181.5" height="181.5"/>
		<g class="st4">
			<path class="st9" d="M1370.1,1005.8l20.7-1.5c8-0.8,13.1-1.1,18.5-1.3l0.1-0.2c-3.2-4.1-6-8.2-10.6-15l-11.7-16.6l5.3-10.8
				l26,40.3l46.5-3.8l-5.3,10.9l-21.8,1.3c-6.1,0.4-10.8,0.6-15.6,0.7l-0.2,0.3c3.3,4.2,5.8,7.7,9.1,12.6l12.3,18.2l-5.3,10.9
				l-24.6-39.5l-48.5,4.4L1370.1,1005.8z"/>
		</g>
		<g class="st4">
			<path class="st9" d="M1416.6,1105.3l-63.3-31c-4.6-2.3-10.1-4.7-13.7-6.2l4.1-8.4l9.3,4l0.2-0.3c-4.5-5.7-5.8-14.1-1.6-22.7
				c6.2-12.7,21.7-17.3,37.6-9.5c17.5,8.4,22.7,24.5,16.5,37.2c-4,8.1-10.3,11.6-15.6,11.9l-0.1,0.2l31.3,15.3L1416.6,1105.3z
				 M1375.4,1073.5c1.2,0.6,2.9,1.3,4.2,1.5c6.6,1.5,14.2-1.3,17.6-8.4c4.8-9.8-1-19.9-12.4-25.5c-10.6-5.2-21.9-4.2-26.9,6
				c-3.1,6.4-1.7,14.3,4.5,19.5c1.1,1,2.4,1.7,3.9,2.4L1375.4,1073.5z"/>
		</g>
	</g>
	<g>
		<polygon class="st10" points="464.2,1494.2 516,1517.9 583.8,1489.6 556.9,1337.6 410.7,1387.1 418.4,1460.2 		"/>
		<polygon class="st11" points="583.8,1489.6 556.9,1337.6 548.7,1468.8 		"/>
		<polygon class="st11" points="445.7,1407.8 556.9,1337.6 410.7,1387.1 		"/>
		<polygon class="st12" points="548.7,1468.8 556.9,1337.6 445.7,1407.8 		"/>
		<polygon class="st13" points="516,1517.9 548.7,1468.8 464.2,1494.2 		"/>
		<polygon class="st13" points="445.7,1407.8 418.4,1460.2 464.2,1494.2 		"/>
		<polygon class="st12" points="445.7,1407.8 410.7,1387.1 418.4,1460.2 		"/>
		<polygon class="st12" points="583.8,1489.6 548.7,1468.8 516,1517.9 		"/>
		<polygon class="st14" points="464.2,1494.2 548.7,1468.8 445.7,1407.8 		"/>
	</g>
	<g>
		<path class="st15" d="M28.5,1009.6l59.9,151.3c3.7,9.3,14.2,13.8,23.4,10.1l151.3-59.9c9.3-3.7,13.8-14.2,10.1-23.4l-59.9-151.3
			c-3.7-9.3-14.2-13.8-23.4-10.1L38.6,986.2C29.4,989.9,24.8,1000.4,28.5,1009.6"/>
		<path class="st16" d="M128.7,1092.9c-2.4-6.1-9.3-9.4-15.6-6.9c-6.3,2.5-9.1,9.5-6.6,15.7s9.3,9.4,15.6,6.9
			S131.1,1099,128.7,1092.9 M197.6,1092.7c3.1-0.5,6.2-1.3,8.7-2.3c9.8-3.9,14.2-11.8,9.7-23c-3.7-9.4-12.3-14.8-23.4-16.7l14.7-1.9
			l-7.4-18.6l-46.8,6.3c-11.9,1.7-19.5-1.3-22.6-9.2c-2.4-6.1-0.1-11.4,6.2-14c1.8-0.7,3.9-1.4,6.3-1.6l21.8-2.3
			c3.2-0.3,6.1-1.1,8.8-2.1c9.3-3.7,13.9-11.8,9.4-23.3c-3.9-9.8-13.3-15.1-30.1-13.4v8.4c11.6-0.4,14.7,2.1,15.7,4.5
			c1,2.5-0.2,4.5-3.5,5.8c-1.5,0.6-3.3,0.9-5.4,1.2l-21.2,2.2c-5,0.4-9.2,1.5-12.9,3c-14.2,5.6-18.3,17.2-14.1,27.7
			c3.9,9.8,16.7,16.2,27.9,17.6l-18.1,2.9l11.3,28.4l16.3-1.8l-5.3-13.3l36-4.8c16.8,0.8,21.7,12.4,22,14.1c0.4,2.6,0.1,4.6-3,5.8
			c-1.8,0.7-4.6,1.4-8.1,1.8l-54.3,7.1l12.5,31.6l16.3-1.8l-5.2-13.2L197.6,1092.7"/>
	</g>
	<polyline class="st17" points="608.2,202.4 554.7,249.9 484.4,264.1 392.9,116.5 545.4,40.5 608.2,202.4 	"/>
	<polyline class="st18" points="476.7,91 549.4,236.6 549.6,236.6 592.9,198.1 538.5,60.2 476.7,91 	"/>
	<polygon class="st16" points="427.4,70.6 422.8,61.4 436.2,54.7 431.2,44.6 407.7,56.3 421.9,84.8 445.4,73 440.8,63.9 	"/>
	<path class="st16" d="M456.4,43.9l9.4-4.7l-5-10.1l-23.5,11.8c0,0,2.5,5.1,5,10.1c4.7,1.6,7.1,2.3,13.9,4.5
		c-2.7,1.3-9.4,4.7-9.4,4.7l4.6,9.2L475,57.7l-4.6-9.2L456.4,43.9L456.4,43.9z"/>
	<path class="st16" d="M485.7,30l9.4-4.7l-5-10.1L466.6,27c0,0,2.5,5.1,5,10.1c4.7,1.6,7.1,2.3,13.9,4.5c-2.7,1.3-9.4,4.7-9.4,4.7
		l4.6,9.2l23.6-11.7l-4.6-9.2L485.7,30L485.7,30z"/>
	<polyline class="st19" points="513,166.6 470.1,187.8 459.6,170.3 470.1,187.8 470.2,187.8 470.2,187.8 513,166.6 513,166.6 	"/>
	<g>
		<g>
			<g>
				<defs>
					<polyline id="SVGID_1_" points="470.1,187.8 459.6,170.3 459.6,170.3 470.2,187.8 470.1,187.8 					"/>
				</defs>
				<clipPath id="SVGID_2_">
					<use xlink:href="#SVGID_1_"  style="overflow:visible;"/>
				</clipPath>
				<g class="st20">
					
						<image style="overflow:visible;enable-background:new    ;" width="13" height="89" xlink:href="C60894875AE0188D.jpg"  transform="matrix(0.2146 -0.107 0.1067 0.2139 458.6849 170.144)">
					</image>
				</g>
			</g>
		</g>
	</g>
	<path class="st19" d="M538.4,217.5l-44.8,8l-17.1-27.9h0.1l17.1,27.9L538.4,217.5L538.4,217.5 M528.1,197.2L528.1,197.2l0.1-0.1
		l0,0L528.1,197.2"/>
	<g>
		<g>
			<g>
				<g>
					<path class="st21" d="M547.7,126.3l-11.3,5.6l-14.5,7.2l-4.1,2l0,0l0,0l-13,5.7l34.8-41l-7.4-19.6l-4.4,2.2l0,0l0,0h-0.1l0,0
						l-0.7,0.3l0,0l0,0l-4.1,2l-1.1,0.6l-1.9,0.9l-3.7,1.9l-5.2,2.6l-1.9,0.9l-1.5,0.7l-1.9,0.9l-4.5,2.2l-1.5,0.7l-4.9,2.4
						l-4.4,2.2l-0.1,0.1l0,0l-0.8,0.4l0,0l0,0l0,0l0,0l-1.1,0.5l0,0l-3,1.5l-0.6,0.3h-0.1l0,0l-0.4,0.2l0,0l0,0l-0.3,0.2l0,0
						l-1.1,0.5l-0.5,0.2l0,0l-5,2.5l-0.1,0.1l0,0l0,0l-0.1,0.1l0.1-0.1l-0.4,0.2l0,0l-0.2,0.1l-0.5,0.3l-1.8,0.9l-0.2,0.1l-2.1,1.1
						l-0.3,0.1l-6.8,3.4h-0.1l0,0l-2.9,1.5l0,0l-0.3,0.1l-2.4,1.2l-1.9,0.9l0,0h-0.1l-0.1,0.1l-0.2,0.1l0,0l-5.5,2.7l-0.4,0.2
						l-0.4,0.2l0,0l0,0l0,0l-0.4,0.2l0,0l-5.9,2.9l-0.9,0.4l-0.2,0.1l-0.2,0.1l-0.2,0.1l-6.5,3.2l11.6,17.5l3.3-1.7l0.3-0.2l1.1-0.6
						l1.4-0.7l1.8-0.9l1.3-0.6l2.3-1.1l1.5-0.7l1.9-0.9l1.7-0.8l1.5-0.7l0.2-0.1l0,0h0.1l1.3-0.6l4.2-2.1l1.7-0.8l0.5-0.2l0.2-0.1
						l0,0l6.9-3.4l0.2-0.1l1.8-0.9l11-5.5h0.1l2.5-1.3l-2,2.4l-35.4,41h0.1l10.6,17.5l6.1-3l1.7-0.8h0.1l23.4-11.6l0,0l2.8-1.4
						l0.9-0.5l0.3-0.2l0.6-0.3l0.5-0.2l2.4-1.2l1.1-0.5l3-1.4l0.8-0.4l2.7-1.4l1.1-0.5l0.3-0.1l0.4-0.2l0,0l8.6-4.3h0.1l9-4.4
						l10.7,25.1l-1.6,1.4l-0.2,0.2l-0.7,0.6l-3.9,3.5l-0.1,0.1l-0.9,0.8l-3,2.7l-3.5,3.2l-0.1,0.1h-0.1l-1.6,1.5l-2.1,1.9l-0.7,0.7
						h-0.1l-0.1,0.1h-0.1l-13.6,3h-0.2l0,0l-9.5,2.1l-8.8-14.6l8.8,14.5l0.2-0.1l0.8-0.2l0.8-0.2l3.5-0.8l1.2-0.3l2.2-0.5l1.3-0.3
						l2.2-0.5h0.1l0,0l2.7-0.6l2.7-0.6l1.5-0.3l1.6-0.4l0.8-0.2l1.5-0.3l0.3-0.1l-2.4,0.5l-1.4,0.3l-1.3,0.3l-1.4,0.3l-2,0.4
						l-0.9,0.6l-4.2,0.9l0,0l-7.8,1.7l-0.3,0.1h-0.1l-1.7,0.4l-8.8-14.5l-1,0.5l0,0h-0.1l0,0l-1.7,0.8l-2.3,1.2l-1.1,0.5l0,0l0,0
						l0,0l0,0l0,0l0,0l-1.1,0.5l-0.5,0.2h-0.1h-0.1l-1.4,0.7h-0.1l-0.1,0.1l-0.6,0.3l-1.4,0.7l0,0l-0.3,0.1l-1.1,0.6l-0.5,0.2
						l-2.9,1.5l-0.4,0.2l0,0l-0.2,0.1l0,0l-2.2,1.1l-0.1,0.1l-0.2,0.1l0,0l14.1,23.2l2.9,4.8l0.3-0.1l1.2-0.2l3.1-0.6l1.6-0.3
						l2.3-0.4l1.6-0.3l1.5-0.3l0.4-0.1l0,0h0.1l1.4-0.2l1.7-0.3l0.4-0.1l2.3-0.4l0,0l2.9-0.5l2.3-0.4l0.5-0.1l6.6-1.2h0.1h0.2
						l0.9-0.2l0,0l0,0l8.8-1.6l1.5-0.3l0,0l2.9-0.5h0.1l0,0l0,0l0.3-0.2l3.2-3l0.5-0.4l0.4-0.4l1.8-1.6l1.9-1.7l3.8-3.6l0.3-0.3
						l0.3-0.3l2.5-2.4l0.4-0.4l1.2-1.1l1.4-1.3l1.2-1.1l1.4-1.3l2-1.9l1.4-1.3l0.7-0.7l0.4-0.4l1.7-1.6l0.8-0.8l1.5-1.4l0.8-0.8
						l0.6-0.5l2.4-2.3L547.7,126.3z M503.7,148.2L503.7,148.2L503.7,148.2L503.7,148.2z"/>
				</g>
			</g>
		</g>
	</g>
	<g>
		<g>
			<g>
				<polygon class="st22" points="206.4,590.4 52.9,513.3 141.1,370.8 278.5,473.8 258.6,542.1 				"/>
			</g>
		</g>
		<polygon class="st23" points="246.2,534.4 262.4,479.2 145,391.2 108.9,449.4 		"/>
		<polygon class="st24" points="162.8,482.8 148.2,506.4 129,496.7 144.6,471.5 126.8,460.5 126.8,460.5 99.1,505.2 104.1,507.7 
			156,533.7 180.7,493.9 		"/>
		<polygon class="st24" points="209.2,511.5 209.2,511.6 191.5,528.1 176.5,520.6 170.6,530.2 165.4,538.5 195,553.3 227.8,523.1 
			227.7,523 		"/>
		<polygon class="st16" points="21.6,475.5 27.2,466.5 36.2,472.1 41.3,463.8 32.3,458.2 38,449.1 65.1,465.9 59.5,475 50.4,469.4 
			45.2,477.7 54.3,483.3 48.7,492.3 		"/>
		<polygon class="st16" points="54.3,442.8 49.4,450.8 40.4,445.2 55.9,420.1 64.9,425.7 60,433.7 78.1,444.9 72.5,454 54.4,442.8 
					"/>
		<polygon class="st16" points="58.3,416.2 64.2,406.7 77.4,406.8 71.4,395.1 77.2,385.7 104.4,402.4 98.8,411.5 85.3,403.2 
			91.1,415.3 91,415.5 77.5,415.8 91,424.1 85.5,433 		"/>
		<polygon class="st16" points="80,381.1 85.6,372.1 103.8,383.3 111.7,370.6 120.7,376.1 107.2,397.9 		"/>
		<polygon class="st16" points="162.8,482.8 180.7,493.9 194.2,471.9 216.1,488.3 209.2,511.5 227.7,523 240.3,480.2 237.4,478 
			193,444.8 188.5,441.4 185.5,446.2 		"/>
		<polygon class="st16" points="126.8,460.5 137.9,467.3 144.5,471.5 144.6,471.5 171.2,428.5 171.2,428.5 171.2,428.5 167.5,425.6 
			158.9,419.2 154.4,415.8 		"/>
	</g>
	<g>
		<polygon class="st25" points="782.3,515 986.8,288.4 971.2,593.3 1276.1,577.8 1049.5,782.3 1276.1,986.8 971.2,971.3 
			986.8,1276.2 782.3,1049.6 577.6,1276.2 593.3,971.3 288.4,986.8 514.9,782.3 288.4,577.8 593.3,593.3 577.6,288.4 		"/>
		<circle class="st25" cx="782.3" cy="782.3" r="529.9"/>
		<circle class="st25" cx="782.3" cy="782.3" r="365.8"/>
		<g>
			<polygon class="st25" points="779.1,894.7 806.2,811.2 893.9,811.2 823,759.7 850.1,676.2 779.1,727.8 708.1,676.2 735.2,759.7 
				664.2,811.2 752,811.2 			"/>
			<polyline class="st25" points="890.8,808.9 893.9,811.2 807.9,811.2 			"/>
			<polyline class="st25" points="807.9,811.2 806.2,811.2 779.7,892.6 			"/>
			<polyline class="st25" points="806,812.1 823,759.7 890.8,808.9 			"/>
			<polyline class="st25" points="849.8,677.1 823,759.7 780.1,727.1 850.1,676.2 849.8,677.1 			"/>
			<polyline class="st25" points="779.7,892.6 779.1,894.7 752,811.2 807.1,811.2 			"/>
			<polyline class="st25" points="712.5,679.4 779.1,727.8 735,759.7 708.1,676.2 712.5,679.4 			"/>
			<polyline class="st25" points="667.2,809.1 735.2,759.7 751.9,811.2 664.2,811.2 667.2,809.1 			"/>
		</g>
		<circle class="st25" cx="779.1" cy="785.4" r="101"/>
		<line class="st25" x1="511.5" y1="779.7" x2="803.1" y2="1070.3"/>
		<line class="st25" x1="1054" y1="778.6" x2="761.3" y2="1072.3"/>
		<line class="st25" x1="780.1" y1="510" x2="1058.1" y2="789.1"/>
		<line class="st25" x1="509.4" y1="787" x2="790.6" y2="503.7"/>
		<line class="st25" x1="591.5" y1="589.9" x2="593" y2="974.1"/>
		<line class="st25" x1="969.3" y1="591.5" x2="970.8" y2="972.5"/>
		<line class="st25" x1="589.9" y1="593.1" x2="970.8" y2="593.1"/>
		<line class="st25" x1="594.6" y1="969.4" x2="972.4" y2="971"/>
	</g>
</g>
</svg>
