<?xml version="1.0" encoding="utf-8"?>
<!-- Generator: Adobe Illustrator 23.0.3, SVG Export Plug-In . SVG Version: 6.00 Build 0)  -->
<svg version="1.1" id="Layer_1" xmlns="http://www.w3.org/2000/svg" xmlns:xlink="http://www.w3.org/1999/xlink" x="0px" y="0px"
	 viewBox="0 0 1545.3 1606" style="enable-background:new 0 0 1545.3 1606;" xml:space="preserve">
<style type="text/css">
	.st0{fill:#C1FF00;}
	.st1{fill:none;stroke:#FFFFFF;stroke-width:34.857;}
	.st2{fill:none;stroke:#1D1D1B;stroke-width:15.0733;}
	.st3{fill:#FFFFFF;stroke:#49A2E2;stroke-width:5.1155;stroke-miterlimit:10;}
	.st4{fill:#49A2E2;}
	.st5{fill:#0E2C47;stroke:#29ABE2;stroke-width:15.0733;stroke-miterlimit:10;}
	.st6{enable-background:new    ;}
	.st7{fill:#29ABE2;}
	.st8{fill:#44210E;stroke:#E0742B;stroke-width:15.0733;stroke-miterlimit:10;}
	.st9{fill:#E0742B;}
	.st10{fill:#420E42;stroke:#DD2C9E;stroke-width:15.0733;stroke-miterlimit:10;}
	.st11{fill:#E283C5;}
	.st12{fill:#FDB300;}
	.st13{fill:#EB6C00;}
	.st14{fill:#FDAD00;}
	.st15{fill:#FDD231;}
	.st16{fill:#FEEEB7;}
	.st17{fill:#DC395F;}
	.st18{fill:#FFFFFF;}
	.st19{fill:#265AA6;}
	.st20{fill:#449DD7;}
	.st21{fill:#335CA4;}
	.st22{clip-path:url(#SVGID_2_);}
	.st23{fill:#F0F0EF;}
	.st24{fill:#DF4114;}
	.st25{fill:#EA5C1B;}
	.st26{fill:#F1F1F2;}
	.st27{fill:none;stroke:#C1FF00;stroke-width:7.5367;stroke-miterlimit:10;}
</style>
<g>
	<g>
		<g>
			
				<rect x="966.5" y="1288.4" transform="matrix(0.9006 -0.4347 0.4347 0.9006 -495.2591 598.1079)" class="st0" width="186.8" height="186.8"/>
			
				<rect x="1000.1" y="119.5" transform="matrix(0.4786 -0.878 0.878 0.4786 383.3443 1070.5703)" class="st0" width="186.1" height="186.1"/>
			
				<rect x="1290.7" y="459.9" transform="matrix(0.936 -0.3519 0.3519 0.936 -106.0797 522.3208)" class="st0" width="186.1" height="186.1"/>
			
				<rect x="1275.8" y="938.3" transform="matrix(0.4396 -0.8982 0.8982 0.4396 -159.2542 1807.4027)" class="st0" width="186.1" height="186.1"/>
			<polygon class="st0" points="440.1,1365.7 447.4,1434.6 490.5,1466.6 539.3,1488.9 603.2,1462.3 577.9,1319.1 			"/>
			<path class="st0" d="M254.2,941.1c-3.5-8.8-13.4-13-22-9.5L89.6,988c-8.7,3.5-13,13.4-9.5,22l56.4,142.5c3.5,8.8,13.4,13,22,9.5
				l142.5-56.4c8.8-3.5,13-13.4,9.5-22L254.2,941.1z"/>
			<polygon class="st0" points="575.8,294.4 626.2,249.6 567,97.1 423.4,168.7 509.6,307.7 			"/>
			<polygon class="st0" points="472.8,127.7 468.5,119.2 455.8,125.5 451.5,116.8 464.1,110.5 459.4,101 437.3,112 450.7,138.9 			
				"/>
			<path class="st0" d="M483,111.3c-2.5,1.2-8.9,4.4-8.9,4.4l4.3,8.7l22.2-11l-4.3-8.7l-13.2-4.3l8.9-4.4l-4.7-9.5l-22.1,11.1
				c0,0,2.4,4.8,4.7,9.5C474.3,108.6,476.6,109.2,483,111.3z"/>
			<path class="st0" d="M510.5,98.1c-2.5,1.2-8.9,4.4-8.9,4.4l4.3,8.7l22.2-11l-4.3-8.7l-13.2-4.3l8.9-4.4l-4.7-9.5l-22.1,11.1
				c0,0,2.4,4.8,4.7,9.5C501.9,95.4,504.1,96.1,510.5,98.1z"/>
			<polygon class="st0" points="247.7,615.1 296.8,569.6 315.6,505.3 186.2,408.3 103.1,542.5 			"/>
			<polygon class="st0" points="104.4,514.2 95.8,509 100.7,501.1 109.3,506.4 114.6,497.8 89,482 83.7,490.6 92.1,495.9 
				87.3,503.7 78.9,498.4 73.6,506.9 99.1,522.7 			"/>
			<polygon class="st0" points="104.4,476.1 104.5,476.1 121.5,486.6 126.8,478.1 109.8,467.5 114.4,460 105.9,454.7 91.3,478.3 
				99.8,483.6 			"/>
			<polygon class="st0" points="139,458.5 130.5,453 139,450.4 139.1,450.2 137.8,444.9 146.3,446.6 151.6,438 126,422.3 
				120.5,431.1 126.1,442.2 113.7,442.1 108.2,451 133.8,466.9 			"/>
			<polygon class="st0" points="166.9,413.2 158.5,408.1 151,420 133.9,409.5 128.6,418 154.2,433.8 			"/>
		</g>
		<g>
			
				<rect x="966.5" y="1288.4" transform="matrix(0.9006 -0.4347 0.4347 0.9006 -495.2591 598.1079)" class="st1" width="186.8" height="186.8"/>
			
				<rect x="1000.1" y="119.5" transform="matrix(0.4786 -0.878 0.878 0.4786 383.3443 1070.5703)" class="st1" width="186.1" height="186.1"/>
			
				<rect x="1290.7" y="459.9" transform="matrix(0.936 -0.3519 0.3519 0.936 -106.0797 522.3208)" class="st1" width="186.1" height="186.1"/>
			
				<rect x="1275.8" y="938.3" transform="matrix(0.4396 -0.8982 0.8982 0.4396 -159.2542 1807.4027)" class="st1" width="186.1" height="186.1"/>
			<polygon class="st1" points="440.1,1365.7 447.4,1434.6 490.5,1466.6 539.3,1488.9 603.2,1462.3 577.9,1319.1 			"/>
			<path class="st1" d="M254.2,941.1c-3.5-8.8-13.4-13-22-9.5L89.6,988c-8.7,3.5-13,13.4-9.5,22l56.4,142.5c3.5,8.8,13.4,13,22,9.5
				l142.5-56.4c8.8-3.5,13-13.4,9.5-22L254.2,941.1z"/>
			<polygon class="st1" points="575.8,294.4 626.2,249.6 567,97.1 423.4,168.7 509.6,307.7 			"/>
			<polygon class="st1" points="472.8,127.7 468.5,119.2 455.8,125.5 451.5,116.8 464.1,110.5 459.4,101 437.3,112 450.7,138.9 			
				"/>
			<path class="st1" d="M483,111.3c-2.5,1.2-8.9,4.4-8.9,4.4l4.3,8.7l22.2-11l-4.3-8.7l-13.2-4.3l8.9-4.4l-4.7-9.5l-22.1,11.1
				c0,0,2.4,4.8,4.7,9.5C474.3,108.6,476.6,109.2,483,111.3z"/>
			<path class="st1" d="M510.5,98.1c-2.5,1.2-8.9,4.4-8.9,4.4l4.3,8.7l22.2-11l-4.3-8.7l-13.2-4.3l8.9-4.4l-4.7-9.5l-22.1,11.1
				c0,0,2.4,4.8,4.7,9.5C501.9,95.4,504.1,96.1,510.5,98.1z"/>
			<polygon class="st1" points="247.7,615.1 296.8,569.6 315.6,505.3 186.2,408.3 103.1,542.5 			"/>
			<polygon class="st1" points="104.4,514.2 95.8,509 100.7,501.1 109.3,506.4 114.6,497.8 89,482 83.7,490.6 92.1,495.9 
				87.3,503.7 78.9,498.4 73.6,506.9 99.1,522.7 			"/>
			<polygon class="st1" points="104.4,476.1 104.5,476.1 121.5,486.6 126.8,478.1 109.8,467.5 114.4,460 105.9,454.7 91.3,478.3 
				99.8,483.6 			"/>
			<polygon class="st1" points="139,458.5 130.5,453 139,450.4 139.1,450.2 137.8,444.9 146.3,446.6 151.6,438 126,422.3 
				120.5,431.1 126.1,442.2 113.7,442.1 108.2,451 133.8,466.9 			"/>
			<polygon class="st1" points="166.9,413.2 158.5,408.1 151,420 133.9,409.5 128.6,418 154.2,433.8 			"/>
		</g>
		<g>
			
				<rect x="966.5" y="1288.4" transform="matrix(0.9006 -0.4347 0.4347 0.9006 -495.2591 598.1079)" class="st2" width="186.8" height="186.8"/>
			
				<rect x="1000.1" y="119.5" transform="matrix(0.4786 -0.878 0.878 0.4786 383.3443 1070.5703)" class="st2" width="186.1" height="186.1"/>
			
				<rect x="1290.7" y="459.9" transform="matrix(0.936 -0.3519 0.3519 0.936 -106.0797 522.3208)" class="st2" width="186.1" height="186.1"/>
			
				<rect x="1275.8" y="938.3" transform="matrix(0.4396 -0.8982 0.8982 0.4396 -159.2542 1807.4027)" class="st2" width="186.1" height="186.1"/>
			<polygon class="st2" points="440.1,1365.7 447.4,1434.6 490.5,1466.6 539.3,1488.9 603.2,1462.3 577.9,1319.1 			"/>
			<path class="st2" d="M254.2,941.1c-3.5-8.8-13.4-13-22-9.5L89.6,988c-8.7,3.5-13,13.4-9.5,22l56.4,142.5c3.5,8.8,13.4,13,22,9.5
				l142.5-56.4c8.8-3.5,13-13.4,9.5-22L254.2,941.1z"/>
			<polygon class="st2" points="575.8,294.4 626.2,249.6 567,97.1 423.4,168.7 509.6,307.7 			"/>
			<polygon class="st2" points="472.8,127.7 468.5,119.2 455.8,125.5 451.5,116.8 464.1,110.5 459.4,101 437.3,112 450.7,138.9 			
				"/>
			<path class="st2" d="M483,111.3c-2.5,1.2-8.9,4.4-8.9,4.4l4.3,8.7l22.2-11l-4.3-8.7l-13.2-4.3l8.9-4.4l-4.7-9.5l-22.1,11.1
				c0,0,2.4,4.8,4.7,9.5C474.3,108.6,476.6,109.2,483,111.3z"/>
			<path class="st2" d="M510.5,98.1c-2.5,1.2-8.9,4.4-8.9,4.4l4.3,8.7l22.2-11l-4.3-8.7l-13.2-4.3l8.9-4.4l-4.7-9.5l-22.1,11.1
				c0,0,2.4,4.8,4.7,9.5C501.9,95.4,504.1,96.1,510.5,98.1z"/>
			<polygon class="st2" points="247.7,615.1 296.8,569.6 315.6,505.3 186.2,408.3 103.1,542.5 			"/>
			<polygon class="st2" points="104.4,514.2 95.8,509 100.7,501.1 109.3,506.4 114.6,497.8 89,482 83.7,490.6 92.1,495.9 
				87.3,503.7 78.9,498.4 73.6,506.9 99.1,522.7 			"/>
			<polygon class="st2" points="104.4,476.1 104.5,476.1 121.5,486.6 126.8,478.1 109.8,467.5 114.4,460 105.9,454.7 91.3,478.3 
				99.8,483.6 			"/>
			<polygon class="st2" points="139,458.5 130.5,453 139,450.4 139.1,450.2 137.8,444.9 146.3,446.6 151.6,438 126,422.3 
				120.5,431.1 126.1,442.2 113.7,442.1 108.2,451 133.8,466.9 			"/>
			<polygon class="st2" points="166.9,413.2 158.5,408.1 151,420 133.9,409.5 128.6,418 154.2,433.8 			"/>
		</g>
	</g>
	<g>
		<g>
			<path class="st0" d="M729.4,312l43.6,19.2l0.3,6.9l-25.8,1l0.3,6.5l32.7-1.3l6,9.4l-47.8,1.9l-0.6-15.4c-0.1-3.1,0.7-5.7,2.5-7.6
				c1.8-2,4.3-3,7.4-3.1l4.4-0.2c0.9,0,1.3-0.5,1.3-1.3c0-0.7-0.4-1.2-1.2-1.7l-22.9-11.5L729.4,312z"/>
			<path class="st0" d="M714.1,349.4l-0.4-2.7l-13.6,1.9c-2.3,0.3-4.3-0.2-6.1-1.6c-1.8-1.4-2.9-3.2-3.2-5.4
				c-0.3-2.3,0.2-4.3,1.6-6.1c1.4-1.8,3.2-2.9,5.4-3.2l10.5-1.5c2.6-0.4,5.1-1.2,7.5-2.4c3.2-1.7,4.6-3.6,4.3-5.8l3.5,25.5l7.3-1
				l6.9,8.8l-51.1,7.2l-1.4-9.5L714.1,349.4z M692.3,310.5c0.8-1.1,1.9-1.7,3.2-1.9c1.3-0.2,2.5,0.1,3.6,0.9
				c1.1,0.8,1.7,1.9,1.9,3.2c0.2,1.3-0.1,2.5-0.9,3.6c-0.8,1.1-1.9,1.7-3.2,1.9c-1.3,0.2-2.5-0.1-3.6-0.9c-1.1-0.8-1.7-1.9-1.9-3.2
				C691.1,312.8,691.5,311.6,692.3,310.5z M697.7,342.2c0.5,0.4,1.1,0.5,1.7,0.4l13.7-2l-0.6-4.4l-13.7,1.9
				c-0.6,0.1-1.1,0.4-1.5,0.9c-0.4,0.5-0.5,1.1-0.4,1.7C696.8,341.4,697.1,341.9,697.7,342.2z M698.1,300c0.8-1.1,1.9-1.7,3.2-1.9
				c1.3-0.2,2.5,0.1,3.6,0.9c1.1,0.8,1.7,1.9,1.9,3.2c0.2,1.3-0.1,2.5-0.9,3.6c-0.8,1.1-1.9,1.7-3.2,1.9c-1.3,0.2-2.5-0.1-3.6-0.9
				c-1.1-0.8-1.7-1.9-1.9-3.2C697,302.2,697.3,301,698.1,300z M706.6,308.5c0.8-1.1,1.9-1.7,3.2-1.9c1.3-0.2,2.5,0.1,3.6,0.9
				c1.1,0.8,1.7,1.9,1.9,3.2c0.2,1.3-0.1,2.5-0.9,3.6c-0.8,1.1-1.9,1.7-3.2,1.9c-1.3,0.2-2.5-0.1-3.6-0.9c-1.1-0.8-1.7-1.9-1.9-3.2
				C705.5,310.8,705.8,309.6,706.6,308.5z"/>
			<path class="st0" d="M646.2,363.6l16.9-4c1.2-0.3,2.5-0.8,3.8-1.6c1.8-1,2.6-2.1,2.4-3.1l-0.7-3.2l-14.3,3.4l-3.6-15.6
				c0.5,2,2.2,3.2,5.2,3.8c2.4,0.5,4.7,0.4,6.9-0.1l8.3-1.9c1.3-0.3,2.5-0.1,3.6,0.6c1.1,0.7,1.9,1.7,2.2,3l2,8.4
				c0.2,0.7,0.2,1.6,0.1,2.6l11.4-2.7l7.6,8.1l-5.8,1.3c0.7,1.2,1.2,2.4,1.5,3.7c0.8,3.6,0.3,7.1-1.7,10.3c-2,3.2-4.8,5.3-8.5,6.1
				l-17.3,4c-1.3,0.3-2.5,0.1-3.6-0.6c-1.1-0.7-1.9-1.7-2.2-3l-1.1-4.8l22-5.1c1.1-0.3,1.9-0.8,2.5-1.7c0.6-0.9,0.8-1.9,0.5-2.9
				c-0.3-1.1-0.9-1.9-1.8-2.5c-0.9-0.6-2-0.7-3.1-0.5l-31.1,7.3L646.2,363.6z"/>
			<path class="st0" d="M573.2,386.5c0.7,1.6,2.5,2.5,5.3,2.6c2.8,0.1,5.8-0.5,9.1-1.9l6.2-2.7c1.1-0.5,2.3-1.3,3.5-2.3
				c1.6-1.3,2.1-2.5,1.7-3.4l-1.3-3l-13.4,5.9l-6.5-14.7c0.9,2,3.1,2.9,6.7,2.6c2.7-0.2,5.2-0.8,7.7-1.9c0.3-0.1,0.9-0.4,1.7-0.8
				c0.8-0.4,1.5-0.7,2-1c4.4-1.9,7.3-1.4,8.6,1.6c2.3,5.3,3.6,8.2,3.7,8.6c1.3,3.5,0.7,6.9-1.9,10.4c-2.1,3-5,5.3-8.7,6.9l-18,7.9
				L573.2,386.5z M576.9,351.7c0.5-1.2,1.3-2.1,2.6-2.7c1.2-0.5,2.4-0.6,3.7-0.1c1.2,0.5,2.1,1.3,2.7,2.6c0.5,1.2,0.6,2.4,0.1,3.7
				c-0.5,1.2-1.3,2.1-2.6,2.7c-1.2,0.5-2.4,0.6-3.7,0.1c-1.2-0.5-2.1-1.3-2.7-2.6C576.4,354.2,576.4,353,576.9,351.7z"/>
			<path class="st0" d="M528.9,419l9.1-5.2l-11.1-19.6c1.1,1.9,3.4,2.5,6.9,1.9c2.6-0.5,5.1-1.3,7.4-2.7l3.8-2.1
				c3.5-2,7.3-2.2,11.4-0.5c3.5,1.5,6.6,3.9,9.1,7.4l5.3-3l9.6,5.6l-46.9,26.5L528.9,419z M557,403.1c-1-1.2-2.1-2.1-3.3-2.8
				c-1.6-0.9-3-1.1-4.1-0.4l-6.5,3.7c0.4,0.7,0.9,1.6,1.5,2.8c0.7,1.3,1.2,2.2,1.6,2.8L557,403.1z"/>
			<path class="st0" d="M502.9,438.4l-6.4-9.2c-0.8-1.1-1-2.3-0.8-3.6c0.2-1.3,0.9-2.4,2-3.1l7.9-5.5c2.8-1.9,5.8-2.3,8.9-1.1
				l-4.3-6.2l11.1-1l8,11.4l4.3-3l10.1,4.7l-16.8,11.7l-9.2-13.2l-10.4,7.3l9.2,13.2l-16.8,11.7l-5.6-7.9L502.9,438.4z"/>
			<path class="st0" d="M469,467l11.5-9.7l7.8,9.3c0.7,0.9,1.6,1.3,2.7,1.4c1.1,0.1,2.1-0.2,2.9-1c0.9-0.7,1.3-1.6,1.4-2.7
				c0.1-1.1-0.2-2-1-2.9l-18.2-21.6l-10.7,9l-1.9-11l6.5-5.4l-6.4-7.6l0,0c-1.7-2.1-2.5-4.4-2.3-7c0.2-2.6,1.4-4.8,3.4-6.5
				l29.2,34.7l4.5-3.8l10.5,3.8l-8.8,7.4l1.6,1.9c2.4,2.9,3.5,6.2,3.2,9.9c-0.3,3.7-1.9,6.8-4.8,9.2c-2.9,2.4-6.2,3.5-10,3.2
				c-3.8-0.3-6.9-1.9-9.3-4.8l-1.6-1.9l-4.1,3.5L469,467z"/>
			<path class="st0" d="M403.9,542.4l6.5-8.2l-17.7-14c1.7,1.4,4.1,1.1,7.1-0.8c2.3-1.4,4.2-3.2,5.9-5.3l2.7-3.4
				c2.5-3.2,5.9-4.8,10.3-4.8c3.8,0,7.6,1.1,11.2,3.4l3.8-4.8l11,1.6l-33.4,42.2L403.9,542.4z M424,517c-1.3-0.7-2.7-1.2-4.1-1.4
				c-1.8-0.2-3.1,0.1-3.9,1.1l-4.6,5.9c0.6,0.5,1.4,1.2,2.5,2c1.1,0.9,2,1.6,2.5,2L424,517z"/>
			<path class="st0" d="M386.4,571.1l8.2-12.6l10.2,6.7c0.9,0.6,1.9,0.8,3,0.6c1.1-0.2,1.9-0.8,2.5-1.8c0.6-0.9,0.8-1.9,0.6-3
				c-0.2-1.1-0.8-1.9-1.8-2.5L385.5,543l-7.7,11.7l-5-10l4.6-7l-8.3-5.5l0,0.1c-2.3-1.5-3.7-3.5-4.2-6.1c-0.5-2.6-0.1-5,1.4-7.2
				l38,24.8l3.2-5l11.1,0.6l-6.3,9.6l2.1,1.4c3.2,2.1,5.1,4.9,5.9,8.6c0.8,3.6,0.2,7-1.9,10.2c-2.1,3.2-4.9,5.1-8.6,5.9
				c-3.7,0.8-7.1,0.1-10.3-1.9l-2.1-1.4l-3,4.5L386.4,571.1z"/>
			<path class="st0" d="M316.1,727.5c-0.7-1.1-0.9-2.3-0.7-3.6l1.5-7.1c0.7-3.4,2.7-5.7,5.9-6.9c-1.2-0.4-2.1-1.1-2.7-2.2
				c-0.6-1.1-0.8-2.2-0.5-3.4l1.6-7.2c0.7-3.2,2.6-5.5,5.6-6.8l-7.3-1.6l7.4-8.3l13.6,2.9l1.3-6.1l10.6-3.4l-4.6,21l-15.7-3.4
				l-2.2,10.2l6.3,1.4l0.9-4.3l9.4,2l-3,13.8l-15.7-3.4l-2.2,10.2l15.7,3.4l-2,9.4l-20.4-4.4C317.8,729.3,316.8,728.6,316.1,727.5z
				 M353.7,713.1c-0.7-1.1-0.9-2.3-0.7-3.6c0.3-1.3,1-2.3,2.1-3c1.1-0.7,2.3-0.9,3.6-0.7c1.3,0.3,2.3,1,3,2.1
				c0.7,1.1,0.9,2.3,0.7,3.6c-0.3,1.3-1,2.3-2.1,3c-1.1,0.7-2.3,0.9-3.6,0.7C355.4,714.9,354.4,714.2,353.7,713.1z M356.6,699.6
				c-0.7-1.1-0.9-2.3-0.7-3.6c0.3-1.3,1-2.3,2.1-3c1.1-0.7,2.3-0.9,3.6-0.7c1.3,0.3,2.3,1,3,2.1c0.7,1.1,0.9,2.3,0.7,3.6
				c-0.3,1.3-1,2.3-2.1,3c-1.1,0.7-2.3,1-3.6,0.7C358.3,701.4,357.3,700.7,356.6,699.6z"/>
			<path class="st0" d="M325.5,785.8l1-10.4l-22.4-2.2c2.2,0.2,4-1.3,5.5-4.6c1.1-2.4,1.8-5,2.1-7.6l0.4-4.3c0.4-4,2.4-7.2,6.1-9.6
				c3.2-2.1,7-3.1,11.3-3.2l0.6-6.1l10.1-4.6l-5.2,53.6L325.5,785.8z M328.6,753.6c-1.5,0.1-2.9,0.5-4.2,1.1
				c-1.7,0.8-2.6,1.8-2.7,3.1l-0.7,7.4c0.8,0.1,1.8,0.2,3.2,0.4c1.5,0.1,2.5,0.2,3.2,0.3L328.6,753.6z"/>
			<path class="st0" d="M277,813.9c-0.9-1-1.4-2.1-1.4-3.4c0-1.3,0.5-2.5,1.5-3.4c1-0.9,2.1-1.4,3.4-1.4c1.3,0,2.4,0.5,3.4,1.5
				c0.9,1,1.4,2.1,1.4,3.4c0,1.3-0.5,2.5-1.5,3.4c-1,0.9-2.1,1.4-3.4,1.4C279.1,815.4,277.9,814.9,277,813.9z M289.3,814.1
				c-0.9-1-1.4-2.1-1.4-3.4c0-1.3,0.5-2.5,1.5-3.4c1-0.9,2.1-1.4,3.4-1.4c1.3,0,2.5,0.5,3.4,1.5c0.9,1,1.4,2.1,1.4,3.4
				c0,1.3-0.5,2.5-1.5,3.4c-1,0.9-2.1,1.4-3.4,1.4C291.4,815.6,290.3,815.1,289.3,814.1z M326.1,816.6l-22.5-0.4
				c2.2,0,3.9-1.7,5.2-5.1c0.9-2.5,1.4-5,1.5-7.7l0.1-6.4c0-2.2,0.9-4.1,2.5-5.7c1.7-1.6,3.6-2.3,5.9-2.3c2.2,0,4.1,0.9,5.7,2.5
				c1.6,1.6,2.4,3.5,2.3,5.8l-0.2,9.6l11.1,0.2c0-1.4,1.4-3,4-4.8c2.7-1.8,4-3.4,4-4.8c0.1-3.7-1.4-6.6-4.3-8.8
				c-2.5-1.8-5.8-2.8-9.7-2.9c0.9-3.2,3.9-4.8,9.1-4.7c4.5,0.1,8.1,1.9,10.7,5.5c2.3,3.3,3.5,7.2,3.4,11.9
				c-0.1,5.3-1.7,9.6-4.8,12.9c-3.2,3.5-7.5,5.2-12.7,5.1l-1.9,0l-0.2,10.5l-9.6-0.1L326.1,816.6z M320.8,797.2L320.8,797.2
				c-0.1-0.6-0.3-1-0.7-1.5c-0.4-0.4-0.9-0.6-1.5-0.6c-0.6,0-1.1,0.2-1.6,0.6c-0.5,0.4-0.7,0.9-0.7,1.4l-0.2,9.6l4.4,0.1
				L320.8,797.2z"/>
			<path class="st0" d="M291.4,839.2c-1-0.9-1.6-2-1.7-3.3c-0.1-1.3,0.3-2.4,1.2-3.5c0.9-1,2-1.6,3.3-1.7c1.3-0.1,2.5,0.3,3.5,1.2
				c1,0.9,1.6,2,1.7,3.3c0.1,1.3-0.3,2.5-1.2,3.5c-0.9,1-2,1.6-3.3,1.7C293.6,840.4,292.4,840,291.4,839.2z M325.4,851.5
				c3.3-0.2,6-0.9,8.4-2c3.2-1.5,4.8-3.6,4.6-6.3c-0.1-1.8-1-3.3-2.6-4.3c-1.4-1-3.1-1.4-4.9-1.2l-13.9,1c-2.7,0.2-5-0.6-7-2.3
				c-2-1.7-3.1-3.9-3.3-6.6l20.8-1.5l-0.5-6.2l9.2-6.3l1,13.1c3,0.9,5.4,2.5,7.3,4.7c1.9,2.2,2.9,4.9,3.2,8c0.3,3.8-0.8,7-3.3,9.5
				c-2.5,2.5-5.7,3.9-9.6,4.2C329.6,855.6,326.5,854.4,325.4,851.5z"/>
			<path class="st0" d="M296.9,882.7c-1.1-0.8-1.7-1.8-1.9-3.2c-0.2-1.3,0.1-2.5,0.9-3.6c0.8-1.1,1.8-1.7,3.2-1.9
				c1.3-0.2,2.5,0.1,3.6,0.9c1.1,0.8,1.7,1.8,1.9,3.2c0.2,1.3-0.1,2.5-0.9,3.6c-0.8,1.1-1.8,1.7-3.2,1.9
				C299.1,883.8,297.9,883.5,296.9,882.7z M335.8,894.4l-2.9-19.5c-0.2-1.2-0.6-2.5-1.3-3.9c-0.9-1.9-1.8-2.8-2.9-2.6l-3.2,0.5
				l2.2,14.5l-15.9,2.4c2.2-0.3,3.6-2.2,4.3-5.8c0.5-2.6,0.6-5.3,0.2-7.9c-0.1-0.3-0.2-1-0.3-1.9c-0.2-0.9-0.3-1.7-0.4-2.2
				c-0.7-4.8,0.6-7.4,3.8-7.9c5.7-0.9,8.8-1.3,9.2-1.3c3.7-0.3,6.9,1.2,9.5,4.6c2.3,2.9,3.8,6.3,4.4,10.2l2.9,19.5L335.8,894.4z"/>
			<path class="st0" d="M366.7,1058.9l-2.3-47.6l6-3.3l12.4,22.6l5.7-3.1l-15.7-28.7l5.8-9.5l23,42l-13.5,7.4
				c-2.7,1.5-5.4,1.9-8,1.1c-2.6-0.7-4.6-2.5-6.1-5.2l-2.1-3.8c-0.4-0.8-1-1-1.7-0.6c-0.6,0.3-0.9,0.9-1,1.9l-0.1,25.6L366.7,1058.9
				z"/>
			<path class="st0" d="M369.9,1092.3c-1.3-0.2-2.3-0.9-3.1-2c-0.8-1.1-1-2.3-0.8-3.6c0.2-1.3,0.9-2.3,2-3.1c1.1-0.8,2.3-1,3.6-0.8
				c1.3,0.2,2.3,0.9,3.1,2s1,2.3,0.8,3.6c-0.2,1.3-0.9,2.3-2,3.1C372.4,1092.3,371.2,1092.5,369.9,1092.3z M373.7,1080.9
				c-1.3-0.2-2.3-0.9-3.1-2c-0.8-1.1-1-2.3-0.8-3.6c0.2-1.3,0.9-2.3,2-3.1c1.1-0.8,2.3-1,3.6-0.8c1.3,0.2,2.3,0.9,3.1,2
				c0.8,1.1,1,2.3,0.8,3.6c-0.2,1.3-0.9,2.3-2,3.1C376.2,1080.9,375,1081.1,373.7,1080.9z M381.9,1092.8c-1.3-0.2-2.3-0.9-3.1-2
				c-0.8-1.1-1-2.3-0.8-3.6c0.2-1.3,0.9-2.3,2-3.1c1.1-0.8,2.3-1,3.6-0.8c1.3,0.2,2.3,0.9,3.1,2c0.8,1.1,1,2.3,0.8,3.6
				c-0.2,1.3-0.9,2.3-2,3.1C384.4,1092.8,383.2,1093.1,381.9,1092.8z M407,1055.9l-2.3,1.6l7.8,11.3c1.3,1.9,1.7,3.9,1.3,6.2
				s-1.6,4-3.4,5.3c-1.9,1.3-3.9,1.7-6.2,1.3c-2.3-0.4-4-1.5-5.3-3.4l-6-8.7c-1.5-2.2-3.3-4.1-5.5-5.7c-2.9-2.1-5.3-2.5-7.1-1.3
				l21.2-14.5l-4.2-6l4.8-10.1l29.2,42.6l-7.9,5.5L407,1055.9z M407.9,1073.8c0.1-0.6,0-1.2-0.4-1.7l-7.9-11.4l-3.7,2.5l7.8,11.4
				c0.3,0.5,0.8,0.8,1.4,0.9c0.6,0.1,1.2,0,1.7-0.3C407.5,1074.9,407.8,1074.4,407.9,1073.8z"/>
			<path class="st0" d="M450,1110.4l-11.1-13.4c-0.8-1-1.8-1.8-3.1-2.7c-1.7-1.2-3-1.4-3.8-0.8l-2.5,2.1l9.4,11.3l-12.4,10.2
				c1.6-1.3,1.9-3.4,1.1-6.3c-0.6-2.3-1.7-4.4-3.2-6.1l-5.4-6.5c-0.8-1-1.2-2.2-1.1-3.5c0.1-1.3,0.7-2.4,1.7-3.3l6.6-5.6
				c0.6-0.5,1.3-0.9,2.3-1.2l-7.5-9l3.9-10.5l3.8,4.6c0.7-1.2,1.6-2.2,2.7-3c2.9-2.4,6.2-3.4,10-3c3.8,0.4,6.9,2,9.3,4.9l11.3,13.7
				c0.8,1,1.2,2.2,1.1,3.5c-0.1,1.3-0.7,2.4-1.7,3.3l-3.8,3.2l-14.4-17.4c-0.7-0.9-1.6-1.4-2.7-1.5c-1.1-0.1-2,0.1-2.9,0.8
				c-0.9,0.7-1.3,1.6-1.4,2.7c-0.1,1.1,0.2,2.1,0.9,2.9l20.3,24.6L450,1110.4z"/>
			<path class="st0" d="M468,1127.7l-7.3-7.6c-17.7,17-26,24.9-25,23.9c-5.6,5.3-8.2,7.7-7.9,7.4c-1.8-1.9-2.7-4.2-2.7-7
				c0-2.7,1-5,2.9-6.8l25.8-24.7l-6.5-6.8l3.1-10.7l24.5,25.7L468,1127.7z"/>
			<path class="st0" d="M486.6,1144.4l-7.7-7.2c-16.8,17.9-24.6,26.3-23.6,25.2c-5.3,5.6-7.8,8.2-7.4,7.8c-1.9-1.8-3-4.1-3.1-6.8
				c-0.1-2.7,0.7-5,2.5-7l24.4-26.1l-6.9-6.4l2.5-10.9l25.9,24.3L486.6,1144.4z"/>
			<path class="st0" d="M500.6,1198.8l-20.5-43l4.3-5.4l20.2,16l4-5.1l-25.6-20.4l1.6-11l37.5,29.8l-9.6,12
				c-1.9,2.4-4.2,3.8-6.9,4.1c-2.7,0.3-5.2-0.5-7.7-2.5l-3.4-2.7c-0.7-0.6-1.3-0.5-1.8,0.1c-0.4,0.5-0.5,1.2-0.2,2.1l9.8,23.6
				L500.6,1198.8z"/>
			<path class="st0" d="M662,1272.1l-34.5-32.8l2.1-6.6l24.6,7.8l2-6.2l-31.2-9.8l-2.4-10.9l45.6,14.4l-4.6,14.7
				c-0.9,3-2.6,5.1-5,6.3c-2.4,1.2-5,1.4-8,0.4l-4.2-1.3c-0.9-0.3-1.4,0-1.7,0.8c-0.2,0.7,0,1.3,0.6,2l17.6,18.6L662,1272.1z"/>
			<path class="st0" d="M689,1242l-0.6,2.7l13.4,2.8c2.2,0.5,4,1.6,5.2,3.5c1.2,1.9,1.6,4,1.2,6.2c-0.5,2.2-1.6,4-3.6,5.2
				c-1.9,1.3-4,1.7-6.1,1.2l-10.4-2.2c-2.6-0.5-5.2-0.6-7.9-0.3c-3.6,0.5-5.6,1.9-6,4l5.3-25.2l-7.2-1.5l-3.5-10.6l50.6,10.5
				l-1.9,9.5L689,1242z M682.3,1283.1c-1.1,0.7-2.3,1-3.6,0.7c-1.3-0.3-2.3-1-3-2.1c-0.7-1.1-1-2.3-0.7-3.6c0.3-1.3,1-2.3,2.1-3
				c1.1-0.7,2.3-1,3.6-0.7c1.3,0.3,2.3,1,3,2.1c0.7,1.1,1,2.3,0.7,3.6C684.1,1281.3,683.4,1282.4,682.3,1283.1z M687.4,1294
				c-1.1,0.7-2.3,1-3.6,0.7c-1.3-0.3-2.3-1-3-2.1c-0.7-1.1-1-2.3-0.7-3.6c0.3-1.3,1-2.3,2.1-3.1c1.1-0.7,2.3-1,3.6-0.7
				c1.3,0.3,2.3,1,3,2.1c0.7,1.1,1,2.3,0.7,3.6C689.2,1292.2,688.5,1293.3,687.4,1294z M702.1,1254.4c-0.4-0.5-0.8-0.8-1.4-1
				l-13.6-2.7l-0.9,4.3l13.5,2.8c0.6,0.1,1.1,0,1.7-0.3c0.5-0.3,0.9-0.8,1-1.4C702.5,1255.4,702.4,1254.9,702.1,1254.4z M696.5,1286
				c-1.1,0.7-2.3,1-3.6,0.7c-1.3-0.3-2.3-1-3-2.1c-0.7-1.1-1-2.3-0.7-3.6c0.3-1.3,1-2.3,2.1-3c1.1-0.7,2.3-1,3.6-0.7
				c1.3,0.3,2.3,1,3,2.1c0.7,1.1,1,2.3,0.7,3.6C698.3,1284.3,697.6,1285.3,696.5,1286z"/>
			<path class="st0" d="M757.8,1251.6l-17.3-2c-1.2-0.1-2.6-0.1-4.1,0.2c-2.1,0.4-3.2,1.1-3.3,2.1l-0.4,3.3l14.6,1.7l-1.9,15.9
				c0.2-2-1-3.8-3.6-5.3c-2.1-1.2-4.2-2-6.5-2.2l-8.4-1c-1.3-0.2-2.4-0.8-3.2-1.8c-0.8-1-1.2-2.2-1-3.5l0.9-8.6
				c0.1-0.7,0.4-1.6,0.8-2.5l-11.6-1.3l-4.5-10.2l5.9,0.7c-0.3-1.3-0.3-2.7-0.2-4c0.4-3.7,2.1-6.7,5.1-9.1c3-2.4,6.3-3.3,10.1-2.9
				l17.6,2c1.3,0.2,2.4,0.8,3.2,1.8c0.8,1,1.2,2.2,1,3.5l-0.6,4.9l-22.4-2.6c-1.1-0.1-2.1,0.1-3,0.8c-0.9,0.7-1.4,1.5-1.5,2.6
				c-0.1,1.1,0.2,2.1,0.9,2.9c0.7,0.9,1.6,1.3,2.7,1.5l31.7,3.7L757.8,1251.6z"/>
			<path class="st0" d="M782.7,1251.7l-10.5-0.5c-1.1,24.5-1.6,36-1.5,34.5c-0.4,7.7-0.6,11.3-0.5,10.8c-2.7-0.1-4.9-1.2-6.8-3.1
				c-1.9-2-2.7-4.3-2.6-6.9l1.5-35.7l-9.4-0.4l-5.2-9.9l35.5,1.5L782.7,1251.7z"/>
			<path class="st0" d="M807.7,1250.7l-10.5,0.2c0.4,24.5,0.6,36,0.6,34.5c0.1,7.7,0.1,11.3,0.1,10.8c-2.7,0-5-0.9-7-2.7
				c-2-1.9-3-4.1-3-6.8l-0.6-35.7l-9.4,0.2l-5.8-9.6l35.5-0.6L807.7,1250.7z"/>
			<path class="st0" d="M845.6,1253.5c-0.2-1.8-1.6-3.1-4.2-4.2c-2.6-1-5.7-1.4-9.2-1.1l-6.8,0.6c-1.2,0.1-2.6,0.5-4,1.1
				c-1.9,0.8-2.8,1.7-2.7,2.7l0.3,3.3l14.6-1.3l1.5,16c-0.2-2.2-2-3.7-5.5-4.6c-2.6-0.7-5.2-0.9-7.9-0.6c-0.3,0-1,0.1-1.9,0.2
				c-0.9,0.1-1.7,0.2-2.2,0.3c-4.8,0.4-7.4-1-7.7-4.3c-0.5-5.8-0.8-8.9-0.8-9.3c-0.1-3.7,1.6-6.8,5.1-9.2c3-2.2,6.5-3.4,10.4-3.8
				l19.6-1.8L845.6,1253.5z M831,1285.2c-0.9,1-1.9,1.6-3.3,1.7c-1.3,0.1-2.5-0.2-3.5-1.1c-1-0.9-1.6-1.9-1.7-3.3
				c-0.1-1.3,0.2-2.5,1.1-3.5c0.9-1,1.9-1.6,3.3-1.7c1.3-0.1,2.5,0.2,3.5,1.1c1,0.9,1.6,1.9,1.7,3.3
				C832.3,1283,831.9,1284.2,831,1285.2z"/>
			<path class="st0" d="M897.9,1236.7l-10.3,2l4.3,22.1c-0.4-2.1-2.4-3.5-6-4c-2.7-0.4-5.3-0.4-7.9,0.2l-4.2,0.8
				c-4,0.8-7.6-0.3-11-3.1c-2.9-2.5-5-5.8-6.3-9.9l-6,1.2l-7.3-8.4l52.9-10.2L897.9,1236.7z M866.1,1242.9c0.5,1.4,1.3,2.7,2.2,3.7
				c1.2,1.4,2.5,1.9,3.7,1.7l7.3-1.4c-0.1-0.8-0.3-1.8-0.5-3.2c-0.3-1.4-0.5-2.5-0.6-3.2L866.1,1242.9z"/>
			<path class="st0" d="M999.2,1195l5,10.1c0.6,1.2,0.7,2.4,0.2,3.7c-0.4,1.3-1.2,2.2-2.4,2.8l-8.7,4.3c-3,1.5-6,1.4-9-0.2l3.4,6.8
				l-11.1-0.7l-6.2-12.5l-4.7,2.3l-9.3-6.2l18.4-9.1l7.1,14.4l11.4-5.6l-7.1-14.4l18.3-9.1l4.3,8.6L999.2,1195z"/>
			<path class="st0" d="M1037,1171.8l-12.8,7.8l-6.3-10.4c-0.6-1-1.4-1.6-2.5-1.8c-1.1-0.2-2.1-0.1-3,0.5c-1,0.6-1.5,1.4-1.8,2.4
				c-0.2,1.1-0.1,2.1,0.5,3l14.7,24.1l12-7.3l0.3,11.1l-7.2,4.4l5.2,8.5l0.1,0c1.4,2.3,1.8,4.7,1.2,7.3c-0.6,2.6-2.1,4.5-4.3,5.9
				l-23.7-38.7l-5,3.1l-9.8-5.3l9.8-6l-1.3-2.1c-2-3.2-2.5-6.6-1.7-10.3c0.8-3.6,2.9-6.4,6.1-8.4c3.2-2,6.7-2.5,10.3-1.6
				c3.7,0.9,6.5,2.9,8.5,6.1l1.3,2.1l4.6-2.8L1037,1171.8z"/>
			<path class="st0" d="M1075,1143.1l-8.4,6.2l13.4,18.1c-1.3-1.8-3.7-2.1-7.1-1.1c-2.6,0.8-4.9,2-7.1,3.5l-3.5,2.6
				c-3.2,2.4-7,3-11.2,1.9c-3.7-1-7-3.1-10-6.2l-4.9,3.6l-10.2-4.4l43.3-32L1075,1143.1z M1049,1162.4c1.1,1.1,2.3,1.8,3.6,2.4
				c1.7,0.7,3.1,0.7,4.1-0.1l6-4.4c-0.5-0.6-1.1-1.5-1.9-2.6c-0.9-1.2-1.5-2-1.9-2.6L1049,1162.4z"/>
			<path class="st0" d="M1099.4,1120l-11.2,10l-8.1-9.1c-0.7-0.8-1.7-1.3-2.8-1.3c-1.1,0-2.1,0.3-2.9,1c-0.8,0.7-1.3,1.6-1.3,2.7
				c0,1.1,0.3,2,1,2.9l18.8,21.1l10.5-9.3l2.2,10.9l-6.3,5.6l6.6,7.5l0,0c1.8,2,2.6,4.3,2.5,7c-0.2,2.6-1.2,4.8-3.2,6.6l-30.2-33.8
				l-4.4,3.9l-10.6-3.5l8.6-7.6l-1.7-1.9c-2.5-2.8-3.7-6.1-3.5-9.8c0.2-3.7,1.7-6.8,4.5-9.3c2.8-2.5,6.1-3.7,9.9-3.5
				c3.8,0.2,6.9,1.7,9.4,4.5l1.7,1.9l4-3.6L1099.4,1120z"/>
			<path class="st0" d="M1121.6,1101.6c-2.3-2.3-4.7-3.9-7-4.9c-3.3-1.4-5.9-1.1-7.8,0.8c-1.3,1.3-1.8,2.9-1.5,4.8
				c0.2,1.8,1,3.2,2.4,4.5l10,9.7c1.9,1.8,2.9,4.1,2.9,6.8c0,2.7-0.9,5-2.7,6.9l-15-14.5l-4.3,4.4l-10.8-2.7l9.1-9.4
				c-1.3-2.8-1.8-5.7-1.4-8.6c0.4-2.9,1.7-5.4,3.8-7.7c2.7-2.8,5.8-4.1,9.3-3.9c3.5,0.2,6.7,1.6,9.5,4.3
				C1121.9,1095.7,1123,1098.9,1121.6,1101.6z M1135,1135.2c0,1.3-0.4,2.5-1.4,3.4c-0.9,0.9-2,1.4-3.4,1.4c-1.3,0-2.5-0.4-3.5-1.3
				c-1-0.9-1.4-2.1-1.4-3.4c0-1.3,0.4-2.5,1.3-3.4c0.9-1,2.1-1.4,3.4-1.5c1.3,0,2.5,0.4,3.4,1.4
				C1134.5,1132.7,1135,1133.8,1135,1135.2z"/>
			<path class="st0" d="M1144.8,1067.3c3.2,4.1,3.9,9.4,2.2,16c-0.4,1.7-0.3,3.4,0.4,5.3c0.7,1.8,1.8,3.3,3.2,4.5
				c-1.5-1.2-3.2-2-5.1-2.3c-1.9-0.3-3.7-0.1-5.3,0.7c-5.9,2.9-11.2,3.2-15.9,0.8l-4.6,5.6l-11-1.8l8.5-10.3
				c-1.7-2.9-2.4-6.1-2.2-9.6c0.2-3.5,1.5-6.6,3.7-9.3c2.2-2.7,5-4.5,8.4-5.4c3.4-0.9,6.6-0.8,9.9,0.3l6.1-7.5l7.5,6.1
				L1144.8,1067.3z M1130.9,1070.5c-1.9,0.2-3.5,1-4.7,2.5c-1.2,1.5-1.7,3.1-1.5,5.1c0.2,1.9,1,3.5,2.4,4.7c1.5,1.2,3.2,1.7,5.1,1.5
				c1.9-0.2,3.5-1,4.7-2.5c1.2-1.5,1.7-3.2,1.6-5.1c-0.2-1.9-1-3.5-2.5-4.7C1134.5,1070.8,1132.8,1070.3,1130.9,1070.5z"/>
			<path class="st0" d="M1167.8,1032.9l9.3,6.3c1.1,0.7,1.8,1.8,2,3.1c0.3,1.3,0,2.5-0.7,3.6l-5.4,8c-1.9,2.8-4.5,4.2-7.9,4.3
				l6.3,4.2l-10,4.9l-11.6-7.8l-2.9,4.4l-11.1-0.7l11.5-17l13.3,9l7.1-10.6l-13.3-9l11.4-17l8,5.3L1167.8,1032.9z"/>
			<path class="st0" d="M1202,899.2c0.7,1.1,0.9,2.3,0.6,3.6c-0.3,1.3-1,2.3-2.1,3c-1.1,0.7-2.3,0.9-3.6,0.6c-1.3-0.3-2.3-1-3-2.1
				c-0.7-1.1-0.9-2.3-0.6-3.6c0.3-1.3,1-2.3,2.1-3c1.1-0.7,2.3-1,3.6-0.7C1200.2,897.3,1201.2,898,1202,899.2z M1205,885.7
				c0.7,1.1,0.9,2.3,0.6,3.6c-0.3,1.3-1,2.3-2.1,3c-1.1,0.7-2.3,0.9-3.6,0.6c-1.3-0.3-2.3-1-3-2.1c-0.7-1.1-0.9-2.3-0.6-3.6
				c0.3-1.3,1-2.3,2.1-3c1.1-0.7,2.3-0.9,3.6-0.6C1203.2,883.9,1204.2,884.6,1205,885.7z M1242.7,871.5c0.7,1.1,0.9,2.3,0.6,3.6
				l-1.6,7.1c-0.7,3.3-2.7,5.7-6,6.9c1.2,0.4,2.1,1.1,2.7,2.2c0.6,1.1,0.8,2.2,0.5,3.4l-1.6,7.2c-0.7,3.2-2.6,5.5-5.7,6.8l7.3,1.6
				l-7.5,8.2l-13.6-3l-1.4,6.1l-10.6,3.4l4.7-21l15.6,3.5l2.3-10.2l-6.3-1.4l-1,4.3l-9.4-2l3.1-13.7l15.7,3.5l2.3-10.2l-15.7-3.5
				l2.1-9.4l20.4,4.6C1240.9,869.7,1241.9,870.4,1242.7,871.5z"/>
			<path class="st0" d="M1233.7,813.2l-1.1,10.4l22.4,2.3c-2.2-0.2-4,1.3-5.6,4.5c-1.2,2.4-1.9,5-2.1,7.6l-0.4,4.3
				c-0.4,4-2.5,7.2-6.2,9.6c-3.2,2-7,3.1-11.3,3.2l-0.6,6.1l-10.2,4.6l5.6-53.5L1233.7,813.2z M1230.4,845.4
				c1.5-0.1,2.9-0.5,4.2-1.1c1.7-0.8,2.6-1.8,2.7-3.1l0.8-7.4c-0.8-0.1-1.8-0.2-3.2-0.4c-1.5-0.2-2.5-0.3-3.2-0.3L1230.4,845.4z"/>
			<path class="st0" d="M1233.1,782.3l22.5,0.4c-2.2,0-3.9,1.7-5.2,5.1c-0.9,2.5-1.4,5-1.5,7.7l-0.1,6.4c0,2.2-0.9,4.1-2.5,5.7
				c-1.7,1.6-3.6,2.3-5.9,2.3c-2.2,0-4.1-0.9-5.7-2.5c-1.6-1.6-2.4-3.5-2.3-5.8l0.2-9.6l-11.1-0.2c0,1.4-1.4,3-4,4.8
				c-2.7,1.8-4,3.4-4,4.8c-0.1,3.7,1.4,6.6,4.3,8.8c2.5,1.8,5.8,2.8,9.7,2.9c-0.9,3.2-3.9,4.8-9.1,4.7c-4.5-0.1-8.1-1.9-10.7-5.5
				c-2.3-3.3-3.5-7.2-3.4-11.9c0.1-5.3,1.7-9.6,4.8-12.9c3.2-3.5,7.5-5.2,12.7-5.1l1.9,0l0.2-10.5l9.6,0.1L1233.1,782.3z
				 M1238.4,801.7L1238.4,801.7c0.1,0.6,0.3,1,0.7,1.5c0.4,0.4,0.9,0.6,1.5,0.6c0.6,0,1.1-0.2,1.6-0.6s0.7-0.9,0.7-1.4l0.2-9.6
				l-4.4-0.1L1238.4,801.7z M1269.9,784.8c0.9,1,1.4,2.1,1.4,3.4c0,1.3-0.5,2.5-1.5,3.4c-1,0.9-2.1,1.4-3.4,1.4
				c-1.3,0-2.5-0.5-3.4-1.5c-0.9-1-1.4-2.1-1.4-3.4c0-1.3,0.5-2.5,1.5-3.4c1-0.9,2.1-1.4,3.4-1.4
				C1267.8,783.4,1268.9,783.9,1269.9,784.8z M1282.2,785c0.9,1,1.4,2.1,1.4,3.4c0,1.3-0.5,2.5-1.5,3.4c-1,0.9-2.1,1.4-3.4,1.4
				c-1.3,0-2.4-0.5-3.4-1.5c-0.9-1-1.4-2.1-1.4-3.4c0-1.3,0.5-2.5,1.5-3.4c1-0.9,2.1-1.4,3.4-1.4
				C1280.2,783.6,1281.3,784.1,1282.2,785z"/>
			<path class="st0" d="M1234.2,747.5c-3.3,0.2-6,0.9-8.4,1.9c-3.3,1.5-4.8,3.6-4.6,6.3c0.1,1.8,1,3.3,2.5,4.3
				c1.4,1,3.1,1.4,4.9,1.2l13.9-0.9c2.7-0.2,5,0.6,7,2.4c2,1.8,3.1,4,3.3,6.6l-20.9,1.4l0.4,6.2l-9.3,6.2l-0.9-13.1
				c-3-0.9-5.4-2.5-7.3-4.7c-1.9-2.2-2.9-4.9-3.1-8c-0.3-3.9,0.9-7,3.4-9.5c2.5-2.5,5.7-3.9,9.6-4.1
				C1230,743.3,1233.2,744.6,1234.2,747.5z M1268.1,760c1,0.9,1.6,2,1.6,3.3c0.1,1.3-0.3,2.4-1.2,3.5c-0.9,1-2,1.6-3.3,1.7
				c-1.3,0.1-2.5-0.3-3.5-1.2c-1-0.9-1.6-2-1.6-3.3c-0.1-1.3,0.3-2.5,1.2-3.5c0.9-1,2-1.6,3.3-1.6
				C1265.9,758.8,1267.1,759.2,1268.1,760z"/>
			<path class="st0" d="M1224.1,704.4l2.8,19.5c0.2,1.2,0.6,2.5,1.3,3.9c0.9,1.9,1.8,2.8,2.8,2.6l3.2-0.5l-2.1-14.5l15.9-2.3
				c-2.2,0.3-3.6,2.2-4.3,5.7c-0.5,2.6-0.6,5.3-0.2,7.9c0,0.3,0.2,1,0.3,1.9c0.2,0.9,0.3,1.7,0.4,2.2c0.7,4.8-0.6,7.4-3.9,7.9
				c-5.7,0.8-8.8,1.2-9.2,1.3c-3.7,0.3-6.8-1.2-9.5-4.6c-2.3-2.9-3.8-6.3-4.3-10.2l-2.8-19.5L1224.1,704.4z M1262.9,716.5
				c1.1,0.8,1.7,1.9,1.9,3.2c0.2,1.3-0.1,2.5-0.9,3.6c-0.8,1.1-1.9,1.7-3.2,1.9c-1.3,0.2-2.5-0.1-3.6-0.9c-1.1-0.8-1.7-1.9-1.9-3.2
				c-0.2-1.3,0.1-2.5,0.9-3.6c0.8-1.1,1.9-1.7,3.2-1.9C1260.7,715.3,1261.9,715.7,1262.9,716.5z"/>
			<path class="st0" d="M1194.3,539.8l1.9,47.6l-6.1,3.3l-12.3-22.7l-5.7,3.1l15.6,28.8l-5.8,9.5l-22.7-42.1l13.5-7.3
				c2.8-1.5,5.4-1.8,8-1.1c2.6,0.8,4.6,2.5,6.1,5.3l2.1,3.8c0.4,0.8,1,1,1.7,0.6c0.6-0.3,0.9-0.9,1-1.8l0.3-25.6L1194.3,539.8z"/>
			<path class="st0" d="M1154,542.5l2.3-1.6l-7.7-11.3c-1.3-1.9-1.7-3.9-1.3-6.2c0.4-2.2,1.6-4,3.5-5.3c1.9-1.3,3.9-1.7,6.2-1.3
				c2.3,0.4,4,1.6,5.3,3.4l5.9,8.8c1.5,2.2,3.3,4.1,5.4,5.7c2.9,2.1,5.3,2.5,7.1,1.3l-21.3,14.4l4.1,6.1l-4.9,10l-29-42.8l8-5.5
				L1154,542.5z M1153.2,524.6c-0.1,0.6,0,1.2,0.4,1.7l7.8,11.4l3.7-2.5l-7.8-11.5c-0.3-0.5-0.8-0.8-1.4-0.9c-0.6-0.1-1.2,0-1.7,0.3
				C1153.6,523.5,1153.3,523.9,1153.2,524.6z M1179.3,505.8c1.3,0.3,2.3,0.9,3.1,2c0.7,1.1,1,2.3,0.7,3.6c-0.3,1.3-0.9,2.3-2,3.1
				c-1.1,0.7-2.3,1-3.6,0.7c-1.3-0.3-2.3-0.9-3.1-2c-0.7-1.1-1-2.3-0.7-3.6c0.3-1.3,0.9-2.3,2-3.1
				C1176.8,505.7,1178,505.5,1179.3,505.8z M1187.4,517.7c1.3,0.3,2.3,0.9,3.1,2c0.7,1.1,1,2.3,0.7,3.6c-0.3,1.3-0.9,2.3-2,3.1
				c-1.1,0.7-2.3,1-3.6,0.7c-1.3-0.3-2.3-0.9-3.1-2c-0.7-1.1-1-2.3-0.7-3.6c0.3-1.3,0.9-2.3,2-3.1
				C1184.9,517.7,1186.1,517.5,1187.4,517.7z M1191.4,506.4c1.3,0.3,2.3,0.9,3.1,2c0.7,1.1,1,2.3,0.7,3.6c-0.3,1.3-0.9,2.3-2,3.1
				c-1.1,0.7-2.3,1-3.6,0.7c-1.3-0.3-2.3-0.9-3.1-2c-0.7-1.1-1-2.3-0.7-3.6c0.3-1.3,0.9-2.3,2-3.1
				C1188.9,506.4,1190.1,506.1,1191.4,506.4z"/>
			<path class="st0" d="M1111.4,487.7l11,13.5c0.8,1,1.8,1.9,3.1,2.7c1.7,1.2,3,1.4,3.8,0.8l2.5-2.1l-9.3-11.4l12.4-10.1
				c-1.6,1.3-1.9,3.4-1.1,6.3c0.6,2.3,1.7,4.4,3.1,6.2l5.4,6.6c0.8,1,1.2,2.2,1.1,3.5c-0.1,1.3-0.7,2.4-1.7,3.3l-6.7,5.5
				c-0.6,0.5-1.3,0.9-2.3,1.2l7.4,9.1l-3.9,10.4l-3.7-4.6c-0.7,1.1-1.6,2.2-2.7,3c-2.9,2.4-6.2,3.3-10,3c-3.8-0.4-6.8-2-9.2-5
				l-11.2-13.8c-0.8-1-1.2-2.2-1.1-3.5c0.1-1.3,0.7-2.4,1.7-3.3l3.8-3.1l14.3,17.5c0.7,0.9,1.6,1.4,2.7,1.5c1.1,0.1,2-0.1,2.9-0.8
				c0.9-0.7,1.3-1.6,1.4-2.7c0.1-1.1-0.2-2.1-0.9-2.9l-20.2-24.7L1111.4,487.7z"/>
			<path class="st0" d="M1093.5,470.3l7.2,7.7c17.8-16.8,26.2-24.7,25.1-23.7c5.6-5.2,8.2-7.7,7.9-7.4c1.8,1.9,2.7,4.3,2.7,7
				c0,2.7-1,5-3,6.8l-25.9,24.5l6.4,6.8l-3.2,10.7l-24.4-25.8L1093.5,470.3z"/>
			<path class="st0" d="M1075,453.5l7.6,7.3c16.9-17.8,24.8-26.1,23.8-25c5.3-5.5,7.8-8.1,7.5-7.8c1.9,1.8,2.9,4.1,3.1,6.8
				c0.1,2.7-0.7,5-2.6,7l-24.5,25.9l6.8,6.5l-2.6,10.8l-25.7-24.5L1075,453.5z"/>
			<path class="st0" d="M1061.4,398.9l20.2,43.1l-4.3,5.4l-20.1-16.2l-4.1,5.1l25.5,20.5l-1.7,11l-37.3-30l9.6-12
				c2-2.4,4.3-3.8,6.9-4.1c2.7-0.3,5.2,0.6,7.6,2.5l3.4,2.7c0.7,0.6,1.3,0.5,1.8-0.1c0.4-0.5,0.5-1.2,0.2-2.1l-9.6-23.7
				L1061.4,398.9z"/>
			<path class="st0" d="M909,362.8l9.9,3.5c8.2-23.1,12-34,11.5-32.6c2.6-7.2,3.8-10.6,3.7-10.2c2.5,0.9,4.4,2.5,5.6,5
				c1.2,2.4,1.4,4.9,0.5,7.4l-11.8,33.7l8.9,3.1l2.1,11l-33.5-11.8L909,362.8z"/>
			<path class="st0" d="M884.9,356.4l10.1,3c6.9-23.5,10.1-34.6,9.7-33.2c2.2-7.4,3.2-10.8,3.1-10.4c2.6,0.7,4.5,2.3,5.8,4.7
				c1.3,2.4,1.6,4.8,0.9,7.4l-10,34.3l9,2.6l2.7,10.8l-34.1-10L884.9,356.4z"/>
			<path class="st0" d="M847.7,314.2l37.7,29l-1.4,6.7l-25.3-5.2l-1.3,6.4l32.1,6.6l3.6,10.6l-46.9-9.6l3.1-15.1
				c0.6-3.1,2.1-5.3,4.3-6.8c2.2-1.5,4.9-1.9,7.9-1.3l4.3,0.9c0.9,0.2,1.4-0.1,1.6-0.9c0.1-0.7-0.1-1.3-0.8-1.9L847.2,317
				L847.7,314.2z"/>
		</g>
		<title>magicapps</title>
		<g>
			<g id="Layer_1-2_1_">
				
					<rect x="969" y="1291.2" transform="matrix(0.9006 -0.4347 0.4347 0.9006 -495.389 598.1053)" class="st3" width="181.6" height="181.6"/>
				<g>
					<path class="st4" d="M1116.7,1377.6l-13.4-27.7c-0.6-1.2-1.1-2.4-1.7-3.4c-0.6-0.9-1.2-1.8-2-2.5c-0.8-0.7-1.6-0.9-2.5-1
						c-1.2-0.1-2.4,0.2-3.5,0.8c-2.2,1-3.4,2.4-3.6,4.1c0,2.5,0.7,5,1.9,7.3l13.5,28l-4.3,2.1l-13.4-27.7c-0.4-0.8-0.7-1.6-1-2.5
						c-0.4-0.9-0.8-1.9-1-2.9c-0.3-1-0.4-2.2-0.5-3.1c-0.1-1.1,0.2-2.3,0.7-3.3c0.5-1.1,1.2-2.2,2.1-3c1.1-1.1,2.5-2.1,4.1-2.7
						c2-1.1,4.1-1.6,6.3-1.6c1.6,0.1,3.1,0.6,4.3,1.5c1.2,0.9,2.3,2.2,3,3.6s1.6,2.8,2.4,4.3l13.3,27.6L1116.7,1377.6L1116.7,1377.6
						z"/>
					<path class="st4" d="M1097,1387.1l-4.9,2.4l-12.2-11.6l1.3,16.9l-4.4,2.2l-0.9-22l-19.1-17.1l5.1-2.4l14.2,13.3l-1.6-19.5
						l4.4-2.2l1.3,24.9L1097,1387.1z"/>
					<path class="st4" d="M1071.9,1399.1l-7.6,3.7c-1.8,0.9-3.7,1.5-5.7,2c-1.7,0.3-3.5,0-5-0.8c-0.6-0.3-1.1-0.6-1.5-0.8
						c-0.7-0.5-1.1-0.8-1.7-1.4c-0.7-0.6-1.3-1.3-1.7-2.1c-0.8-0.9-1.3-2-1.7-3c-0.8-1.5-1.2-3.1-1.6-4.7c-0.3-1.5-0.3-3.1,0.1-4.6
						c0.4-1.5,1.1-3,2.1-4.1c1.3-1.4,2.9-2.5,4.7-3.4l3.9-1.9l-7.7-16.1l4.5-2.2L1071.9,1399.1z M1058,1381.7l-3.8,1.8
						c-0.8,0.4-1.7,0.9-2.4,1.5c-0.7,0.6-1.1,1.3-1.5,2.1c-0.4,0.9-0.5,2-0.3,3c0.3,1.4,0.8,2.8,1.4,4.1c0.7,1.6,1.7,3,3,4.2
						c0.8,0.8,1.9,1.2,3,1.5c0.8,0.2,1.9,0.1,2.7-0.2c0.7-0.3,1.3-0.6,2-0.8l3.5-1.7L1058,1381.7L1058,1381.7z"/>
					<path class="st4" d="M1044.8,1412.2l-2.4-5.1l4.4-2.2l2.4,5.1L1044.8,1412.2z M1044,1400l-4.1,2l-14.1-29.3l4.1-2L1044,1400z"
						/>
					<path class="st4" d="M1035.4,1404.2l-3.8,1.8l-2.2-4.4c0.1,0.6,0.1,1.1,0.1,1.7c0,0.8-0.1,1.5-0.4,2.3
						c-0.3,0.8-0.7,1.6-1.1,2.4c-0.7,0.8-1.5,1.5-2.5,2c-1.1,0.6-2.4,0.8-3.7,0.8c-1.1-0.1-2.2-0.5-3.1-1.2c-1-0.8-2-2-2.6-3.2
						c-0.8-1.4-1.5-3-2.4-4.7l-8.9-18.6l4-1.9l8.9,18.5c0.5,0.9,0.9,1.9,1.4,2.7c0.4,0.8,0.9,1.6,1.6,2.3c0.6,0.6,1.2,0.9,2,1.3
						c0.8,0.3,1.7,0.1,2.4-0.4c0.9-0.4,1.7-1.2,2.1-2.3c0.3-0.9,0.4-2,0.3-3c-0.2-1.1-0.5-2.3-0.8-3.4c-0.5-1.1-0.9-2.1-1.3-2.9
						l-8.1-16.9l4.1-2L1035.4,1404.2L1035.4,1404.2L1035.4,1404.2z"/>
				</g>
			</g>
		</g>
		<g>
			
				<rect x="1007.5" y="127.3" transform="matrix(0.4786 -0.878 0.878 0.4786 383.0581 1070.6566)" class="st5" width="171" height="171"/>
			<g class="st6">
				<path class="st7" d="M1073.6,148.1c5.1,1.8,11.6,4.5,19.4,8.7c9.6,5.2,15.4,11.3,17.7,17.8c2.1,5.8,1.7,12.6-2,19.3
					c-3.7,6.8-8.6,11.1-14.6,12.9c-8.2,2.6-18,0.9-27.5-4.3c-2.9-1.6-5.5-3.2-7.5-4.9l-16.4,30.2l-9.7-5.3L1073.6,148.1z
					 M1063.5,189.7c1.8,1.7,4.4,3.4,7.6,5.2c11.7,6.4,22,4.5,27.6-5.7c5.5-10.1,0.9-18.8-9.7-24.5c-4.2-2.3-7.7-3.7-9.6-4.2
					L1063.5,189.7z"/>
				<path class="st7" d="M1093.8,242.7c2,3.4,6.1,8.2,11,10.9c7,3.8,12.3,2.2,14.8-2.4c2.6-4.7,1.1-8.7-4.6-15.3
					c-7.9-8.9-9.6-16.7-6.1-23.2c4.8-8.7,15.8-12,27.3-5.7c5.5,3,9.5,7.1,11.4,10.5l-6.2,5.9c-1.4-2.5-4.3-6.5-9.3-9.3
					c-5.8-3.2-10.8-1.5-13,2.5c-2.4,4.5-0.4,8.2,5.1,14.8c7.4,8.5,9.7,15.9,5.4,23.9c-5.2,9.6-16.4,12.2-29,5.3
					c-5.9-3.2-10.5-7.8-13.1-12.1L1093.8,242.7z"/>
			</g>
		</g>
		<g>
			
				<rect x="1298.2" y="467.7" transform="matrix(0.936 -0.3519 0.3519 0.936 -106.1841 522.3138)" class="st8" width="171" height="171"/>
			<g class="st6">
				<path class="st9" d="M1363.4,528.8l-28.4,1.2l-4-10.7l90.6-2.8l4.7,12.4l-70,57.6l-4.2-11.1l22-18.1L1363.4,528.8z
					 M1381.4,552.2l20.1-16.7c4.6-3.8,8.9-6.7,13.1-9.7l-0.1-0.2c-5.1,0.6-10.5,1.2-16.1,1.4l-26.2,0.9L1381.4,552.2z"/>
				<path class="st9" d="M1360.4,597.5l57.6-21.7l3.9,10.5l-57.6,21.7L1360.4,597.5z M1438.6,581.4c-3.6,1.3-7.4-0.1-8.9-4.3
					c-1.4-3.8,0.5-7.4,4.1-8.7c3.6-1.3,7.5,0.2,9,4.1C1444.2,576.3,1442.3,580,1438.6,581.4z"/>
			</g>
		</g>
		<g>
			
				<rect x="1283.2" y="946.1" transform="matrix(0.4396 -0.8982 0.8982 0.4396 -159.5462 1807.5028)" class="st10" width="171" height="171"/>
			<g class="st6">
				<path class="st11" d="M1343.9,1006.8l19.5-1.4c7.6-0.7,12.4-1,17.4-1.2l0.1-0.2c-3-3.9-5.7-7.7-10-14.1l-11-15.6l5-10.2l24.5,38
					l43.8-3.6l-5,10.3l-20.5,1.2c-5.7,0.4-10.1,0.6-14.7,0.6l-0.1,0.3c3.1,3.9,5.4,7.2,8.6,11.9l11.6,17.1l-5,10.3l-23.2-37.2
					l-45.7,4.1L1343.9,1006.8z"/>
			</g>
			<g class="st6">
				<path class="st11" d="M1387.7,1100.5l-59.6-29.2c-4.4-2.1-9.5-4.4-12.9-5.8l3.9-7.9l8.8,3.8l0.2-0.3c-4.2-5.3-5.5-13.3-1.6-21.3
					c5.8-11.9,20.5-16.3,35.4-8.9c16.5,7.9,21.4,23.1,15.6,35c-3.7,7.6-9.7,10.9-14.7,11.2l-0.1,0.2l29.4,14.4L1387.7,1100.5z
					 M1348.9,1070.6c1.1,0.5,2.7,1.2,4,1.4c6.3,1.4,13.3-1.2,16.6-7.9c4.5-9.3-0.9-18.8-11.7-24c-10-4.9-20.7-3.9-25.4,5.6
					c-2.9,6-1.6,13.5,4.3,18.4c1.1,0.9,2.2,1.6,3.7,2.3L1348.9,1070.6z"/>
			</g>
		</g>
		<g>
			<polygon class="st12" points="490.5,1466.9 539.3,1489.2 603.1,1462.5 577.8,1319.3 440.1,1366 447.3,1434.8 			"/>
			<polygon class="st13" points="603.1,1462.5 577.8,1319.3 570.1,1442.9 			"/>
			<polygon class="st13" points="473,1385.5 577.8,1319.3 440.1,1366 			"/>
			<polygon class="st14" points="570.1,1442.9 577.8,1319.3 473,1385.5 			"/>
			<polygon class="st15" points="539.3,1489.2 570.1,1442.9 490.5,1466.9 			"/>
			<polygon class="st15" points="473,1385.5 447.3,1434.8 490.5,1466.9 			"/>
			<polygon class="st14" points="473,1385.5 440.1,1366 447.3,1434.8 			"/>
			<polygon class="st14" points="603.1,1462.5 570.1,1442.9 539.3,1489.2 			"/>
			<polygon class="st16" points="490.5,1466.9 570.1,1442.9 473,1385.5 			"/>
		</g>
		<g>
			<path class="st17" d="M80,1010.3l56.4,142.5c3.5,8.8,13.4,13,22,9.5L301,1106c8.8-3.5,13-13.4,9.5-22l-56.4-142.5
				c-3.5-8.8-13.4-13-22-9.5L89.5,988.3C80.9,991.8,76.5,1001.7,80,1010.3"/>
			<path class="st18" d="M174.4,1088.8c-2.3-5.7-8.8-8.9-14.7-6.5c-5.9,2.4-8.6,8.9-6.2,14.8c2.4,5.8,8.8,8.9,14.7,6.5
				C174.1,1101.3,176.7,1094.6,174.4,1088.8 M239.3,1088.6c2.9-0.5,5.8-1.2,8.2-2.2c9.2-3.7,13.4-11.1,9.1-21.7
				c-3.5-8.9-11.6-13.9-22-15.7l13.8-1.8l-7-17.5l-44.1,5.9c-11.2,1.6-18.4-1.2-21.3-8.7c-2.3-5.7-0.1-10.7,5.8-13.2
				c1.7-0.7,3.7-1.3,5.9-1.5l20.5-2.2c3-0.3,5.7-1,8.3-2c8.8-3.5,13.1-11.1,8.9-22c-3.7-9.2-12.5-14.2-28.4-12.6v7.9
				c10.9-0.4,13.8,2,14.8,4.2c0.9,2.4-0.2,4.2-3.3,5.5c-1.4,0.6-3.1,0.8-5.1,1.1l-20,2.1c-4.7,0.4-8.7,1.4-12.2,2.8
				c-13.4,5.3-17.2,16.2-13.3,26.1c3.7,9.2,15.7,15.3,26.3,16.6l-17.1,2.7l10.6,26.8l15.4-1.7l-5-12.5l33.9-4.5
				c15.8,0.8,20.4,11.7,20.7,13.3c0.4,2.4,0.1,4.3-2.8,5.5c-1.7,0.7-4.3,1.3-7.6,1.7l-51.2,6.7l11.8,29.8l15.4-1.7l-4.9-12.4
				L239.3,1088.6"/>
		</g>
		<polyline class="st19" points="626.1,249.9 575.7,294.6 509.5,308 423.3,169 567,97.4 626.1,249.9 		"/>
		<polyline class="st20" points="502.2,144.9 570.7,282.1 570.9,282.1 611.7,245.8 560.5,115.9 502.2,144.9 		"/>
		<polygon class="st18" points="455.8,125.8 451.4,117.1 464.1,110.8 459.3,101.3 437.2,112.3 450.6,139.1 472.7,128 468.4,119.5 		
			"/>
		<path class="st18" d="M483.1,100.6l8.9-4.4l-4.7-9.5l-22.1,11.1c0,0,2.4,4.8,4.7,9.5c4.4,1.5,6.7,2.2,13.1,4.2
			c-2.5,1.2-8.9,4.4-8.9,4.4l4.3,8.7l22.2-11l-4.3-8.7L483.1,100.6L483.1,100.6z"/>
		<path class="st18" d="M510.7,87.5l8.9-4.4l-4.7-9.5l-22.1,11.1c0,0,2.4,4.8,4.7,9.5c4.4,1.5,6.7,2.2,13.1,4.2
			c-2.5,1.2-8.9,4.4-8.9,4.4l4.3,8.7l22.2-11l-4.3-8.7L510.7,87.5L510.7,87.5z"/>
		<polyline class="st21" points="536.4,216.2 496,236.1 486.1,219.7 496,236.1 496.1,236.1 496.1,236.1 536.4,216.2 536.4,216.2 		
			"/>
		<g>
			<g>
				<g>
					<defs>
						<polyline id="SVGID_1_" points="496,236.1 486.1,219.7 486.1,219.7 496.1,236.1 496,236.1 						"/>
					</defs>
					<clipPath id="SVGID_2_">
						<use xlink:href="#SVGID_1_"  style="overflow:visible;"/>
					</clipPath>
					<g class="st22">
						
							<image style="overflow:visible;enable-background:new    ;" width="13" height="89" xlink:href="C60894875AE0188D.jpg"  transform="matrix(0.2022 -0.1008 0.1005 0.2015 485.2317 219.5287)">
						</image>
					</g>
				</g>
			</g>
		</g>
		<path class="st21" d="M560.4,264.1l-42.2,7.5l-16.1-26.3h0.1l16.1,26.3L560.4,264.1L560.4,264.1 M550.7,245L550.7,245L550.7,245
			L550.7,245L550.7,245"/>
		<g>
			<g>
				<g>
					<g>
						<path class="st23" d="M569.1,178.2l-10.6,5.3l-13.7,6.8l-3.9,1.9l0,0l0,0l-12.2,5.4l32.8-38.6l-7-18.5l-4.1,2.1l0,0l0,0h-0.1
							l0,0l-0.7,0.3l0,0l0,0l-3.9,1.9l-1,0.6l-1.8,0.8l-3.5,1.8l-4.9,2.4l-1.8,0.8l-1.4,0.7l-1.8,0.8l-4.2,2.1l-1.4,0.7l-4.6,2.3
							l-4.1,2.1l-0.1,0.1l0,0l-0.8,0.4l0,0l0,0l0,0l0,0l-1,0.5l0,0l-2.8,1.4l-0.6,0.3h-0.1l0,0l-0.4,0.2l0,0l0,0l-0.3,0.2l0,0
							l-1,0.5l-0.5,0.2l0,0l-4.7,2.4l-0.1,0.1l0,0l0,0l-0.1,0.1l0.1-0.1l-0.4,0.2l0,0l-0.2,0.1l-0.5,0.3l-1.7,0.8l-0.2,0.1l-2,1
							l-0.3,0.1l-6.4,3.2h-0.1l0,0l-2.7,1.4l0,0l-0.3,0.1l-2.3,1.1l-1.8,0.8l0,0H484l-0.1,0.1l-0.2,0.1l0,0l-5.2,2.5l-0.4,0.2
							l-0.4,0.2l0,0l0,0l0,0l-0.4,0.2l0,0l-5.6,2.7l-0.8,0.4l-0.2,0.1l-0.2,0.1l-0.2,0.1l-6.1,3l10.9,16.5l3.1-1.6l0.3-0.2l1-0.6
							l1.3-0.7l1.7-0.8l1.2-0.6l2.2-1l1.4-0.7l1.8-0.8l1.6-0.8l1.4-0.7l0.2-0.1l0,0h0.1l1.2-0.6l4-2l1.6-0.8l0.5-0.2l0.2-0.1l0,0
							l6.5-3.2l0.2-0.1l1.7-0.8l10.4-5.2h0.1l2.4-1.2l-1.9,2.3L486,219.7h0.1l10,16.5l5.7-2.8l1.6-0.8h0.1l22-10.9l0,0l2.6-1.3
							l0.8-0.5l0.3-0.2l0.6-0.3l0.5-0.2l2.3-1.1l1-0.5l2.8-1.3l0.8-0.4l2.5-1.3l1-0.5l0.3-0.1l0.4-0.2l0,0l8.1-4.1h0.1l8.5-4.1
							l10.1,23.6l-1.5,1.3l-0.2,0.2l-0.7,0.6l-3.7,3.3l-0.1,0.1l-0.8,0.8l-2.8,2.5l-3.3,3l-0.1,0.1h-0.1l-1.5,1.4l-2,1.8l-0.7,0.7
							h-0.1l-0.1,0.1h-0.1l-12.8,2.8h-0.2l0,0l-8.9,2l-8.3-13.8l8.3,13.7l0.2-0.1l0.8-0.2l0.8-0.2l3.3-0.8l1.1-0.3l2.1-0.5l1.2-0.3
							l2.1-0.5h0.1l0,0l2.5-0.6l2.5-0.6l1.4-0.3l1.5-0.4l0.8-0.2l1.4-0.3l0.3-0.1l-2.3,0.5l-1.3,0.3l-1.2,0.3l-1.3,0.3l-1.9,0.4
							l-0.8,0.6l-4,0.8l0,0l-7.3,1.6l-0.3,0.1H530l-1.6,0.4l-8.3-13.7l-0.9,0.5l0,0h-0.1l0,0l-1.6,0.8l-2.2,1.1l-1,0.5l0,0l0,0l0,0
							l0,0l0,0l0,0l-1,0.5l-0.5,0.2h-0.1h-0.1l-1.3,0.7h-0.1l-0.1,0.1l-0.6,0.3l-1.3,0.7l0,0l-0.3,0.1l-1,0.6l-0.5,0.2l-2.7,1.4
							l-0.4,0.2l0,0l-0.2,0.1l0,0l-2.1,1l-0.1,0.1l-0.2,0.1l0,0l13.3,21.9l2.7,4.5l0.3-0.1l1.1-0.2l2.9-0.6l1.5-0.3l2.2-0.4l1.5-0.3
							l1.4-0.3l0.4-0.1l0,0h0.1l1.3-0.2l1.6-0.3l0.4-0.1l2.2-0.4l0,0l2.7-0.5l2.2-0.4l0.5-0.1l6.2-1.1h0.1h0.2l0.8-0.2l0,0l0,0
							l8.3-1.5l1.4-0.3l0,0l2.7-0.5h0.1l0,0l0,0l0.3-0.2l3-2.8l0.5-0.4l0.4-0.4l1.7-1.5l1.8-1.6l3.6-3.4l0.3-0.3l0.3-0.3l2.4-2.3
							l0.4-0.4l1.1-1l1.3-1.2l1.1-1l1.3-1.2l1.9-1.8l1.3-1.2l0.7-0.7l0.4-0.4l1.6-1.5l0.8-0.8l1.4-1.3l0.8-0.8l0.6-0.5l2.3-2.2
							L569.1,178.2z M527.7,198.8L527.7,198.8L527.7,198.8L527.7,198.8z"/>
					</g>
				</g>
			</g>
		</g>
		<g>
			<g>
				<g>
					<polygon class="st24" points="247.6,615.4 103,542.8 186.1,408.5 315.5,505.6 296.8,569.9 					"/>
				</g>
			</g>
			<polygon class="st25" points="285.1,562.7 300.4,510.7 189.8,427.8 155.8,482.6 			"/>
			<polygon class="st26" points="206.5,514.1 192.8,536.3 174.7,527.1 189.4,503.4 172.6,493 172.6,493 146.5,535.2 151.2,537.5 
				200.1,562 223.4,524.5 			"/>
			<polygon class="st26" points="250.2,541.1 250.2,541.2 233.6,556.7 219.4,549.7 213.9,558.7 209,566.5 236.9,580.5 267.8,552 
				267.7,551.9 			"/>
			<polygon class="st18" points="73.5,507.2 78.8,498.7 87.3,504 92.1,496.2 83.6,490.9 89,482.3 114.5,498.1 109.2,506.7 
				100.6,501.4 95.7,509.2 104.3,514.5 99,523 			"/>
			<polygon class="st18" points="104.3,476.4 99.7,483.9 91.2,478.6 105.8,455 114.3,460.3 109.7,467.8 126.7,478.3 121.5,486.9 
				104.4,476.4 			"/>
			<polygon class="st18" points="108.1,451.3 113.6,442.4 126.1,442.5 120.4,431.4 125.9,422.6 151.5,438.3 146.2,446.9 
				133.5,439.1 139,450.5 138.9,450.7 126.2,450.9 138.9,458.8 133.7,467.1 			"/>
			<polygon class="st18" points="128.5,418.2 133.8,409.8 150.9,420.3 158.4,408.4 166.9,413.5 154.1,434.1 			"/>
			<polygon class="st18" points="206.5,514.1 223.4,524.5 236.1,503.8 256.7,519.2 250.2,541.1 267.7,551.9 279.5,511.6 
				276.8,509.5 235,478.3 230.7,475.1 227.9,479.6 			"/>
			<polygon class="st18" points="172.6,493 183.1,499.5 189.3,503.4 189.4,503.4 214.4,462.9 214.4,462.9 214.4,462.9 211,460.2 
				202.9,454.1 198.6,450.9 			"/>
		</g>
		<g>
			<polygon class="st27" points="790.1,544.4 982.8,330.9 968.1,618.2 1255.3,603.6 1041.9,796.2 1255.3,988.9 968.1,974.3 
				982.8,1261.5 790.1,1048 597.3,1261.5 612.1,974.3 324.9,988.9 538.2,796.2 324.9,603.6 612.1,618.2 597.3,330.9 			"/>
			<circle class="st27" cx="790.1" cy="796.2" r="499.2"/>
			<circle class="st27" cx="790.1" cy="796.2" r="344.6"/>
			<g>
				<polygon class="st27" points="787.1,902.1 812.7,823.4 895.3,823.4 828.5,774.9 854,696.3 787.1,744.9 720.2,696.3 745.8,774.9 
					678.9,823.4 761.6,823.4 				"/>
				<polyline class="st27" points="892.4,821.3 895.3,823.4 814.3,823.4 				"/>
				<polyline class="st27" points="814.3,823.4 812.7,823.4 787.7,900.1 				"/>
				<polyline class="st27" points="812.5,824.3 828.5,774.9 892.4,821.3 				"/>
				<polyline class="st27" points="853.7,697.1 828.5,774.9 788.1,744.2 854,696.3 853.7,697.1 				"/>
				<polyline class="st27" points="787.7,900.1 787.1,902.1 761.6,823.4 813.5,823.4 				"/>
				<polyline class="st27" points="724.4,699.3 787.1,744.9 745.6,774.9 720.2,696.3 724.4,699.3 				"/>
				<polyline class="st27" points="681.7,821.5 745.8,774.9 761.5,823.4 678.9,823.4 681.7,821.5 				"/>
			</g>
			<circle class="st27" cx="787.1" cy="799.1" r="95.2"/>
			<line class="st27" x1="535" y1="793.8" x2="809.7" y2="1067.5"/>
			<line class="st27" x1="1046.1" y1="792.7" x2="770.4" y2="1069.4"/>
			<line class="st27" x1="788.1" y1="539.7" x2="1050" y2="802.6"/>
			<line class="st27" x1="533.1" y1="800.6" x2="798" y2="533.7"/>
			<line class="st27" x1="610.4" y1="615" x2="611.8" y2="976.9"/>
			<line class="st27" x1="966.3" y1="616.5" x2="967.7" y2="975.4"/>
			<line class="st27" x1="608.9" y1="618" x2="967.7" y2="618"/>
			<line class="st27" x1="613.3" y1="972.5" x2="969.2" y2="974"/>
		</g>
	</g>
</g>
</svg>
