<svg xmlns="http://www.w3.org/2000/svg" xmlns:xlink="http://www.w3.org/1999/xlink" width="2136.27" height="538.35" viewBox="0 0 2136.27 538.35">
  <defs>
    <style>
      .cls-1 {
        fill: #fff;
      }

      .cls-2 {
        opacity: 0.37;
      }

      .cls-3 {
        fill: #1d1d1b;
      }

      .cls-4 {
        fill: none;
        stroke: #000;
        stroke-width: 43px;
      }

      .cls-5 {
        fill: url(#Yellow_Pepper);
      }

      .cls-6 {
        fill: url(#Yellow_Pepper-2);
      }

      .cls-7 {
        fill: url(#Yellow_Pepper-3);
      }

      .cls-8 {
        fill: url(#Yellow_Pepper-4);
      }

      .cls-9 {
        fill: url(#Yellow_Pepper-5);
      }

      .cls-10 {
        fill: url(#Yellow_Pepper-6);
      }

      .cls-11 {
        fill: url(#Yellow_Pepper-7);
      }

      .cls-12 {
        fill: url(#Yellow_Pepper-8);
      }

      .cls-13 {
        fill: url(#Yellow_Pepper-9);
      }

      .cls-14 {
        fill: url(#Yellow_Pepper-10);
      }

      .cls-15 {
        fill: url(#Yellow_Pepper-11);
      }

      .cls-16 {
        fill: url(#Yellow_Pepper-12);
      }

      .cls-17 {
        fill: url(#Yellow_Pepper-13);
      }

      .cls-18 {
        fill: url(#Yellow_Pepper-14);
      }

      .cls-19 {
        fill: url(#Yellow_Pepper-15);
      }
    </style>
    <linearGradient id="Yellow_Pepper" data-name="Yellow Pepper" x1="-55.33" y1="-546.98" x2="1637.87" y2="-1524.55" gradientTransform="translate(0 851)" gradientUnits="userSpaceOnUse">
      <stop offset="0.02" stop-color="#ce9a00"/>
      <stop offset="0.07" stop-color="#e6aa00"/>
      <stop offset="0.1" stop-color="#f5b400"/>
      <stop offset="0.2" stop-color="#fac218"/>
      <stop offset="0.28" stop-color="#ffcf2d"/>
      <stop offset="0.45" stop-color="#facd27"/>
      <stop offset="0.5" stop-color="#f7d33f"/>
      <stop offset="0.61" stop-color="#f0e47d"/>
      <stop offset="0.66" stop-color="#edec9b"/>
      <stop offset="0.68" stop-color="#f1e172"/>
      <stop offset="0.71" stop-color="#f4d84f"/>
      <stop offset="0.74" stop-color="#f6d132"/>
      <stop offset="0.77" stop-color="#f8cb1c"/>
      <stop offset="0.8" stop-color="#fac70c"/>
      <stop offset="0.84" stop-color="#fbc503"/>
      <stop offset="0.89" stop-color="#fbc400"/>
      <stop offset="0.9" stop-color="#f9ca18"/>
      <stop offset="0.93" stop-color="#f3da56"/>
      <stop offset="0.97" stop-color="#edec9b"/>
    </linearGradient>
    <linearGradient id="Yellow_Pepper-2" x1="-6.97" y1="-463.23" x2="1686.22" y2="-1440.8" xlink:href="#Yellow_Pepper"/>
    <linearGradient id="Yellow_Pepper-3" x1="25.04" y1="-407.79" x2="1718.23" y2="-1385.35" xlink:href="#Yellow_Pepper"/>
    <linearGradient id="Yellow_Pepper-4" x1="51.11" y1="-362.62" x2="1744.31" y2="-1340.19" xlink:href="#Yellow_Pepper"/>
    <linearGradient id="Yellow_Pepper-5" x1="80.06" y1="-312.49" x2="1773.25" y2="-1290.06" xlink:href="#Yellow_Pepper"/>
    <linearGradient id="Yellow_Pepper-6" x1="111.84" y1="-257.44" x2="1805.03" y2="-1235.01" xlink:href="#Yellow_Pepper"/>
    <linearGradient id="Yellow_Pepper-7" x1="144.08" y1="-201.61" x2="1837.27" y2="-1179.18" xlink:href="#Yellow_Pepper"/>
    <linearGradient id="Yellow_Pepper-8" x1="184.14" y1="-132.22" x2="1877.33" y2="-1109.78" xlink:href="#Yellow_Pepper"/>
    <linearGradient id="Yellow_Pepper-9" x1="220.68" y1="-68.93" x2="1913.87" y2="-1046.5" xlink:href="#Yellow_Pepper"/>
    <linearGradient id="Yellow_Pepper-10" x1="260.23" y1="-0.41" x2="1953.43" y2="-977.98" xlink:href="#Yellow_Pepper"/>
    <linearGradient id="Yellow_Pepper-11" x1="292.91" y1="56.19" x2="1986.11" y2="-921.38" xlink:href="#Yellow_Pepper"/>
    <linearGradient id="Yellow_Pepper-12" x1="341.33" y1="140.05" x2="2034.53" y2="-837.52" xlink:href="#Yellow_Pepper"/>
    <linearGradient id="Yellow_Pepper-13" x1="363.65" y1="178.71" x2="2056.85" y2="-798.86" xlink:href="#Yellow_Pepper"/>
    <linearGradient id="Yellow_Pepper-14" x1="404.61" y1="249.64" x2="2097.8" y2="-727.92" xlink:href="#Yellow_Pepper"/>
    <linearGradient id="Yellow_Pepper-15" x1="445.69" y1="320.8" x2="2138.88" y2="-656.77" xlink:href="#Yellow_Pepper"/>
  </defs>
  <title>supremetxt2</title>
  <g id="Layer_2" data-name="Layer 2">
    <g id="Layer_1-2" data-name="Layer 1">
      <g>
        <g>
          <path class="cls-1" d="M126.62,25.43c.33,0,1.48.91,3.44,2.7a78,78,0,0,1,6.14,6.39,86.63,86.63,0,0,1,5.9,7.61c1.79,2.63,2.7,4.75,2.7,6.39v366a12.81,12.81,0,0,1-4.42,9.58,41.26,41.26,0,0,1-10.56,7.12,61.33,61.33,0,0,1-12.28,4.42,44.32,44.32,0,0,1-9.58,1.47H21.5V25.43ZM80.94,61.78a13.26,13.26,0,0,1-3.44,2.46c-1.31.66-2,1.47-2,2.45V395.82c0,.33.65,1.07,2,2.21a10.63,10.63,0,0,0,3.44,2.21h4.42c1.64-.65,3.76-1.55,6.39-2.7s3.93-1.88,3.93-2.21V66.2c0-.65-1.32-1.3-3.93-2a23.82,23.82,0,0,1-6.39-2.46H80.94Z"/>
          <path class="cls-1" d="M261.71,79v43.72q-9.33-6.87-14-8.59a33.58,33.58,0,0,0-11.54-1.72H217V221.92a46.57,46.57,0,0,0,17.68-3.19q7.86-3.19,14.74-12.53v75.65c-.33-.32-1.15-1.06-2.46-2.21s-2.7-2.37-4.17-3.68-3-2.53-4.42-3.68a22.14,22.14,0,0,0-3.2-2.21l-1.47-.5a31.26,31.26,0,0,0-8.84,2c-3.93,1.31-6.56,2-7.86,2V395.82h23.58a29.89,29.89,0,0,0,10.81-1.72q4.41-1.71,14.24-8.6v51.58H169.85V79Z"/>
          <path class="cls-1" d="M310.83,283.08a130.14,130.14,0,0,1,19.65,19.41v78.59q0,10.32,3.19,15.23c2.13,3.28,3.69,4.91,4.67,4.91h.49a11.09,11.09,0,0,1,1.72.25,10.84,10.84,0,0,0,2.21.25,30.77,30.77,0,0,0,4.91-.5q3-.48,2.95-3.93V298.07l-59.93-59.44V111.4a23.06,23.06,0,0,1,5.4-15,49.33,49.33,0,0,1,13.27-11.29A69.52,69.52,0,0,1,325.81,78a55.86,55.86,0,0,1,15-2.45,64.06,64.06,0,0,1,16,2.21,55.32,55.32,0,0,1,16,6.87,48.86,48.86,0,0,1,12.53,11.3,24.48,24.48,0,0,1,5.16,15.48v139l-37.83-31.93v-95.3a18.81,18.81,0,0,0-2-3.93c-1.31-2.29-2.3-4.09-2.95-5.41a3.36,3.36,0,0,0-2.21-1.47,15.09,15.09,0,0,1-2.7-1,13.26,13.26,0,0,0-7.86,7.86V189.5q0,6.88.49,16.46a52.52,52.52,0,0,0,3.44,16.95q2.94,2.46,9.82,9.08t14.5,14.25q7.61,7.62,14.24,14.49t9.09,9.83c1,.66,2.53,2.62,4.67,5.89s3.19,5.24,3.19,5.9V409.08q0,9.35-5.4,15.48a43.13,43.13,0,0,1-13.27,10.07,65.91,65.91,0,0,1-16.21,5.65A74.66,74.66,0,0,1,344.72,442a71.58,71.58,0,0,1-19.4-2.7,52.48,52.48,0,0,1-17.19-8.36,46.4,46.4,0,0,1-12.53-14q-4.92-8.34-4.91-19.65V266.63Q299,273.52,310.83,283.08Z"/>
          <path class="cls-1" d="M422.33,79H474.4l-.49,3.93a25.86,25.86,0,0,1-.49,4.18c-.33,1.8-.74,3.77-1.23,5.89s-1,4.1-1.47,5.9A17.25,17.25,0,0,0,470,103V413l7.86,24.07H417.42q4.43-8.34,4.91-24.07Z"/>
          <path class="cls-1" d="M566,77a63.92,63.92,0,0,1,16.46,5.16,38.74,38.74,0,0,1,13.26,10.07A23.53,23.53,0,0,1,601.14,108v91.86q-5.89,3.93-9.58,6.63t-7.62,5.16q-3.93,2.46-6.87,3.93a13.11,13.11,0,0,1-3.94,2.21c-2,.82-3.27,1.4-3.92,1.72l-5.41.49V131.54q0-9.33-2.21-12.78T552,115.33a16.45,16.45,0,0,0-7.37,1.47q-2.94,1.47-2.94,7.37V386.49q0,6.39,2.94,7.61a19.23,19.23,0,0,0,7.37,1.23q5.4,0,7.37-2.21t2-10.56V299.05l-7.86-23.58v-3.93l3.93-4.42q5.9-3.93,14-9.83t15.47-11.54q7.36-5.64,18.18-13.51l2.94,4.91V439.54c-3.6.32-5.48.9-5.65,1.72s-.57,1.23-1.22,1.23L584.43,430.7H580.5a35.31,35.31,0,0,1-11.29,7.86,83.59,83.59,0,0,1-11.79,3.93h-5.9a114.41,114.41,0,0,1-19.65-1.72,60.76,60.76,0,0,1-17.44-5.65,36.85,36.85,0,0,1-12.28-9.83q-4.66-5.88-4.66-14.73V104a19,19,0,0,1,4.91-13.27,38.25,38.25,0,0,1,12.28-8.84A62.31,62.31,0,0,1,530.89,77a99.43,99.43,0,0,1,16.21-1.47H551A90.51,90.51,0,0,1,566,77Z"/>
          <path class="cls-1" d="M685.13,79v28l19.65,115.45V79H748.5v342.4q1,1,2.46,5.64a27,27,0,0,1,1.47,6.15l.49,3.92H703.8a734.59,734.59,0,0,0-6.39-96A570.68,570.68,0,0,0,677.27,248V421.37q1,2,1.47,7.61a41.59,41.59,0,0,0,3.44,12.53q0,2-5.89,6.63t-14,10.07q-8.12,5.4-16.21,10.56t-13,8.11V79Z"/>
          <path class="cls-1" d="M865.9,79v43.72q-9.35-6.87-14-8.59a33.6,33.6,0,0,0-11.55-1.72H821.2V221.92a46.61,46.61,0,0,0,17.68-3.19q7.86-3.19,14.74-12.53v75.65c-.33-.32-1.15-1.06-2.46-2.21s-2.7-2.37-4.17-3.68-3-2.53-4.42-3.68a22.72,22.72,0,0,0-3.2-2.21l-1.47-.5a31.19,31.19,0,0,0-8.84,2c-3.93,1.31-6.56,2-7.86,2V395.82h23.58a29.79,29.79,0,0,0,10.8-1.72q4.42-1.71,14.25-8.6v51.58H774V79Z"/>
          <path class="cls-1" d="M954.56,270.56a34.33,34.33,0,0,0-6.14-.49q-7.86,0-7.86,3.93V437.08H894.88V79H949.4a95.35,95.35,0,0,1,16,1.48,56.88,56.88,0,0,1,16,5.16,32.84,32.84,0,0,1,12,10.07Q998,102.07,998,111.4V226.34q0,4.42-5.4,8.85a47.82,47.82,0,0,0-6.88,6.38l-.49,2.46q3.43,2,7.62,7.37c2.77,3.61,4.49,5.89,5.15,6.88V478.35q-2-1.47-6.87-5.9t-10.56-9.33q-5.65-4.92-10.32-9.33t-6.63-6.39c-1.32-1-2.54-2.87-3.69-5.65a29.72,29.72,0,0,1-1.72-4.67v-166A24.58,24.58,0,0,1,954.56,270.56Zm-16.95-39.3,6.88-.49a8.12,8.12,0,0,0,2-.5q6.88-1,9.34-5.4c1.63-3,2.45-5.07,2.45-6.38V115.33c0-.66-.49-1.39-1.47-2.21a13.55,13.55,0,0,0-2.46-1.72,81.5,81.5,0,0,0-8.35-1.23q-6.39-.73-8.35-.74Z"/>
          <path class="cls-1" d="M1134.1,260.24a133,133,0,0,1,22.6,22.11v90.38q0,11.79,3.68,17.44t5.16,5.65h.49a11.77,11.77,0,0,1,2.21.25,13.29,13.29,0,0,0,2.7.24,40.33,40.33,0,0,0,5.41-.49c2.28-.32,3.44-1.79,3.44-4.42v-114L1111,208.66V62.76a27.3,27.3,0,0,1,6.14-17.19,51.17,51.17,0,0,1,15.23-13,91.1,91.1,0,0,1,18.91-8.1,60.82,60.82,0,0,1,17.2-2.95,70.71,70.71,0,0,1,17.93,2.7,73.09,73.09,0,0,1,18.66,7.86,52,52,0,0,1,14.5,12.77,28.53,28.53,0,0,1,5.89,17.93V222.42l-43.23-36.85V76a23.69,23.69,0,0,0-2.21-4.42q-2.21-3.93-3.68-6.39a3.57,3.57,0,0,0-2.46-1.47,15.3,15.3,0,0,1-3-1q-6.39,2-9.33,8.85v80.56q0,8.36.49,19.4A57.41,57.41,0,0,0,1166,191a120,120,0,0,1,11.3,10.07q7.85,7.62,16.7,16.45t16.46,16.71q7.6,7.86,10.56,11.29c1.3,1,3.11,3.28,5.4,6.88s3.44,5.9,3.44,6.88v145.4q0,10.81-6.14,18.18a46.25,46.25,0,0,1-15,11.79A74,74,0,0,1,1190.1,441a89.2,89.2,0,0,1-17.19,2,80.43,80.43,0,0,1-22.35-3.19,64.28,64.28,0,0,1-19.9-9.58A48.52,48.52,0,0,1,1116.42,414a46,46,0,0,1-5.41-22.6V241.08Q1120.34,249.44,1134.1,260.24Z"/>
          <path class="cls-1" d="M1250.52,98.38q-3.45-10.06-5.9-19.41h55v308.5a12.89,12.89,0,0,0,3.93,7.86q3.43,3.44,6.88,3.44h.49a8.8,8.8,0,0,0,6.39-4.18,17.64,17.64,0,0,0,2.94-7.61V79h44.22V386.49a50.46,50.46,0,0,1-4.18,20.38,51,51,0,0,1-11.3,16.46,56.94,56.94,0,0,1-16.45,11.05,48.88,48.88,0,0,1-20.14,4.18q-28,0-42.74-15.23t-14.74-54v-254A97.24,97.24,0,0,0,1250.52,98.38Z"/>
          <path class="cls-1" d="M1482.38,79a8.94,8.94,0,0,1,6.14,2.46,33.27,33.27,0,0,1,4.91,5.65,28.7,28.7,0,0,1,3.44,6.63,17.67,17.67,0,0,1,1.23,5.41V226.34q0,7.88-9.09,15.48a127.63,127.63,0,0,1-20.14,13.75q-11.05,6.15-20.14,11.06t-9.09,7.37V413a17,17,0,0,1,1,3.93q.5,3,1.23,6.39t1.23,6.39c.32,2,.49,3.11.49,3.44a9.63,9.63,0,0,0,.25,1.71,11.77,11.77,0,0,1,.24,2.21h-53.54V79ZM1439.64,223.4a20.05,20.05,0,0,0,2.21-.25c1.15-.16,1.72-.4,1.72-.73a42.79,42.79,0,0,0,10.32-7.13c2.94-2.78,4.42-4.5,4.42-5.16V110.9c0-2.28-1.23-3.6-3.69-3.93a47.55,47.55,0,0,0-5.65-.49l-9.33.49Z"/>
          <path class="cls-1" d="M1583.33,270.56a34.53,34.53,0,0,0-6.15-.49c-5.24,0-7.85,1.31-7.85,3.93V437.08h-45.69V79h54.53a95.14,95.14,0,0,1,16,1.48,56.84,56.84,0,0,1,16,5.16,32.73,32.73,0,0,1,12,10.07q4.66,6.39,4.67,15.72V226.34q0,4.42-5.4,8.85a47.26,47.26,0,0,0-6.88,6.38L1614,244c2.28,1.31,4.83,3.77,7.61,7.37s4.5,5.89,5.16,6.88V478.35q-2-1.47-6.88-5.9t-10.56-9.33q-5.65-4.92-10.32-9.33t-6.63-6.39c-1.31-1-2.54-2.87-3.68-5.65a29.72,29.72,0,0,1-1.72-4.67v-166A24.43,24.43,0,0,1,1583.33,270.56Zm-16.95-39.3,6.87-.49a8.05,8.05,0,0,0,2-.5q6.87-1,9.33-5.4c1.64-3,2.46-5.07,2.46-6.38V115.33c0-.66-.49-1.39-1.47-2.21a14.28,14.28,0,0,0-2.46-1.72,82,82,0,0,0-8.35-1.23c-4.26-.49-7-.74-8.35-.74Z"/>
          <path class="cls-1" d="M1744.2,79v43.72q-9.33-6.87-14-8.59a33.58,33.58,0,0,0-11.54-1.72H1699.5V221.92a46.57,46.57,0,0,0,17.68-3.19q7.86-3.19,14.74-12.53v75.65c-.33-.32-1.15-1.06-2.46-2.21s-2.7-2.37-4.17-3.68-3-2.53-4.42-3.68a22.14,22.14,0,0,0-3.2-2.21l-1.47-.5a31.26,31.26,0,0,0-8.84,2c-3.93,1.31-6.56,2-7.86,2V395.82h23.58a29.89,29.89,0,0,0,10.81-1.72q4.41-1.71,14.24-8.6v51.58h-95.79V79Z"/>
          <path class="cls-1" d="M1772,91c-.82-3.76-1.4-6.46-1.72-8.11l-.49-3.93h76.14c3.6,0,6.55,1.65,8.84,4.92a22.61,22.61,0,0,0,6.88,6.87l2,2.46c.32,0,1.14-.81,2.45-2.46a24,24,0,0,1,2.7-2c1.48-1,3.11-2.13,4.92-3.44s3.43-2.53,4.91-3.68a37.62,37.62,0,0,0,3.19-2.71h76.63a38.37,38.37,0,0,1-1.47,10.57,73.09,73.09,0,0,1-3.44,9.58V413a101.35,101.35,0,0,1,3.44,11.79,54.8,54.8,0,0,1,1.47,12.28h-57a91.05,91.05,0,0,1,1.23-14.49,85.7,85.7,0,0,1,3.19-13.51V122.69c0-2.28-1-3.6-3-3.93a33.8,33.8,0,0,0-5.4-.49c-1.31,0-3.44.17-6.38.49s-4.43,1.65-4.43,3.93V371.75c.33.66,1,2.21,2,4.67s2,5.08,3,7.86,2,5.49,3.19,8.1a18.38,18.38,0,0,0,2.7,4.91,16,16,0,0,1,.49,2.46,3.84,3.84,0,0,1-.49,1.47l-33.89,33.9-33.41-33.9a84.34,84.34,0,0,0,8.11-17.19,56.22,56.22,0,0,0,3.68-18.67V122.69a3.48,3.48,0,0,0-3-3.68,22.42,22.42,0,0,0-5.4-.74h-2.46c-3.6,0-6.06.66-7.36,2s-2,4.75-2,10.31V413l8.35,24.07q-15.23,11.79-24.56,19.16T1787.92,470q-8.37,6.38-9.83,6.88a3.88,3.88,0,0,1-2,.73,16.51,16.51,0,0,1-2,.25V99.12A54.82,54.82,0,0,1,1772,91Z"/>
          <path class="cls-1" d="M2072.34,79v43.72q-9.35-6.87-14-8.59a33.6,33.6,0,0,0-11.55-1.72h-19.15V221.92a46.61,46.61,0,0,0,17.68-3.19q7.86-3.19,14.74-12.53v75.65c-.33-.32-1.15-1.06-2.46-2.21s-2.7-2.37-4.17-3.68-2.95-2.53-4.42-3.68a22.72,22.72,0,0,0-3.2-2.21l-1.47-.5a31.19,31.19,0,0,0-8.84,2c-3.93,1.31-6.56,2-7.86,2V395.82h23.58a29.79,29.79,0,0,0,10.8-1.72q4.42-1.71,14.25-8.6v51.58h-95.79V79Z"/>
        </g>
        <g class="cls-2">
          <path class="cls-3" d="M186.62,85.43c.33,0,1.48.91,3.44,2.7a78,78,0,0,1,6.14,6.39,86.63,86.63,0,0,1,5.9,7.61c1.79,2.63,2.7,4.75,2.7,6.39v366a12.81,12.81,0,0,1-4.42,9.58,41.26,41.26,0,0,1-10.56,7.12,61.33,61.33,0,0,1-12.28,4.42,44.32,44.32,0,0,1-9.58,1.47H81.5V85.43Zm-45.68,36.35a13.26,13.26,0,0,1-3.44,2.46c-1.31.66-2,1.47-2,2.45V455.82c0,.33.65,1.07,2,2.21a10.63,10.63,0,0,0,3.44,2.21h4.42c1.64-.65,3.76-1.55,6.39-2.7s3.93-1.88,3.93-2.21V126.2c0-.65-1.32-1.3-3.93-2a23.82,23.82,0,0,1-6.39-2.46h-4.42Z"/>
          <path class="cls-3" d="M321.71,139v43.72q-9.33-6.87-14-8.59a33.58,33.58,0,0,0-11.54-1.72H277V281.92a46.57,46.57,0,0,0,17.68-3.19q7.86-3.19,14.74-12.53v75.65c-.33-.32-1.15-1.06-2.46-2.21s-2.7-2.37-4.17-3.68-2.95-2.53-4.42-3.68a22.14,22.14,0,0,0-3.2-2.21l-1.47-.5a31.26,31.26,0,0,0-8.84,2c-3.93,1.31-6.56,2-7.86,2V455.82h23.58a29.89,29.89,0,0,0,10.81-1.72q4.41-1.71,14.24-8.6v51.58H229.85V139Z"/>
          <path class="cls-3" d="M370.83,343.08a130.14,130.14,0,0,1,19.65,19.41v78.59q0,10.32,3.19,15.23c2.13,3.28,3.69,4.91,4.67,4.91h.49a11.09,11.09,0,0,1,1.72.25,10.84,10.84,0,0,0,2.21.25,30.77,30.77,0,0,0,4.91-.5q3-.48,2.95-3.93V358.07l-59.93-59.44V171.4a23.06,23.06,0,0,1,5.4-15,49.33,49.33,0,0,1,13.27-11.29A69.52,69.52,0,0,1,385.81,138a55.86,55.86,0,0,1,15-2.45,64.06,64.06,0,0,1,16,2.21,55.32,55.32,0,0,1,16,6.87,48.86,48.86,0,0,1,12.53,11.3,24.48,24.48,0,0,1,5.16,15.48v139l-37.83-31.93v-95.3a18.81,18.81,0,0,0-2-3.93c-1.31-2.29-2.3-4.09-2.95-5.41a3.36,3.36,0,0,0-2.21-1.47,15.09,15.09,0,0,1-2.7-1,13.26,13.26,0,0,0-7.86,7.86V249.5q0,6.88.49,16.46a52.52,52.52,0,0,0,3.44,17q2.94,2.46,9.82,9.08t14.5,14.25q7.61,7.62,14.24,14.49t9.09,9.83c1,.66,2.53,2.62,4.67,5.89s3.19,5.24,3.19,5.9V469.08q0,9.35-5.4,15.48a43.13,43.13,0,0,1-13.27,10.07,65.91,65.91,0,0,1-16.21,5.65A74.66,74.66,0,0,1,404.72,502a71.58,71.58,0,0,1-19.4-2.7,52.48,52.48,0,0,1-17.19-8.36,46.4,46.4,0,0,1-12.53-14q-4.92-8.34-4.91-19.65V326.63Q359,333.52,370.83,343.08Z"/>
          <path class="cls-3" d="M482.33,139H534.4l-.49,3.93a25.86,25.86,0,0,1-.49,4.18c-.33,1.8-.74,3.77-1.23,5.89s-1,4.1-1.47,5.9A17.25,17.25,0,0,0,530,163V473l7.86,24.07H477.42q4.43-8.34,4.91-24.07Z"/>
          <path class="cls-3" d="M626,137a63.92,63.92,0,0,1,16.46,5.16,38.74,38.74,0,0,1,13.26,10.07A23.53,23.53,0,0,1,661.14,168v91.86q-5.89,3.93-9.58,6.63t-7.62,5.16q-3.93,2.46-6.87,3.93a13.11,13.11,0,0,1-3.94,2.21c-2,.82-3.27,1.4-3.92,1.72l-5.41.49V191.54q0-9.33-2.21-12.78T612,175.33a16.45,16.45,0,0,0-7.37,1.47q-2.94,1.47-2.94,7.37V446.49q0,6.39,2.94,7.61a19.23,19.23,0,0,0,7.37,1.23q5.4,0,7.37-2.21t2-10.56V359.05l-7.86-23.58v-3.93l3.93-4.42q5.9-3.93,14-9.83t15.47-11.54q7.36-5.64,18.18-13.51l2.94,4.91V499.54c-3.6.32-5.48.9-5.65,1.72s-.57,1.23-1.22,1.23L644.43,490.7H640.5a35.31,35.31,0,0,1-11.29,7.86,83.59,83.59,0,0,1-11.79,3.93h-5.9a114.41,114.41,0,0,1-19.65-1.72,60.76,60.76,0,0,1-17.44-5.65,36.85,36.85,0,0,1-12.28-9.83q-4.67-5.88-4.66-14.73V164a19,19,0,0,1,4.91-13.27,38.25,38.25,0,0,1,12.28-8.84A62.31,62.31,0,0,1,590.89,137a99.43,99.43,0,0,1,16.21-1.47H611A90.51,90.51,0,0,1,626,137Z"/>
          <path class="cls-3" d="M745.13,139v28l19.65,115.45V139H808.5v342.4q1,1,2.46,5.64a27,27,0,0,1,1.47,6.15l.49,3.92H763.8a734.59,734.59,0,0,0-6.39-96A570.68,570.68,0,0,0,737.27,308V481.37q1,2,1.47,7.61a41.59,41.59,0,0,0,3.44,12.53q0,2-5.89,6.63t-14,10.07q-8.12,5.4-16.21,10.56t-13,8.11V139Z"/>
          <path class="cls-3" d="M925.9,139v43.72q-9.35-6.87-14-8.59a33.6,33.6,0,0,0-11.55-1.72H881.2V281.92a46.61,46.61,0,0,0,17.68-3.19q7.86-3.19,14.74-12.53v75.65c-.33-.32-1.15-1.06-2.46-2.21s-2.7-2.37-4.17-3.68-3-2.53-4.42-3.68a22.72,22.72,0,0,0-3.2-2.21l-1.47-.5a31.19,31.19,0,0,0-8.84,2c-3.93,1.31-6.56,2-7.86,2V455.82h23.58a29.79,29.79,0,0,0,10.8-1.72q4.42-1.71,14.25-8.6v51.58H834V139Z"/>
          <path class="cls-3" d="M1014.56,330.56a34.33,34.33,0,0,0-6.14-.49q-7.86,0-7.86,3.93V497.08H954.88V139h54.52a95.35,95.35,0,0,1,16,1.48,56.88,56.88,0,0,1,16,5.16,32.84,32.84,0,0,1,12,10.07q4.67,6.39,4.66,15.72V286.34q0,4.43-5.4,8.85a47.82,47.82,0,0,0-6.88,6.38l-.49,2.46q3.43,2,7.62,7.37c2.77,3.61,4.49,5.89,5.15,6.88V538.35q-2-1.47-6.87-5.9t-10.56-9.33q-5.65-4.92-10.32-9.33t-6.63-6.39c-1.32-1-2.54-2.87-3.69-5.65a29.72,29.72,0,0,1-1.72-4.67v-166A24.58,24.58,0,0,1,1014.56,330.56Zm-16.95-39.3,6.88-.49a8.12,8.12,0,0,0,2-.5q6.88-1,9.34-5.4c1.63-2.95,2.45-5.07,2.45-6.38V175.33c0-.66-.49-1.39-1.47-2.21a13.55,13.55,0,0,0-2.46-1.72,81.5,81.5,0,0,0-8.35-1.23q-6.39-.73-8.35-.74Z"/>
          <path class="cls-3" d="M1194.1,320.24a133,133,0,0,1,22.6,22.11v90.38q0,11.79,3.68,17.44t5.16,5.65h.49a11.77,11.77,0,0,1,2.21.25,13.29,13.29,0,0,0,2.7.24,40.33,40.33,0,0,0,5.41-.49c2.28-.32,3.44-1.79,3.44-4.42v-114L1171,268.66V122.76a27.3,27.3,0,0,1,6.14-17.19,51.17,51.17,0,0,1,15.23-13,91.1,91.1,0,0,1,18.91-8.1,60.82,60.82,0,0,1,17.2-3,70.71,70.71,0,0,1,17.93,2.7,73.09,73.09,0,0,1,18.66,7.86,52,52,0,0,1,14.5,12.77,28.53,28.53,0,0,1,5.89,17.93V282.42l-43.23-36.85V136a23.69,23.69,0,0,0-2.21-4.42q-2.21-3.93-3.68-6.39a3.57,3.57,0,0,0-2.46-1.47,15.3,15.3,0,0,1-3-1q-6.39,2-9.33,8.85v80.56q0,8.36.49,19.4A57.41,57.41,0,0,0,1226,251a120,120,0,0,1,11.3,10.07q7.85,7.62,16.7,16.45t16.46,16.71q7.6,7.86,10.56,11.29c1.3,1,3.11,3.28,5.4,6.88s3.44,5.9,3.44,6.88v145.4q0,10.81-6.14,18.18a46.25,46.25,0,0,1-15,11.79A74,74,0,0,1,1250.1,501a89.2,89.2,0,0,1-17.19,2,80.43,80.43,0,0,1-22.35-3.19,64.28,64.28,0,0,1-19.9-9.58A48.52,48.52,0,0,1,1176.42,474a46,46,0,0,1-5.41-22.6V301.08Q1180.34,309.43,1194.1,320.24Z"/>
          <path class="cls-3" d="M1310.52,158.38q-3.45-10.06-5.9-19.41h55v308.5a12.89,12.89,0,0,0,3.93,7.86q3.43,3.44,6.88,3.44h.49a8.8,8.8,0,0,0,6.39-4.18,17.64,17.64,0,0,0,2.94-7.61V139h44.22V446.49a50.46,50.46,0,0,1-4.18,20.38,51,51,0,0,1-11.3,16.46,56.94,56.94,0,0,1-16.45,11.05,48.88,48.88,0,0,1-20.14,4.18q-28,0-42.74-15.23t-14.74-54v-254A97.24,97.24,0,0,0,1310.52,158.38Z"/>
          <path class="cls-3" d="M1542.38,139a8.94,8.94,0,0,1,6.14,2.46,33.27,33.27,0,0,1,4.91,5.65,28.7,28.7,0,0,1,3.44,6.63,17.67,17.67,0,0,1,1.23,5.41V286.34q0,7.88-9.09,15.48a127.63,127.63,0,0,1-20.14,13.75q-11.05,6.15-20.14,11.06t-9.09,7.37V473a17,17,0,0,1,1,3.93q.5,3,1.23,6.39t1.23,6.39c.32,2,.49,3.11.49,3.44a9.63,9.63,0,0,0,.25,1.71,11.77,11.77,0,0,1,.24,2.21h-53.54V139ZM1499.64,283.4a20.05,20.05,0,0,0,2.21-.25c1.15-.16,1.72-.4,1.72-.73a42.79,42.79,0,0,0,10.32-7.13c2.94-2.78,4.42-4.5,4.42-5.16V170.9c0-2.28-1.23-3.6-3.69-3.93a47.55,47.55,0,0,0-5.65-.49l-9.33.49Z"/>
          <path class="cls-3" d="M1643.33,330.56a34.53,34.53,0,0,0-6.15-.49c-5.24,0-7.85,1.31-7.85,3.93V497.08h-45.69V139h54.53a95.14,95.14,0,0,1,16,1.48,56.84,56.84,0,0,1,16,5.16,32.73,32.73,0,0,1,12,10.07q4.66,6.39,4.67,15.72V286.34q0,4.43-5.4,8.85a47.26,47.26,0,0,0-6.88,6.38L1674,304c2.28,1.31,4.83,3.77,7.61,7.37s4.5,5.89,5.16,6.88V538.35q-2-1.47-6.88-5.9t-10.56-9.33q-5.65-4.92-10.32-9.33t-6.63-6.39c-1.31-1-2.54-2.87-3.68-5.65a29.72,29.72,0,0,1-1.72-4.67v-166A24.43,24.43,0,0,1,1643.33,330.56Zm-16.95-39.3,6.87-.49a8.05,8.05,0,0,0,2-.5q6.87-1,9.33-5.4c1.64-2.95,2.46-5.07,2.46-6.38V175.33c0-.66-.49-1.39-1.47-2.21a14.28,14.28,0,0,0-2.46-1.72,82,82,0,0,0-8.35-1.23c-4.26-.49-7-.74-8.35-.74Z"/>
          <path class="cls-3" d="M1804.2,139v43.72q-9.33-6.87-14-8.59a33.58,33.58,0,0,0-11.54-1.72H1759.5V281.92a46.57,46.57,0,0,0,17.68-3.19q7.86-3.19,14.74-12.53v75.65c-.33-.32-1.15-1.06-2.46-2.21s-2.7-2.37-4.17-3.68-3-2.53-4.42-3.68a22.14,22.14,0,0,0-3.2-2.21l-1.47-.5a31.26,31.26,0,0,0-8.84,2c-3.93,1.31-6.56,2-7.86,2V455.82h23.58a29.89,29.89,0,0,0,10.81-1.72q4.41-1.71,14.24-8.6v51.58h-95.79V139Z"/>
          <path class="cls-3" d="M1832,151c-.82-3.76-1.4-6.46-1.72-8.11l-.49-3.93h76.14c3.6,0,6.55,1.65,8.84,4.92a22.61,22.61,0,0,0,6.88,6.87l2,2.46c.32,0,1.14-.81,2.45-2.46a24,24,0,0,1,2.7-2c1.48-1,3.11-2.13,4.92-3.44s3.43-2.53,4.91-3.68a37.62,37.62,0,0,0,3.19-2.71h76.63a38.37,38.37,0,0,1-1.47,10.57,73.09,73.09,0,0,1-3.44,9.58V473a101.35,101.35,0,0,1,3.44,11.79,54.8,54.8,0,0,1,1.47,12.28h-57a91.05,91.05,0,0,1,1.23-14.49,85.7,85.7,0,0,1,3.19-13.51V182.69c0-2.28-1-3.6-3-3.93a33.8,33.8,0,0,0-5.4-.49c-1.31,0-3.44.17-6.38.49s-4.43,1.65-4.43,3.93V431.75c.33.66,1,2.21,2,4.67s2,5.08,3,7.86,2,5.49,3.19,8.1a18.38,18.38,0,0,0,2.7,4.91,16,16,0,0,1,.49,2.46,3.84,3.84,0,0,1-.49,1.47l-33.89,33.9-33.41-33.9a84.34,84.34,0,0,0,8.11-17.19,56.22,56.22,0,0,0,3.68-18.67V182.69a3.48,3.48,0,0,0-3-3.68,22.42,22.42,0,0,0-5.4-.74h-2.46c-3.6,0-6.06.66-7.36,2s-2,4.75-2,10.31V473l8.35,24.07q-15.23,11.79-24.56,19.16T1847.92,530q-8.37,6.38-9.83,6.88a3.88,3.88,0,0,1-2,.73,16.51,16.51,0,0,1-2,.25V159.12A54.82,54.82,0,0,1,1832,151Z"/>
          <path class="cls-3" d="M2132.34,139v43.72q-9.35-6.87-14-8.59a33.6,33.6,0,0,0-11.55-1.72h-19.15V281.92a46.61,46.61,0,0,0,17.68-3.19q7.86-3.19,14.74-12.53v75.65c-.33-.32-1.15-1.06-2.46-2.21s-2.7-2.37-4.17-3.68-2.95-2.53-4.42-3.68a22.72,22.72,0,0,0-3.2-2.21l-1.47-.5a31.19,31.19,0,0,0-8.84,2c-3.93,1.31-6.56,2-7.86,2V455.82h23.58a29.79,29.79,0,0,0,10.8-1.72q4.42-1.71,14.25-8.6v51.58h-95.79V139Z"/>
        </g>
        <g>
          <path class="cls-4" d="M126.62,25.43c.33,0,1.48.91,3.44,2.7a78,78,0,0,1,6.14,6.39,86.63,86.63,0,0,1,5.9,7.61c1.79,2.63,2.7,4.75,2.7,6.39v366a12.81,12.81,0,0,1-4.42,9.58,41.26,41.26,0,0,1-10.56,7.12,61.33,61.33,0,0,1-12.28,4.42,44.32,44.32,0,0,1-9.58,1.47H21.5V25.43ZM80.94,61.78a13.26,13.26,0,0,1-3.44,2.46c-1.31.66-2,1.47-2,2.45V395.82c0,.33.65,1.07,2,2.21a10.63,10.63,0,0,0,3.44,2.21h4.42c1.64-.65,3.76-1.55,6.39-2.7s3.93-1.88,3.93-2.21V66.2c0-.65-1.32-1.3-3.93-2a23.82,23.82,0,0,1-6.39-2.46H80.94Z"/>
          <path class="cls-4" d="M261.71,79v43.72q-9.33-6.87-14-8.59a33.58,33.58,0,0,0-11.54-1.72H217V221.92a46.57,46.57,0,0,0,17.68-3.19q7.86-3.19,14.74-12.53v75.65c-.33-.32-1.15-1.06-2.46-2.21s-2.7-2.37-4.17-3.68-3-2.53-4.42-3.68a22.14,22.14,0,0,0-3.2-2.21l-1.47-.5a31.26,31.26,0,0,0-8.84,2c-3.93,1.31-6.56,2-7.86,2V395.82h23.58a29.89,29.89,0,0,0,10.81-1.72q4.41-1.71,14.24-8.6v51.58H169.85V79Z"/>
          <path class="cls-4" d="M310.83,283.08a130.14,130.14,0,0,1,19.65,19.41v78.59q0,10.32,3.19,15.23c2.13,3.28,3.69,4.91,4.67,4.91h.49a11.09,11.09,0,0,1,1.72.25,10.84,10.84,0,0,0,2.21.25,30.77,30.77,0,0,0,4.91-.5q3-.48,2.95-3.93V298.07l-59.93-59.44V111.4a23.06,23.06,0,0,1,5.4-15,49.33,49.33,0,0,1,13.27-11.29A69.52,69.52,0,0,1,325.81,78a55.86,55.86,0,0,1,15-2.45,64.06,64.06,0,0,1,16,2.21,55.32,55.32,0,0,1,16,6.87,48.86,48.86,0,0,1,12.53,11.3,24.48,24.48,0,0,1,5.16,15.48v139l-37.83-31.93v-95.3a18.81,18.81,0,0,0-2-3.93c-1.31-2.29-2.3-4.09-2.95-5.41a3.36,3.36,0,0,0-2.21-1.47,15.09,15.09,0,0,1-2.7-1,13.26,13.26,0,0,0-7.86,7.86V189.5q0,6.88.49,16.46a52.52,52.52,0,0,0,3.44,16.95q2.94,2.46,9.82,9.08t14.5,14.25q7.61,7.62,14.24,14.49t9.09,9.83c1,.66,2.53,2.62,4.67,5.89s3.19,5.24,3.19,5.9V409.08q0,9.35-5.4,15.48a43.13,43.13,0,0,1-13.27,10.07,65.91,65.91,0,0,1-16.21,5.65A74.66,74.66,0,0,1,344.72,442a71.58,71.58,0,0,1-19.4-2.7,52.48,52.48,0,0,1-17.19-8.36,46.4,46.4,0,0,1-12.53-14q-4.92-8.34-4.91-19.65V266.63Q299,273.52,310.83,283.08Z"/>
          <path class="cls-4" d="M422.33,79H474.4l-.49,3.93a25.86,25.86,0,0,1-.49,4.18c-.33,1.8-.74,3.77-1.23,5.89s-1,4.1-1.47,5.9A17.25,17.25,0,0,0,470,103V413l7.86,24.07H417.42q4.43-8.34,4.91-24.07Z"/>
          <path class="cls-4" d="M566,77a63.92,63.92,0,0,1,16.46,5.16,38.74,38.74,0,0,1,13.26,10.07A23.53,23.53,0,0,1,601.14,108v91.86q-5.89,3.93-9.58,6.63t-7.62,5.16q-3.93,2.46-6.87,3.93a13.11,13.11,0,0,1-3.94,2.21c-2,.82-3.27,1.4-3.92,1.72l-5.41.49V131.54q0-9.33-2.21-12.78T552,115.33a16.45,16.45,0,0,0-7.37,1.47q-2.94,1.47-2.94,7.37V386.49q0,6.39,2.94,7.61a19.23,19.23,0,0,0,7.37,1.23q5.4,0,7.37-2.21t2-10.56V299.05l-7.86-23.58v-3.93l3.93-4.42q5.9-3.93,14-9.83t15.47-11.54q7.36-5.64,18.18-13.51l2.94,4.91V439.54c-3.6.32-5.48.9-5.65,1.72s-.57,1.23-1.22,1.23L584.43,430.7H580.5a35.31,35.31,0,0,1-11.29,7.86,83.59,83.59,0,0,1-11.79,3.93h-5.9a114.41,114.41,0,0,1-19.65-1.72,60.76,60.76,0,0,1-17.44-5.65,36.85,36.85,0,0,1-12.28-9.83q-4.66-5.88-4.66-14.73V104a19,19,0,0,1,4.91-13.27,38.25,38.25,0,0,1,12.28-8.84A62.31,62.31,0,0,1,530.89,77a99.43,99.43,0,0,1,16.21-1.47H551A90.51,90.51,0,0,1,566,77Z"/>
          <path class="cls-4" d="M685.13,79v28l19.65,115.45V79H748.5v342.4q1,1,2.46,5.64a27,27,0,0,1,1.47,6.15l.49,3.92H703.8a734.59,734.59,0,0,0-6.39-96A570.68,570.68,0,0,0,677.27,248V421.37q1,2,1.47,7.61a41.59,41.59,0,0,0,3.44,12.53q0,2-5.89,6.63t-14,10.07q-8.12,5.4-16.21,10.56t-13,8.11V79Z"/>
          <path class="cls-4" d="M865.9,79v43.72q-9.35-6.87-14-8.59a33.6,33.6,0,0,0-11.55-1.72H821.2V221.92a46.61,46.61,0,0,0,17.68-3.19q7.86-3.19,14.74-12.53v75.65c-.33-.32-1.15-1.06-2.46-2.21s-2.7-2.37-4.17-3.68-3-2.53-4.42-3.68a22.72,22.72,0,0,0-3.2-2.21l-1.47-.5a31.19,31.19,0,0,0-8.84,2c-3.93,1.31-6.56,2-7.86,2V395.82h23.58a29.79,29.79,0,0,0,10.8-1.72q4.42-1.71,14.25-8.6v51.58H774V79Z"/>
          <path class="cls-4" d="M954.56,270.56a34.33,34.33,0,0,0-6.14-.49q-7.86,0-7.86,3.93V437.08H894.88V79H949.4a95.35,95.35,0,0,1,16,1.48,56.88,56.88,0,0,1,16,5.16,32.84,32.84,0,0,1,12,10.07Q998,102.07,998,111.4V226.34q0,4.42-5.4,8.85a47.82,47.82,0,0,0-6.88,6.38l-.49,2.46q3.43,2,7.62,7.37c2.77,3.61,4.49,5.89,5.15,6.88V478.35q-2-1.47-6.87-5.9t-10.56-9.33q-5.65-4.92-10.32-9.33t-6.63-6.39c-1.32-1-2.54-2.87-3.69-5.65a29.72,29.72,0,0,1-1.72-4.67v-166A24.58,24.58,0,0,1,954.56,270.56Zm-16.95-39.3,6.88-.49a8.12,8.12,0,0,0,2-.5q6.88-1,9.34-5.4c1.63-3,2.45-5.07,2.45-6.38V115.33c0-.66-.49-1.39-1.47-2.21a13.55,13.55,0,0,0-2.46-1.72,81.5,81.5,0,0,0-8.35-1.23q-6.39-.73-8.35-.74Z"/>
          <path class="cls-4" d="M1134.1,260.24a133,133,0,0,1,22.6,22.11v90.38q0,11.79,3.68,17.44t5.16,5.65h.49a11.77,11.77,0,0,1,2.21.25,13.29,13.29,0,0,0,2.7.24,40.33,40.33,0,0,0,5.41-.49c2.28-.32,3.44-1.79,3.44-4.42v-114L1111,208.66V62.76a27.3,27.3,0,0,1,6.14-17.19,51.17,51.17,0,0,1,15.23-13,91.1,91.1,0,0,1,18.91-8.1,60.82,60.82,0,0,1,17.2-2.95,70.71,70.71,0,0,1,17.93,2.7,73.09,73.09,0,0,1,18.66,7.86,52,52,0,0,1,14.5,12.77,28.53,28.53,0,0,1,5.89,17.93V222.42l-43.23-36.85V76a23.69,23.69,0,0,0-2.21-4.42q-2.21-3.93-3.68-6.39a3.57,3.57,0,0,0-2.46-1.47,15.3,15.3,0,0,1-3-1q-6.39,2-9.33,8.85v80.56q0,8.36.49,19.4A57.41,57.41,0,0,0,1166,191a120,120,0,0,1,11.3,10.07q7.85,7.62,16.7,16.45t16.46,16.71q7.6,7.86,10.56,11.29c1.3,1,3.11,3.28,5.4,6.88s3.44,5.9,3.44,6.88v145.4q0,10.81-6.14,18.18a46.25,46.25,0,0,1-15,11.79A74,74,0,0,1,1190.1,441a89.2,89.2,0,0,1-17.19,2,80.43,80.43,0,0,1-22.35-3.19,64.28,64.28,0,0,1-19.9-9.58A48.52,48.52,0,0,1,1116.42,414a46,46,0,0,1-5.41-22.6V241.08Q1120.34,249.44,1134.1,260.24Z"/>
          <path class="cls-4" d="M1250.52,98.38q-3.45-10.06-5.9-19.41h55v308.5a12.89,12.89,0,0,0,3.93,7.86q3.43,3.44,6.88,3.44h.49a8.8,8.8,0,0,0,6.39-4.18,17.64,17.64,0,0,0,2.94-7.61V79h44.22V386.49a50.46,50.46,0,0,1-4.18,20.38,51,51,0,0,1-11.3,16.46,56.94,56.94,0,0,1-16.45,11.05,48.88,48.88,0,0,1-20.14,4.18q-28,0-42.74-15.23t-14.74-54v-254A97.24,97.24,0,0,0,1250.52,98.38Z"/>
          <path class="cls-4" d="M1482.38,79a8.94,8.94,0,0,1,6.14,2.46,33.27,33.27,0,0,1,4.91,5.65,28.7,28.7,0,0,1,3.44,6.63,17.67,17.67,0,0,1,1.23,5.41V226.34q0,7.88-9.09,15.48a127.63,127.63,0,0,1-20.14,13.75q-11.05,6.15-20.14,11.06t-9.09,7.37V413a17,17,0,0,1,1,3.93q.5,3,1.23,6.39t1.23,6.39c.32,2,.49,3.11.49,3.44a9.63,9.63,0,0,0,.25,1.71,11.77,11.77,0,0,1,.24,2.21h-53.54V79ZM1439.64,223.4a20.05,20.05,0,0,0,2.21-.25c1.15-.16,1.72-.4,1.72-.73a42.79,42.79,0,0,0,10.32-7.13c2.94-2.78,4.42-4.5,4.42-5.16V110.9c0-2.28-1.23-3.6-3.69-3.93a47.55,47.55,0,0,0-5.65-.49l-9.33.49Z"/>
          <path class="cls-4" d="M1583.33,270.56a34.53,34.53,0,0,0-6.15-.49c-5.24,0-7.85,1.31-7.85,3.93V437.08h-45.69V79h54.53a95.14,95.14,0,0,1,16,1.48,56.84,56.84,0,0,1,16,5.16,32.73,32.73,0,0,1,12,10.07q4.66,6.39,4.67,15.72V226.34q0,4.42-5.4,8.85a47.26,47.26,0,0,0-6.88,6.38L1614,244c2.28,1.31,4.83,3.77,7.61,7.37s4.5,5.89,5.16,6.88V478.35q-2-1.47-6.88-5.9t-10.56-9.33q-5.65-4.92-10.32-9.33t-6.63-6.39c-1.31-1-2.54-2.87-3.68-5.65a29.72,29.72,0,0,1-1.72-4.67v-166A24.43,24.43,0,0,1,1583.33,270.56Zm-16.95-39.3,6.87-.49a8.05,8.05,0,0,0,2-.5q6.87-1,9.33-5.4c1.64-3,2.46-5.07,2.46-6.38V115.33c0-.66-.49-1.39-1.47-2.21a14.28,14.28,0,0,0-2.46-1.72,82,82,0,0,0-8.35-1.23c-4.26-.49-7-.74-8.35-.74Z"/>
          <path class="cls-4" d="M1744.2,79v43.72q-9.33-6.87-14-8.59a33.58,33.58,0,0,0-11.54-1.72H1699.5V221.92a46.57,46.57,0,0,0,17.68-3.19q7.86-3.19,14.74-12.53v75.65c-.33-.32-1.15-1.06-2.46-2.21s-2.7-2.37-4.17-3.68-3-2.53-4.42-3.68a22.14,22.14,0,0,0-3.2-2.21l-1.47-.5a31.26,31.26,0,0,0-8.84,2c-3.93,1.31-6.56,2-7.86,2V395.82h23.58a29.89,29.89,0,0,0,10.81-1.72q4.41-1.71,14.24-8.6v51.58h-95.79V79Z"/>
          <path class="cls-4" d="M1772,91c-.82-3.76-1.4-6.46-1.72-8.11l-.49-3.93h76.14c3.6,0,6.55,1.65,8.84,4.92a22.61,22.61,0,0,0,6.88,6.87l2,2.46c.32,0,1.14-.81,2.45-2.46a24,24,0,0,1,2.7-2c1.48-1,3.11-2.13,4.92-3.44s3.43-2.53,4.91-3.68a37.62,37.62,0,0,0,3.19-2.71h76.63a38.37,38.37,0,0,1-1.47,10.57,73.09,73.09,0,0,1-3.44,9.58V413a101.35,101.35,0,0,1,3.44,11.79,54.8,54.8,0,0,1,1.47,12.28h-57a91.05,91.05,0,0,1,1.23-14.49,85.7,85.7,0,0,1,3.19-13.51V122.69c0-2.28-1-3.6-3-3.93a33.8,33.8,0,0,0-5.4-.49c-1.31,0-3.44.17-6.38.49s-4.43,1.65-4.43,3.93V371.75c.33.66,1,2.21,2,4.67s2,5.08,3,7.86,2,5.49,3.19,8.1a18.38,18.38,0,0,0,2.7,4.91,16,16,0,0,1,.49,2.46,3.84,3.84,0,0,1-.49,1.47l-33.89,33.9-33.41-33.9a84.34,84.34,0,0,0,8.11-17.19,56.22,56.22,0,0,0,3.68-18.67V122.69a3.48,3.48,0,0,0-3-3.68,22.42,22.42,0,0,0-5.4-.74h-2.46c-3.6,0-6.06.66-7.36,2s-2,4.75-2,10.31V413l8.35,24.07q-15.23,11.79-24.56,19.16T1787.92,470q-8.37,6.38-9.83,6.88a3.88,3.88,0,0,1-2,.73,16.51,16.51,0,0,1-2,.25V99.12A54.82,54.82,0,0,1,1772,91Z"/>
          <path class="cls-4" d="M2072.34,79v43.72q-9.35-6.87-14-8.59a33.6,33.6,0,0,0-11.55-1.72h-19.15V221.92a46.61,46.61,0,0,0,17.68-3.19q7.86-3.19,14.74-12.53v75.65c-.33-.32-1.15-1.06-2.46-2.21s-2.7-2.37-4.17-3.68-2.95-2.53-4.42-3.68a22.72,22.72,0,0,0-3.2-2.21l-1.47-.5a31.19,31.19,0,0,0-8.84,2c-3.93,1.31-6.56,2-7.86,2V395.82h23.58a29.79,29.79,0,0,0,10.8-1.72q4.42-1.71,14.25-8.6v51.58h-95.79V79Z"/>
        </g>
        <g>
          <path class="cls-5" d="M126.62,25.43c.33,0,1.48.91,3.44,2.7a78,78,0,0,1,6.14,6.39,86.63,86.63,0,0,1,5.9,7.61c1.79,2.63,2.7,4.75,2.7,6.39v366a12.81,12.81,0,0,1-4.42,9.58,41.26,41.26,0,0,1-10.56,7.12,61.33,61.33,0,0,1-12.28,4.42,44.32,44.32,0,0,1-9.58,1.47H21.5V25.43ZM80.94,61.78a13.26,13.26,0,0,1-3.44,2.46c-1.31.66-2,1.47-2,2.45V395.82c0,.33.65,1.07,2,2.21a10.63,10.63,0,0,0,3.44,2.21h4.42c1.64-.65,3.76-1.55,6.39-2.7s3.93-1.88,3.93-2.21V66.2c0-.65-1.32-1.3-3.93-2a23.82,23.82,0,0,1-6.39-2.46H80.94Z"/>
          <path class="cls-6" d="M261.71,79v43.72q-9.33-6.87-14-8.59a33.58,33.58,0,0,0-11.54-1.72H217V221.92a46.57,46.57,0,0,0,17.68-3.19q7.86-3.19,14.74-12.53v75.65c-.33-.32-1.15-1.06-2.46-2.21s-2.7-2.37-4.17-3.68-3-2.53-4.42-3.68a22.14,22.14,0,0,0-3.2-2.21l-1.47-.5a31.26,31.26,0,0,0-8.84,2c-3.93,1.31-6.56,2-7.86,2V395.82h23.58a29.89,29.89,0,0,0,10.81-1.72q4.41-1.71,14.24-8.6v51.58H169.85V79Z"/>
          <path class="cls-7" d="M310.83,283.08a130.14,130.14,0,0,1,19.65,19.41v78.59q0,10.32,3.19,15.23c2.13,3.28,3.69,4.91,4.67,4.91h.49a11.09,11.09,0,0,1,1.72.25,10.84,10.84,0,0,0,2.21.25,30.77,30.77,0,0,0,4.91-.5q3-.48,2.95-3.93V298.07l-59.93-59.44V111.4a23.06,23.06,0,0,1,5.4-15,49.33,49.33,0,0,1,13.27-11.29A69.52,69.52,0,0,1,325.81,78a55.86,55.86,0,0,1,15-2.45,64.06,64.06,0,0,1,16,2.21,55.32,55.32,0,0,1,16,6.87,48.86,48.86,0,0,1,12.53,11.3,24.48,24.48,0,0,1,5.16,15.48v139l-37.83-31.93v-95.3a18.81,18.81,0,0,0-2-3.93c-1.31-2.29-2.3-4.09-2.95-5.41a3.36,3.36,0,0,0-2.21-1.47,15.09,15.09,0,0,1-2.7-1,13.26,13.26,0,0,0-7.86,7.86V189.5q0,6.88.49,16.46a52.52,52.52,0,0,0,3.44,16.95q2.94,2.46,9.82,9.08t14.5,14.25q7.61,7.62,14.24,14.49t9.09,9.83c1,.66,2.53,2.62,4.67,5.89s3.19,5.24,3.19,5.9V409.08q0,9.35-5.4,15.48a43.13,43.13,0,0,1-13.27,10.07,65.91,65.91,0,0,1-16.21,5.65A74.66,74.66,0,0,1,344.72,442a71.58,71.58,0,0,1-19.4-2.7,52.48,52.48,0,0,1-17.19-8.36,46.4,46.4,0,0,1-12.53-14q-4.92-8.34-4.91-19.65V266.63Q299,273.52,310.83,283.08Z"/>
          <path class="cls-8" d="M422.33,79H474.4l-.49,3.93a25.86,25.86,0,0,1-.49,4.18c-.33,1.8-.74,3.77-1.23,5.89s-1,4.1-1.47,5.9A17.25,17.25,0,0,0,470,103V413l7.86,24.07H417.42q4.43-8.34,4.91-24.07Z"/>
          <path class="cls-9" d="M566,77a63.92,63.92,0,0,1,16.46,5.16,38.74,38.74,0,0,1,13.26,10.07A23.53,23.53,0,0,1,601.14,108v91.86q-5.89,3.93-9.58,6.63t-7.62,5.16q-3.93,2.46-6.87,3.93a13.11,13.11,0,0,1-3.94,2.21c-2,.82-3.27,1.4-3.92,1.72l-5.41.49V131.54q0-9.33-2.21-12.78T552,115.33a16.45,16.45,0,0,0-7.37,1.47q-2.94,1.47-2.94,7.37V386.49q0,6.39,2.94,7.61a19.23,19.23,0,0,0,7.37,1.23q5.4,0,7.37-2.21t2-10.56V299.05l-7.86-23.58v-3.93l3.93-4.42q5.9-3.93,14-9.83t15.47-11.54q7.36-5.64,18.18-13.51l2.94,4.91V439.54c-3.6.32-5.48.9-5.65,1.72s-.57,1.23-1.22,1.23L584.43,430.7H580.5a35.31,35.31,0,0,1-11.29,7.86,83.59,83.59,0,0,1-11.79,3.93h-5.9a114.41,114.41,0,0,1-19.65-1.72,60.76,60.76,0,0,1-17.44-5.65,36.85,36.85,0,0,1-12.28-9.83q-4.66-5.88-4.66-14.73V104a19,19,0,0,1,4.91-13.27,38.25,38.25,0,0,1,12.28-8.84A62.31,62.31,0,0,1,530.89,77a99.43,99.43,0,0,1,16.21-1.47H551A90.51,90.51,0,0,1,566,77Z"/>
          <path class="cls-10" d="M685.13,79v28l19.65,115.45V79H748.5v342.4q1,1,2.46,5.64a27,27,0,0,1,1.47,6.15l.49,3.92H703.8a734.59,734.59,0,0,0-6.39-96A570.68,570.68,0,0,0,677.27,248V421.37q1,2,1.47,7.61a41.59,41.59,0,0,0,3.44,12.53q0,2-5.89,6.63t-14,10.07q-8.12,5.4-16.21,10.56t-13,8.11V79Z"/>
          <path class="cls-11" d="M865.9,79v43.72q-9.35-6.87-14-8.59a33.6,33.6,0,0,0-11.55-1.72H821.2V221.92a46.61,46.61,0,0,0,17.68-3.19q7.86-3.19,14.74-12.53v75.65c-.33-.32-1.15-1.06-2.46-2.21s-2.7-2.37-4.17-3.68-3-2.53-4.42-3.68a22.72,22.72,0,0,0-3.2-2.21l-1.47-.5a31.19,31.19,0,0,0-8.84,2c-3.93,1.31-6.56,2-7.86,2V395.82h23.58a29.79,29.79,0,0,0,10.8-1.72q4.42-1.71,14.25-8.6v51.58H774V79Z"/>
          <path class="cls-12" d="M954.56,270.56a34.33,34.33,0,0,0-6.14-.49q-7.86,0-7.86,3.93V437.08H894.88V79H949.4a95.35,95.35,0,0,1,16,1.48,56.88,56.88,0,0,1,16,5.16,32.84,32.84,0,0,1,12,10.07Q998,102.07,998,111.4V226.34q0,4.42-5.4,8.85a47.82,47.82,0,0,0-6.88,6.38l-.49,2.46q3.43,2,7.62,7.37c2.77,3.61,4.49,5.89,5.15,6.88V478.35q-2-1.47-6.87-5.9t-10.56-9.33q-5.65-4.92-10.32-9.33t-6.63-6.39c-1.32-1-2.54-2.87-3.69-5.65a29.72,29.72,0,0,1-1.72-4.67v-166A24.58,24.58,0,0,1,954.56,270.56Zm-16.95-39.3,6.88-.49a8.12,8.12,0,0,0,2-.5q6.88-1,9.34-5.4c1.63-3,2.45-5.07,2.45-6.38V115.33c0-.66-.49-1.39-1.47-2.21a13.55,13.55,0,0,0-2.46-1.72,81.5,81.5,0,0,0-8.35-1.23q-6.39-.73-8.35-.74Z"/>
          <path class="cls-13" d="M1134.1,260.24a133,133,0,0,1,22.6,22.11v90.38q0,11.79,3.68,17.44t5.16,5.65h.49a11.77,11.77,0,0,1,2.21.25,13.29,13.29,0,0,0,2.7.24,40.33,40.33,0,0,0,5.41-.49c2.28-.32,3.44-1.79,3.44-4.42v-114L1111,208.66V62.76a27.3,27.3,0,0,1,6.14-17.19,51.17,51.17,0,0,1,15.23-13,91.1,91.1,0,0,1,18.91-8.1,60.82,60.82,0,0,1,17.2-2.95,70.71,70.71,0,0,1,17.93,2.7,73.09,73.09,0,0,1,18.66,7.86,52,52,0,0,1,14.5,12.77,28.53,28.53,0,0,1,5.89,17.93V222.42l-43.23-36.85V76a23.69,23.69,0,0,0-2.21-4.42q-2.21-3.93-3.68-6.39a3.57,3.57,0,0,0-2.46-1.47,15.3,15.3,0,0,1-3-1q-6.39,2-9.33,8.85v80.56q0,8.36.49,19.4A57.41,57.41,0,0,0,1166,191a120,120,0,0,1,11.3,10.07q7.85,7.62,16.7,16.45t16.46,16.71q7.6,7.86,10.56,11.29c1.3,1,3.11,3.28,5.4,6.88s3.44,5.9,3.44,6.88v145.4q0,10.81-6.14,18.18a46.25,46.25,0,0,1-15,11.79A74,74,0,0,1,1190.1,441a89.2,89.2,0,0,1-17.19,2,80.43,80.43,0,0,1-22.35-3.19,64.28,64.28,0,0,1-19.9-9.58A48.52,48.52,0,0,1,1116.42,414a46,46,0,0,1-5.41-22.6V241.08Q1120.34,249.44,1134.1,260.24Z"/>
          <path class="cls-14" d="M1250.52,98.38q-3.45-10.06-5.9-19.41h55v308.5a12.89,12.89,0,0,0,3.93,7.86q3.43,3.44,6.88,3.44h.49a8.8,8.8,0,0,0,6.39-4.18,17.64,17.64,0,0,0,2.94-7.61V79h44.22V386.49a50.46,50.46,0,0,1-4.18,20.38,51,51,0,0,1-11.3,16.46,56.94,56.94,0,0,1-16.45,11.05,48.88,48.88,0,0,1-20.14,4.18q-28,0-42.74-15.23t-14.74-54v-254A97.24,97.24,0,0,0,1250.52,98.38Z"/>
          <path class="cls-15" d="M1482.38,79a8.94,8.94,0,0,1,6.14,2.46,33.27,33.27,0,0,1,4.91,5.65,28.7,28.7,0,0,1,3.44,6.63,17.67,17.67,0,0,1,1.23,5.41V226.34q0,7.88-9.09,15.48a127.63,127.63,0,0,1-20.14,13.75q-11.05,6.15-20.14,11.06t-9.09,7.37V413a17,17,0,0,1,1,3.93q.5,3,1.23,6.39t1.23,6.39c.32,2,.49,3.11.49,3.44a9.63,9.63,0,0,0,.25,1.71,11.77,11.77,0,0,1,.24,2.21h-53.54V79ZM1439.64,223.4a20.05,20.05,0,0,0,2.21-.25c1.15-.16,1.72-.4,1.72-.73a42.79,42.79,0,0,0,10.32-7.13c2.94-2.78,4.42-4.5,4.42-5.16V110.9c0-2.28-1.23-3.6-3.69-3.93a47.55,47.55,0,0,0-5.65-.49l-9.33.49Z"/>
          <path class="cls-16" d="M1583.33,270.56a34.53,34.53,0,0,0-6.15-.49c-5.24,0-7.85,1.31-7.85,3.93V437.08h-45.69V79h54.53a95.14,95.14,0,0,1,16,1.48,56.84,56.84,0,0,1,16,5.16,32.73,32.73,0,0,1,12,10.07q4.66,6.39,4.67,15.72V226.34q0,4.42-5.4,8.85a47.26,47.26,0,0,0-6.88,6.38L1614,244c2.28,1.31,4.83,3.77,7.61,7.37s4.5,5.89,5.16,6.88V478.35q-2-1.47-6.88-5.9t-10.56-9.33q-5.65-4.92-10.32-9.33t-6.63-6.39c-1.31-1-2.54-2.87-3.68-5.65a29.72,29.72,0,0,1-1.72-4.67v-166A24.43,24.43,0,0,1,1583.33,270.56Zm-16.95-39.3,6.87-.49a8.05,8.05,0,0,0,2-.5q6.87-1,9.33-5.4c1.64-3,2.46-5.07,2.46-6.38V115.33c0-.66-.49-1.39-1.47-2.21a14.28,14.28,0,0,0-2.46-1.72,82,82,0,0,0-8.35-1.23c-4.26-.49-7-.74-8.35-.74Z"/>
          <path class="cls-17" d="M1744.2,79v43.72q-9.33-6.87-14-8.59a33.58,33.58,0,0,0-11.54-1.72H1699.5V221.92a46.57,46.57,0,0,0,17.68-3.19q7.86-3.19,14.74-12.53v75.65c-.33-.32-1.15-1.06-2.46-2.21s-2.7-2.37-4.17-3.68-3-2.53-4.42-3.68a22.14,22.14,0,0,0-3.2-2.21l-1.47-.5a31.26,31.26,0,0,0-8.84,2c-3.93,1.31-6.56,2-7.86,2V395.82h23.58a29.89,29.89,0,0,0,10.81-1.72q4.41-1.71,14.24-8.6v51.58h-95.79V79Z"/>
          <path class="cls-18" d="M1772,91c-.82-3.76-1.4-6.46-1.72-8.11l-.49-3.93h76.14c3.6,0,6.55,1.65,8.84,4.92a22.61,22.61,0,0,0,6.88,6.87l2,2.46c.32,0,1.14-.81,2.45-2.46a24,24,0,0,1,2.7-2c1.48-1,3.11-2.13,4.92-3.44s3.43-2.53,4.91-3.68a37.62,37.62,0,0,0,3.19-2.71h76.63a38.37,38.37,0,0,1-1.47,10.57,73.09,73.09,0,0,1-3.44,9.58V413a101.35,101.35,0,0,1,3.44,11.79,54.8,54.8,0,0,1,1.47,12.28h-57a91.05,91.05,0,0,1,1.23-14.49,85.7,85.7,0,0,1,3.19-13.51V122.69c0-2.28-1-3.6-3-3.93a33.8,33.8,0,0,0-5.4-.49c-1.31,0-3.44.17-6.38.49s-4.43,1.65-4.43,3.93V371.75c.33.66,1,2.21,2,4.67s2,5.08,3,7.86,2,5.49,3.19,8.1a18.38,18.38,0,0,0,2.7,4.91,16,16,0,0,1,.49,2.46,3.84,3.84,0,0,1-.49,1.47l-33.89,33.9-33.41-33.9a84.34,84.34,0,0,0,8.11-17.19,56.22,56.22,0,0,0,3.68-18.67V122.69a3.48,3.48,0,0,0-3-3.68,22.42,22.42,0,0,0-5.4-.74h-2.46c-3.6,0-6.06.66-7.36,2s-2,4.75-2,10.31V413l8.35,24.07q-15.23,11.79-24.56,19.16T1787.92,470q-8.37,6.38-9.83,6.88a3.88,3.88,0,0,1-2,.73,16.51,16.51,0,0,1-2,.25V99.12A54.82,54.82,0,0,1,1772,91Z"/>
          <path class="cls-19" d="M2072.34,79v43.72q-9.35-6.87-14-8.59a33.6,33.6,0,0,0-11.55-1.72h-19.15V221.92a46.61,46.61,0,0,0,17.68-3.19q7.86-3.19,14.74-12.53v75.65c-.33-.32-1.15-1.06-2.46-2.21s-2.7-2.37-4.17-3.68-2.95-2.53-4.42-3.68a22.72,22.72,0,0,0-3.2-2.21l-1.47-.5a31.19,31.19,0,0,0-8.84,2c-3.93,1.31-6.56,2-7.86,2V395.82h23.58a29.79,29.79,0,0,0,10.8-1.72q4.42-1.71,14.25-8.6v51.58h-95.79V79Z"/>
        </g>
      </g>
    </g>
  </g>
</svg>
