<svg xmlns="http://www.w3.org/2000/svg" xmlns:xlink="http://www.w3.org/1999/xlink" width="2170.05" height="609.08" viewBox="0 0 2170.05 609.08">
  <defs>
    <style>
      .cls-1, .cls-3, .cls-4 {
        font-size: 491.24px;
        font-family: Butch&Sundance, "Butch & Sundance";
      }

      .cls-1 {
        fill: #fff;
      }

      .cls-2 {
        opacity: 0.37;
      }

      .cls-3 {
        fill: #1d1d1b;
      }

      .cls-4 {
        fill: none;
        stroke: #000;
        stroke-width: 43px;
      }

      .cls-5 {
        fill: url(#Yellow_Pepper);
      }
    </style>
    <linearGradient id="Yellow_Pepper" data-name="Yellow Pepper" x1="210.72" y1="763.44" x2="1903.92" y2="-214.13" gradientUnits="userSpaceOnUse">
      <stop offset="0.02" stop-color="#ce9a00"/>
      <stop offset="0.07" stop-color="#e6aa00"/>
      <stop offset="0.1" stop-color="#f5b400"/>
      <stop offset="0.2" stop-color="#fac218"/>
      <stop offset="0.28" stop-color="#ffcf2d"/>
      <stop offset="0.45" stop-color="#facd27"/>
      <stop offset="0.5" stop-color="#f7d33f"/>
      <stop offset="0.61" stop-color="#f0e47d"/>
      <stop offset="0.66" stop-color="#edec9b"/>
      <stop offset="0.68" stop-color="#f1e172"/>
      <stop offset="0.71" stop-color="#f4d84f"/>
      <stop offset="0.74" stop-color="#f6d132"/>
      <stop offset="0.77" stop-color="#f8cb1c"/>
      <stop offset="0.8" stop-color="#fac70c"/>
      <stop offset="0.84" stop-color="#fbc503"/>
      <stop offset="0.89" stop-color="#fbc400"/>
      <stop offset="0.9" stop-color="#f9ca18"/>
      <stop offset="0.93" stop-color="#f3da56"/>
      <stop offset="0.97" stop-color="#edec9b"/>
    </linearGradient>
  </defs>
  <title>supremetxt</title>
  <g id="Layer_2" data-name="Layer 2">
    <g id="Layer_1-2" data-name="Layer 1">
      <g>
        <text class="cls-1" transform="translate(30.72 472.94)">Designer Supreme</text>
        <g class="cls-2">
          <text class="cls-3" transform="translate(90.72 532.94)">Designer Supreme</text>
        </g>
        <text class="cls-4" transform="translate(30.72 472.94)">Designer Supreme</text>
        <g>
          <path class="cls-5" d="M148.13,61.29q.48,0,3.44,2.7a81.26,81.26,0,0,1,6.14,6.38A88.14,88.14,0,0,1,163.6,78q2.7,3.93,2.7,6.38v366a12.81,12.81,0,0,1-4.42,9.58,41.29,41.29,0,0,1-10.56,7.13A62.59,62.59,0,0,1,139,471.47a44.23,44.23,0,0,1-9.58,1.47H43V61.29ZM102.44,97.64A13,13,0,0,1,99,100.09c-1.31.66-2,1.48-2,2.46V431.68c0,.33.65,1.06,2,2.21a10.63,10.63,0,0,0,3.44,2.21h4.42c1.64-.65,3.76-1.55,6.39-2.7s3.93-1.88,3.93-2.21V102.06c0-.65-1.31-1.31-3.93-2a23.51,23.51,0,0,1-6.39-2.45h-4.42Z"/>
          <path class="cls-5" d="M283.21,114.83v43.72q-9.33-6.87-14-8.6a33.78,33.78,0,0,0-11.54-1.72H238.51V257.78a46.66,46.66,0,0,0,17.69-3.19q7.85-3.19,14.73-12.53v75.65c-.33-.32-1.15-1.06-2.45-2.21s-2.7-2.37-4.18-3.68-2.95-2.54-4.42-3.69a24.07,24.07,0,0,0-3.19-2.21l-1.48-.49a31.52,31.52,0,0,0-8.84,2c-3.93,1.32-6.55,2-7.86,2V431.68h23.58A29.89,29.89,0,0,0,272.9,430q4.43-1.72,14.24-8.6v51.58H191.35V114.83Z"/>
          <path class="cls-5" d="M332.33,318.94A129.64,129.64,0,0,1,352,338.34v78.6q0,10.32,3.19,15.23c2.13,3.28,3.69,4.91,4.67,4.91h.49a11.09,11.09,0,0,1,1.72.25,10.85,10.85,0,0,0,2.21.24,30.49,30.49,0,0,0,4.91-.49q3-.48,2.95-3.93V333.92l-59.93-59.44V147.25a23.11,23.11,0,0,1,5.4-15A49.69,49.69,0,0,1,330.86,121a69.49,69.49,0,0,1,16.45-7.12,55.59,55.59,0,0,1,15-2.46,64.51,64.51,0,0,1,16,2.21,55.68,55.68,0,0,1,16,6.88,48.82,48.82,0,0,1,12.52,11.3,24.47,24.47,0,0,1,5.16,15.47v139l-37.82-31.93V159a19.1,19.1,0,0,0-2-3.93q-2-3.44-2.95-5.4a3.34,3.34,0,0,0-2.21-1.48,15.09,15.09,0,0,1-2.7-1,13.29,13.29,0,0,0-7.86,7.86v70.25q0,6.88.49,16.45a52.94,52.94,0,0,0,3.44,16.95q3,2.46,9.83,9.09t14.49,14.25q7.61,7.62,14.24,14.49t9.09,9.82c1,.66,2.53,2.63,4.67,5.9s3.19,5.24,3.19,5.89V444.94q0,9.35-5.4,15.47a43,43,0,0,1-13.27,10.07A65.91,65.91,0,0,1,381,476.13a73.91,73.91,0,0,1-14.73,1.72,71.21,71.21,0,0,1-19.41-2.7,52.36,52.36,0,0,1-17.19-8.35,46.52,46.52,0,0,1-12.53-14,38.06,38.06,0,0,1-4.91-19.65V302.48Q320.54,309.37,332.33,318.94Z"/>
          <path class="cls-5" d="M443.83,114.83h52.08l-.5,3.93a24.88,24.88,0,0,1-.49,4.18c-.33,1.8-.73,3.76-1.22,5.89s-1,4.1-1.48,5.89a17.4,17.4,0,0,0-.74,4.18v310l7.86,24.07H438.92q4.43-8.34,4.91-24.07Z"/>
          <path class="cls-5" d="M587.52,112.87A64.34,64.34,0,0,1,604,118a38.81,38.81,0,0,1,13.27,10.07,23.59,23.59,0,0,1,5.4,15.72v91.86q-5.89,3.95-9.58,6.64t-7.61,5.15c-2.63,1.65-4.92,2.95-6.88,3.93a12.94,12.94,0,0,1-3.93,2.21c-2,.82-3.28,1.4-3.93,1.72l-5.41.49V167.39q0-9.33-2.21-12.77t-9.58-3.44a16.27,16.27,0,0,0-7.36,1.48q-3,1.47-2.95,7.36V422.34q0,6.39,2.95,7.62a19.18,19.18,0,0,0,7.36,1.23c3.61,0,6.06-.74,7.37-2.22s2-5,2-10.56V334.9L575,311.32v-3.93l3.93-4.42q5.9-3.92,14-9.82t15.47-11.55q7.36-5.64,18.18-13.5l2.95,4.91V475.4q-5.41.48-5.65,1.72c-.17.81-.58,1.22-1.23,1.22l-16.7-11.79H602a35.19,35.19,0,0,1-11.3,7.86,82.33,82.33,0,0,1-11.79,3.93H573a113.42,113.42,0,0,1-19.65-1.72A60.9,60.9,0,0,1,535.94,471a36.91,36.91,0,0,1-12.29-9.83Q519,455.26,519,446.41V139.88a19,19,0,0,1,4.91-13.26,38.1,38.1,0,0,1,12.28-8.84,62.43,62.43,0,0,1,16.21-4.91,98.51,98.51,0,0,1,16.21-1.48h3.93A89.67,89.67,0,0,1,587.52,112.87Z"/>
          <path class="cls-5" d="M706.63,114.83v28l19.65,115.44V114.83H770V457.22q1,1,2.46,5.65a27.11,27.11,0,0,1,1.47,6.14l.49,3.93H725.3a733,733,0,0,0-6.39-96,569.86,569.86,0,0,0-20.14-93.09V457.22q1,2,1.48,7.61a40.94,40.94,0,0,0,3.44,12.53q0,2-5.9,6.63t-14,10.07q-8.1,5.4-16.21,10.56t-13,8.11V114.83Z"/>
          <path class="cls-5" d="M887.4,114.83v43.72q-9.33-6.87-14-8.6a33.78,33.78,0,0,0-11.54-1.72H842.7V257.78a46.57,46.57,0,0,0,17.68-3.19q7.86-3.19,14.74-12.53v75.65c-.33-.32-1.15-1.06-2.45-2.21s-2.71-2.37-4.18-3.68-3-2.54-4.42-3.69a24.76,24.76,0,0,0-3.19-2.21l-1.48-.49a31.52,31.52,0,0,0-8.84,2c-3.93,1.32-6.56,2-7.86,2V431.68h23.58A29.89,29.89,0,0,0,877.09,430q4.41-1.72,14.24-8.6v51.58H795.54V114.83Z"/>
          <path class="cls-5" d="M976.06,306.41a35.28,35.28,0,0,0-6.14-.49q-7.86,0-7.86,3.93V472.94H916.38V114.83H970.9a95.09,95.09,0,0,1,16,1.47,57.1,57.1,0,0,1,16,5.16,33,33,0,0,1,12,10.07q4.67,6.39,4.67,15.72v115q0,4.43-5.41,8.84a47.45,47.45,0,0,0-6.87,6.39l-.5,2.45q3.43,2,7.62,7.37t5.16,6.88V514.2q-2-1.47-6.88-5.89T1002.1,499q-5.65-4.92-10.32-9.34c-3.11-2.94-5.32-5.08-6.63-6.38q-2-1.49-3.68-5.65a29.31,29.31,0,0,1-1.72-4.67v-166A24.66,24.66,0,0,1,976.06,306.41Zm-16.94-39.3,6.87-.49a8.07,8.07,0,0,0,2-.49c4.58-.65,7.69-2.46,9.33-5.4s2.46-5.08,2.46-6.39V151.18c0-.65-.49-1.39-1.48-2.21a14.46,14.46,0,0,0-2.45-1.72c-1.32-.32-4.1-.74-8.35-1.23s-7.05-.73-8.35-.73Z"/>
          <path class="cls-5" d="M1155.6,296.1a131.83,131.83,0,0,1,22.6,22.1v90.39q0,11.79,3.68,17.44t5.16,5.65h.49a11.6,11.6,0,0,1,2.21.24,13.36,13.36,0,0,0,2.71.25,40.35,40.35,0,0,0,5.4-.49q3.44-.49,3.44-4.42v-114l-68.77-68.77V98.62a27.28,27.28,0,0,1,6.14-17.19,51,51,0,0,1,15.22-13,91.53,91.53,0,0,1,18.92-8.11A61.07,61.07,0,0,1,1190,57.36a70.27,70.27,0,0,1,17.93,2.7,72.8,72.8,0,0,1,18.67,7.86,52.12,52.12,0,0,1,14.49,12.77A28.44,28.44,0,0,1,1247,98.62V258.27l-43.23-36.84V111.88a23.28,23.28,0,0,0-2.21-4.42c-1.47-2.62-2.7-4.74-3.68-6.38a3.54,3.54,0,0,0-2.46-1.48,14.38,14.38,0,0,1-2.94-1q-6.39,2-9.34,8.84V188q0,8.37.49,19.41a57.54,57.54,0,0,0,3.93,19.4,121.5,121.5,0,0,1,11.3,10.07q7.86,7.62,16.7,16.46t16.46,16.7q7.6,7.86,10.56,11.3,2,1.47,5.41,6.88c2.28,3.6,3.43,5.89,3.43,6.87V440.52q0,10.82-6.14,18.17a45.78,45.78,0,0,1-15,11.79,73.86,73.86,0,0,1-18.67,6.39,89.9,89.9,0,0,1-17.19,2,80.06,80.06,0,0,1-22.35-3.19,63.9,63.9,0,0,1-19.89-9.58,48.35,48.35,0,0,1-14.25-16.21,46,46,0,0,1-5.4-22.59V276.94Q1141.84,285.29,1155.6,296.1Z"/>
          <path class="cls-5" d="M1272,134.23q-3.43-10-5.89-19.4h55v308.5a12.86,12.86,0,0,0,3.93,7.86c2.28,2.29,4.58,3.43,6.87,3.43h.49a8.79,8.79,0,0,0,6.39-4.17,17.7,17.7,0,0,0,3-7.62v-308H1386V422.34a51.39,51.39,0,0,1-15.48,36.85,56.8,56.8,0,0,1-16.45,11.05,48.84,48.84,0,0,1-20.14,4.17q-28,0-42.74-15.22t-14.74-54v-254A97.69,97.69,0,0,0,1272,134.23Z"/>
          <path class="cls-5" d="M1503.88,114.83a8.87,8.87,0,0,1,6.14,2.46,32.84,32.84,0,0,1,4.91,5.65,28.31,28.31,0,0,1,3.44,6.63,17.33,17.33,0,0,1,1.23,5.4V262.2q0,7.86-9.09,15.47a127,127,0,0,1-20.14,13.76q-11.05,6.15-20.14,11.05t-9.09,7.37v139a16.23,16.23,0,0,1,1,3.93c.32,2,.73,4.1,1.22,6.39s.9,4.42,1.23,6.38.49,3.12.49,3.44a9.7,9.7,0,0,0,.25,1.72,11.69,11.69,0,0,1,.24,2.21H1412V114.83Zm-42.74,144.42a18.87,18.87,0,0,0,2.21-.24c1.15-.16,1.72-.41,1.72-.74a42.76,42.76,0,0,0,10.32-7.12q4.42-4.17,4.42-5.16V146.76q0-3.44-3.68-3.93a47.89,47.89,0,0,0-5.65-.49l-9.34.49Z"/>
          <path class="cls-5" d="M1604.83,306.41a35.37,35.37,0,0,0-6.14-.49q-7.86,0-7.86,3.93V472.94h-45.69V114.83h54.53a95.28,95.28,0,0,1,16,1.47,57.21,57.21,0,0,1,16,5.16,33,33,0,0,1,12,10.07q4.65,6.39,4.66,15.72v115q0,4.43-5.4,8.84a47.14,47.14,0,0,0-6.88,6.39l-.49,2.45q3.43,2,7.61,7.37t5.16,6.88V514.2q-2-1.47-6.87-5.89T1630.86,499q-5.65-4.92-10.31-9.34c-3.12-2.94-5.33-5.08-6.63-6.38-1.32-1-2.54-2.87-3.69-5.65a30.54,30.54,0,0,1-1.72-4.67v-166A24.43,24.43,0,0,1,1604.83,306.41Zm-16.95-39.3,6.88-.49a7.93,7.93,0,0,0,2-.49c4.59-.65,7.69-2.46,9.34-5.4s2.45-5.08,2.45-6.39V151.18c0-.65-.49-1.39-1.47-2.21a14.08,14.08,0,0,0-2.46-1.72c-1.31-.32-4.1-.74-8.35-1.23s-7-.73-8.35-.73Z"/>
          <path class="cls-5" d="M1765.7,114.83v43.72q-9.33-6.87-14-8.6a33.78,33.78,0,0,0-11.54-1.72H1721V257.78a46.66,46.66,0,0,0,17.69-3.19q7.85-3.19,14.73-12.53v75.65c-.33-.32-1.15-1.06-2.45-2.21s-2.7-2.37-4.18-3.68-3-2.54-4.42-3.69a24.07,24.07,0,0,0-3.19-2.21l-1.48-.49a31.52,31.52,0,0,0-8.84,2c-3.93,1.32-6.55,2-7.86,2V431.68h23.58a29.89,29.89,0,0,0,10.81-1.72q4.42-1.72,14.24-8.6v51.58h-95.79V114.83Z"/>
          <path class="cls-5" d="M1793.45,126.87q-1.23-5.66-1.72-8.11l-.49-3.93h76.14q5.4,0,8.85,4.91a22.53,22.53,0,0,0,6.87,6.88l2,2.46c.32,0,1.14-.82,2.45-2.46a25.45,25.45,0,0,1,2.71-2c1.47-1,3.1-2.12,4.91-3.43s3.44-2.54,4.91-3.69a34.66,34.66,0,0,0,3.19-2.7h76.64a37.94,37.94,0,0,1-1.48,10.56A72.57,72.57,0,0,1,1975,135v313.9a101.35,101.35,0,0,1,3.44,11.79,54.19,54.19,0,0,1,1.48,12.28h-57a91.05,91.05,0,0,1,1.23-14.49,86.82,86.82,0,0,1,3.19-13.51V158.55q0-3.44-2.94-3.93a34,34,0,0,0-5.41-.49c-1.31,0-3.43.17-6.38.49s-4.42,1.64-4.42,3.93V407.61c.32.66,1,2.21,2,4.66s2,5.08,3,7.86,2,5.49,3.19,8.11a18.85,18.85,0,0,0,2.7,4.91,14.87,14.87,0,0,1,.5,2.46,3.73,3.73,0,0,1-.5,1.47L1885.07,471l-33.4-33.9a85.15,85.15,0,0,0,8.1-17.19,56,56,0,0,0,3.68-18.67V158.55a3.47,3.47,0,0,0-2.94-3.68,22.07,22.07,0,0,0-5.41-.74h-2.45c-3.61,0-6.07.66-7.37,2s-2,4.75-2,10.32V448.87l8.36,24.07q-15.24,11.79-24.57,19.16t-17.68,13.75q-8.36,6.39-9.83,6.88a3.87,3.87,0,0,1-2,.74,15.35,15.35,0,0,1-2,.24V135A55.89,55.89,0,0,1,1793.45,126.87Z"/>
          <path class="cls-5" d="M2093.84,114.83v43.72q-9.33-6.87-14-8.6a33.78,33.78,0,0,0-11.54-1.72h-19.16V257.78a46.57,46.57,0,0,0,17.68-3.19q7.86-3.19,14.74-12.53v75.65c-.33-.32-1.15-1.06-2.45-2.21s-2.71-2.37-4.18-3.68-2.95-2.54-4.42-3.69a24.07,24.07,0,0,0-3.19-2.21l-1.48-.49a31.52,31.52,0,0,0-8.84,2c-3.93,1.32-6.56,2-7.86,2V431.68h23.58a29.89,29.89,0,0,0,10.81-1.72q4.41-1.72,14.24-8.6v51.58H2002V114.83Z"/>
        </g>
      </g>
    </g>
  </g>
</svg>
