<svg xmlns="http://www.w3.org/2000/svg" width="150" height="135.58" viewBox="0 0 150 135.58">
  <defs>
    <style>
      .cls-1 {
        fill: #fff;
      }
    </style>
  </defs>
  <title>IconSketch</title>
  <g id="Layer_2" data-name="Layer 2">
    <g id="Layer_1-2" data-name="Layer 1">
      <path class="cls-1" d="M128.37,11.54,102.14,0H47.76L21.69,11.75,0,35.84l75,99.74,75-99.74Zm15.38,25L120,54.24,103.17,29,127,17.73ZM111.32,56.94h-74L52,30.77l44.13.11Zm-58.71-53H97.79L120,13.71,97.7,23.44H52.52L30.41,13.72ZM22.92,17.73,45.3,29l-16,24.79L6.2,36.49ZM14.8,49.56,29.38,61.85l34.69,57.09Zm24.51,15.5h70.3L75,128.85Zm46.57,53.88,34.69-57.09,14.58-12.29Z"/>
    </g>
  </g>
</svg>
