<svg xmlns="http://www.w3.org/2000/svg" width="150" height="150" viewBox="0 0 150 150">
  <defs>
    <style>
      .cls-1 {
        isolation: isolate;
      }

      .cls-2 {
        fill: #fff;
      }

      .cls-3 {
        opacity: 0.1;
        mix-blend-mode: multiply;
      }
    </style>
  </defs>
  <title>iconAI</title>
  <g class="cls-1">
    <g id="Layer_2" data-name="Layer 2">
      <g id="Layer_1-2" data-name="Layer 1">
        <path class="cls-2" d="M0,0V150H150V0ZM138.07,138.12H12.24V12.21H138.07Z"/>
        <g>
          <g>
            <g class="cls-3">
              <path d="M56.56,90.77l-5.34,18H39.54L59.41,45.29H73.85L94,108.76H81.86l-5.62-18ZM74.31,82,69.44,66.38c-1.2-3.86-2.21-8.19-3.13-11.86h-.18c-.93,3.67-1.85,8.1-2.95,11.86L58.4,82Z"/>
            </g>
            <path class="cls-2" d="M56.56,89.5l-5.34,18H39.54L59.41,44H73.85L94,107.49H81.86l-5.62-18Zm17.75-8.76L69.44,65.11c-1.2-3.86-2.21-8.19-3.13-11.86h-.18c-.93,3.67-1.85,8.1-2.95,11.86L58.4,80.74Z"/>
          </g>
          <g>
            <g class="cls-3">
              <path d="M110.46,50.09a6.35,6.35,0,1,1-6.35-6.31A6.06,6.06,0,0,1,110.46,50.09Zm-12,58.67V62.9h11.41v45.86Z"/>
            </g>
            <path class="cls-2" d="M110.46,48.82a6.35,6.35,0,1,1-6.35-6.31A6.06,6.06,0,0,1,110.46,48.82Zm-12,58.67V61.63h11.41v45.86Z"/>
          </g>
        </g>
      </g>
    </g>
  </g>
</svg>
