<svg xmlns="http://www.w3.org/2000/svg" width="168.71" height="94.47" viewBox="0 0 168.71 94.47">
  <defs>
    <style>
      .cls-1 {
        fill: #fff;
      }
    </style>
  </defs>
  <title>IconCSS</title>
  <g id="Layer_2" data-name="Layer 2">
    <g id="Layer_1-2" data-name="Layer 1">
      <g>
        <path class="cls-1" d="M0,20,26.31,7.77v5.8L6.4,22.26v.11l19.91,8.7v5.8L0,24.67Z"/>
        <path class="cls-1" d="M41.14,0V14.17H54.87V0h8.31V36.87H54.87V21.44H41.14V36.87H32.82V0Z"/>
        <path class="cls-1" d="M77.35,7H67.4V0H95.73V7H85.67V36.87H77.35Z"/>
        <path class="cls-1" d="M130.85,22.76c-.16-4.43-.33-9.8-.33-15.16h-.1c-1.21,4.71-2.74,10-4.16,14.28l-4.49,14.39h-6.51l-3.94-14.22c-1.2-4.38-2.4-9.63-3.33-14.45h-.11c-.17,5-.39,10.67-.6,15.27l-.72,14H98.85L101.2,0h11.11l3.61,12.31c1.2,4.26,2.3,8.86,3.12,13.18h.22c1-4.27,2.24-9.13,3.5-13.24L126.64,0h10.94l2,36.87h-8.1Z"/>
        <path class="cls-1" d="M145.73,0h8.32V29.87h14.66v7h-23Z"/>
        <path class="cls-1" d="M59.79,87.36a24.55,24.55,0,0,1-9.41,1.58c-12.74,0-19.31-8-19.31-18.48,0-12.59,9-19.53,20.13-19.53,4.32,0,7.61.82,9.08,1.64l-1.75,6.56a17.57,17.57,0,0,0-7-1.37c-6.56,0-11.71,4-11.71,12.2,0,7.39,4.38,12,11.76,12a19.9,19.9,0,0,0,7-1.21Z"/>
        <path class="cls-1" d="M65.32,79.75a21,21,0,0,0,9.24,2.3c3.83,0,5.85-1.58,5.85-4s-1.75-3.61-6.18-5.14C68.11,70.73,64.06,67.34,64.06,62c0-6.29,5.3-11,14-11a21.58,21.58,0,0,1,9.41,1.86l-1.86,6.67a17.32,17.32,0,0,0-7.66-1.75c-3.61,0-5.36,1.69-5.36,3.56,0,2.35,2,3.39,6.84,5.19,6.5,2.41,9.51,5.8,9.51,11,0,6.18-4.7,11.43-14.82,11.43a24,24,0,0,1-10.45-2.3Z"/>
        <path class="cls-1" d="M94.58,79.75a21.07,21.07,0,0,0,9.25,2.3c3.83,0,5.85-1.58,5.85-4s-1.75-3.61-6.18-5.14C97.37,70.73,93.33,67.34,93.33,62c0-6.29,5.3-11,13.94-11a21.51,21.51,0,0,1,9.41,1.86l-1.86,6.67a17.23,17.23,0,0,0-7.65-1.75c-3.62,0-5.37,1.69-5.37,3.56,0,2.35,2,3.39,6.84,5.19,6.51,2.41,9.52,5.8,9.52,11,0,6.18-4.7,11.43-14.82,11.43a24,24,0,0,1-10.45-2.3Z"/>
        <path class="cls-1" d="M135.5,74.72c-3.72.17-4.1,2.19-4.16,3.72a40.49,40.49,0,0,0,.33,4.27c.11,1.48.28,3,.28,4.32,0,5.47-3.4,7.44-8.26,7.44h-2v-4.6h1c2.52-.05,3.34-1.53,3.34-3.93a21.89,21.89,0,0,0-.27-3.07,37.7,37.7,0,0,1-.28-3.83c0-4.15,1.64-5.74,4.71-6.34v-.11c-3.07-.66-4.76-2.24-4.71-6.35a35.39,35.39,0,0,1,.28-3.77,22.44,22.44,0,0,0,.27-3.12c0-2.41-.88-3.83-3.34-3.88h-1V50.82h1.91c5.09,0,8.32,2.24,8.32,7.38,0,1.37-.17,2.85-.28,4.32a41.74,41.74,0,0,0-.33,4.27c0,1.64.39,3.61,4.16,3.77Z"/>
      </g>
    </g>
  </g>
</svg>
