<svg xmlns="http://www.w3.org/2000/svg" width="150" height="150" viewBox="0 0 150 150">
  <defs>
    <style>
      .cls-1 {
        fill: #fff;
      }
    </style>
  </defs>
  <title>IconIn</title>
  <g id="Layer_2" data-name="Layer 2">
    <g id="Layer_1-2" data-name="Layer 1">
      <path class="cls-1" d="M136.4,0H13.6A13.6,13.6,0,0,0,0,13.6V136.4A13.6,13.6,0,0,0,13.6,150H136.4A13.6,13.6,0,0,0,150,136.4V13.6A13.6,13.6,0,0,0,136.4,0ZM50.13,29.14a9,9,0,1,1-9.16,9A9.05,9.05,0,0,1,50.13,29.14Zm61.3,86.37c-9.29,0-13.74-5.52-13.74-13.07a24.07,24.07,0,0,1,.94-6.74l4.45-15.9a16.1,16.1,0,0,0,.67-4.85c0-5.12-3.1-8.22-8.08-8.22C89.33,66.73,85.16,71.28,83,80l-8.62,34.59H59.29L62,103.76c-4.43,7.29-10.59,11.8-18.19,11.8-9.17,0-13.48-5.28-13.48-13.23a30.88,30.88,0,0,1,.81-6.78h0L38,67.47H27.36l3.23-11.93h25.6L46.09,95.63a25.18,25.18,0,0,0-1,6.17c0,2.56,1.27,3.31,3.24,3.76,1.2.27,10.78.08,16-11.51L71,67.47H60.23l3.23-11.93h23l-3,13.55c4-7.55,12.13-14.72,20.08-14.72,8.49,0,15.5,6.05,15.5,17.63a34.11,34.11,0,0,1-1.49,9.83l-4.31,15.49a18,18,0,0,0-.67,4.18c0,2.7,1.07,4,3.1,4s4.58-1.48,7.54-9.7l5.93,2.29C125.72,110.39,119.38,115.51,111.43,115.51Z"/>
    </g>
  </g>
</svg>
