<svg xmlns="http://www.w3.org/2000/svg" width="150" height="150" viewBox="0 0 150 150">
  <defs>
    <style>
      .cls-1 {
        isolation: isolate;
      }

      .cls-2 {
        fill: #fff;
      }

      .cls-3 {
        opacity: 0.1;
        mix-blend-mode: multiply;
      }
    </style>
  </defs>
  <title>Asset 1</title>
  <g class="cls-1">
    <g id="Layer_2" data-name="Layer 2">
      <g id="Layer_1-2" data-name="Layer 1">
        <g>
          <path class="cls-2" d="M0,0V150H150V0ZM138.08,138.12H12.24V12.21H138.08Z"/>
          <g>
            <g class="cls-3">
              <path d="M39.43,44.2a96.16,96.16,0,0,1,17.29-1.32c8.28,0,14.35,1.79,18.31,5.18a18.12,18.12,0,0,1,6.07,14c0,6-1.84,11-5.33,14.41-4.51,4.61-11.59,6.77-19.6,6.77a31.5,31.5,0,0,1-5.52-.37v23.92H39.43ZM50.65,73.77a22.66,22.66,0,0,0,5.52.47c8.47,0,13.62-4.24,13.62-11.68,0-7.06-4.79-10.83-12.61-10.83a30,30,0,0,0-6.53.57Z"/>
            </g>
            <path class="cls-2" d="M39.43,42.93a96.16,96.16,0,0,1,17.29-1.32C65,41.61,71.07,43.4,75,46.79a18.12,18.12,0,0,1,6.07,14c0,6-1.84,11-5.33,14.41C71.26,79.84,64.18,82,56.17,82a31.5,31.5,0,0,1-5.52-.37v23.92H39.43ZM50.65,72.5a22.66,22.66,0,0,0,5.52.47c8.47,0,13.62-4.24,13.62-11.68,0-7.06-4.79-10.83-12.61-10.83a30,30,0,0,0-6.53.57Z"/>
          </g>
          <g>
            <g class="cls-3">
              <path d="M84.59,96.18a24.86,24.86,0,0,0,11.5,3.29c5,0,7.18-2.07,7.18-5.08s-1.84-4.71-7.36-6.69c-8.74-3.11-12.42-8-12.33-13.37,0-8.1,6.53-14.41,16.93-14.41a25.86,25.86,0,0,1,11.87,2.73l-2.21,8.2a19.77,19.77,0,0,0-9.48-2.64c-4,0-6.25,2-6.25,4.8s2.11,4.33,7.82,6.4c8.09,3,11.86,7.26,12,14,0,8.29-6.35,14.41-18.22,14.41a28.33,28.33,0,0,1-13.61-3.29Z"/>
            </g>
            <path class="cls-2" d="M84.59,94.91a24.86,24.86,0,0,0,11.5,3.29c5,0,7.18-2.07,7.18-5.08s-1.84-4.71-7.36-6.69c-8.74-3.11-12.42-8-12.33-13.37,0-8.1,6.53-14.41,16.93-14.41a25.86,25.86,0,0,1,11.87,2.73l-2.21,8.2a19.77,19.77,0,0,0-9.48-2.64c-4,0-6.25,2-6.25,4.8s2.11,4.33,7.82,6.4c8.09,3,11.86,7.26,12,14,0,8.29-6.35,14.41-18.22,14.41a28.33,28.33,0,0,1-13.61-3.29Z"/>
          </g>
        </g>
      </g>
    </g>
  </g>
</svg>
