<svg xmlns="http://www.w3.org/2000/svg" width="150" height="146.55" viewBox="0 0 150 146.55">
  <defs>
    <style>
      .cls-1 {
        isolation: isolate;
      }

      .cls-2 {
        fill: #fff;
      }

      .cls-3 {
        opacity: 0.1;
        mix-blend-mode: multiply;
      }
    </style>
  </defs>
  <title>IconXD</title>
  <g class="cls-1">
    <g id="Layer_2" data-name="Layer 2">
      <g id="Layer_1-2" data-name="Layer 1">
        <path class="cls-2" d="M0,0V146.55H150V0ZM138.07,134.94H12.24v-123H138.07Z"/>
        <g>
          <g>
            <g class="cls-3">
              <path d="M121.5,40.74V93.45c0,4.6.16,9.57.33,12.6h-9.26L112.15,99H112a14.56,14.56,0,0,1-13.39,8.1c-9.77,0-17.52-9.11-17.52-22.91-.08-15,8.51-23.92,18.36-23.92,5.64,0,9.69,2.58,11.54,5.89h.16V40.74ZM111.13,79.93a18.34,18.34,0,0,0-.24-3c-.93-4.41-4.22-8-8.93-8C95.3,69,91.6,75.42,91.6,83.79,91.6,92,95.3,98,101.87,98c4.21,0,7.92-3.13,8.93-8a13.81,13.81,0,0,0,.33-3.31Z"/>
            </g>
            <path class="cls-2" d="M121.5,39.48V92.2c0,4.59.16,9.56.33,12.6h-9.26l-.42-7.09H112a14.56,14.56,0,0,1-13.39,8.1c-9.77,0-17.52-9.11-17.52-22.91C81,67.91,89.58,59,99.43,59c5.64,0,9.69,2.57,11.54,5.88h.16V39.48ZM111.13,78.67a18.22,18.22,0,0,0-.24-2.94c-.93-4.42-4.22-8-8.93-8-6.66,0-10.36,6.44-10.36,14.82,0,8.18,3.7,14.16,10.27,14.16,4.21,0,7.92-3.13,8.93-8a13.87,13.87,0,0,0,.33-3.31Z"/>
          </g>
          <g>
            <g class="cls-3">
              <path d="M66,106.45l-5.7-11.4c-2.34-4.4-3.83-7.67-5.61-11.31h-.19c-1.31,3.64-2.9,6.91-5,11.31l-5.14,11.4H28.17L46.4,74.57,28.82,43.44H45.18l5.52,11.5c1.87,3.83,3.27,6.92,4.77,10.47h.18c1.5-4,2.72-6.82,4.31-10.47l5.32-11.5H81.55L63.79,74.2l18.7,32.25Z"/>
            </g>
            <path class="cls-2" d="M66,105.2l-5.7-11.41C58,89.4,56.5,86.13,54.72,82.48h-.19c-1.31,3.65-2.9,6.92-5,11.31L44.44,105.2H28.17L46.4,73.32,28.82,42.19H45.18L50.7,53.68c1.87,3.84,3.27,6.92,4.77,10.48h.18c1.5-4,2.72-6.83,4.31-10.48l5.32-11.49H81.55L63.79,72.94l18.7,32.26Z"/>
          </g>
        </g>
      </g>
    </g>
  </g>
</svg>
