<?xml version="1.0" encoding="utf-8"?>
<!-- Generator: Adobe Illustrator 23.0.1, SVG Export Plug-In . SVG Version: 6.00 Build 0)  -->
<svg version="1.1" id="Layer_1" xmlns="http://www.w3.org/2000/svg" xmlns:xlink="http://www.w3.org/1999/xlink" x="0px" y="0px"
	 viewBox="0 0 209 208.7" style="enable-background:new 0 0 209 208.7;" xml:space="preserve">
<style type="text/css">
	.st0{fill:#FFFFFF;}
</style>
<title>IconPar</title>
<g>
	<g id="Layer_1-2">
		<g>
			<path class="st0" d="M133.6,67.7c-0.8-1.1-2.1-1.7-3.5-1.6c-1.3-0.1-2.7,0.5-3.4,1.6c-1.5,3-1.5,6.5,0,9.4
				c0.8,1.1,2.1,1.7,3.4,1.6c1.4,0.1,2.7-0.5,3.4-1.6c0.8-1.4,1.2-3.1,1.1-4.7l0,0C134.8,70.8,134.4,69.1,133.6,67.7z"/>
			<path class="st0" d="M53.2,73.7c-1.1,1-1.4,2.5-0.7,3.8c0.2,0.3,0.4,0.5,0.7,0.7c1,0.6,2.2,0.8,3.4,0.6c1.1,0,2.1-0.2,3.2-0.4
				v-5.3c-1-0.2-2.1-0.2-3.2-0.2C55.4,72.7,54.1,73,53.2,73.7z"/>
			<path class="st0" d="M82.8,66c-1.3-0.1-2.6,0.6-3.3,1.7c-0.5,0.8-0.8,1.7-1,2.7h8.4c0-1-0.3-1.9-0.8-2.7
				C85.4,66.6,84.1,66,82.8,66z"/>
			<path class="st0" d="M161.9,25c-6.1,0-12.1,1.3-17.6,3.7c-9.4-17.3-31-23.7-48.3-14.3c-3.3,1.8-6.2,4-8.8,6.7l0,0
				C74,3.9,49.3,0.5,32,13.7c-9.8,7.5-15.6,19.1-15.6,31.4c0,5.4,1.1,10.8,3.2,15.7C3.4,70.4-2.1,91.4,7.5,107.7
				c6.1,10.4,17.1,16.8,29.2,16.9c2.3,0,4.7-0.2,7-0.7c7,18.9,28,28.6,46.9,21.5c9.4-3.5,17-10.7,20.9-19.9
				c4.3,2.2,9.1,3.3,13.9,3.3c11.6,0,22.3-6.3,27.9-16.4c2.8,0.6,5.7,0.9,8.6,0.9c24.4,0.4,44.5-19,44.9-43.4s-19-44.5-43.4-44.9
				C162.9,25,162.4,25,161.9,25L161.9,25z M46.2,76.2c0,3.6-2.6,5.8-6.8,5.8c-2.1,0.1-4.2-0.4-6.1-1.4c-0.4-0.2-0.7-0.5-1.1-0.7
				c-0.1-0.1-0.2-0.3-0.1-0.5l0.9-2.3V77c0.1-0.2,0.3-0.2,0.5-0.1c0,0,0,0,0,0c0.2,0.1,0.3,0.2,0.7,0.4c1.6,1,3.5,1.6,5.4,1.6
				c1.8,0,2.9-1,2.9-2.3v-0.1c0-1.4-1.7-1.9-3.7-2.5l-0.4-0.1c-2.7-0.7-5.7-1.9-5.7-5.4v-0.1c0-3.3,2.7-5.6,6.5-5.6h0.4
				c2.1,0,4.2,0.5,6,1.6c0.1,0.1,0.2,0.3,0.2,0.5c0,0.2-0.7,2-0.8,2.3v0.1c-0.1,0.2-0.4,0.2-0.5,0.1c0,0,0,0,0,0
				c-1.6-0.9-3.4-1.3-5.3-1.4c-1.6,0-2.7,0.9-2.7,2v0.1c0,1.4,1.8,1.9,3.8,2.6l0.3,0.1C43.2,71.7,46.2,72.8,46.2,76.2L46.2,76.2z
				 M63.3,80.8c-0.3,0.1-0.5,0.2-0.8,0.2c-0.4,0.1-1.9,0.4-3,0.6c-1.2,0.2-2.4,0.3-3.6,0.3c-1,0-2.1-0.1-3.1-0.4
				c-0.9-0.2-1.7-0.6-2.4-1.1c-0.6-0.5-1.2-1.1-1.5-1.8c-0.4-0.8-0.6-1.8-0.6-2.7c0-0.9,0.2-1.9,0.7-2.7c0.4-0.8,1-1.5,1.7-2
				c0.7-0.5,1.6-0.9,2.4-1.1c1-0.3,1.9-0.4,2.9-0.4c0.8,0,1.4,0.1,1.9,0.1l0,0l1.9,0.2v-0.4c0-1.6-0.3-2.4-1-2.8
				c-0.9-0.5-1.9-0.8-2.9-0.7c-1.8,0-3.5,0.5-5.1,1.2c0,0.1-0.1,0.1-0.2,0.1h-0.1c-0.1,0-0.3-0.1-0.3-0.2l-0.8-2.3
				c-0.1-0.2-0.1-0.4,0.1-0.5c1.1-0.7,2.4-1.1,3.6-1.4c1-0.2,2.1-0.3,3.2-0.3c1.9-0.1,3.9,0.5,5.4,1.6c1.4,1.4,2,3.3,1.9,5.2v10.8
				C63.5,80.5,63.4,80.7,63.3,80.8z M70.8,81.5h-3c-0.2,0-0.3-0.1-0.3-0.3V56.1c0-0.1,0.2-0.3,0.3-0.3h3c0.2,0,0.3,0.1,0.3,0.3v0
				v25.1h0.1C71.2,81.4,71.1,81.5,70.8,81.5C70.9,81.6,70.8,81.6,70.8,81.5L70.8,81.5z M90.3,73.1L90.3,73.1c0,0.2-0.2,0.3-0.3,0.3
				H78.2c-0.1,1.4,0.4,2.8,1.4,3.9c1.1,0.9,2.6,1.4,4.1,1.4c1.7,0.1,3.3-0.2,4.9-0.9h0.1c0.1,0,0.3,0,0.3,0.2c0,0,0,0,0,0l0.9,2.2
				c0.1,0.4,0,0.5-0.1,0.6c-1.8,0.9-3.9,1.3-5.9,1.1c-1.5,0.1-2.9-0.1-4.3-0.7c-1.1-0.5-2.1-1.1-2.9-2c-0.8-0.8-1.4-1.9-1.7-3
				c-0.4-1.2-0.6-2.5-0.6-3.7c0-1.3,0.1-2.5,0.5-3.7c0.3-1.1,0.9-2.2,1.6-3.1c0.7-0.9,1.7-1.6,2.7-2c1.2-0.5,2.6-0.8,3.9-0.7
				c1.2,0,2.3,0.2,3.4,0.6c0.9,0.4,1.6,1,2.2,1.7c0.7,0.8,1.2,1.7,1.5,2.7h-0.1C90.8,69.6,90.8,71.4,90.3,73.1z M94.3,80.6
				c-0.4-0.2-0.7-0.5-1.1-0.7C93,79.8,93,79.6,93,79.4l0.9-2.3V77c0.1-0.2,0.3-0.2,0.5-0.1c0,0,0,0,0,0c0.2,0.1,0.3,0.2,0.7,0.4
				c1.6,1,3.5,1.6,5.4,1.6c1.8,0,2.9-1,2.9-2.3v-0.1c0-1.4-1.7-1.9-3.7-2.5l-0.4-0.1c-2.7-0.7-5.7-1.9-5.7-5.4v-0.1
				c0-3.3,2.7-5.6,6.5-5.6h0.4c2.1,0,4.2,0.5,6,1.6c0.1,0.1,0.2,0.3,0.2,0.5c0,0.2-0.7,2-0.8,2.3v0.1c-0.1,0.2-0.4,0.2-0.5,0.1
				c0,0,0,0,0,0c-1.6-0.9-3.4-1.3-5.3-1.4c-1.6,0-2.7,0.9-2.7,2v0.1c0,1.4,1.8,1.9,3.8,2.6l0.3,0.1c2.7,0.9,5.7,2,5.7,5.4v0.1
				c0,3.6-2.6,5.8-6.8,5.8C98.2,82,96.1,81.6,94.3,80.6z M121,65.9c-0.1,0.2-0.2,0.3-0.4,0.3h-3.8l-2.7,15c-0.3,1.3-0.6,2.7-1.1,4
				c-0.3,1-0.9,1.8-1.5,2.6c-0.6,0.7-1.3,1.2-2.2,1.5c-0.9,0.3-1.9,0.5-2.9,0.5c-0.6,0-1.1-0.1-1.7-0.2c-0.4-0.1-0.7-0.2-1.1-0.3
				c-0.2-0.1-0.2-0.3-0.2-0.5c0.1-0.2,0.8-2.1,0.9-2.4c0.1-0.1,0.3-0.2,0.4-0.1c0.2,0.1,0.4,0.2,0.6,0.2c0.3,0,0.7,0.1,1,0.1
				c0.5,0,0.9,0,1.4-0.2c0.4-0.1,0.8-0.4,1.1-0.8c0.4-0.5,0.6-1.1,0.8-1.7c0.3-0.9,0.6-1.9,0.7-2.9l2.7-14.7h-2.7
				c-0.2,0-0.3-0.2-0.3-0.4c0,0,0,0,0,0l0.4-2.4c0-0.2,0.2-0.3,0.4-0.3h2.7l0.1-0.8c0.2-2,1.1-3.9,2.4-5.4c1.3-1.3,3.1-1.9,4.9-1.8
				c0.5,0,1.1,0.1,1.6,0.2l1.1,0.2l0,0c0.1,0.1,0.3,0.2,0.2,0.3l-0.9,2.6c-0.1,0.1-0.1,0.2-0.5,0.1c-0.2-0.1-0.4-0.1-0.5-0.1
				c-0.2,0-0.7-0.1-1-0.1c-0.5,0-0.9,0.1-1.4,0.2c-0.4,0.2-0.7,0.4-1,0.7c-0.4,0.3-0.7,0.7-0.8,1.2c-0.3,0.9-0.5,1.8-0.7,2.7h3.9
				c0.2,0,0.3,0.2,0.3,0.4L121,65.9z M138.3,76.1c-0.3,1.1-0.8,2.1-1.5,3c-0.7,0.9-1.7,1.6-2.7,2c-2.4,1-5.1,1-7.5,0
				c-1-0.5-2-1.2-2.7-2c-0.7-0.9-1.2-1.9-1.5-3c-0.7-2.4-0.7-5,0-7.5c0.3-1.1,0.8-2.1,1.5-3c0.8-0.9,1.7-1.6,2.7-2
				c2.4-1,5.1-1,7.5,0c1,0.5,2,1.2,2.7,2c0.7,0.9,1.2,1.9,1.5,3l0,0c0.3,1.2,0.5,2.5,0.5,3.7C138.8,73.7,138.6,74.9,138.3,76.1z
				 M152.8,63.8c-0.2,0.3-0.7,2-1,2.5c0,0.2-0.2,0.3-0.4,0.3c0,0,0,0,0,0c-0.4-0.1-0.9-0.2-1.4-0.1c-0.5,0-1,0.1-1.5,0.2
				c-0.6,0.2-1.1,0.5-1.5,0.9c-0.5,0.5-0.9,1.1-1.1,1.7c-0.3,1-0.4,2-0.4,3.1v8.8c0,0.2-0.1,0.3-0.3,0.3h-3.1
				c-0.2,0-0.3-0.1-0.3-0.3V63.6c0-0.2,0.2-0.3,0.3-0.3h3.2c0.2,0,0.3,0.1,0.3,0.3V65c0.5-0.6,1.2-1.1,2-1.5c0.9-0.4,2-0.6,3-0.5
				c0.7,0,1.3,0.1,2,0.3C152.7,63.5,152.8,63.6,152.8,63.8L152.8,63.8z M167.5,81c-1.6,0.6-3.3,0.9-5,0.9c-2.6,0.2-5.1-0.8-6.9-2.6
				c-1.6-1.9-2.4-4.4-2.3-6.9c0-1.3,0.2-2.5,0.6-3.7c0.4-1.1,1-2.1,1.7-3c0.8-0.9,1.7-1.6,2.8-2c1.2-0.5,2.6-0.7,3.9-0.7
				c0.9,0,1.8,0.1,2.6,0.2c0.8,0.1,1.6,0.3,2.3,0.6c0.2,0.1,0.3,0.2,0.2,0.4c0,0,0,0,0,0c-0.3,0.9-0.6,1.5-0.9,2.3
				c-0.1,0.2-0.2,0.3-0.4,0.2c-1.2-0.3-2.4-0.5-3.6-0.5c-1.5-0.1-3,0.5-3.9,1.7c-0.9,1.3-1.4,2.9-1.4,4.5c-0.2,1.7,0.4,3.4,1.5,4.8
				c1.1,1,2.5,1.5,4,1.5c0.6,0,1.2-0.1,1.9-0.2c0.6-0.1,1.1-0.3,1.6-0.5c0.2,0,0.4,0.1,0.4,0.2c0,0,0,0,0,0l0.9,2.4
				C167.7,80.8,167.6,81,167.5,81L167.5,81z M184.7,73.1L184.7,73.1c0,0.2-0.1,0.3-0.2,0.4c0,0-0.1,0-0.1,0h-11.8
				c-0.1,1.4,0.4,2.8,1.4,3.9c1.1,0.9,2.6,1.4,4.1,1.4c1.7,0.1,3.3-0.2,4.9-0.9h0.1c0.1,0,0.3,0,0.3,0.2l0.8,2.2
				c0.2,0.4,0.1,0.5-0.1,0.6c-1.9,0.9-3.9,1.3-5.9,1.1c-1.5,0.1-2.9-0.1-4.3-0.7c-1.1-0.5-2.2-1.1-3-2c-0.8-0.8-1.4-1.9-1.7-3
				c-0.4-1.2-0.6-2.5-0.6-3.7c0-1.3,0.1-2.5,0.5-3.7c0.3-1.1,0.9-2.2,1.6-3.1c0.7-0.9,1.7-1.6,2.7-2c1.2-0.5,2.6-0.8,3.9-0.7
				c1.2,0,2.3,0.2,3.4,0.6c0.9,0.4,1.7,1,2.4,1.7c0.7,0.8,1.2,1.7,1.5,2.7l0,0C185.1,69.6,185.2,71.4,184.7,73.1L184.7,73.1z"/>
			<path class="st0" d="M177.1,66c-1.3-0.1-2.6,0.6-3.3,1.7c-0.5,0.8-0.9,1.7-1,2.7h8.4c0-1-0.3-1.9-0.8-2.7
				C179.7,66.6,178.4,65.9,177.1,66z"/>
		</g>
		<path class="st0" d="M27.1,172.4c-0.3,0.3-0.7,0.6-1,0.9v-4.8h-4.3v37.6h4.3v-13.8c6.2,7.2,13.4,6.4,18,3.6
			c5.7-3.5,8.1-11.1,6.1-18.1C47.1,167.4,34.2,163.9,27.1,172.4z M35,193.8c-5.7,0-9.2-4.9-9.2-10.9c-0.2-5.9,4.4-10.9,10.3-11.2
			c5.7,0,10.1,4.7,10.1,11.1c-0.1,6.1-5.1,11-11.2,10.9L35,193.8L35,193.8z"/>
		<path class="st0" d="M180.9,159.7v8.6h9.1v3.9h-8.8c0,0.9-0.2,1.6-0.2,2.4c0,4.5,0.2,9,0,13.4c-0.3,5.3,2.4,6.4,7.3,5.4
			c0.4-0.1,0.8-0.2,1.2-0.4c1,3.3,0.4,4.3-2.9,4.7c-6.9,0.8-10.1-2.1-10.1-9v-16.4l-3.9-0.2v-3.7l3.9-0.2v-8.5L180.9,159.7z"/>
		<path class="st0" d="M91.5,197.2h-4.4v-28.7h4.3v6.6c3-4.5,6.3-7.4,11.7-7.2v4.4c-8.6,1.6-11.6,5.3-11.6,14.2
			C91.5,190,91.5,193.5,91.5,197.2z"/>
		<path class="st0" d="M129.8,156.6v16.7c-7.6-6.8-14.5-7.3-20.3-1.9s-6.3,15.1-1.4,21.4c2,2.5,4.8,4.3,8,4.9
			c5.5,1.1,9.8-1,13.7-5.8v5.3h4.2v-40.5L129.8,156.6L129.8,156.6z M119.4,193.9c-5.7-0.1-10.1-5.2-10-11.4
			c0.1-6.2,4.4-11,10.1-10.8c6,0.3,10.6,5.4,10.3,11.3c0,0,0,0,0,0C129.9,189.1,125,194.1,119.4,193.9L119.4,193.9z"/>
		<path class="st0" d="M79.6,177c-0.2-4.1-3.1-7.6-7.2-8.4c-5.2-1.3-10.7-0.7-15.4,1.8l1.2,3.6c5.1-1.9,7.8-2.3,11.1-1.9
			c3.6,0.3,6.3,3.6,6,7.2c0,0.4-0.1,0.7-0.2,1.1l-1.4-0.3c-4.9-0.9-9.7-1.4-14.3,0.7c-4.4,1.9-6.4,7-4.5,11.3
			c0.7,1.5,1.7,2.8,3.1,3.7c2.4,1.6,5.3,2.3,8.2,2c3.5-0.3,6.8-1.8,9.1-4.4l0.2,3.7h4.1c0-0.7,0.2-1.2,0.1-1.7
			C79.8,189.3,80,183.1,79.6,177z M71.3,193.1c-3.6,1.7-7.2,2-10.5-0.5c-2.2-1.8-2.5-5.1-0.7-7.3c0.3-0.4,0.7-0.8,1.2-1
			c4.1-1.9,8.7-2.2,13-0.8c0.7,0.3,1.2,1,1.4,1.8C76.1,188.6,74.3,191.8,71.3,193.1L71.3,193.1z"/>
		<path class="st0" d="M155.1,167.6c-8.4-0.2-15.4,6.5-15.5,14.9s6.5,15.4,14.9,15.5c8.4,0.2,15.4-6.5,15.5-14.9c0,0,0,0,0,0V183
			c0.2-8.3-6.5-15.2-14.8-15.4l0,0L155.1,167.6z M155.1,194c-6-0.1-10.7-5.1-10.6-11.1c0-0.1,0-0.2,0-0.3c0-6.4,4.5-11.1,10.6-11
			c6.2,0.4,10.9,5.7,10.5,11.9C165.2,189.2,160.7,193.7,155.1,194L155.1,194z"/>
	</g>
</g>
</svg>
