<svg xmlns="http://www.w3.org/2000/svg" width="155.43" height="155.43" viewBox="0 0 155.43 155.43">
  <defs>
    <style>
      .cls-1 {
        fill: #fff;
      }

      .cls-2 {
        fill: none;
        stroke: #fff;
        stroke-miterlimit: 10;
        stroke-width: 5.43px;
      }
    </style>
  </defs>
  <title>IconUXPIN</title>
  <g id="Layer_2" data-name="Layer 2">
    <g id="Layer_1-2" data-name="Layer 1">
      <g>
        <path class="cls-1" d="M33.71,60.61V86c0,1.09,0,2.18.09,3.18a10.77,10.77,0,0,0,.55,2.62,3.93,3.93,0,0,0,1.54,1.72,5,5,0,0,0,2.9.64c2,0,3.44-.64,4.16-1.81a12.25,12.25,0,0,0,1.18-6.07V60.61h4V86A21.55,21.55,0,0,1,48,88.24a24.65,24.65,0,0,1-.28,2.54,13.75,13.75,0,0,1-.81,2.53,6.31,6.31,0,0,1-1.63,2.18A7.68,7.68,0,0,1,42.68,97a12.29,12.29,0,0,1-4,.63,10.52,10.52,0,0,1-5.26-1.09,6.48,6.48,0,0,1-2.71-2.71,9.71,9.71,0,0,1-1-3.72c-.09-1.36-.18-2.72-.18-4.07V60.7h4.16Z"/>
        <path class="cls-1" d="M51.83,60.61h4.44l4.89,13,5.07-13h4.08L63.15,77.28l8.06,19.56H66.5l-5.79-15-5.8,15.12H50.83L58.8,78Z"/>
        <path class="cls-1" d="M74.75,60.61h7.06a18.83,18.83,0,0,1,4.89.55,7.07,7.07,0,0,1,3.44,2.35A11.55,11.55,0,0,1,91,64.69a13.74,13.74,0,0,1,.81,1.63,7.34,7.34,0,0,1,.55,2.17,14.35,14.35,0,0,1,.18,2.9A14.9,14.9,0,0,1,92,75.47a9.54,9.54,0,0,1-1.73,3.44,8.83,8.83,0,0,1-3.08,2.35,11.7,11.7,0,0,1-4.71.82H78.91V96.84H74.75Zm4.16,18h3.44a10,10,0,0,0,2.36-.27,4.82,4.82,0,0,0,1.9-1,5.14,5.14,0,0,0,1.27-2.17,13.26,13.26,0,0,0,.45-3.63,10.61,10.61,0,0,0-.72-4.25,5.54,5.54,0,0,0-1.72-2.18,4.62,4.62,0,0,0-2.09-.81A13.39,13.39,0,0,0,82,64.24H78.82v14.4Z"/>
        <path class="cls-1" d="M99.74,60.61v4.62H95.67V60.61ZM95.85,70h3.71V96.84H95.85Z"/>
        <path class="cls-1" d="M103.82,70h3.44v4.08a9.24,9.24,0,0,1,.55-1.27,6,6,0,0,1,1.08-1.54,6.76,6.76,0,0,1,1.72-1.36,5.57,5.57,0,0,1,2.54-.54,6.12,6.12,0,0,1,3,.72,5,5,0,0,1,1.9,2,7.89,7.89,0,0,1,.82,3.35c.09,1.36.09,2.81.09,4.35v17h-3.63V79.91a24.82,24.82,0,0,0-.09-2.54,9.05,9.05,0,0,0-.36-2.26,3.67,3.67,0,0,0-1-1.63,2.51,2.51,0,0,0-1.9-.64,3,3,0,0,0-2.35.91,6.4,6.4,0,0,0-1.27,2.17,14.12,14.12,0,0,0-.54,2.81c-.09,1-.09,1.9-.09,2.63V96.84H104V70Z"/>
      </g>
      <rect class="cls-2" x="2.72" y="2.72" width="150" height="150"/>
    </g>
  </g>
</svg>
