<svg xmlns="http://www.w3.org/2000/svg" width="150" height="150" viewBox="0 0 150 150">
  <defs>
    <style>
      .cls-1, .cls-2 {
        fill: #fff;
      }

      .cls-2 {
        fill-rule: evenodd;
      }
    </style>
  </defs>
  <title>IconID</title>
  <g id="Layer_2" data-name="Layer 2">
    <g id="Layer_1-2" data-name="Layer 1">
      <path class="cls-1" d="M0,0V150H150V0ZM138.07,138.12H12.24V12.21H138.07Z"/>
      <path class="cls-2" d="M53.51,110.13c0,.65-.11.87-.88.87H42.44c-.66,0-.88-.33-.88-.87V38.86c0-.66.33-.88.88-.88h10.3c.55,0,.77.22.77.77ZM65.25,84.42c0-15.89,10.48-28.26,27.24-28.26,1.43,0,2.19,0,3.51.11V38.64a.63.63,0,0,1,.65-.66h10.8c.55,0,.66.22.66.55v62.1a50,50,0,0,0,.33,6.68c0,.44-.14.55-.58.77A40.22,40.22,0,0,1,90.45,112c-14.68,0-25.2-9.09-25.2-27.6ZM96,67a9.84,9.84,0,0,0-4-.66c-8.54,0-14.53,6.58-14.53,17.53,0,12.49,6.1,17.53,13.77,17.53a12.87,12.87,0,0,0,4.71-.77V67Z"/>
    </g>
  </g>
</svg>
